<svg xmlns="http://www.w3.org/2000/svg" viewBox="0 0 218.55 621.94"><defs><style>.cls-1,.cls-10,.cls-11,.cls-12,.cls-13,.cls-14,.cls-15,.cls-16,.cls-17,.cls-18,.cls-19,.cls-2,.cls-20,.cls-21,.cls-22,.cls-23,.cls-24,.cls-25,.cls-26,.cls-27,.cls-28,.cls-29,.cls-3,.cls-30,.cls-31,.cls-32,.cls-33,.cls-34,.cls-35,.cls-36,.cls-37,.cls-38,.cls-39,.cls-4,.cls-40,.cls-41,.cls-42,.cls-43,.cls-44,.cls-45,.cls-46,.cls-47,.cls-48,.cls-49,.cls-5,.cls-50,.cls-51,.cls-52,.cls-53,.cls-54,.cls-55,.cls-56,.cls-57,.cls-58,.cls-59,.cls-6,.cls-60,.cls-61,.cls-62,.cls-63,.cls-64,.cls-65,.cls-66,.cls-67,.cls-68,.cls-69,.cls-7,.cls-70,.cls-71,.cls-72,.cls-73,.cls-74,.cls-75,.cls-76,.cls-77,.cls-78,.cls-79,.cls-8,.cls-80,.cls-81,.cls-82,.cls-83,.cls-84,.cls-85,.cls-86,.cls-9{fill:none;stroke-miterlimit:10;}.cls-1{stroke:#f5ff3f;}.cls-1,.cls-10,.cls-11,.cls-12,.cls-13,.cls-14,.cls-15,.cls-16,.cls-17,.cls-18,.cls-19,.cls-2,.cls-20,.cls-21,.cls-22,.cls-23,.cls-24,.cls-25,.cls-26,.cls-27,.cls-28,.cls-29,.cls-3,.cls-30,.cls-31,.cls-32,.cls-33,.cls-34,.cls-35,.cls-36,.cls-37,.cls-38,.cls-39,.cls-4,.cls-40,.cls-41,.cls-42,.cls-43,.cls-44,.cls-45,.cls-46,.cls-47,.cls-48,.cls-49,.cls-5,.cls-50,.cls-51,.cls-52,.cls-53,.cls-54,.cls-55,.cls-56,.cls-57,.cls-58,.cls-59,.cls-6,.cls-60,.cls-61,.cls-62,.cls-63,.cls-64,.cls-65,.cls-66,.cls-67,.cls-68,.cls-69,.cls-7,.cls-70,.cls-71,.cls-72,.cls-73,.cls-74,.cls-75,.cls-76,.cls-77,.cls-78,.cls-79,.cls-80,.cls-81,.cls-82,.cls-83,.cls-84,.cls-85,.cls-86,.cls-9{stroke-width:3px;}.cls-2{stroke:#f5fe3e;}.cls-3{stroke:#f5fd3e;}.cls-4{stroke:#f5fc3d;}.cls-5{stroke:#f5fb3c;}.cls-6{stroke:#f6fa3b;}.cls-7{stroke:#f6f93b;}.cls-8{stroke:#f6f83a;stroke-width:3px;}.cls-9{stroke:#f6f739;}.cls-10{stroke:#f6f638;}.cls-11{stroke:#f6f538;}.cls-12{stroke:#f6f437;}.cls-13{stroke:#f6f336;}.cls-14{stroke:#f7f235;}.cls-15{stroke:#f7f135;}.cls-16{stroke:#f7f034;}.cls-17{stroke:#f7ef33;}.cls-18{stroke:#f7ee32;}.cls-19{stroke:#f7ed32;}.cls-20{stroke:#f7ec31;}.cls-21{stroke:#f7eb30;}.cls-22{stroke:#f7ea2f;}.cls-23{stroke:#f8e92f;}.cls-24{stroke:#f8e82e;}.cls-25{stroke:#f8e72d;}.cls-26{stroke:#f8e62c;}.cls-27{stroke:#f8e52c;}.cls-28{stroke:#f8e42b;}.cls-29{stroke:#f8e32a;}.cls-30{stroke:#f8e22a;}.cls-31{stroke:#f9e129;}.cls-32{stroke:#f9e028;}.cls-33{stroke:#f9df27;}.cls-34{stroke:#f9de27;}.cls-35{stroke:#f9dd26;}.cls-36{stroke:#f9dc25;}.cls-37{stroke:#f9db24;}.cls-38{stroke:#f9da24;}.cls-39{stroke:#f9d923;}.cls-40{stroke:#fad822;}.cls-41{stroke:#fad721;}.cls-42{stroke:#fad621;}.cls-43{stroke:#fad520;}.cls-44{stroke:#fad51f;}.cls-45{stroke:#fad41e;}.cls-46{stroke:#fad31e;}.cls-47{stroke:#fad21d;}.cls-48{stroke:#fbd11c;}.cls-49{stroke:#fbd01b;}.cls-50{stroke:#fbcf1b;}.cls-51{stroke:#fbce1a;}.cls-52{stroke:#fbcd19;}.cls-53{stroke:#fbcc18;}.cls-54{stroke:#fbcb18;}.cls-55{stroke:#fbca17;}.cls-56{stroke:#fbc916;}.cls-57{stroke:#fcc815;}.cls-58{stroke:#fcc715;}.cls-59{stroke:#fcc614;}.cls-60{stroke:#fcc513;}.cls-61{stroke:#fcc413;}.cls-62{stroke:#fcc312;}.cls-63{stroke:#fcc211;}.cls-64{stroke:#fcc110;}.cls-65{stroke:#fdc010;}.cls-66{stroke:#fdbf0f;}.cls-67{stroke:#fdbe0e;}.cls-68{stroke:#fdbd0d;}.cls-69{stroke:#fdbc0d;}.cls-70{stroke:#fdbb0c;}.cls-71{stroke:#fdba0b;}.cls-72{stroke:#fdb90a;}.cls-73{stroke:#fdb80a;}.cls-74{stroke:#feb709;}.cls-75{stroke:#feb608;}.cls-76{stroke:#feb507;}.cls-77{stroke:#feb407;}.cls-78{stroke:#feb306;}.cls-79{stroke:#feb205;}.cls-80{stroke:#feb104;}.cls-81{stroke:#feb004;}.cls-82{stroke:#ffaf03;}.cls-83{stroke:#ffae02;}.cls-84{stroke:#ffad01;}.cls-85{stroke:#ffac01;}.cls-86{stroke:#ffab00;}</style></defs><g id="圖層_2" data-name="圖層 2"><g id="圖層_1-2" data-name="圖層 1"><path class="cls-1" d="M166.9,22.48c54.95,41.1,53.33,109,20.16,164.06-19.84,32.91-61.73,68.07-102.55,51.89-40.42-16-83.37-74.77-83-118.22.28-33.45,24.73-70.94,47.78-93.64C85.4-9,132.39-3.32,166.9,22.48Z"/><path class="cls-2" d="M84.31,240.21C44.76,224.06,2.68,166,3.66,123.33c.75-32.57,25.07-68.81,47.45-90.6C86.58-2,132.52,4,166.14,29.3,220,69.73,217.87,136.17,185.09,190,165.49,222.16,124.34,256.56,84.31,240.21Z"/><path class="cls-3" d="M84.11,242C45.42,225.68,4.22,168.24,5.83,126.43,7.05,94.73,31.31,59.82,53,38.86,87.89,5,132.66,11.27,165.39,36.09c52.72,39.75,50.12,104.7,17.74,157.41C163.76,224.85,123.35,258.49,84.11,242Z"/><path class="cls-4" d="M83.92,243.74C46.09,227.31,5.75,170.52,8,129.54,9.69,98.7,33.86,65.09,54.8,45c34.35-33,78-26.44,109.85-2.11C216.24,82,213.16,145.43,181.17,197,162,227.55,122.37,260.43,83.92,243.74Z"/><path class="cls-5" d="M83.73,245.49c-37-16.57-76.45-72.71-73.56-112.86,2.16-30,26.24-62.29,46.47-81.51,33.77-32.07,76.23-25.2,107.26-1.45,50.37,38.55,47,100.46,15.31,150.77C160.39,230.28,121.38,262.35,83.73,245.49Z"/><path class="cls-6" d="M83.55,247.25C47.42,230.54,8.81,175,12.35,135.74,15,106.59,39,75.61,58.5,57.26c33.19-31.19,74.51-24,104.67-.8,49.21,37.91,45.46,98.33,14.09,147.45C158.7,233,120.4,264.28,83.55,247.25Z"/><path class="cls-7" d="M83.38,249c-35.28-16.84-73-71.73-68.84-110.16,3.09-28.32,27-58,45.82-75.45C93,33.1,133.15,40.54,162.44,63.25c48.06,37.28,43.89,96.19,12.88,144.13C157,235.69,119.42,266.21,83.38,249Z"/><path class="cls-8" d="M83.21,250.76c-34.43-17-71.34-71.25-66.48-108.83,3.55-27.49,27.38-55.79,45.5-72.41,32-29.39,71.07-21.68,99.49.52,46.91,36.64,42.31,94.05,11.67,140.81C155.34,238.39,118.45,268.14,83.21,250.76Z"/><path class="cls-9" d="M83.05,252.51C49.46,235.39,13.41,181.73,18.93,145c4-26.68,27.76-53.62,45.18-69.39,31.47-28.47,69.34-20.5,96.89,1.19,45.76,36,40.74,91.91,10.46,137.48C153.67,241.09,117.48,270.06,83.05,252.51Z"/><path class="cls-10" d="M82.9,254.26c-32.76-17.26-68-70.33-61.76-106.14C25.62,122.25,49.27,96.67,66,81.77c30.91-27.55,67.62-19.33,94.31,1.84,44.6,35.38,39.16,89.78,9.24,134.17C152,243.78,116.52,272,82.9,254.26Z"/><path class="cls-11" d="M82.76,256c-31.93-17.41-66.28-69.89-59.41-104.8,4.94-25.09,28.51-49.27,44.53-63.32,30.35-26.62,65.9-18.15,91.72,2.5,43.44,34.75,37.59,87.64,8,130.84C150.35,246.48,115.56,273.9,82.76,256Z"/><path class="cls-12" d="M82.62,257.75C51.53,240.2,18,188.29,25.58,154.3,31,130,54.46,107.2,69.78,94,99.58,68.33,134,77,158.9,97.17c42.29,34.12,36,85.5,6.82,127.52C148.7,249.17,114.61,275.81,82.62,257.75Z"/><path class="cls-13" d="M82.49,259.49c-30.27-17.7-62.92-69-54.68-102.11,5.86-23.55,29.26-44.91,43.87-57.26,29.27-24.72,62.45-15.8,86.54,3.82,41.13,33.49,34.45,83.38,5.6,124.2C147.06,251.86,113.65,277.72,82.49,259.49Z"/><path class="cls-14" d="M82.36,261.23C52.92,243.38,21.12,192.58,30,160.46c6.34-22.81,29.64-42.73,43.56-54.23,28.73-23.75,60.71-14.62,83.94,4.48,40,32.86,32.88,81.24,4.39,120.88C145.42,254.55,112.71,279.62,82.36,261.23Z"/><path class="cls-15" d="M82.25,263c-28.63-18-59.56-68.27-50-99.42,6.8-22.09,30-40.54,43.23-51.2,28.22-22.76,59-13.45,81.35,5.13,38.8,32.24,31.31,79.12,3.17,117.57C143.8,257.23,111.76,281.52,82.25,263Z"/><path class="cls-16" d="M82.14,264.69c-27.81-18.16-57.88-67.91-47.6-98.08,7.28-21.39,30.39-38.35,42.9-48.17,27.72-21.74,57.27-12.27,78.77,5.79,37.63,31.62,29.74,77,1.95,114.24C142.18,259.91,110.82,283.41,82.14,264.69Z"/><path class="cls-17" d="M82,266.41C55,248.1,25.85,198.85,36.8,169.67c7.76-20.7,30.76-36.15,42.58-45.13,27.22-20.7,55.53-11.1,76.17,6.45,36.47,31,28.18,74.86.74,110.92C140.56,262.58,109.89,285.29,82,266.41Z"/><path class="cls-18" d="M81.94,268.12c-26.2-18.47-54.49-67.24-42.88-95.4,8.26-20,31.12-33.93,42.26-42.1,26.74-19.62,53.8-9.91,73.58,7.11,35.29,30.38,26.61,72.74-.47,107.6C139,265.24,109,287.16,81.94,268.12Z"/><path class="cls-19" d="M81.85,269.82c-25.4-18.64-52.78-66.92-40.52-94,8.76-19.38,31.48-31.72,41.93-39.07,26.29-18.5,52.07-8.74,71,7.77,34.12,29.76,25.05,70.62-1.68,104.27C137.36,267.9,108,289,81.85,269.82Z"/><path class="cls-20" d="M80.92,271.51c-24.6-18.8-46.15-64.74-38.16-92.71,12.5-16.78,31.84-29.5,41.61-36,25.86-17.31,50.34-7.56,68.4,8.43,32.94,29.15,23.48,68.5-2.9,101C134.92,270.55,106.24,290.86,80.92,271.51Z"/><path class="cls-21" d="M80.77,273.19C57,254.21,36.58,209,45,181.82c13.14-15.91,32.18-27.26,41.28-33,25.45-16.06,48.6-6.38,65.81,9.09,31.76,28.53,21.91,66.39-4.11,97.63C133.25,273.18,105.24,292.68,80.77,273.19Z"/><path class="cls-22" d="M80.62,274.84c-23-19.15-42.23-63.68-33.44-90,13.79-15,32.5-25,41-30,25.07-14.72,46.86-5.2,63.22,9.75,30.56,27.93,20.35,64.27-5.33,94.31C131.59,275.8,104.24,294.48,80.62,274.84Z"/><path class="cls-23" d="M80.48,277.5C58.23,258.16,40.2,214.34,49.4,188.81,63.83,174.66,81.54,164.46,90,161.87c21.64-17.86,45.13-4,60.63,10.4,29.37,27.33,18.79,62.17-6.53,91C129.94,279.41,103.24,297.27,80.48,277.5Z"/><path class="cls-24" d="M80.35,279.28C58.88,259.75,42,216.65,51.63,191.94,66.7,178.66,84.1,169.7,91.94,168c21-17.05,43.38-2.85,58,11.06,28.17,26.72,17.22,60.06-7.75,87.67C128.3,282.16,102.25,299.19,80.35,279.28Z"/><path class="cls-25" d="M80.23,281.06c-20.71-19.72-36.36-62.1-26.36-86,15.71-12.4,32.81-20.12,40-20.88,20.32-16.24,41.64-1.66,55.45,11.72,27,26.13,15.65,58-9,84.35C126.67,284.91,101.26,301.09,80.23,281.06Z"/><path class="cls-26" d="M80.12,282.84c-19.94-19.92-34.41-61.57-24-84.65,16.36-11.52,33.14-18,39.65-17.85,19.66-15.44,39.89-.49,52.86,12.38,25.74,25.53,14.09,55.86-10.18,81C125,287.66,100.28,303,80.12,282.84Z"/><path class="cls-27" d="M80,284.62c-19.18-20.13-32.45-61-21.64-83.31,17-10.64,33.48-15.88,39.33-14.81,19-14.63,38.14.69,50.27,13,24.51,24.94,12.53,53.77-11.39,77.71C123.43,290.41,99.32,304.89,80,284.62Z"/><path class="cls-28" d="M79.93,286.41c-18.42-20.35-30.48-60.51-19.28-82,17.65-9.76,33.82-13.77,39-11.78,18.34-13.83,36.39,1.87,47.68,13.69,23.27,24.37,11,51.69-12.61,74.39C121.83,293.17,98.36,306.78,79.93,286.41Z"/><path class="cls-29" d="M79.86,288.2c-17.66-20.58-28.52-60-16.92-80.63,18.29-8.89,34.16-11.65,38.69-8.75,17.68-13,34.62,3,45.09,14.35,22,23.8,9.39,49.61-13.82,71.07C120.24,295.94,97.42,308.66,79.86,288.2Z"/><path class="cls-30" d="M79.81,290C62.9,269.17,53.24,230.53,65.25,210.7c18.94-8,34.49-9.53,38.36-5.72,17-12.21,32.86,4.22,42.5,15,20.74,23.22,7.83,47.53-15,67.74C118.67,298.71,96.5,310.53,79.81,290Z"/><path class="cls-31" d="M79.78,291.77c-16.17-21.06-24.61-58.93-12.2-77.94,19.58-7.13,34.83-7.41,38-2.68,16.37-11.41,31.09,5.39,39.91,15.67,19.45,22.66,6.26,45.47-16.25,64.42C117.12,301.48,95.6,312.39,79.78,291.77Z"/><path class="cls-32" d="M79.77,294.21c-15.42-21.32-22.65-58.4-9.84-76.59,20.22-6.26,35.17-5.3,37.71.34,15.71-10.6,29.31,6.56,37.32,16.33,18.13,22.12,4.69,43.41-17.46,61.11C115.59,304.91,94.72,314.9,79.77,294.21Z"/><path class="cls-33" d="M79.78,297.11c-14.66-21.59-20.69-57.88-7.47-75.26,20.86-5.38,35.5-3.18,37.38,3.38,15-9.8,27.52,7.72,34.73,17,16.78,21.58,3.11,41.37-18.68,57.79C114.08,308.79,93.87,317.84,79.78,297.11Z"/><path class="cls-34" d="M79.83,300.11c-13.92-21.87-18.74-57.35-5.12-73.91,21.51-4.5,35.84-1.07,37.06,6.41,14.39-9,25.72,8.87,32.14,17.64,15.4,21,1.53,39.32-19.89,54.47C112.59,312.8,93.05,320.89,79.83,300.11Z"/><path class="cls-35" d="M79.9,303.22c-13.17-22.16-16.78-56.82-2.76-72.57,22.15-3.63,36.18,1,36.73,9.43,13.74-8.18,23.91,10,29.55,18.31,14,20.51-.06,37.29-21.1,51.14C111.12,316.9,92.27,324,79.9,303.22Z"/><path class="cls-36" d="M80,306.4c-12.42-22.46-14.81-56.29-.39-71.22,22.79-2.75,36.51,3.17,36.4,12.47,13.08-7.38,22.08,11.15,27,19,12.49,20-1.66,35.27-22.32,47.82C109.68,321.1,91.52,327.24,80,306.4Z"/><path class="cls-37" d="M79.38,309.66c-11.67-22.77-12.86-55.76,2-69.89,23.44-1.87,36.85,5.29,36.08,15.51,12.42-6.58,21.77,11.59,24.37,19.62,14.57,16.91-3.27,33.25-23.53,44.5C107.51,325.37,90.05,330.5,79.38,309.66Z"/><path class="cls-38" d="M79.46,313c-10.9-23.09-10.9-55.23,4.33-68.54,24.08-1,37.18,7.41,35.75,18.54,11.77-5.77,20.06,12.75,21.78,20.28,13.45,16.24-4.89,31.24-24.74,41.18C106,329.69,89.3,333.8,79.46,313Z"/><path class="cls-39" d="M79.58,316.3c-10.14-23.43-8.94-54.7,6.68-67.2,24.72-.11,37.52,9.52,35.43,21.57,11.11-5,18.36,13.9,19.19,20.94,12.32,15.57-6.53,29.24-26,37.86C104.57,334.06,88.59,337.13,79.58,316.3Z"/><path class="cls-40" d="M79.72,319.64c-9.36-23.77-7-54.18,9-65.86,25.37.76,37.86,11.64,35.11,24.6,10.44-4.16,16.65,15.06,16.6,21.6,11.2,14.9-8.2,27.25-27.17,34.54C103.13,338.43,87.91,340.45,79.72,319.64Z"/><path class="cls-41" d="M79.88,322.93c-8.56-24.13-5-53.65,11.41-64.51,26,1.63,38.19,13.75,34.78,27.63,9.79-3.35,15,16.2,14,22.25,10.08,14.23-9.89,25.26-28.39,31.22C101.69,342.75,87.27,343.71,79.88,322.93Z"/><path class="cls-42" d="M80.08,326.17C72.3,301.68,77,273.05,93.84,263c26.65,2.51,38.53,15.87,34.46,30.66,9.13-2.55,13.24,17.36,11.42,22.91,8.95,13.56-11.61,23.25-29.6,27.9C100.26,347,86.66,346.91,80.08,326.17Z"/><path class="cls-43" d="M80.31,329.64c-7-24.86-1.11-52.6,16.13-61.83,27.29,3.39,38.86,18,34.13,33.69,8.47-1.74,11.54,18.52,8.83,23.58,7.83,12.88-14.21,18.21-30.82,24.57C98.68,349.78,86.11,350.34,80.31,329.64Z"/><path class="cls-44" d="M80.28,332.57c-6.14-25.23.85-52.07,18.49-60.48,27.94,4.26,39.2,20.1,33.81,36.72,7.81-.93,9.83,19.67,6.23,24.23,6.71,12.21-15.82,16.06-32,21.26C97.12,353.64,85.31,353.22,80.28,332.57Z"/><path class="cls-45" d="M79.85,335.49c-5.3-25.61,2.81-51.54,20.85-59.14,28.58,5.14,39.53,22.22,33.48,39.75,7.15-.12,8.13,20.82,3.64,24.9,5.59,11.53-17.42,13.88-33.24,17.93C95.16,357.49,84.11,356.09,79.85,335.49Z"/><path class="cls-46" d="M79.35,338.41c-4.45-26,4.77-51,23.21-57.8,29.22,6,39.87,24.34,33.15,42.79,6.5.68,6.43,22,1.06,25.55,4.47,10.86-19,11.72-34.45,14.61C93.13,361.34,82.86,359,79.35,338.41Z"/><path class="cls-47" d="M78.79,341.33c-3.58-26.38,6.73-50.48,25.57-56.46,29.87,6.9,40.21,26.46,32.83,45.82,5.84,1.49,4.72,23.12-1.53,26.21C139,367.09,115,366.46,100,368.19,91,365.19,81.57,361.82,78.79,341.33Z"/><path class="cls-48" d="M78.18,344.25c-2.69-26.77,8.69-50,27.93-55.12,30.51,7.78,40.54,28.58,32.51,48.85,5.17,2.29,3,24.28-4.13,26.87,2.22,9.52-22.25,7.4-36.88,8C88.89,369,80.23,364.68,78.18,344.25Z"/><path class="cls-49" d="M77,346.55c-1.79-27.15,10.64-49.42,30.28-53.77,31.16,8.65,40.89,30.7,32.19,51.89,4.51,3.09,1.31,25.42-6.72,27.52,1.1,8.85-23.86,5.24-38.09,4.65C86.22,372.28,78.38,366.93,77,346.55Z"/><path class="cls-50" d="M75.83,348.5C75,321,88.43,299.6,108.48,296.07c31.8,9.53,41.22,32.81,31.86,54.91,3.86,3.9-.39,26.58-9.31,28.19,0,8.17-25.47,3.07-39.31,1.33C83.48,375.16,76.47,368.82,75.83,348.5Z"/><path class="cls-51" d="M74.66,350.28c.07-27.91,14.56-48.38,35-51.09,32.44,10.41,41.56,34.93,31.53,57.95,3.2,4.7-2.09,27.73-11.89,28.84-1.15,7.5-27.08.91-40.53-2C80.78,377.87,74.61,370.55,74.66,350.28Z"/><path class="cls-52" d="M73.54,351.94c1-28.28,16.52-47.84,37.37-49.74,33.08,11.28,41.89,37.05,31.2,61,2.55,5.51-3.79,28.88-14.48,29.5-2.27,6.83-28.68-1.25-41.74-5.31C78.12,380.47,72.81,372.18,73.54,351.94Z"/><path class="cls-53" d="M72.47,353.53c2-28.65,18.48-47.32,39.73-48.4,33.73,12.16,42.23,39.16,30.88,64,1.89,6.31-5.5,30-17.07,30.16-3.39,6.16-30.3-3.41-42.95-8.64C75.52,383,71.07,373.72,72.47,353.53Z"/><path class="cls-54" d="M71.46,355c3-29,20.44-46.78,42.09-47.05,34.37,13,42.57,41.28,30.56,67,1.23,7.12-7.21,31.19-19.67,30.82-4.51,5.48-31.9-5.58-44.16-12C73,385.43,69.39,375.21,71.46,355Z"/><path class="cls-55" d="M70.52,356.51c4-29.34,22.39-46.26,44.45-45.71,35,13.91,42.9,43.4,30.23,70.07.57,7.93-8.91,32.34-22.25,31.48-5.64,4.82-33.51-7.74-45.38-15.28C70.51,387.83,67.79,376.65,70.52,356.51Z"/><path class="cls-56" d="M69.63,358.28c5-29.67,24.89-49.43,46.81-44.37,37.61,8.69,43.24,45.52,29.91,73.11-.09,8.73-10.61,33.49-24.85,32.13-6.75,4.15-36.67-8.15-46.59-18.59C66.56,391.77,66.25,378.41,69.63,358.28Z"/><path class="cls-57" d="M68.85,359.8c6-30,26.93-48.73,49.17-43,38.3,9.83,43.58,47.63,29.59,76.14-.75,9.54-12.32,34.64-27.44,32.79-7.87,3.48-38.3-10.53-47.8-21.91C64.26,394.07,64.83,379.92,68.85,359.8Z"/><path class="cls-58" d="M69.24,361.3c7-30.31,29-48,51.53-41.69,39,11,38.93,47.76,29.26,79.17-3.07,10-14,35.8-30,33.45C111,435,80.1,419.34,71,407,63.14,396.36,64.58,381.41,69.24,361.3Z"/><path class="cls-59" d="M68.45,362.76c8.06-30.61,31-47.35,53.89-40.34,39.62,12.11,39.79,50,28.93,82.2-3.62,10.75-15.72,36.95-32.61,34.11-10.12,2.13-41.49-15.23-50.24-28.56C60.86,398.64,63.14,382.89,68.45,362.76Z"/><path class="cls-60" d="M67.71,364.29c9.11-30.9,33-46.66,56.25-39,40.26,13.25,40.59,52.24,28.61,85.23-4.18,11.53-17.12,35.28-35.2,34.77C106,445,74.31,427.74,65.92,413.41,58.64,401,61.77,384.43,67.71,364.29Z"/><path class="cls-61" d="M67,365.71c10.17-31.17,35-46,58.62-37.66,40.88,14.39,41.31,54.48,28.28,88.27-4.75,12.32-18.79,36.75-37.8,35.43-12.36-.86-44.62-19.85-52.66-35.21C56.49,403.23,60.45,385.88,67,365.71Z"/><path class="cls-62" d="M66.38,367.13c11.22-31.43,37-45.29,61-36.31,41.51,15.53,42,56.71,28,91.29-5.33,13.13-20.48,38.18-40.39,36.09-13.41-1.4-46.17-22.13-53.87-38.52C54.38,405.5,59.17,387.34,66.38,367.13Z"/><path class="cls-63" d="M65.77,368.57c12.28-31.69,38.93-44.62,63.33-35,42.11,16.65,42.64,58.93,27.63,94.32-5.9,13.93-22.17,39.57-43,36.75-14.49-2-47.72-24.41-55.09-41.84C52.31,407.79,57.92,388.82,65.77,368.57Z"/><path class="cls-64" d="M65.19,370c13.34-31.93,40.9-43.94,65.69-33.63,42.72,17.78,43.25,61.15,27.31,97.36-6.48,14.73-23.88,40.93-45.57,37.4-15.57-2.53-49.25-26.66-56.3-45.16C50.27,410.09,56.71,390.31,65.19,370Z"/><path class="cls-65" d="M64.64,371.46c14.4-32.16,42.86-43.27,68.05-32.28,43.31,18.89,43.83,63.36,27,100.39-7.08,15.55-25.6,42.26-48.16,38.06-16.67-3.1-50.79-28.9-57.52-48.48C48.26,412.42,55.52,391.82,64.64,371.46Z"/><path class="cls-66" d="M64.11,372.93c15.47-32.38,44.82-42.61,70.41-30.94,43.9,20,44.39,65.56,26.67,103.42-7.67,16.36-27.31,43.57-50.75,38.72C92.66,480.45,58.11,453,51.71,432.32,46.27,414.77,54.36,393.35,64.11,372.93Z"/><path class="cls-67" d="M63.61,374.41c16.53-32.6,46.76-42,72.77-29.6,44.47,21.1,44.92,67.76,26.34,106.45-8.26,17.19-29,44.87-53.34,39.38-18.9-4.27-53.87-33.36-59.95-55.13C44.3,417.13,53.21,394.9,63.61,374.41Z"/><path class="cls-68" d="M63.12,375.9c17.59-32.8,48.71-41.29,75.13-28.26,45.05,22.2,45.44,70,26,109.48-8.86,18-30.75,46.16-55.93,40-20-4.86-55.41-35.57-61.16-58.44C42.35,419.52,52.08,396.47,63.12,375.9Z"/><path class="cls-69" d="M62.65,377.4c18.65-33,50.64-40.63,77.49-26.92,45.62,23.3,45.94,72.16,25.69,112.52-9.45,18.83-32.47,47.42-58.52,40.7-21.13-5.46-56.95-37.78-62.37-61.77C40.42,421.92,51,398.06,62.65,377.4Z"/><path class="cls-70" d="M62.2,378.91c19.7-33.17,52.57-40,79.85-25.57,46.18,24.39,46.43,74.34,25.36,115.55-10,19.66-34.19,48.68-61.11,41.36-22.26-6.06-58.49-40-63.58-65.09C38.49,424.34,49.87,399.67,62.2,378.91Z"/><path class="cls-71" d="M61.75,380.44c20.76-33.36,54.51-39.32,82.22-24.23,46.74,25.47,46.9,76.53,25,118.58-10.65,20.48-35.91,49.93-63.7,42-23.39-6.66-60-42.18-64.8-68.41C36.57,426.77,48.78,401.29,61.75,380.44Z"/><path class="cls-72" d="M61.32,382c21.81-33.53,56.43-38.68,84.57-22.89,47.31,26.55,47.38,78.71,24.72,121.61C159.35,502,133,531.87,104.32,523.38c-24.52-7.27-61.58-44.37-66-71.73C34.67,429.22,47.69,402.93,61.32,382Z"/><path class="cls-73" d="M60.9,383.53c22.86-33.7,58.35-38,86.93-21.54,47.86,27.61,47.84,80.88,24.39,124.64C160.36,508.77,132.86,539,103.34,530c-25.65-7.88-63.12-46.55-67.23-75.05C32.77,431.69,46.62,404.59,60.9,383.53Z"/><path class="cls-74" d="M60.48,385.09c23.91-33.86,60.27-37.39,89.3-20.2,48.41,28.68,48.29,83.06,24.06,127.67-12.47,23-41.08,53.63-71.47,44-26.78-8.5-64.67-48.74-68.44-78.38C30.88,434.16,45.54,406.26,60.48,385.09Z"/><path class="cls-75" d="M60.08,386.66c24.94-34,62.18-36.75,91.65-18.85,49,29.73,48.74,85.23,23.74,130.7-13.08,23.79-42.81,54.85-74.06,44.65-27.92-9.11-66.22-50.91-69.65-81.69C29,436.66,44.48,407.94,60.08,386.66Z"/><path class="cls-76" d="M59.68,388.24c26-34.17,64.09-36.12,94-17.51,49.51,30.79,49.17,87.4,23.41,133.74-13.69,24.62-44.53,56.06-76.65,45.31-29-9.73-67.77-53.1-70.87-85C27.11,439.16,43.42,409.64,59.68,388.24Z"/><path class="cls-77" d="M59.29,389.83c27-34.32,66-35.48,96.37-16.17,50.07,31.84,49.61,89.58,23.09,136.77-14.3,25.45-46.25,57.28-79.24,46-30.19-10.35-69.32-55.27-72.08-88.34C25.23,441.67,42.36,411.35,59.29,389.83Z"/><path class="cls-78" d="M58.9,391.43c28-34.47,67.91-34.85,98.74-14.82,50.61,32.88,50,91.74,22.76,139.8-14.91,26.27-48,58.48-81.83,46.62-31.33-11-70.88-57.44-73.3-91.65C23.35,444.2,41.3,413.08,58.9,391.43Z"/><path class="cls-79" d="M58.52,393c29.06-34.62,69.81-34.23,101.09-13.48,51.16,33.92,50.46,93.9,22.44,142.83-15.52,27.11-49.69,59.69-84.42,47.28-32.46-11.59-72.44-59.61-74.51-95C21.48,446.73,40.25,414.81,58.52,393Z"/><path class="cls-80" d="M58.14,394.66c30.08-34.77,71.72-33.6,103.46-12.14,51.7,35,50.87,96.07,22.11,145.86-16.14,27.94-51.42,60.9-87,47.94C63.1,564.1,22.7,514.54,21,478,19.61,449.28,39.19,416.56,58.14,394.66Z"/><path class="cls-81" d="M57.76,396.29c31.1-34.91,73.63-33,105.82-10.81,52.25,36,51.3,98.24,21.79,148.9-16.76,28.76-53.14,62.1-89.6,48.6C61,570.13,20.21,519,18.83,481.36,17.74,451.83,38.14,418.31,57.76,396.29Z"/><path class="cls-82" d="M57.39,397.92c32.11-35.05,75.52-32.36,108.18-9.46,52.79,37,51.71,100.4,21.46,151.93-17.37,29.59-54.85,63.29-92.19,49.26C59,576.16,17.73,523.53,16.69,484.71,15.88,454.39,37.09,420.08,57.39,397.92Z"/><path class="cls-83" d="M57,399.56c33.12-35.18,77.42-31.74,110.54-8.12,53.33,38.05,52.12,102.56,21.14,155-18,30.42-56.58,64.49-94.78,49.92-37-14.11-78.68-68.28-79.37-108.26C14,457,36,421.85,57,399.56Z"/><path class="cls-84" d="M56.66,401.2c34.12-35.31,79.32-31.12,112.9-6.77,53.87,39.07,52.52,104.72,20.81,158C171.76,583.67,132.07,618.11,93,603c-38.14-14.75-80.24-70.44-80.58-111.58C12.15,459.53,35,423.63,56.66,401.2Z"/><path class="cls-85" d="M56.28,402.85c35.12-35.45,81.22-30.51,115.26-5.43,54.41,40.08,53,106.91,20.49,161-19.19,32.11-60,66.92-100,51.24-39.29-15.34-81.75-72.61-81.79-114.91C10.31,462.11,33.92,425.41,56.28,402.85Z"/><path class="cls-86" d="M173.55,400.43c55,41.1,53.34,109,20.17,164.05-19.85,32.91-61.74,68.07-102.56,51.9-40.41-16-83.36-74.77-83-118.23.27-33.44,24.73-70.93,47.77-93.64C92.06,368.93,139,374.62,173.55,400.43Z"/></g></g></svg>