<svg xmlns="http://www.w3.org/2000/svg" viewBox="0 0 567.28 390.41"><defs><style>.cls-1,.cls-10,.cls-11,.cls-12,.cls-13,.cls-14,.cls-15,.cls-16,.cls-17,.cls-18,.cls-19,.cls-2,.cls-20,.cls-21,.cls-22,.cls-23,.cls-24,.cls-25,.cls-26,.cls-27,.cls-28,.cls-29,.cls-3,.cls-30,.cls-31,.cls-32,.cls-33,.cls-34,.cls-35,.cls-36,.cls-37,.cls-38,.cls-39,.cls-4,.cls-40,.cls-41,.cls-42,.cls-43,.cls-44,.cls-45,.cls-46,.cls-47,.cls-48,.cls-49,.cls-5,.cls-50,.cls-51,.cls-52,.cls-53,.cls-54,.cls-55,.cls-56,.cls-57,.cls-58,.cls-59,.cls-6,.cls-60,.cls-61,.cls-62,.cls-63,.cls-64,.cls-65,.cls-66,.cls-67,.cls-68,.cls-69,.cls-7,.cls-70,.cls-71,.cls-72,.cls-73,.cls-74,.cls-75,.cls-76,.cls-77,.cls-78,.cls-79,.cls-8,.cls-80,.cls-81,.cls-82,.cls-83,.cls-84,.cls-85,.cls-86,.cls-9{fill:none;stroke-miterlimit:10;}.cls-1{stroke:#f5ff3f;}.cls-1,.cls-10,.cls-11,.cls-12,.cls-13,.cls-14,.cls-15,.cls-16,.cls-17,.cls-18,.cls-19,.cls-2,.cls-20,.cls-21,.cls-22,.cls-23,.cls-24,.cls-25,.cls-26,.cls-27,.cls-28,.cls-29,.cls-3,.cls-30,.cls-31,.cls-32,.cls-33,.cls-34,.cls-35,.cls-36,.cls-37,.cls-38,.cls-39,.cls-4,.cls-40,.cls-41,.cls-42,.cls-43,.cls-44,.cls-45,.cls-46,.cls-47,.cls-48,.cls-49,.cls-5,.cls-50,.cls-51,.cls-52,.cls-53,.cls-54,.cls-55,.cls-56,.cls-57,.cls-58,.cls-59,.cls-6,.cls-60,.cls-61,.cls-62,.cls-63,.cls-64,.cls-65,.cls-66,.cls-67,.cls-68,.cls-69,.cls-7,.cls-70,.cls-71,.cls-72,.cls-73,.cls-74,.cls-75,.cls-76,.cls-77,.cls-78,.cls-79,.cls-80,.cls-81,.cls-82,.cls-83,.cls-84,.cls-85,.cls-86,.cls-9{stroke-width:3px;}.cls-2{stroke:#f5fe3e;}.cls-3{stroke:#f5fd3e;}.cls-4{stroke:#f5fc3d;}.cls-5{stroke:#f5fb3c;}.cls-6{stroke:#f6fa3b;}.cls-7{stroke:#f6f93b;}.cls-8{stroke:#f6f83a;stroke-width:3px;}.cls-9{stroke:#f6f739;}.cls-10{stroke:#f6f638;}.cls-11{stroke:#f6f538;}.cls-12{stroke:#f6f437;}.cls-13{stroke:#f6f336;}.cls-14{stroke:#f7f235;}.cls-15{stroke:#f7f135;}.cls-16{stroke:#f7f034;}.cls-17{stroke:#f7ef33;}.cls-18{stroke:#f7ee32;}.cls-19{stroke:#f7ed32;}.cls-20{stroke:#f7ec31;}.cls-21{stroke:#f7eb30;}.cls-22{stroke:#f7ea2f;}.cls-23{stroke:#f8e92f;}.cls-24{stroke:#f8e82e;}.cls-25{stroke:#f8e72d;}.cls-26{stroke:#f8e62c;}.cls-27{stroke:#f8e52c;}.cls-28{stroke:#f8e42b;}.cls-29{stroke:#f8e32a;}.cls-30{stroke:#f8e22a;}.cls-31{stroke:#f9e129;}.cls-32{stroke:#f9e028;}.cls-33{stroke:#f9df27;}.cls-34{stroke:#f9de27;}.cls-35{stroke:#f9dd26;}.cls-36{stroke:#f9dc25;}.cls-37{stroke:#f9db24;}.cls-38{stroke:#f9da24;}.cls-39{stroke:#f9d923;}.cls-40{stroke:#fad822;}.cls-41{stroke:#fad721;}.cls-42{stroke:#fad621;}.cls-43{stroke:#fad520;}.cls-44{stroke:#fad51f;}.cls-45{stroke:#fad41e;}.cls-46{stroke:#fad31e;}.cls-47{stroke:#fad21d;}.cls-48{stroke:#fbd11c;}.cls-49{stroke:#fbd01b;}.cls-50{stroke:#fbcf1b;}.cls-51{stroke:#fbce1a;}.cls-52{stroke:#fbcd19;}.cls-53{stroke:#fbcc18;}.cls-54{stroke:#fbcb18;}.cls-55{stroke:#fbca17;}.cls-56{stroke:#fbc916;}.cls-57{stroke:#fcc815;}.cls-58{stroke:#fcc715;}.cls-59{stroke:#fcc614;}.cls-60{stroke:#fcc513;}.cls-61{stroke:#fcc413;}.cls-62{stroke:#fcc312;}.cls-63{stroke:#fcc211;}.cls-64{stroke:#fcc110;}.cls-65{stroke:#fdc010;}.cls-66{stroke:#fdbf0f;}.cls-67{stroke:#fdbe0e;}.cls-68{stroke:#fdbd0d;}.cls-69{stroke:#fdbc0d;}.cls-70{stroke:#fdbb0c;}.cls-71{stroke:#fdba0b;}.cls-72{stroke:#fdb90a;}.cls-73{stroke:#fdb80a;}.cls-74{stroke:#feb709;}.cls-75{stroke:#feb608;}.cls-76{stroke:#feb507;}.cls-77{stroke:#feb407;}.cls-78{stroke:#feb306;}.cls-79{stroke:#feb205;}.cls-80{stroke:#feb104;}.cls-81{stroke:#feb004;}.cls-82{stroke:#ffaf03;}.cls-83{stroke:#ffae02;}.cls-84{stroke:#ffad01;}.cls-85{stroke:#ffac01;}.cls-86{stroke:#ffab00;}</style></defs><g id="圖層_2" data-name="圖層 2"><g id="圖層_1-2" data-name="圖層 1"><path class="cls-1" d="M509.72,378.36c-62.27,28.85-121.28-4.85-153.94-60.17-19.54-33.1-30.58-86.66,3-114.9,33.29-28,105.39-37.85,143.46-16.89,29.3,16.13,50.68,55.45,59.71,86.52C576.15,321.61,548.82,360.25,509.72,378.36Z"/><path class="cls-2" d="M357.36,202.28c33-27.13,104.11-36.56,141.16-15.45,28.31,16.13,48.65,54.75,57.2,84.8,13.76,47.72-13.38,85.28-51.62,102.85-61.15,28.17-118.62-5.24-150.45-59.67C334.69,282.3,324,229.75,357.36,202.28Z"/><path class="cls-3" d="M355.94,201.28c32.71-26.31,102.82-35.29,138.85-14,27.32,16.13,46.52,54.07,54.68,83.07,13.19,46.81-13.57,83.24-51,100.26-60,27.5-115.95-5.63-146.95-59.16C333.17,279.5,322.76,228,355.94,201.28Z"/><path class="cls-4" d="M354.5,200.28c32.42-25.49,101.56-34,136.55-12.57,26.34,16.14,44.43,53.37,52.17,81.34,12.68,45.88-13.79,81.2-50.32,97.67-58.9,26.84-113.28-6-143.45-58.65C331.64,276.72,321.55,226.19,354.5,200.28Z"/><path class="cls-5" d="M353.07,199.32c32.14-24.68,100.3-32.74,134.25-11.13,25.37,16.14,42.36,52.67,49.66,79.61,12.18,44.95-14,79.05-49.67,95.08-57.84,26-110.75-6.33-139.95-58.14C330,274,320.35,224.44,353.07,199.32Z"/><path class="cls-6" d="M351.64,198.34c31.86-23.86,99.05-31.47,132-9.7,24.4,16.16,40.26,52,47.14,77.89,11.68,44-14.25,77-49,92.49-56.74,25.3-108.11-6.7-136.45-57.63C328.5,271.25,319.15,222.67,351.64,198.34Z"/><path class="cls-7" d="M350.21,197.36c31.57-23,97.81-30.2,129.64-8.25,23.45,16.17,38.18,51.29,44.63,76.16,11.16,43.08-14.46,74.91-48.37,89.9C420.48,379.76,370.63,348.1,343.16,298,327,268.49,318,220.91,350.21,197.36Z"/><path class="cls-8" d="M348.78,196.4c31.3-22.24,96.58-28.94,127.34-6.82,22.5,16.18,36.09,50.59,42.11,74.44,10.64,42.15-14.68,72.83-47.71,87.3C416,375.2,367.66,343.88,341.07,294.71,325.41,265.74,316.75,219.15,348.78,196.4Z"/><path class="cls-9" d="M347.35,195.43c31-21.43,95.37-27.67,125-5.37,21.57,16.2,34,49.89,39.6,72.71,10.11,41.22-14.9,70.76-47.07,84.71C411.5,370.64,364.69,339.67,339,291.37,323.86,263,315.55,217.4,347.35,195.43Z"/><path class="cls-10" d="M345.92,194.48c30.75-20.63,94.17-26.4,122.74-3.94,20.64,16.23,31.91,49.19,37.08,71,9.57,40.29-15.11,68.69-46.41,82.12-52.32,22.45-97.6-8.17-122.45-55.59C322.32,260.26,314.36,215.64,345.92,194.48Z"/><path class="cls-11" d="M344.49,193.52c30.48-19.82,93-25.12,120.44-2.49,19.73,16.26,29.82,48.49,34.57,69.26,9,39.35-15.32,66.6-45.76,79.52-51.21,21.73-95-8.54-119-55.09C320.78,257.53,313.17,213.9,344.49,193.52Z"/><path class="cls-12" d="M343.07,192.58c30.21-19,91.8-23.85,118.13-1.06,18.83,16.3,27.72,47.79,32.06,67.53,8.44,38.43-15.54,64.54-45.11,76.93-50.11,21-92.36-8.91-115.46-54.57C319.23,254.8,312,212.15,343.07,192.58Z"/><path class="cls-13" d="M341.65,191.64c30-18.23,90.64-22.57,115.83.38,17.94,16.35,25.62,47.09,29.54,65.81,7.86,37.5-15.75,62.45-44.46,74.34-49,20.28-89.73-9.29-112-54.07C317.7,252.08,310.8,210.41,341.65,191.64Z"/><path class="cls-14" d="M340.23,190.7c29.69-17.43,89.5-21.28,113.52,1.82,17.07,16.41,23.52,46.38,27,64.09,7.25,36.57-16,60.37-43.81,71.74-47.91,19.56-87.12-9.65-108.46-53.55C316.16,249.37,309.63,208.67,340.23,190.7Z"/><path class="cls-15" d="M338.81,189.78c29.43-16.64,88.37-20,111.22,3.26,16.21,16.48,21.42,45.67,24.52,62.35,6.63,35.65-16.18,58.3-43.16,69.16-46.8,18.83-84.49-10-105-53.05C314.62,246.66,308.46,206.93,338.81,189.78Z"/><path class="cls-16" d="M337.39,188.86c29.19-15.85,87.25-18.69,108.92,4.69,15.36,16.57,19.31,45,22,60.64,6,34.71-16.4,56.21-42.51,66.56-45.7,18.1-81.88-10.39-101.46-52.54C313.08,244,307.29,205.2,337.39,188.86Z"/><path class="cls-17" d="M336,187.94c28.94-15.06,86.14-17.36,106.62,6.14,14.52,16.66,17.19,44.23,19.49,58.9,5.28,33.79-16.62,54.14-41.86,64-44.6,17.37-79.26-10.76-98-52C311.55,241.26,306.13,203.48,336,187.94Z"/><path class="cls-18" d="M334.56,187c28.7-14.28,85.05-16,104.32,7.58,13.7,16.78,15.08,43.51,17,57.18,4.56,32.86-16.83,52.06-41.21,61.38C371.16,329.8,338,302,320.19,261.65,310,238.57,305,201.76,334.56,187Z"/><path class="cls-19" d="M333.15,186.13c28.46-13.5,84-14.66,102,9,12.9,16.91,13,42.77,14.47,55.45,3.79,31.93-17,50-40.56,58.79-42.39,15.89-74-11.51-91-51C308.48,235.89,303.83,200,333.15,186.13Z"/><path class="cls-20" d="M331.74,184.72c28.23-12.72,78.89-9.86,99.71,10.46,8.83,19,10.83,42,11.95,53.73,3,31-17.26,47.88-39.91,56.19-41.29,15.14-71.43-11.88-87.46-50.5C306.94,232.7,302.68,197.81,331.74,184.72Z"/><path class="cls-21" d="M330.32,183.86c28-11.94,77.49-8.39,97.4,11.89,7.76,19.12,8.71,41.27,9.44,52,2,30-17.47,45.8-39.25,53.6-40.2,14.39-68.83-12.25-84-50C305.39,230.05,301.54,196.13,330.32,183.86Z"/><path class="cls-22" d="M328.89,183c27.79-11.16,76.09-6.92,95.1,13.34,6.68,19.27,6.57,40.48,6.92,50.27,1,29.06-17.68,43.72-38.6,51-39.09,13.63-66.23-12.62-80.47-49.48C303.83,227.41,300.38,194.47,328.89,183Z"/><path class="cls-23" d="M327,182.18c27.59-10.39,74.71-5.44,92.81,14.78,5.59,19.42,6.17,39.84,4.41,48.55,5.43,27.52-17.9,41.62-38,48.41-38,12.87-63.62-13-77-49C301.8,224.8,298.77,192.82,327,182.18Z"/><path class="cls-24" d="M325.14,181.37c27.38-9.62,73.31-4,90.5,16.22,4.52,19.57,4.15,39.13,1.9,46.82,5,26.56-18.11,39.53-37.31,45.82-36.89,12.1-61-13.37-73.47-48.46C299.83,222.2,297.22,191.19,325.14,181.37Z"/><path class="cls-25" d="M323.14,180.59c27.19-8.86,71.92-2.51,88.2,17.65,3.44,19.71,2.12,38.42-.62,45.1,4.65,25.59-18.31,37.43-36.65,43.23-35.79,11.31-58.44-13.76-70-48C297.7,219.62,295.52,189.58,323.14,180.59Z"/><path class="cls-26" d="M321,179.82c27-8.09,70.52-1,85.89,19.09,2.37,19.86.1,37.71-3.13,43.37,4.25,24.64-18.52,35.34-36,40.64-34.69,10.52-55.85-14.14-66.47-47.45C295.39,217.06,293.65,188,321,179.82Z"/><path class="cls-27" d="M318.61,179.07c26.82-7.31,69.12.44,83.59,20.53,1.29,20-1.92,37-5.65,41.65,3.85,23.67-18.72,33.23-35.35,38-33.59,9.72-53.27-14.52-63-46.93C292.89,214.52,291.61,186.43,318.61,179.07Z"/><path class="cls-28" d="M316.05,178.34c26.66-6.54,67.73,1.92,81.29,22,.21,20.17-3.95,36.3-8.16,39.92,3.45,22.72-18.93,31.14-34.7,35.46-32.5,8.9-50.69-14.91-59.47-46.43C290.2,212,289.37,184.89,316.05,178.34Z"/><path class="cls-29" d="M313.37,177.64c26.5-5.77,66.33,3.39,79,23.41-.86,20.32-6,35.59-10.67,38.2,3.06,21.74-19.12,29-34.05,32.86-31.39,8.07-48.12-15.3-56-45.92C287.38,209.5,287,183.38,313.37,177.64Z"/><path class="cls-30" d="M310.69,177c26.35-5,64.94,4.87,76.68,24.85-1.94,20.47-8,34.88-13.18,36.47,2.66,20.79-19.32,26.91-33.4,30.27-30.29,7.22-45.55-15.69-52.47-45.41C284.56,207,284.68,181.89,310.69,177Z"/><path class="cls-31" d="M308,176.31c26.22-4.22,63.55,6.33,74.38,26.28-3,20.62-10,34.17-15.7,34.75C369,257.16,347.2,262.13,334,265c-29.19,6.35-43-16.09-49-44.9C281.75,204.56,282.37,180.44,308,176.31Z"/><path class="cls-32" d="M305.39,175.67c26.08-3.43,62.15,7.81,72.08,27.73-4.1,20.76-12,33.46-18.21,33,1.86,18.86-19.7,22.67-32.1,25.08C299.08,267,286.73,245,281.68,217.11,279,202.12,280.08,179,305.39,175.67Z"/><path class="cls-33" d="M302.76,175.09c25.72,4.43,60.75,9.28,69.77,29.17-5.17,20.91-14.06,32.75-20.72,31.29,1.47,17.9-19.87,20.55-31.45,22.49-27,4.53-37.88-16.91-42-43.88C276.18,199.72,278.05,170.83,302.76,175.09Z"/><path class="cls-34" d="M300.15,174.69c25.35,5.43,59.36,10.76,67.48,30.61-6.26,21.06-16.09,32-23.24,29.56,1.07,16.94-20,18.42-30.8,19.9-25.83,3.57-35.33-17.33-38.48-43.37C273.43,197.5,276.07,169.54,300.15,174.69Z"/><path class="cls-35" d="M297.58,174.3c25,6.41,58,12.22,65.17,32-7.33,21.21-18.1,31.33-25.75,27.84.68,16-20.18,16.28-30.14,17.31-24.69,2.56-32.79-17.76-35-42.86C270.71,195.27,274.13,168.28,297.58,174.3Z"/><path class="cls-36" d="M295.05,173.9c24.58,7.38,56.57,13.69,62.87,33.48-8.41,21.36-20.13,30.62-28.27,26.11.28,15-20.3,14.13-29.49,14.72-23.52,1.5-30.25-18.21-31.49-42.35C268,193,272.25,167.05,295.05,173.9Z"/><path class="cls-37" d="M292.55,173.12c24.19,8.34,55.18,15.17,60.57,34.92C343.64,229.55,331,238,322.34,232.43c-.11,14-20.54,13.64-28.84,12.12-21.8,4.79-27.71-18.67-28-41.84C265.37,190.41,270.42,165.48,292.55,173.12Z"/><path class="cls-38" d="M290.12,172.36c23.79,9.3,53.78,16.64,58.26,36.36-10.56,21.66-24.17,29.21-33.29,22.67-.51,13.08-20.75,11.59-28.19,9.53-20.68,4.11-25.18-19.15-24.49-41.34C262.78,187.79,268.66,164,290.12,172.36Z"/><path class="cls-39" d="M287.81,171.52c23.39,10.24,52.39,18.12,56,37.8-11.64,21.81-26.2,28.49-35.8,20.94-.91,12.12-21,9.55-27.55,6.94-19.55,3.45-22.63-19.64-21-40.83C260.32,185.08,267,162.42,287.81,171.52Z"/><path class="cls-40" d="M285.64,170.6c23,11.16,51,19.59,53.66,39.24-12.72,22-28.23,27.78-38.32,19.21-1.31,11.17-21.16,7.5-26.9,4.35-18.42,2.78-20.08-20.16-17.48-40.32C258,182.28,265.52,160.83,285.64,170.6Z"/><path class="cls-41" d="M283.6,169.6c22.58,12.08,49.59,21.06,51.35,40.68-13.79,22.11-30.25,27.08-40.83,17.49-1.7,10.2-21.37,5.45-26.24,1.75-17.31,2.11-17.53-20.69-14-39.8C255.8,179.38,264.15,159.2,283.6,169.6Z"/><path class="cls-42" d="M281.68,167c25.24,4.79,48.2,22.53,49.05,42.11-14.87,22.26-32.27,26.37-43.35,15.76-2.09,9.24-21.56,3.41-25.59-.83-16.18,1.44-14.94-21.26-10.49-39.3C253.74,174.81,260.3,162.89,281.68,167Z"/><path class="cls-43" d="M279.27,164.7c25.18,5.68,46.81,24,46.75,43.56-15.95,22.41-34.29,25.65-45.86,14-2.5,8.28-21.78,1.36-24.94-3.43-15.06.78-9.28-21.15-7-38.79C252.82,171.3,258.3,160,279.27,164.7Z"/><path class="cls-44" d="M277.64,162.47c25.12,6.58,45.42,25.48,44.45,45-17,22.56-36.32,24.94-48.38,12.3-2.89,7.32-22-.68-24.29-6-13.93.11-6.61-21.54-3.49-38.28C251.1,167.28,257.08,157.08,277.64,162.47Z"/><path class="cls-45" d="M276.11,160.25c25.05,7.5,44,27,42.14,46.44-18.1,22.71-38.34,24.24-50.89,10.58-3.28,6.35-22.18-2.73-23.64-8.61-12.8-.56-3.94-21.94,0-37.77C249.47,163.27,256,154.22,276.11,160.25Z"/><path class="cls-46" d="M274.65,158.05c25,8.44,42.62,28.43,39.84,47.88-19.18,22.86-40.36,23.53-53.41,8.86-3.68,5.39-22.38-4.78-23-11.21-11.68-1.23-1.28-22.32,3.5-37.26C247.92,159.28,254.9,151.39,274.65,158.05Z"/><path class="cls-47" d="M273.25,155.88c24.91,9.38,41.23,29.9,37.53,49.32-20.25,23-42.38,22.81-55.91,7.13-4.08,4.43-22.59-6.83-22.34-13.8-10.55-1.9,1.39-22.71,7-36.75C246.43,155.32,253.9,148.59,273.25,155.88Z"/><path class="cls-48" d="M271.9,153.74c24.83,10.35,39.83,31.37,35.23,50.76-21.33,23.16-44.41,22.11-58.43,5.4-4.47,3.47-22.79-8.87-21.68-16.39-9.44-2.56,4-23.1,10.5-36.24C245,151.39,252.94,145.85,271.9,153.74Z"/><path class="cls-49" d="M270.58,151.65C295.33,163,309,184.49,303.51,203.84c-22.41,23.31-46.42,21.4-60.94,3.68-4.87,2.51-23-10.92-21-19-8.31-3.23,6.72-23.48,14-35.73C243.58,147.51,252,143.15,270.58,151.65Z"/><path class="cls-50" d="M269.3,149.61c24.64,12.32,37,34.32,30.63,53.64-23.49,23.45-48.45,20.69-63.46,1.95-5.27,1.54-23.2-13-20.38-21.58-7.19-3.9,9.39-23.87,17.5-35.22C242.21,143.68,251.11,140.52,269.3,149.61Z"/><path class="cls-51" d="M268,147.64c24.52,13.32,35.65,35.79,28.32,55.07-24.56,23.61-50.47,20-66,.23-5.66.58-23.41-15-19.73-24.17-6.06-4.57,12.05-24.26,21-34.71C240.85,139.92,250.21,138,268,147.64Z"/><path class="cls-52" d="M266.79,145.75c24.4,14.33,34.25,37.26,26,56.51-25.64,23.75-52.5,19.27-68.48-1.5-6.06-.38-23.62-17.06-19.08-26.76-4.94-5.24,14.72-24.65,24.5-34.21C239.51,136.23,249.33,135.49,266.79,145.75Z"/><path class="cls-53" d="M265.83,143.93c24.26,15.36,32.86,38.74,23.72,57.95-26.72,23.91-54.52,18.56-71-3.22-6.46-1.34-23.82-19.11-18.43-29.35-3.82-5.91,17.39-25,28-33.7C238.46,132.63,248.73,133.11,265.83,143.93Z"/><path class="cls-54" d="M264.88,142.21c24.11,16.38,31.47,40.2,21.42,59.38-27.8,24.06-56.55,17.86-73.51-5-6.85-2.3-24-21.15-17.78-31.94-2.69-6.57,20.05-25.43,31.49-33.19C237.42,129.11,248.12,130.81,264.88,142.21Z"/><path class="cls-55" d="M263.9,140.56C287.84,158,294,182.24,283,201.39c-28.88,24.2-58.57,17.14-76-6.68-7.24-3.27-24.22-23.2-17.13-34.54-1.56-7.24,22.73-25.81,35-32.67C236.35,125.67,247.47,128.6,263.9,140.56Z"/><path class="cls-56" d="M262.24,138.31c23.75,18.47,31.67,45.38,16.81,62.26-25.51,29-60.59,16.44-78.54-8.4-7.64-4.23-24.43-25.25-16.48-37.13-.44-7.91,24.6-28.39,38.5-32.17C234.23,119.7,246.13,125.78,262.24,138.31Z"/><path class="cls-57" d="M261.26,136.71c23.55,19.52,30.1,46.84,14.51,63.7-26.84,29-62.61,15.73-81-10.12-8-5.19-24.64-27.3-15.83-39.72.69-8.58,27.46-28.71,42-31.66C233.29,116.38,245.47,123.61,261.26,136.71Z"/><path class="cls-58" d="M260.21,135.62c23.33,20.58,28.52,48.3,12.21,65.14-28.17,29.08-60.52,11.58-83.57-11.85-7.32-7.44-24.84-29.34-15.18-42.31,1.81-9.25,30.3-29,45.5-31.15C232.25,113.59,244.72,122,260.21,135.62Z"/><path class="cls-59" d="M259.19,134.08c23.1,21.64,26.95,49.75,9.9,66.59-29.48,29.11-62.9,11.27-86.07-13.58-7.74-8.3-25.05-31.39-14.53-44.91,2.93-9.91,33.24-33.13,49-30.64C231.11,113.7,244,119.85,259.19,134.08Z"/><path class="cls-60" d="M257.67,132.63c22.86,22.69,25.4,51.18,7.6,68-30.78,29.14-65.25,10.91-88.59-15.3-8.16-9.16-22.91-31.83-13.88-47.5,5.67-9.82,36.17-33.16,52.5-30.13C229.45,110.35,242.77,117.83,257.67,132.63Z"/><path class="cls-61" d="M256.66,131.19c22.61,23.75,23.85,52.62,5.3,69.47-32.08,29.14-67.57,10.48-91.1-17-8.59-10-23.42-34-13.23-50.09,6.63-10.47,39-33.2,56-29.63C228.32,107,242,115.83,256.66,131.19Z"/><path class="cls-62" d="M255.63,129.77c22.33,24.81,22.31,54,3,70.91-33.38,29.15-69.86,10-93.62-18.76-9-10.92-23.87-36.15-12.58-52.68C160,118.1,194.29,96,211.92,100.12,227.18,103.7,241.27,113.83,255.63,129.77Z"/><path class="cls-63" d="M254.58,128.1c22,25.85,20.77,55.45.69,72.34C220.61,229.59,183.16,210,159.14,180c-9.45-11.81-24.29-38.31-11.93-55.28,8.61-11.81,44.14-30.39,63-28.6C226.45,97.62,240.48,111.57,254.58,128.1Z"/><path class="cls-64" d="M253.5,126.68c21.76,26.91,19.24,56.86-1.61,73.78-35.93,29.15-74.35,9-98.65-22.21-9.88-12.71-24.67-40.45-11.27-57.86,9.62-12.51,46.86-30.69,66.49-28.1C225.31,94.51,239.66,109.57,253.5,126.68Z"/><path class="cls-65" d="M252.4,125.28c21.46,28,17.72,58.28-3.91,75.22-37.19,29.14-76.57,8.48-101.16-23.93C137,163,122.29,134,136.71,116.11c10.65-13.2,49.56-31,70-27.58C224.14,91.42,238.82,107.59,252.4,125.28Z"/><path class="cls-66" d="M251.29,123.91c21.14,29,16.2,59.68-6.22,76.66-38.45,29.13-78.78,7.92-103.67-25.66-10.77-14.52-25.38-44.73-10-63C143.11,98,183.68,80.6,204.91,84.78,222.94,88.34,238,105.62,251.29,123.91Z"/><path class="cls-67" d="M250.15,122.56c20.83,30,14.7,61.07-8.52,78.1-39.7,29.11-81,7.34-106.18-27.39-11.21-15.43-25.71-46.86-9.32-65.64,12.73-14.6,54.94-31.56,77-26.57C221.72,85.28,237.05,103.67,250.15,122.56Z"/><path class="cls-68" d="M249,121.22c20.5,31.06,13.19,62.47-10.82,79.54-40.94,29.1-83.15,6.75-108.7-29.11-11.65-16.34-26-49-8.67-68.24,13.78-15.3,57.62-31.86,80.48-26C220.48,82.23,236.13,101.74,249,121.22Z"/><path class="cls-69" d="M247.83,119.91c20.18,32.08,11.7,63.86-13.12,81C192.54,230,149.4,207,123.49,170.05c-12.08-17.27-26.31-51.1-8-70.83,14.84-16,60.3-32.17,84-25.55C219.22,79.19,235.2,99.81,247.83,119.91Z"/><path class="cls-70" d="M246.65,118.61c19.83,33.1,10.2,65.25-15.43,82.41-43.39,29.06-87.47,5.55-113.72-32.56C105,150.28,90.9,115.25,110.13,95c15.9-16.71,63-32.48,87.48-25C217.94,76.17,234.24,97.9,246.65,118.61Z"/><path class="cls-71" d="M245.45,117.32c19.5,34.12,8.72,66.64-17.73,83.86-44.61,29-89.62,4.93-116.24-34.29-13-19.1-26.88-55.32-6.72-76,17-17.41,65.63-32.79,91-24.52C216.64,73.16,233.27,96,245.45,117.32Z"/><path class="cls-72" d="M244.24,116.05c19.15,35.12,7.24,68-20,85.3-45.83,29-91.76,4.3-118.75-36-13.41-20-27.15-57.43-6.07-78.6,18-18.13,68.29-33.12,94.47-24C215.33,70.16,232.28,94.11,244.24,116.05Z"/><path class="cls-73" d="M243,114.79c18.8,36.13,5.75,69.42-22.34,86.74-47,29-93.89,3.67-121.26-37.74C85.57,142.84,72,104.26,94,82.59,113.12,63.76,165,49.15,192,59.08,214,67.17,231.27,92.22,243,114.79Z"/><path class="cls-74" d="M241.78,113.55c18.45,37.12,4.28,70.8-24.63,88.17-48.24,29-96,3-123.79-39.46-14.28-21.88-27.67-61.63-4.76-83.79,20.19-19.54,73.6-33.76,101.47-23C212.66,64.19,230.25,90.35,241.78,113.55Z"/><path class="cls-75" d="M240.54,112.32c18.09,38.11,2.81,72.18-26.94,89.61-49.43,29-98.15,2.4-126.3-41.19C72.58,137.93,59.37,97,83.19,74.36c21.27-20.24,76.26-34.09,105-22.5C211.31,61.21,229.22,88.48,240.54,112.32Z"/><path class="cls-76" d="M239.28,111.09c17.74,39.1,1.34,73.56-29.24,91.06-50.62,28.95-100.27,1.75-128.81-42.92-15.16-23.74-28.19-65.82-3.47-89,22.37-20.94,78.92-34.42,108.48-22C210,58.25,228.17,86.62,239.28,111.09Z"/><path class="cls-77" d="M238,109.88c17.38,40.08-.12,74.94-31.54,92.49-51.8,28.93-102.39,1.11-131.32-44.64-15.61-24.67-28.44-67.91-2.82-91.57,23.45-21.65,81.56-34.75,112-21.47C208.57,55.29,227.12,84.76,238,109.88Z"/><path class="cls-78" d="M236.74,108.68c17,41-1.58,76.31-33.85,93.93-53,28.91-104.5.45-133.84-46.37-16-25.61-28.68-70-2.16-94.16C91.42,39.73,151.1,27,182.36,41.11,207.19,52.33,226.05,82.91,236.74,108.68Z"/><path class="cls-79" d="M235.45,107.48c16.67,42-3,77.7-36.15,95.37-54.15,28.9-106.6-.2-136.35-48.1C46.47,128.22,34,82.67,61.44,58c25.62-23,86.86-35.43,119-20.45C205.8,49.39,225,81.06,235.45,107.48Z"/><path class="cls-80" d="M234.16,106.29c16.3,43-4.5,79.07-38.46,96.81C140.38,232,87,202.24,56.84,153.28,39.92,125.8,27.67,79.1,56,53.93,82.69,30.18,145.49,18.16,178.45,34,204.4,46.44,223.89,79.22,234.16,106.29Z"/><path class="cls-81" d="M232.86,105.1c15.94,44-6,80.46-40.76,98.25-56.49,28.88-110.81-1.52-141.38-51.54-17.35-28.41-29.4-76.26-.21-101.94,27.81-24.46,92.16-36.11,126-19.44C203,43.51,222.79,77.37,232.86,105.1Z"/><path class="cls-82" d="M231.55,103.93c15.58,44.9-7.4,81.83-43.06,99.68-57.66,28.87-112.91-2.18-143.89-53.27C26.81,121,15,72,45,45.81c28.9-25.16,94.8-36.45,129.46-18.93C201.57,40.57,221.69,75.53,231.55,103.93Z"/><path class="cls-83" d="M230.23,102.75c15.23,45.86-8.84,83.21-45.36,101.13-58.81,28.86-115-2.85-146.41-55C20.24,118.6,8.58,68.46,39.55,41.76,69.55,15.9,137,5,172.52,23.34,200.14,37.64,220.58,73.7,230.23,102.75Z"/><path class="cls-84" d="M228.91,101.58c14.87,46.81-10.29,84.59-47.67,102.57-60,28.85-117.1-3.51-148.92-56.72C13.66,116.21,2.21,64.93,34.07,37.71,65.16,11.15,134.16.56,170.53,19.8,198.71,34.71,219.46,71.86,228.91,101.58Z"/><path class="cls-85" d="M227.59,100.41c14.51,47.75-11.73,86-50,104C116.5,233.27,58.36,200.28,26.19,146,7.05,113.84-4.18,61.36,28.58,33.66c32.16-27.29,102.73-37.46,140-17.4C197.27,31.81,218.35,70,227.59,100.41Z"/><path class="cls-86" d="M174,204.71C111.7,233.55,52.69,199.85,20,144.53.49,111.43-10.55,57.87,23.07,29.63c33.28-28,105.39-37.85,143.46-16.89,29.3,16.13,50.68,55.46,59.71,86.52C240.4,148,213.07,186.6,174,204.71Z"/></g></g></svg>