<svg xmlns="http://www.w3.org/2000/svg" viewBox="0 0 362.74 582.1"><defs><style>.cls-1,.cls-10,.cls-11,.cls-12,.cls-13,.cls-14,.cls-15,.cls-16,.cls-17,.cls-18,.cls-19,.cls-2,.cls-20,.cls-21,.cls-22,.cls-23,.cls-24,.cls-25,.cls-26,.cls-27,.cls-28,.cls-29,.cls-3,.cls-30,.cls-31,.cls-32,.cls-33,.cls-34,.cls-35,.cls-36,.cls-37,.cls-38,.cls-39,.cls-4,.cls-40,.cls-41,.cls-42,.cls-43,.cls-44,.cls-45,.cls-46,.cls-47,.cls-48,.cls-49,.cls-5,.cls-50,.cls-51,.cls-52,.cls-53,.cls-54,.cls-55,.cls-56,.cls-57,.cls-58,.cls-59,.cls-6,.cls-60,.cls-61,.cls-62,.cls-63,.cls-64,.cls-65,.cls-66,.cls-67,.cls-68,.cls-69,.cls-7,.cls-70,.cls-71,.cls-72,.cls-73,.cls-74,.cls-75,.cls-76,.cls-77,.cls-78,.cls-79,.cls-8,.cls-80,.cls-81,.cls-82,.cls-83,.cls-84,.cls-85,.cls-86,.cls-9{fill:none;stroke-miterlimit:10;}.cls-1{stroke:#f5ff3f;}.cls-1,.cls-10,.cls-11,.cls-12,.cls-13,.cls-14,.cls-15,.cls-16,.cls-17,.cls-18,.cls-19,.cls-2,.cls-20,.cls-21,.cls-22,.cls-23,.cls-24,.cls-25,.cls-26,.cls-27,.cls-28,.cls-29,.cls-3,.cls-30,.cls-31,.cls-32,.cls-33,.cls-34,.cls-35,.cls-36,.cls-37,.cls-38,.cls-39,.cls-4,.cls-40,.cls-41,.cls-42,.cls-43,.cls-44,.cls-45,.cls-46,.cls-47,.cls-48,.cls-49,.cls-5,.cls-50,.cls-51,.cls-52,.cls-53,.cls-54,.cls-55,.cls-56,.cls-57,.cls-58,.cls-59,.cls-6,.cls-60,.cls-61,.cls-62,.cls-63,.cls-64,.cls-65,.cls-66,.cls-67,.cls-68,.cls-69,.cls-7,.cls-70,.cls-71,.cls-72,.cls-73,.cls-74,.cls-75,.cls-76,.cls-77,.cls-78,.cls-79,.cls-80,.cls-81,.cls-82,.cls-83,.cls-84,.cls-85,.cls-86,.cls-9{stroke-width:3px;}.cls-2{stroke:#f5fe3e;}.cls-3{stroke:#f5fd3e;}.cls-4{stroke:#f5fc3d;}.cls-5{stroke:#f5fb3c;}.cls-6{stroke:#f6fa3b;}.cls-7{stroke:#f6f93b;}.cls-8{stroke:#f6f83a;stroke-width:3px;}.cls-9{stroke:#f6f739;}.cls-10{stroke:#f6f638;}.cls-11{stroke:#f6f538;}.cls-12{stroke:#f6f437;}.cls-13{stroke:#f6f336;}.cls-14{stroke:#f7f235;}.cls-15{stroke:#f7f135;}.cls-16{stroke:#f7f034;}.cls-17{stroke:#f7ef33;}.cls-18{stroke:#f7ee32;}.cls-19{stroke:#f7ed32;}.cls-20{stroke:#f7ec31;}.cls-21{stroke:#f7eb30;}.cls-22{stroke:#f7ea2f;}.cls-23{stroke:#f8e92f;}.cls-24{stroke:#f8e82e;}.cls-25{stroke:#f8e72d;}.cls-26{stroke:#f8e62c;}.cls-27{stroke:#f8e52c;}.cls-28{stroke:#f8e42b;}.cls-29{stroke:#f8e32a;}.cls-30{stroke:#f8e22a;}.cls-31{stroke:#f9e129;}.cls-32{stroke:#f9e028;}.cls-33{stroke:#f9df27;}.cls-34{stroke:#f9de27;}.cls-35{stroke:#f9dd26;}.cls-36{stroke:#f9dc25;}.cls-37{stroke:#f9db24;}.cls-38{stroke:#f9da24;}.cls-39{stroke:#f9d923;}.cls-40{stroke:#fad822;}.cls-41{stroke:#fad721;}.cls-42{stroke:#fad621;}.cls-43{stroke:#fad520;}.cls-44{stroke:#fad51f;}.cls-45{stroke:#fad41e;}.cls-46{stroke:#fad31e;}.cls-47{stroke:#fad21d;}.cls-48{stroke:#fbd11c;}.cls-49{stroke:#fbd01b;}.cls-50{stroke:#fbcf1b;}.cls-51{stroke:#fbce1a;}.cls-52{stroke:#fbcd19;}.cls-53{stroke:#fbcc18;}.cls-54{stroke:#fbcb18;}.cls-55{stroke:#fbca17;}.cls-56{stroke:#fbc916;}.cls-57{stroke:#fcc815;}.cls-58{stroke:#fcc715;}.cls-59{stroke:#fcc614;}.cls-60{stroke:#fcc513;}.cls-61{stroke:#fcc413;}.cls-62{stroke:#fcc312;}.cls-63{stroke:#fcc211;}.cls-64{stroke:#fcc110;}.cls-65{stroke:#fdc010;}.cls-66{stroke:#fdbf0f;}.cls-67{stroke:#fdbe0e;}.cls-68{stroke:#fdbd0d;}.cls-69{stroke:#fdbc0d;}.cls-70{stroke:#fdbb0c;}.cls-71{stroke:#fdba0b;}.cls-72{stroke:#fdb90a;}.cls-73{stroke:#fdb80a;}.cls-74{stroke:#feb709;}.cls-75{stroke:#feb608;}.cls-76{stroke:#feb507;}.cls-77{stroke:#feb407;}.cls-78{stroke:#feb306;}.cls-79{stroke:#feb205;}.cls-80{stroke:#feb104;}.cls-81{stroke:#feb004;}.cls-82{stroke:#ffaf03;}.cls-83{stroke:#ffae02;}.cls-84{stroke:#ffad01;}.cls-85{stroke:#ffac01;}.cls-86{stroke:#ffab00;}</style></defs><g id="圖層_2" data-name="圖層 2"><g id="圖層_1-2" data-name="圖層 1"><path class="cls-1" d="M240.92,577.39c-66.69-16.19-91.9-79.29-83-142.93,5.31-38.06,30-86.85,73.91-88,43.45-1.16,106,36,122.79,76.08,12.89,30.86,5.14,74.94-7.13,104.88C328.24,574.32,282.79,587.55,240.92,577.39Z"/><path class="cls-2" d="M231.22,344.77c42.72-.69,104.24,36.19,120.1,75.78,12.11,30.24,4,73.13-8,102-18.94,45.92-63.56,58.43-104.42,48.37-65.39-16-89.57-77.94-80.61-140.35C163.67,393.28,188,345.48,231.22,344.77Z"/><path class="cls-3" d="M230.65,343.12c42-.23,102.45,36.38,117.4,75.46,11.34,29.64,2.75,71.28-8.91,99.05-18.83,44.85-62.44,56.7-102.3,46.75-64.1-15.84-87.24-76.58-78.18-137.77C164.14,390.17,188.08,343.35,230.65,343.12Z"/><path class="cls-4" d="M230.06,341.47c41.24.84,100.66,36.59,114.7,75.16,10.57,29,1.55,69.43-9.8,96.13-18.63,43.81-61.33,55-100.18,45.12C172,542.22,149.87,482.66,159,422.69,164.6,387.06,188.16,340.61,230.06,341.47Z"/><path class="cls-5" d="M229.48,339.83c40.52.7,98.89,36.81,112,74.85,9.8,28.43.35,67.6-10.7,93.22-18.44,42.77-60.19,53.14-98.05,43.5C171.27,535.75,150,477.51,159.4,418.78,165,384,188.24,339.12,229.48,339.83Z"/><path class="cls-6" d="M228.88,338.19c39.78,1.15,97.11,37,109.3,74.54,9,27.84-.84,65.75-11.59,90.31-18.26,41.71-59.07,51.38-95.93,41.87-60.16-15.52-80.45-72.54-70.92-130C165.38,380.84,188.3,337,228.88,338.19Z"/><path class="cls-7" d="M228.26,336.54c39.06,1.62,95.35,37.25,106.6,74.24,8.29,27.26-2,63.91-12.48,87.39-18.08,40.67-57.95,49.62-93.81,40.25C169.72,523,150.41,467.23,160.07,411,165.78,377.73,188.35,334.89,228.26,336.54Z"/><path class="cls-8" d="M227.62,334.91c38.34,2.07,93.6,37.47,103.91,73.93,7.54,26.67-3.25,62.06-13.38,84.47-17.91,39.61-56.82,47.87-91.68,38.62-57.54-15.25-75.88-69.84-66.08-124.88C166.16,374.63,188.39,332.78,227.62,334.91Z"/><path class="cls-9" d="M227,333.27c37.62,2.54,91.86,37.71,101.21,73.62,6.79,26.11-4.45,60.22-14.27,81.56-17.74,38.55-55.7,46.11-89.56,37-56.23-15.12-73.59-68.5-63.66-122.31C166.53,371.53,188.41,330.67,227,333.27Z"/><path class="cls-10" d="M226.3,331.64c36.91,3,90.14,37.95,98.51,73.31,6.06,25.56-5.64,58.37-15.16,78.65C292.06,521.08,255.07,528,222.21,519c-54.92-15-71.3-67.15-61.23-119.73C166.88,368.43,188.42,328.56,226.3,331.64Z"/><path class="cls-11" d="M225.62,330c36.19,3.46,88.41,38.22,95.81,73,5.32,25-6.85,56.51-16.05,75.72-17.45,36.42-53.46,42.6-85.32,33.76-53.61-14.88-69-65.81-58.81-117.16C167.21,365.34,188.42,326.45,225.62,330Z"/><path class="cls-12" d="M224.92,328.38c35.49,3.92,86.7,38.48,93.11,72.7,4.59,24.48-8,54.66-16.94,72.81-17.32,35.33-52.34,40.84-83.2,32.13-52.29-14.75-66.73-64.46-56.39-114.58C167.53,362.24,188.41,324.34,224.92,328.38Z"/><path class="cls-13" d="M224.2,326.75c34.79,4.38,85,38.76,90.42,72.4,3.86,24-9.26,52.8-17.84,69.9-17.19,34.24-51.21,39.07-81.07,30.5-51-14.63-64.45-63.12-54-112C167.83,359.15,188.38,322.24,224.2,326.75Z"/><path class="cls-14" d="M223.47,325.13c34.09,4.84,83.29,39.05,87.72,72.09,3.14,23.47-10.46,50.94-18.74,67-17.08,33.14-50.08,37.32-78.94,28.88-49.67-14.5-62.17-61.77-51.55-109.42C168.11,356.06,188.34,320.14,223.47,325.13Z"/><path class="cls-15" d="M222.72,323.51c33.39,5.31,81.6,39.37,85,71.79,2.42,23-11.67,49.07-19.63,64.06-17,32-49,35.56-76.82,27.26-48.35-14.39-59.89-60.44-49.13-106.85C168.38,353,188.28,318.05,222.72,323.51Z"/><path class="cls-16" d="M222,321.9c32.71,5.76,79.92,39.69,82.32,71.48,1.71,22.52-12.87,47.2-20.51,61.15-16.94,30.89-47.84,33.79-74.71,25.63-47-14.28-57.61-59.1-46.7-104.27C168.63,349.9,188.22,316,222,321.9Z"/><path class="cls-17" d="M221.17,320.29c32,6.23,78.22,40,79.62,71.17,1,22.08-14.07,45.33-21.41,58.24-16.89,29.73-46.7,32-72.58,24C161.09,459.54,151.47,416,162.52,372,168.86,346.82,188.14,313.87,221.17,320.29Z"/><path class="cls-18" d="M220.37,318.69c31.35,6.69,76.54,40.4,76.93,70.86C297.57,411.21,282,433,275,444.87c-16.88,28.56-45.57,30.27-70.45,22.39-44.4-14.06-53.06-56.43-41.86-99.12C169.07,343.74,188.05,311.79,220.37,318.69Z"/><path class="cls-19" d="M219.56,317.09c30.68,7.15,74.84,40.79,74.23,70.56-.44,21.26-16.48,41.54-23.2,52.4-16.91,27.34-44.45,28.5-68.33,20.76-43.07-13.95-50.79-55.09-39.44-96.54C169.27,340.67,188,309.72,219.56,317.09Z"/><path class="cls-20" d="M218.76,315.5c30,7.62,67.88,41.39,71.53,70.25-4.9,20.34-17.68,39.63-24.09,49.49-17,26.08-43.32,26.74-66.21,19.14-41.74-13.86-48.51-53.76-37-94C169.49,337.61,187.87,307.66,218.76,315.5Z"/><path class="cls-21" d="M218,313.92c29.35,8.09,65.87,41.67,68.83,69.94-5.83,19.79-18.87,37.71-25,46.57-17.09,24.78-42.18,25-64.09,17.52-40.41-13.76-46.24-52.43-34.6-91.39C169.71,334.55,187.81,305.61,218,313.92Z"/><path class="cls-22" d="M217.19,312.35c28.7,8.56,63.87,41.95,66.13,69.63-6.77,19.24-20.05,35.77-25.87,43.66-17.27,23.4-41,23.21-62,15.89-39.08-13.66-44-51.1-32.17-88.81C169.94,331.5,187.75,303.57,217.19,312.35Z"/><path class="cls-23" d="M216.42,310.37c28.06,9,61.86,42.24,63.44,69.33-7.71,18.68-20,35-26.77,40.74-12.88,24.93-39.91,21.44-59.84,14.27-37.75-13.58-41.71-49.78-29.76-86.24C170.19,328.05,187.72,301.13,216.42,310.37Z"/><path class="cls-24" d="M215.67,308.73c27.42,9.51,59.85,42.52,60.73,69-8.64,18.13-21.11,33.21-27.66,37.83C236.15,439.5,210,435.25,191,428.22c-36.4-13.5-39.44-48.46-27.33-83.66C170.44,324.93,187.71,299,215.67,308.73Z"/><path class="cls-25" d="M214.93,307.08c26.78,10,57.84,42.81,58,68.71-9.57,17.58-22.25,31.4-28.55,34.92-12.3,22.92-37.63,17.9-55.6,11-35.05-13.43-37.17-47.15-24.91-81.09C170.71,321.8,187.71,296.92,214.93,307.08Z"/><path class="cls-26" d="M214.2,305.42c26.16,10.49,55.83,43.1,55.34,68.41-10.52,17-23.4,29.58-29.45,32-12,21.92-36.49,16.13-53.47,9.4-33.71-13.37-34.92-45.83-22.49-78.51C171,318.65,187.73,294.82,214.2,305.42Z"/><path class="cls-27" d="M213.47,303.76c25.55,11,53.82,43.38,52.64,68.1-11.45,16.47-24.54,27.77-30.34,29.08-11.72,20.93-35.34,14.36-51.35,7.78-32.34-13.31-32.65-44.53-20.07-75.94C171.28,315.5,187.76,292.71,213.47,303.76Z"/><path class="cls-28" d="M212.75,302.09c24.93,11.47,51.81,43.66,49.94,67.79-12.38,15.92-25.68,26-31.23,26.17C220,416,197.27,408.63,182.23,402.2c-31-13.26-30.39-43.22-17.65-73.36C171.56,312.34,187.79,290.61,212.75,302.09Z"/><path class="cls-29" d="M212,300.41c24.33,12,49.8,43.94,47.24,67.48C246,383.26,232.45,392,227.15,391.15,216,410.07,194.11,402,180,395.67c-29.59-13.22-28.14-41.92-15.22-70.78C171.85,309.16,187.84,288.5,212,300.41Z"/><path class="cls-30" d="M211.31,298.72c23.73,12.49,47.8,44.22,44.55,67.17-14.26,14.81-28,22.33-33,20.34-10.86,17.93-31.88,9-45,2.9-28.21-13.2-25.89-40.63-12.81-68.2C172.15,306,187.88,286.38,211.31,298.72Z"/><path class="cls-31" d="M210.59,297c23.14,13,45.79,44.51,41.85,66.87-15.19,14.26-29.1,20.51-33.91,17.42-10.57,16.93-30.7,7.27-42.86,1.28C148.88,369.38,152,343.23,165.29,317,172.44,302.77,187.94,284.27,210.59,297Z"/><path class="cls-32" d="M209.88,295.29c22.55,13.55,43.78,44.8,39.15,66.57-16.13,13.7-30.25,18.69-34.81,14.5-10.28,15.93-29.53,5.49-40.73-.34-25.37-13.21-21.38-38.08-8-63C172.74,299.54,188,282.15,209.88,295.29Z"/><path class="cls-33" d="M209.16,293.56c22,14.09,41.77,45.09,36.45,66.26-17.07,13.15-31.39,16.88-35.7,11.59-10,14.93-28.34,3.72-38.61-2-23.91-13.23-19.12-36.81-5.54-60.47C173,296.3,188.05,280,209.16,293.56Z"/><path class="cls-34" d="M208.43,291.82c21.4,14.64,39.77,45.37,33.76,65.95-18,12.6-32.53,15.07-36.59,8.68-9.7,13.92-27.14,1.94-36.49-3.6C146.68,349.57,152.25,327.3,166,305,173.32,293,188.1,277.91,208.43,291.82Z"/><path class="cls-35" d="M207.71,290.07c20.82,15.2,37.75,45.65,31,65.64-18.94,12-33.67,13.25-37.48,5.76-9.41,12.93-25.92.18-34.37-5.22-20.91-13.36-14.6-34.31-.69-55.32C173.61,289.75,188.15,275.79,207.71,290.07Z"/><path class="cls-36" d="M207,287.62c20.24,15.77,35.75,45.93,28.36,65.34-19.88,11.48-34.82,11.43-38.38,2.84-9.12,11.93-24.69-1.58-32.24-6.84-19.34-13.46-12.34-33.08,1.72-52.74C173.9,285.77,188.19,273,207,287.62Z"/><path class="cls-37" d="M206.72,284.65c19.67,16.35,33.74,46.22,25.66,65-20.81,10.93-36,9.62-39.27-.07-8.84,10.92-24.57-2.11-30.12-8.47-20-9.82-10.07-31.86,4.14-50.17C174.67,281.26,188.71,269.68,206.72,284.65Z"/><path class="cls-38" d="M206.05,281.62c19.1,16.95,31.73,46.51,23,64.72-21.75,10.38-37.1,7.81-40.16-3-8.55,9.92-23.46-3.84-28-10.09-18.74-9.65-7.78-30.65,6.57-47.59C175,276.68,188.81,266.32,206.05,281.62Z"/><path class="cls-39" d="M205.38,278.56c18.52,17.56,29.72,46.78,20.26,64.41-22.68,9.83-38.24,6-41-5.9-8.26,8.93-22.35-5.57-25.88-11.71-17.45-9.47-5.49-29.46,9-45C175.41,272.05,188.91,262.94,205.38,278.56Z"/><path class="cls-40" d="M204.7,275.46c18,18.18,27.72,47.07,17.57,64.11-23.62,9.27-39.38,4.18-42-8.82-8,7.93-21.23-7.29-23.75-13.33-16.15-9.3-3.17-28.28,11.41-42.44C175.8,267.39,189,259.55,204.7,275.46Z"/><path class="cls-41" d="M204,272.35c17.36,18.82,25.7,47.36,14.87,63.8-24.56,8.72-40.53,2.37-42.85-11.73-7.68,6.93-20.11-9-21.62-15-14.86-9.12-.84-27.1,13.83-39.86C176.19,262.7,189.07,256.14,204,272.35Z"/><path class="cls-42" d="M203.35,269.24c16.77,19.46,23.69,47.64,12.17,63.49-25.5,8.17-41.67.55-43.74-14.64-7.39,5.92-19-10.76-19.5-16.59-13.56-8.94,1.53-25.94,16.25-37.28C176.59,258,189.14,252.75,203.35,269.24Z"/><path class="cls-43" d="M202.53,265.83C218.7,286,224.22,313.75,212,329c-26.43,7.61-42.81-1.27-44.63-17.57-7.1,4.93-17.88-12.48-17.38-18.2-12.26-8.77,5.91-22.34,18.67-34.71C177.72,254.53,189.06,249.07,202.53,265.83Z"/><path class="cls-44" d="M201.87,262.7c15.56,20.78,19.68,48.21,6.77,62.88-27.36,7.06-43.95-3.08-45.52-20.48-6.81,3.93-16.77-14.22-15.26-19.83-11-8.59,8.24-21,21.1-32.14C178.1,249.94,189.13,245.68,201.87,262.7Z"/><path class="cls-45" d="M201.2,259.6c14.94,21.47,17.67,48.49,4.08,62.57-28.31,6.51-45.1-4.89-46.42-23.39-6.52,2.93-15.66-15.95-13.14-21.46-9.67-8.41,10.57-19.62,23.52-29.55C178.47,245.38,189.18,242.33,201.2,259.6Z"/><path class="cls-46" d="M200.52,256.56c14.31,22.16,15.67,48.78,1.38,62.27-29.24,5.95-46.23-6.71-47.3-26.31-6.24,1.93-14.55-17.68-11-23.08-8.38-8.23,12.89-18.26,25.94-27C178.84,240.89,189.21,239.05,200.52,256.56Z"/><path class="cls-47" d="M199.86,253.62c13.66,22.85,13.66,49.06-1.32,62-30.17,5.39-47.37-8.53-48.2-29.23-6,.93-13.43-19.4-8.89-24.7-7.08-8.06,15.22-16.91,28.36-24.4C179.22,236.48,189.25,235.87,199.86,253.62Z"/><path class="cls-48" d="M199.75,250.83c13,23.56,11.64,49.35-4,61.65-31.11,4.85-48.52-10.33-49.09-32.14-5.66-.07-12.32-21.13-6.77-26.32-5.79-7.88,17.55-15.55,30.78-21.83C180.15,232.24,189.82,232.85,199.75,250.83Z"/><path class="cls-49" d="M199.65,248.17c12.32,24.26,9.64,49.63-6.72,61.35-32,4.29-49.65-12.15-50-35.06-5.37-1.07-11.21-22.86-4.65-27.95-4.49-7.7,19.88-14.19,33.2-19.25C181.09,228.12,190.4,230,199.65,248.17Z"/><path class="cls-50" d="M199.57,245.49c11.62,25,7.63,49.92-9.41,61-33,3.74-50.8-14-50.88-38-5.09-2.07-10.09-24.59-2.53-29.57-3.19-7.53,22.21-12.84,35.63-16.67C182.06,224,191,227.06,199.57,245.49Z"/><path class="cls-51" d="M199.51,242.8c10.91,25.69,5.62,50.2-12.11,60.73-33.92,3.19-51.94-15.78-51.77-40.88-4.8-3.07-9-26.33-.4-31.2-1.9-7.35,24.53-11.48,38-14.1C183,219.83,191.58,224.14,199.51,242.8Z"/><path class="cls-52" d="M199.47,240.09c10.17,26.4,3.61,50.49-14.81,60.43-34.86,2.63-53.09-17.6-52.67-43.81-4.5-4.07-7.86-28,1.72-32.82-.6-7.17,26.87-10.12,40.47-11.52C184,215.66,192.18,221.2,199.47,240.09Z"/><path class="cls-53" d="M199.44,237.37c9.43,27.11,1.6,50.77-17.51,60.12-35.79,2.07-54.22-19.42-53.56-46.72-4.21-5.07-6.75-29.78,3.85-34.45.69-7,29.19-8.77,42.89-8.94C185.05,211.48,192.79,218.24,199.44,237.37Z"/><path class="cls-54" d="M199.42,234.83c8.67,27.83-.4,51.06-20.2,59.82-36.73,1.52-55.37-21.23-54.45-49.64-3.93-6.07-5.64-31.51,6-36.07,2-6.81,31.52-7.41,45.31-6.36C186.08,207.49,193.4,215.48,199.42,234.83Z"/><path class="cls-55" d="M199.42,232.66c7.89,28.54-2.41,51.34-22.9,59.51-37.67,1-56.51-23-55.34-52.55-3.64-7.07-4.53-33.24,8.09-37.69,3.28-6.65,33.85-6.06,47.73-3.79C187.12,203.86,194,213.07,199.42,232.66Z"/><path class="cls-56" d="M199.38,230.65c7.09,29.24-3.45,55.23-25.6,59.2-38,6.8-57.65-24.86-56.24-55.47-3.35-8.06-3.4-35,10.22-39.31,4.58-6.47,36.93-6.92,50.15-1.22C189.05,198.65,194.58,210.82,199.38,230.65Z"/><path class="cls-57" d="M199.41,228.8c6.28,29.94-5.61,55.39-28.3,58.89C132,293.71,112.32,261,114,229.31c-3.06-9.07-2.29-36.7,12.34-40.94,5.88-6.29,39.36-5.37,52.57,1.36C190.17,195.48,195.2,208.72,199.41,228.8Z"/><path class="cls-58" d="M199.09,227c5.45,30.63-7.74,55.55-31,58.58-40.14,5.23-54.56-28.61-58-61.29-1.1-10.39-1.18-38.43,14.46-42.57,7.17-6.11,41.76-3.83,55,3.94C190.92,192.39,195.47,206.7,199.09,227Z"/><path class="cls-59" d="M199.16,225.34c4.62,31.31-9.87,55.71-33.69,58.28-41.2,4.43-56.25-30.34-58.92-64.21-.89-11.31-.07-40.16,16.58-44.19,8.47-5.93,44.14-2.31,57.42,6.51C192,189.37,196.13,204.75,199.16,225.34Z"/><path class="cls-60" d="M199.22,223.34c3.76,32-12,55.87-36.4,58C120.59,285,105,249.23,103,214.19c-.68-12.25,1.88-39.18,18.71-45.82,10.54-4.16,46.49-.79,59.84,9.1C193.13,186,196.76,202.48,199.22,223.34Z"/><path class="cls-61" d="M199.28,221.75c2.91,32.66-14.08,56-39.09,57.67-43.26,2.84-59.41-33.85-60.7-70-.48-13.2,2.83-41.18,20.83-47.44,11.7-4.06,48.83.72,62.25,11.67C194.22,183.11,197.4,200.62,199.28,221.75Z"/><path class="cls-62" d="M199.32,220.19c2,33.32-16.17,56.18-41.79,57.36-44.26,2-60.91-35.63-61.59-73-.26-14.16,3.82-43.16,23-49.06,12.89-4,51.15,2.2,64.68,14.24C195.28,180.2,198,198.78,199.32,220.19Z"/><path class="cls-63" d="M199.35,218.65c1.16,34-18.26,56.33-44.49,57-45.27,1.24-62.37-37.43-62.49-75.87,0-15.13,4.84-45.1,25.08-50.69,14.09-3.88,53.46,3.69,67.1,16.82C196.31,177.29,198.6,196.94,199.35,218.65Z"/><path class="cls-64" d="M199.35,217.1c.28,34.61-20.34,56.49-47.19,56.75-46.26.44-63.8-39.23-63.38-78.79.18-16.1,5.87-47,27.2-52.3,15.32-3.8,55.77,5.15,69.52,19.39C197.31,174.38,199.17,195.1,199.35,217.1Z"/><path class="cls-65" d="M199.31,215.56c-.6,35.24-22.4,56.64-49.88,56.44-47.25-.35-65.2-41-64.27-81.7.39-17.08,6.92-48.92,29.32-53.93,16.55-3.7,58.06,6.61,71.94,22C198.28,171.47,199.7,193.26,199.31,215.56Z"/><path class="cls-66" d="M199.2,214c-1.49,35.85-24.46,56.79-52.58,56.13C98.4,269,80,227.31,81.45,185.54c.62-18.06,8-50.8,31.45-55.55,17.79-3.61,60.35,8.06,74.36,24.55C199.16,168.54,200.15,191.41,199.2,214Z"/><path class="cls-67" d="M199,212.49c-2.39,36.47-26.51,56.95-55.28,55.82-49.19-1.92-67.94-44.65-66.06-87.53.84-19.05,9-52.67,33.57-57.18,19-3.5,62.64,9.5,76.78,27.13C200,165.62,200.54,189.56,199,212.49Z"/><path class="cls-68" d="M198.84,211c-3.28,37.07-28.56,57.11-58,55.52C90.71,263.75,71.59,220,73.91,176,75,156,84,121.49,109.6,117.22c20.31-3.4,64.93,10.93,79.21,29.7C200.79,162.68,200.9,187.69,198.84,211Z"/><path class="cls-69" d="M198.61,209.41c-4.18,37.67-30.59,57.26-60.67,55.21-51.11-3.5-70.6-48.29-67.85-93.36,1.29-21,11.22-56.37,37.81-60.43,21.58-3.29,67.22,12.35,81.63,32.28C201.56,159.73,201.23,185.82,198.61,209.41Z"/><path class="cls-70" d="M198.36,207.86c-5.08,38.26-32.63,57.43-63.37,54.91-52.06-4.27-71.91-50.11-68.74-96.28,1.51-22,12.31-58.2,39.93-62.05,22.85-3.18,69.5,13.77,84,34.86C202.3,156.78,201.54,183.94,198.36,207.86Z"/><path class="cls-71" d="M198.09,206.32c-6,38.83-34.66,57.58-66.07,54.59-53-5-73.21-51.93-69.63-99.19,1.74-23,13.4-60,42.05-63.68,24.13-3.07,71.78,15.19,86.48,37.44C203,153.82,201.83,182,198.09,206.32Z"/><path class="cls-72" d="M197.8,204.76c-6.87,39.41-36.68,57.75-68.77,54.29-53.93-5.81-74.5-53.75-70.52-102.11,2-24,14.49-61.84,44.18-65.3,25.4-3,74.06,16.6,88.89,40C203.74,150.85,202.1,180.14,197.8,204.76Z"/><path class="cls-73" d="M197.5,203.2c-7.77,40-38.7,57.91-71.47,54-54.86-6.57-75.78-55.57-71.42-105,2.21-25,15.6-63.66,46.31-66.92,26.68-2.84,76.34,18,91.31,42.59C204.44,147.87,202.36,178.23,197.5,203.2Z"/><path class="cls-74" d="M197.18,201.64c-8.66,40.53-40.71,58.07-74.16,53.67C67.23,248,46,197.92,50.71,147.37c2.44-26,16.7-65.46,48.42-68.54,28-2.72,78.62,19.39,93.74,45.16C205.12,144.88,202.6,176.3,197.18,201.64Z"/><path class="cls-75" d="M196.86,200.07c-9.56,41.09-42.73,58.24-76.87,53.37-56.71-8.1-78.31-59.22-73.2-110.86,2.67-27,17.8-67.26,50.55-70.16,29.25-2.6,80.9,20.78,96.16,47.74C205.79,141.88,202.84,174.37,196.86,200.07Z"/><path class="cls-76" d="M196.52,198.5c-10.45,41.64-44.74,58.4-79.56,53.06-57.64-8.85-79.57-61.05-74.1-113.77,2.91-28,18.91-69.06,52.67-71.79,30.54-2.48,83.19,22.18,98.58,50.31C206.46,138.88,203.07,172.43,196.52,198.5Z"/><path class="cls-77" d="M196.18,196.92c-11.35,42.18-46.75,58.57-82.27,52.75-58.55-9.6-80.82-62.87-75-116.68,3.14-29,20-70.85,54.79-73.42,31.83-2.35,85.47,23.57,101,52.89C207.12,135.87,203.29,170.48,196.18,196.92Z"/><path class="cls-78" d="M195.82,195.33c-12.23,42.73-48.74,58.75-85,52.45C51.4,237.44,28.8,183.09,35,128.18c3.38-30,21.12-72.64,56.92-75,33.11-2.22,87.75,25,103.42,55.47C207.77,132.85,203.5,168.52,195.82,195.33Z"/><path class="cls-79" d="M195.46,193.75c-13.11,43.25-50.74,58.91-87.66,52.13C47.43,234.8,24.5,179.37,31,123.37c3.62-31,22.23-74.42,59-76.66,34.4-2.1,90,26.34,105.84,58C208.41,129.82,203.71,166.55,195.46,193.75Z"/><path class="cls-80" d="M195.09,192.15c-14,43.79-52.73,59.09-90.35,51.83-61.28-11.82-84.55-68.34-77.67-125.43,3.86-32,23.34-76.2,61.16-78.28,35.7-2,92.32,27.72,108.27,60.62C209.05,126.79,203.91,164.57,195.09,192.15Z"/><path class="cls-81" d="M194.72,190.55c-14.87,44.32-54.73,59.27-93,51.53-62.19-12.56-85.78-70.17-78.56-128.35,4.1-33,24.45-78,63.28-79.91C123.38,32,181,62.92,197.08,97,209.69,123.75,204.11,162.59,194.72,190.55Z"/><path class="cls-82" d="M194.34,189c-15.75,44.84-56.72,59.44-95.75,51.22-63.09-13.3-87-72-79.45-131.26,4.34-34,25.56-79.77,65.41-81.54,38.28-1.7,96.89,30.48,113.11,65.78C210.32,120.71,204.3,160.59,194.34,189Z"/><path class="cls-83" d="M194,187.34c-16.62,45.37-58.71,59.62-98.45,50.91-64-14-88.24-73.81-80.35-134.18C19.75,69,41.84,22.53,82.7,20.92c39.57-1.57,99.17,31.85,115.53,68.35C210.94,117.65,204.49,158.59,194,187.34Z"/><path class="cls-84" d="M193.57,185.73c-17.49,45.88-60.7,59.79-101.15,50.6C27.53,221.58,3,160.69,11.19,99.24,16,63.19,39,15.92,80.84,14.46c40.87-1.43,101.47,33.23,118,70.93C211.57,114.6,204.68,156.59,193.57,185.73Z"/><path class="cls-85" d="M193.2,184.11c-18.36,46.4-62.69,60-103.85,50.3C23.56,218.94-1.4,156.93,7.22,94.4,12.24,57.34,36.12,9.27,79,8c42.16-1.34,103.71,34.62,120.37,73.5C212.17,111.55,204.89,154.57,193.2,184.11Z"/><path class="cls-86" d="M86.24,232.48c-66.69-16.19-91.9-79.29-83-142.92,5.31-38.07,30-86.86,73.9-88,43.45-1.16,106,36,122.79,76.08,12.89,30.86,5.14,74.94-7.12,104.88C173.56,229.41,128.12,242.64,86.24,232.48Z"/></g></g></svg>