<svg xmlns="http://www.w3.org/2000/svg" viewBox="0 0 446.42 526.24"><defs><style>.cls-1,.cls-10,.cls-11,.cls-12,.cls-13,.cls-14,.cls-15,.cls-16,.cls-17,.cls-18,.cls-19,.cls-2,.cls-20,.cls-21,.cls-22,.cls-23,.cls-24,.cls-25,.cls-26,.cls-27,.cls-28,.cls-29,.cls-3,.cls-30,.cls-31,.cls-32,.cls-33,.cls-34,.cls-35,.cls-36,.cls-37,.cls-38,.cls-39,.cls-4,.cls-40,.cls-41,.cls-42,.cls-43,.cls-44,.cls-45,.cls-46,.cls-47,.cls-48,.cls-49,.cls-5,.cls-50,.cls-51,.cls-52,.cls-53,.cls-54,.cls-55,.cls-56,.cls-57,.cls-58,.cls-59,.cls-6,.cls-60,.cls-61,.cls-62,.cls-63,.cls-64,.cls-65,.cls-66,.cls-67,.cls-68,.cls-69,.cls-7,.cls-70,.cls-71,.cls-72,.cls-73,.cls-74,.cls-75,.cls-76,.cls-77,.cls-78,.cls-79,.cls-8,.cls-80,.cls-81,.cls-82,.cls-83,.cls-84,.cls-85,.cls-86,.cls-9{fill:none;stroke-miterlimit:10;}.cls-1{stroke:#f5ff3f;}.cls-1,.cls-10,.cls-11,.cls-12,.cls-13,.cls-14,.cls-15,.cls-16,.cls-17,.cls-18,.cls-19,.cls-2,.cls-20,.cls-21,.cls-22,.cls-23,.cls-24,.cls-25,.cls-26,.cls-27,.cls-28,.cls-29,.cls-3,.cls-30,.cls-31,.cls-32,.cls-33,.cls-34,.cls-35,.cls-36,.cls-37,.cls-38,.cls-39,.cls-4,.cls-40,.cls-41,.cls-42,.cls-43,.cls-44,.cls-45,.cls-46,.cls-47,.cls-48,.cls-49,.cls-5,.cls-50,.cls-51,.cls-52,.cls-53,.cls-54,.cls-55,.cls-56,.cls-57,.cls-58,.cls-59,.cls-6,.cls-60,.cls-61,.cls-62,.cls-63,.cls-64,.cls-65,.cls-66,.cls-67,.cls-68,.cls-69,.cls-7,.cls-70,.cls-71,.cls-72,.cls-73,.cls-74,.cls-75,.cls-76,.cls-77,.cls-78,.cls-79,.cls-80,.cls-81,.cls-82,.cls-83,.cls-84,.cls-85,.cls-86,.cls-9{stroke-width:3px;}.cls-2{stroke:#f5fe3e;}.cls-3{stroke:#f5fd3e;}.cls-4{stroke:#f5fc3d;}.cls-5{stroke:#f5fb3c;}.cls-6{stroke:#f6fa3b;}.cls-7{stroke:#f6f93b;}.cls-8{stroke:#f6f83a;stroke-width:3px;}.cls-9{stroke:#f6f739;}.cls-10{stroke:#f6f638;}.cls-11{stroke:#f6f538;}.cls-12{stroke:#f6f437;}.cls-13{stroke:#f6f336;}.cls-14{stroke:#f7f235;}.cls-15{stroke:#f7f135;}.cls-16{stroke:#f7f034;}.cls-17{stroke:#f7ef33;}.cls-18{stroke:#f7ee32;}.cls-19{stroke:#f7ed32;}.cls-20{stroke:#f7ec31;}.cls-21{stroke:#f7eb30;}.cls-22{stroke:#f7ea2f;}.cls-23{stroke:#f8e92f;}.cls-24{stroke:#f8e82e;}.cls-25{stroke:#f8e72d;}.cls-26{stroke:#f8e62c;}.cls-27{stroke:#f8e52c;}.cls-28{stroke:#f8e42b;}.cls-29{stroke:#f8e32a;}.cls-30{stroke:#f8e22a;}.cls-31{stroke:#f9e129;}.cls-32{stroke:#f9e028;}.cls-33{stroke:#f9df27;}.cls-34{stroke:#f9de27;}.cls-35{stroke:#f9dd26;}.cls-36{stroke:#f9dc25;}.cls-37{stroke:#f9db24;}.cls-38{stroke:#f9da24;}.cls-39{stroke:#f9d923;}.cls-40{stroke:#fad822;}.cls-41{stroke:#fad721;}.cls-42{stroke:#fad621;}.cls-43{stroke:#fad520;}.cls-44{stroke:#fad51f;}.cls-45{stroke:#fad41e;}.cls-46{stroke:#fad31e;}.cls-47{stroke:#fad21d;}.cls-48{stroke:#fbd11c;}.cls-49{stroke:#fbd01b;}.cls-50{stroke:#fbcf1b;}.cls-51{stroke:#fbce1a;}.cls-52{stroke:#fbcd19;}.cls-53{stroke:#fbcc18;}.cls-54{stroke:#fbcb18;}.cls-55{stroke:#fbca17;}.cls-56{stroke:#fbc916;}.cls-57{stroke:#fcc815;}.cls-58{stroke:#fcc715;}.cls-59{stroke:#fcc614;}.cls-60{stroke:#fcc513;}.cls-61{stroke:#fcc413;}.cls-62{stroke:#fcc312;}.cls-63{stroke:#fcc211;}.cls-64{stroke:#fcc110;}.cls-65{stroke:#fdc010;}.cls-66{stroke:#fdbf0f;}.cls-67{stroke:#fdbe0e;}.cls-68{stroke:#fdbd0d;}.cls-69{stroke:#fdbc0d;}.cls-70{stroke:#fdbb0c;}.cls-71{stroke:#fdba0b;}.cls-72{stroke:#fdb90a;}.cls-73{stroke:#fdb80a;}.cls-74{stroke:#feb709;}.cls-75{stroke:#feb608;}.cls-76{stroke:#feb507;}.cls-77{stroke:#feb407;}.cls-78{stroke:#feb306;}.cls-79{stroke:#feb205;}.cls-80{stroke:#feb104;}.cls-81{stroke:#feb004;}.cls-82{stroke:#ffaf03;}.cls-83{stroke:#ffae02;}.cls-84{stroke:#ffad01;}.cls-85{stroke:#ffac01;}.cls-86{stroke:#ffab00;}</style></defs><g id="圖層_2" data-name="圖層 2"><g id="圖層_1-2" data-name="圖層 1"><path class="cls-1" d="M5.72,455.12C-12.47,389,30.48,336.3,90.43,313.2c35.86-13.82,90.52-15.89,112.83,21.93,22.09,37.43,20,110.18-7,144.28-20.73,26.24-63,40.85-95.17,44.64C50.75,530,17.14,496.67,5.72,455.12Z"/><path class="cls-2" d="M204.47,333.87c21.32,37,18.91,108.71-8,141.78-20.58,25.26-62,39-93.06,42.44-49.34,5.71-81.92-27.24-92.94-67.85-17.72-65,24.71-116.13,83.64-138.56C129.28,298.33,182.88,296.41,204.47,333.87Z"/><path class="cls-3" d="M205.67,332.64c20.56,36.6,17.86,107.24-9.06,139.27-20.41,24.29-61,37-90.94,40.25-48.35,5.29-79.87-27.11-90.49-66.79C-2.06,381.64,39.83,331.93,97.74,310.18,132.27,297.3,184.81,295.53,205.67,332.64Z"/><path class="cls-4" d="M206.86,331.4c19.81,36.18,16.82,105.78-10.09,136.76-20.26,23.32-60,35-88.83,38.06-47.34,4.95-77.81-27-88-65.73C3.13,378,44.5,329.75,101.38,308.67,135.24,296.26,186.74,294.64,206.86,331.4Z"/><path class="cls-5" d="M208,330.18c19,35.77,15.77,104.33-11.14,134.25-20.1,22.36-58.93,33.1-86.7,35.86-46.34,4.61-75.66-26.86-85.6-64.65C8.47,374.3,49.08,327.45,105,307.18,138.16,295.16,188.65,293.77,208,330.18Z"/><path class="cls-6" d="M209.21,329C227.5,364.3,223.94,431.83,197,460.69c-20,21.41-57.91,31.15-84.6,33.66-45.33,4.27-73.58-26.73-83.14-63.58-15.61-60.13,24.42-105.54,79.32-125.09C141.12,294.11,190.56,292.89,209.21,329Z"/><path class="cls-7" d="M210.39,327.71c17.53,35,13.67,101.45-13.22,129.24-19.81,20.46-56.88,29.21-82.48,31.47C70.36,492.33,43.19,461.81,34,425.9,18.91,367,58.35,323,112.24,304.18,144.06,293.06,192.48,292,210.39,327.71Z"/><path class="cls-8" d="M211.56,326.48c16.77,34.54,12.63,100-14.26,126.72-19.67,19.54-55.85,27.27-80.36,29.28C73.62,486,47.52,456,38.7,421,24.13,363.32,63,320.81,115.86,302.68,147,292,194.39,291.14,211.56,326.48Z"/><path class="cls-9" d="M212.72,325.25c16,34.13,11.58,98.62-15.3,124.21-19.53,18.61-54.81,25.32-78.24,27.08-42.32,3.18-67.34-26.34-75.79-60.37-14-56.51,24.21-97.58,76.08-115C150,291,196.3,290.27,212.72,325.25Z"/><path class="cls-10" d="M213.88,324c15.28,33.73,10.52,97.24-16.34,121.71-19.41,17.69-53.78,23.37-76.12,24.89-41.32,2.8-65.26-26.22-73.35-59.31-13.52-55.3,24.14-94.92,75-111.62C152.88,289.9,198.2,289.4,213.88,324Z"/><path class="cls-11" d="M215,322.78c14.53,33.33,9.47,95.85-17.38,119.2-19.29,16.79-52.74,21.42-74,22.69-40.3,2.41-63.17-26.09-70.89-58.24-13-54.09,24.07-92.27,73.93-108.25C155.81,288.84,200.1,288.53,215,322.78Z"/><path class="cls-12" d="M216.18,321.55c13.78,32.94,8.4,94.48-18.42,116.69-19.18,15.89-51.71,19.47-71.89,20.5-39.3,2-61.09-26-68.45-57.17-12.47-52.89,24-89.63,72.85-104.89C158.73,287.79,202,287.66,216.18,321.55Z"/><path class="cls-13" d="M217.32,320.32c13,32.54,7.33,93.12-19.46,114.18-19.09,15-50.67,17.52-69.78,18.3-38.28,1.57-59-25.83-66-56.1C50.15,345,86,309.72,133.86,295.18,161.64,286.74,203.89,286.8,217.32,320.32Z"/><path class="cls-14" d="M218.45,319.09c12.3,32.15,6.25,91.78-20.5,111.67-19,14.13-49.62,15.56-67.66,16.11-37.27,1.13-56.92-25.7-63.55-55-11.4-50.47,23.87-84.33,70.7-98.15C164.55,285.68,205.77,285.94,218.45,319.09Z"/><path class="cls-15" d="M219.57,317.85C231.14,349.63,224.73,408.3,198,427c-18.92,13.27-48.57,13.6-65.54,13.91-36.25.66-54.84-25.57-61.1-54C60.53,337.7,95.2,305.28,141,292.18,167.45,284.62,207.65,285.09,219.57,317.85Z"/><path class="cls-16" d="M220.69,316.62c10.82,31.39,4.05,89.13-22.58,106.65-18.87,12.42-47.52,11.64-63.43,11.72-35.23.17-52.75-25.44-58.65-52.89C65.71,334,99.77,303.05,144.57,290.68,170.34,283.56,209.52,284.23,220.69,316.62Z"/><path class="cls-17" d="M221.8,315.27c10.09,31,2.93,87.83-23.62,104.15-18.83,11.58-46.47,9.68-61.32,9.52-34.19-.35-50.66-25.3-56.19-51.82-9.79-46.85,23.67-76.41,67.45-88.05C173.23,282.39,211.39,283.28,221.8,315.27Z"/><path class="cls-18" d="M222.89,313.8c9.36,30.66,1.79,86.52-24.65,101.64-18.81,10.75-45.4,7.71-59.2,7.33-33.16-.92-48.57-25.18-53.75-50.76-9.24-45.64,23.61-73.77,66.38-84.68C176.1,281.09,213.25,282.19,222.89,313.8Z"/><path class="cls-19" d="M224,312.21c8.63,30.3.63,85.23-25.7,99.14-18.81,9.93-44.32,5.73-57.08,5.13-32.11-1.53-46.48-25.05-51.3-49.69-8.68-44.43,23.55-71.13,65.3-81.32C179,279.68,215.1,281,224,312.21Z"/><path class="cls-20" d="M225.22,311.21c7.89,29.94-3.27,79.43-26.74,96.62-20.17,5.59-43.23,3.76-55,2.94-31.05-2.19-44.39-24.91-48.85-48.62-8.13-43.22,23.48-68.5,64.22-77.95C182,278.84,217.1,280.39,225.22,311.21Z"/><path class="cls-21" d="M226.26,309.58c7.17,29.59-4.49,77.81-27.78,94.11-20.13,4.5-42.13,1.79-52.84.74-30-2.92-42.3-24.77-46.4-47.55-7.57-42,23.42-65.86,63.14-74.58C184.81,277.38,218.9,279.17,226.26,309.58Z"/><path class="cls-22" d="M227.29,307.8c6.44,29.26-5.71,76.2-28.82,91.61-20.1,3.41-41-.19-50.73-1.45-28.83-3.75-40.2-24.64-43.95-46.48-7-40.81,23.36-63.24,62.06-71.22C187.62,275.78,220.69,277.8,227.29,307.8Z"/><path class="cls-23" d="M228.3,305.78c5.71,28.92-6.93,74.58-29.86,89.1-20.07,2.32-40.32-.48-48.61-3.65-28,.83-38.11-24.5-41.5-45.41-6.43-39.59,23.3-60.62,61-67.85C190.42,273.92,222.46,276.2,228.3,305.78Z"/><path class="cls-24" d="M229.3,303.78c5,28.6-8.16,73-30.9,86.6-20.05,1.23-39.29-2.36-46.5-5.85-27,.6-36-24.37-39.05-44.34-5.85-38.38,23.25-58,59.91-64.48C193.2,272.09,224.22,274.63,229.3,303.78Z"/><path class="cls-25" d="M230.28,301.61c4.25,28.28-9.38,71.35-31.94,84.09-20,.14-38.25-4.24-44.38-8-26,.36-33.91-24.23-36.6-43.28-5.27-37.17,23.19-55.37,58.82-61.11C196,270.09,226,272.89,230.28,301.61Z"/><path class="cls-26" d="M231.24,299.33c3.53,28-10.6,69.73-33,81.58-20-.94-37.22-6.12-42.26-10.24-25,.13-31.81-24.09-34.16-42.2-4.66-36,23.15-52.76,57.75-57.75C198.72,268,227.68,271,231.24,299.33Z"/><path class="cls-27" d="M232.19,297.06c2.79,27.66-11.83,68.1-34,79.06-20-2-36.19-8-40.15-12.43-24-.1-29.7-23.94-31.7-41.13-4.06-34.74,23.09-50.15,56.67-54.38C201.46,265.85,229.38,269.21,232.19,297.06Z"/><path class="cls-28" d="M233.12,294.79c2.06,27.38-13.05,66.49-35.06,76.56-19.93-3.11-35.16-9.87-38-14.62-23-.34-27.58-23.8-29.25-40.07-3.43-33.52,23-47.54,55.59-51C204.18,263.75,231.06,267.4,233.12,294.79Z"/><path class="cls-29" d="M234,292.54c1.32,27.09-14.27,64.88-36.1,74-19.9-4.2-34.12-11.75-35.92-16.81-21.95-.57-25.48-23.65-26.8-39-2.79-32.3,23-44.94,54.51-47.65C206.89,261.66,232.71,265.61,234,292.54Z"/><path class="cls-30" d="M234.92,290.31c.59,26.82-15.49,63.25-37.14,71.54-19.87-5.29-33.09-13.63-33.8-19-20.94-.8-23.36-23.49-24.35-37.93-2.14-31.07,23-42.34,53.43-44.28C209.58,259.58,234.34,263.85,234.92,290.31Z"/><path class="cls-31" d="M235.8,288.2c-.16,26.55-16.72,61.63-38.18,69-19.84-6.37-32.05-15.51-31.68-21.21C146,335,144.69,312.7,144,299.16c-1.45-29.83,23-43.25,52.36-40.91C212.23,259.52,236,262.21,235.8,288.2Z"/><path class="cls-32" d="M236.67,286.16c-.91,26.3-17.94,60-39.22,66.53-19.81-7.47-31-17.39-29.57-23.41C149,328,148.76,306.12,148.43,293.49c-.76-28.59,23.12-40.86,51.27-37.54C214.84,257.74,237.55,260.65,236.67,286.16Z"/><path class="cls-33" d="M237.54,284.17c-1.66,26.05-19.17,58.4-40.27,64-19.77-8.55-30-19.26-27.45-25.6-17.89-1.49-17-23-17-34.72,0-27.33,23.26-38.48,50.2-34.18C217.44,256,239.13,259.15,237.54,284.17Z"/><path class="cls-34" d="M238.51,282.24c-2.42,25.81-20.39,56.78-41.3,61.5-19.75-9.63-29-21.14-25.34-27.79C155,314.22,157,293.16,157.32,282.3c.74-26.06,23.42-36.11,49.12-30.81C220.14,254.32,240.81,257.71,238.51,282.24Z"/><path class="cls-35" d="M239.56,280.35c-3.19,25.58-21.61,55.16-42.34,59-19.72-10.72-27.92-23-23.22-30-15.87-2-12.73-22.58-12.1-32.58,1.54-24.77,23.64-33.73,48-27.44C222.92,252.68,242.56,256.33,239.56,280.35Z"/><path class="cls-36" d="M240.68,277.62c-4,25.35-22.83,53.54-43.38,56.49-19.68-11.81-26.89-24.9-21.1-32.19-14.85-2.19-10.59-22.35-9.66-31.51,2.4-23.44,23-26.83,47-24.08C226.26,247.8,244.37,254.1,240.68,277.62Z"/><path class="cls-37" d="M242.2,275.74c-4.76,25.13-24,51.92-44.42,54-19.66-12.9-25.85-26.78-19-34.38-13.84-2.42-10.08-22.51-7.21-30.44-1.13-22.29,23-24.26,45.88-20.71C229.63,246.07,246.56,252.73,242.2,275.74Z"/><path class="cls-38" d="M243.44,273.94c-5.56,24.93-25.28,50.31-45.46,51.47-19.63-14-24.83-28.65-16.87-36.57-12.83-2.66-8-22.37-4.76-29.38-.65-21.07,23-21.67,44.8-17.34C232.72,244.43,248.46,251.45,243.44,273.94Z"/><path class="cls-39" d="M244.72,272.23c-6.37,24.72-26.5,48.69-46.5,49-19.6-15.07-23.79-30.54-14.75-38.77-11.82-2.89-6-22.24-2.31-28.31-.18-19.85,23.1-19.08,43.72-14C235.87,242.87,250.39,250.26,244.72,272.23Z"/><path class="cls-40" d="M246,270.6c-7.19,24.52-27.72,47.07-47.54,46.46-19.57-16.16-22.75-32.41-12.63-41C175.07,273,182,254,186,248.86c.29-18.63,23.19-16.49,42.64-10.6C239.08,241.41,252.34,249.15,246,270.6Z"/><path class="cls-41" d="M248.45,269c-8,24.31-28.94,45.45-48.58,43.95-19.54-17.25-21.72-34.29-10.52-43.16-9.78-3.35-1.86-22,2.59-26.17.77-17.41,23.3-13.87,41.57-7.24C243.39,240,255.37,248.1,248.45,269Z"/><path class="cls-42" d="M251,267.53c-8.89,24.11-30.17,43.84-49.62,41.44-19.51-18.33-20.69-36.17-8.41-45.35-8.77-3.59.19-21.83,5-25.1,1.25-16.19,23.43-11.24,40.49-3.87C247.8,238.68,258.48,247.11,251,267.53Z"/><path class="cls-43" d="M253.51,265.63c-9.75,23.9-31.39,42.22-50.66,38.93-19.48-19.42-19.66-38-6.29-47.54-7.75-3.82,2.25-21.7,7.5-24,1.71-15,22.39-5.67,39.41-.51C251.36,238.46,261.64,245.73,253.51,265.63Z"/><path class="cls-44" d="M256,264.3c-10.64,23.69-32.62,40.59-51.71,36.42-19.44-20.51-18.62-39.93-4.17-49.74-6.74-4,4.3-21.56,9.94-23,2.19-13.76,22.34-3,38.33,2.86C255.65,237.33,264.73,244.9,256,264.3Z"/><path class="cls-45" d="M258.53,263c-11.53,23.48-33.84,39-52.75,33.92-19.41-21.6-17.59-41.81-2.05-51.94-5.73-4.29,6.35-21.43,12.39-21.9,2.66-12.53,22.28-.27,37.25,6.24C259.94,236.24,267.8,244.13,258.53,263Z"/><path class="cls-46" d="M261,261.77c-12.43,23.25-35.06,37.35-53.78,31.4-19.39-22.68-16.56-43.68.06-54.13-4.71-4.52,8.4-21.29,14.84-20.82,3.14-11.32,22.23,2.41,36.18,9.59C264.19,235.2,270.83,243.38,261,261.77Z"/><path class="cls-47" d="M263.45,260.55c-13.36,23-36.28,35.74-54.83,28.9-19.35-23.77-15.52-45.56,2.18-56.32-3.69-4.75,10.46-21.16,17.29-19.76,3.61-10.1,22.17,5.11,35.1,13C268.42,234.2,273.82,242.67,263.45,260.55Z"/><path class="cls-48" d="M265.85,259.37c-14.29,22.79-37.5,34.12-55.86,26.39-19.33-24.86-14.49-47.44,4.29-58.52-2.68-5,12.51-21,19.74-18.69,4.09-8.88,22.11,7.81,34,16.33C272.6,233.22,276.76,242,265.85,259.37Z"/><path class="cls-49" d="M268.2,258.21c-15.25,22.54-38.73,32.5-56.91,23.88-19.29-25.94-13.45-49.32,6.41-60.72-1.66-5.21,14.56-20.88,22.19-17.62,4.56-7.66,22.06,10.5,32.94,19.7C276.73,232.26,279.64,241.29,268.2,258.21Z"/><path class="cls-50" d="M270.47,257.06c-16.2,22.28-40,30.88-57.94,21.37-19.27-27-12.43-51.19,8.53-62.91-.66-5.45,16.61-20.75,24.64-16.55,5-6.44,22,13.2,31.85,23.07C280.79,231.31,282.44,240.61,270.47,257.06Z"/><path class="cls-51" d="M272.67,256c-17.18,22-41.18,29.27-59,18.87-19.23-28.12-11.39-53.08,10.65-65.11.36-5.68,18.66-20.61,27.08-15.48,5.51-5.22,22,15.89,30.78,26.44C284.76,230.5,285.15,240.06,272.67,256Z"/><path class="cls-52" d="M274.77,255.29c-18.16,21.7-42.4,27.64-60,16.35-19.21-29.2-10.36-54.95,12.76-67.3,1.37-5.91,20.72-20.48,29.54-14.41,6-4,21.88,18.58,29.7,29.8C288.64,230,287.75,239.76,274.77,255.29Z"/><path class="cls-53" d="M276.76,254.51c-19.14,21.4-43.62,26-61.06,13.85-19.18-30.29-9.33-56.83,14.87-69.49,2.39-6.15,22.77-20.35,32-13.35,6.46-2.78,21.83,21.28,28.62,33.17C292.42,229.38,290.26,239.42,276.76,254.51Z"/><path class="cls-54" d="M278.66,253.72c-20.13,21.07-44.84,24.41-62.1,11.34-19.15-31.38-8.29-58.71,17-71.69C237,187,258.38,173.16,268,181.09c6.93-1.56,21.77,24,27.54,36.54C296.1,228.79,292.67,239.06,278.66,253.72Z"/><path class="cls-55" d="M280.48,252.91c-21.13,20.73-46.06,22.79-63.14,8.83-19.12-32.47-7.26-60.59,19.11-73.89,4.42-6.61,26.88-20.07,36.89-11.2,7.4-.35,21.71,26.66,26.46,39.9C299.71,228.18,295,238.67,280.48,252.91Z"/><path class="cls-56" d="M283.4,251.54c-22.13,20.38-50,23.77-64.18,6.32-24.38-29.93-6.23-62.47,21.22-76.08,5.43-6.84,28.93-19.94,39.34-10.13,7.87.87,24,28.94,25.39,43.27C306.37,227,298.41,237.72,283.4,251.54Z"/><path class="cls-57" d="M285.23,250.75c-23.13,20-51.16,22-65.22,3.81-24.22-31.25-5.2-64.34,23.34-78.27,6.45-7.08,31-19.8,41.79-9.07,8.35,2.09,23.78,31.82,24.3,46.64C309.89,226.51,300.75,237.33,285.23,250.75Z"/><path class="cls-58" d="M286.76,249.82c-24.14,19.63-52.34,20.18-66.27,1.31-24-32.57-1.44-61.6,25.46-80.47,8.55-6,33-19.67,44.24-8,8.82,3.31,23.61,34.66,23.23,50C313.09,225.87,302.79,236.8,286.76,249.82Z"/><path class="cls-59" d="M288.55,249c-25.14,19.22-53.5,18.39-67.3-1.21-23.86-33.87-.76-63.9,27.57-82.66,9.46-6.27,35.09-19.54,46.69-6.93,9.3,4.53,23.42,37.48,22.15,53.37C316.56,225.31,305.09,236.34,288.55,249Z"/><path class="cls-60" d="M290.31,247.68C264.16,266.49,235.65,264.29,222,244c-23.67-35.17,0-66.16,29.69-84.86,10.38-6.54,35.17-17.36,49.13-5.86,8.75,7.2,23.24,40.27,21.07,56.73C320,224.26,307.36,235.41,290.31,247.68Z"/><path class="cls-61" d="M292,246.86c-27.15,18.39-55.82,14.86-69.39-6.21-23.46-36.45.8-68.37,31.81-87.06,11.32-6.81,37.39-17.49,51.59-4.79,9.23,8.26,23.06,43,20,60.1C323.37,223.69,309.6,235,292,246.86Z"/><path class="cls-62" d="M293.71,246c-28.14,17.94-57,13.1-70.42-8.73-23.26-37.72,1.62-70.55,33.92-89.25,12.26-7.09,39.59-17.59,54-3.72,9.73,9.34,22.89,45.8,18.92,63.47C326.73,223.09,311.8,234.49,293.71,246Z"/><path class="cls-63" d="M295.36,245.17c-29.14,17.49-58.12,11.35-71.47-11.24-23-39,2.48-72.7,36-91.44,13.21-7.38,41.79-17.65,56.49-2.66,10.23,10.44,22.7,48.55,17.83,66.84C330.05,222.45,314,234,295.36,245.17Z"/><path class="cls-64" d="M297,244.29c-30.12,17-59.26,9.61-72.51-13.75-22.83-40.24,3.36-74.82,38.16-93.64,14.16-7.65,44-17.67,58.93-1.58,10.75,11.55,22.55,51.27,16.76,70.21C333.34,221.78,316.12,233.46,297,244.29Z"/><path class="cls-65" d="M298.55,243.39c-31.1,16.56-60.4,7.88-73.55-16.26-22.61-41.48,4.26-76.92,40.28-95.83,15.12-7.94,46.13-17.68,61.38-.52,11.26,12.68,22.38,54,15.68,73.58C336.61,221.09,318.24,232.9,298.55,243.39Z"/><path class="cls-66" d="M300.1,242.47c-32.08,16.08-61.53,6.15-74.59-18.76-22.39-42.73,5.17-79,42.39-98,16.09-8.23,48.3-17.66,63.83.55,11.78,13.82,22.23,56.69,14.6,76.94C339.85,220.37,320.33,232.32,300.1,242.47Z"/><path class="cls-67" d="M301.62,241.53C268.57,257.13,239,246,226,220.26c-22.17-43.95,6.1-81.07,44.51-100.22,17.06-8.51,50.45-17.63,66.28,1.62,12.3,15,22.08,59.39,13.52,80.31C343.07,219.63,322.4,231.72,301.62,241.53Z"/><path class="cls-68" d="M303.11,240.58c-34,15.11-63.79,2.72-76.67-23.78-21.95-45.17,7-83.12,46.63-102.42,18-8.79,52.59-17.58,68.73,2.69,12.82,16.12,21.93,62.09,12.44,83.68C346.27,218.87,324.45,231.1,303.11,240.58Z"/><path class="cls-69" d="M304.58,239.61c-35,14.61-64.92,1-77.71-26.29-21.73-46.38,8-85.16,48.74-104.61,19-9.07,54.74-17.53,71.18,3.76,13.35,17.27,21.8,64.77,11.37,87C349.45,218.09,326.48,230.46,304.58,239.61Z"/><path class="cls-70" d="M306,238.63c-35.92,14.11-66-.69-78.75-28.8-21.51-47.59,8.94-87.18,50.86-106.8,20-9.36,56.86-17.47,73.63,4.82,13.86,18.44,21.66,67.46,10.28,90.41C352.61,217.3,328.5,229.8,306,238.63Z"/><path class="cls-71" d="M307.46,237.63c-36.86,13.61-67.17-2.38-79.79-31.3-21.29-48.79,9.9-89.21,53-109,21-9.64,59-17.4,76.08,5.89,14.39,19.61,21.54,70.14,9.21,93.78C355.76,216.49,330.5,229.13,307.46,237.63Z"/><path class="cls-72" d="M308.87,236.63c-37.8,13.1-68.29-4.08-80.83-33.82-21.07-50,10.87-91.21,55.09-111.19,22-9.93,61.11-17.32,78.53,7,14.9,20.78,21.41,72.82,8.13,97.15C358.9,215.67,332.49,228.44,308.87,236.63Z"/><path class="cls-73" d="M310.27,235.61c-38.73,12.59-69.42-5.76-81.87-36.32-20.86-51.17,11.84-93.22,57.2-113.4,22.95-10.2,63.23-17.23,81,8,15.42,22,21.29,75.49,7.05,100.51C362,214.83,334.46,227.74,310.27,235.61Z"/><path class="cls-74" d="M311.65,234.57c-39.65,12.09-70.53-7.44-82.91-38.82-20.64-52.35,12.82-95.22,59.32-115.59C312,69.67,353.41,63,371.49,89.26c15.94,23.14,21.17,78.16,6,103.88C365.14,214,336.43,227,311.65,234.57Z"/><path class="cls-75" d="M313,233.53c-40.57,11.57-71.65-9.12-83.95-41.33C208.65,138.67,242.88,95,290.51,74.42,315.43,63.65,358,57.36,376.39,84.59c16.46,24.32,21.06,80.83,4.89,107.24C368.25,213.13,338.4,226.3,313,233.53Z"/><path class="cls-76" d="M314.39,232.48c-41.49,11.06-72.78-10.79-85-43.84-20.22-54.7,14.79-99.19,63.55-120,25.91-11,69.56-17,88.33,11.24,17,25.51,21,83.5,3.81,110.61C371.35,212.26,340.36,225.56,314.39,232.48Z"/><path class="cls-77" d="M315.74,231.42c-42.39,10.54-73.89-12.47-86-46.35-20-55.86,15.78-101.17,65.67-122.18C322.28,51.57,367.05,46,386.16,75.2c17.49,26.7,20.84,86.18,2.73,114C374.44,211.38,342.31,224.81,315.74,231.42Z"/><path class="cls-78" d="M317.09,230.35c-43.29,10-75-14.14-87.07-48.86-19.8-57,16.77-103.15,67.78-124.37C325.7,45.52,371.57,40.36,391,70.5c18,27.88,20.74,88.84,1.66,117.35C377.53,210.49,344.26,224.05,317.09,230.35Z"/><path class="cls-79" d="M318.43,229.27c-44.19,9.51-76.13-15.8-88.11-51.37-19.59-58.18,17.76-105.12,69.9-126.56,28.89-11.89,75.87-16.66,95.68,14.44,18.52,29.08,20.63,91.52.58,120.72C380.61,209.59,346.21,223.29,318.43,229.27Z"/><path class="cls-80" d="M319.77,228.18c-45.09,9-77.26-17.46-89.16-53.88-19.38-59.33,18.76-107.08,72-128.75,29.89-12.17,78-16.56,98.13,15.51,19,30.27,20.54,94.18-.5,124.08C383.7,208.68,348.16,222.51,319.77,228.18Z"/><path class="cls-81" d="M321.1,227.08c-46,8.49-78.38-19.12-90.19-56.38-19.18-60.48,19.75-109,74.13-130.95C335.92,27.31,385.1,23.3,405.62,56.33c19.54,31.46,20.43,96.85-1.58,127.45C386.78,207.77,350.11,221.73,321.1,227.08Z"/><path class="cls-82" d="M322.43,226c-46.86,8-79.5-20.78-91.24-58.9-19-61.62,20.76-111,76.26-133.14,31.87-12.72,82.15-16.34,103,17.65,20.06,32.65,20.34,99.52-2.66,130.82C389.85,206.85,352.05,220.93,322.43,226Z"/><path class="cls-83" d="M323.75,224.87c-47.74,7.46-80.61-22.43-92.27-61.41-18.78-62.76,21.75-113,78.37-135.34,32.87-13,84.24-16.22,105.47,18.73C435.89,80.69,435.57,149,411.58,181,392.93,205.92,354,220.14,323.75,224.87Z"/><path class="cls-84" d="M325.07,223.75c-48.61,7-81.73-24.08-93.31-63.91C213.18,95.94,254.52,44.92,312.25,22.3,346.11,9,398.58,6.19,420.17,42.1c21.07,35,20.15,104.85-4.82,137.55C396,205,355.94,219.33,325.07,223.75Z"/><path class="cls-85" d="M326.39,222.64c-49.48,6.45-82.85-25.73-94.35-66.42-18.38-65,23.73-116.95,82.6-139.73C349.49,2.9,403.1.47,425,37.35c21.61,36.22,20,107.49-5.9,140.92C399.05,204,357.89,218.53,326.39,222.64Z"/><path class="cls-86" d="M232.32,152.57C214.13,86.39,257.08,33.74,317,10.64,352.9-3.18,407.55-5.24,429.86,32.57c22.09,37.44,20,110.19-7,144.29-20.73,26.24-63,40.84-95.17,44.63C277.35,227.44,243.74,194.12,232.32,152.57Z"/></g></g></svg>