<svg xmlns="http://www.w3.org/2000/svg" viewBox="0 0 585.9 355.58"><defs><style>.cls-1,.cls-10,.cls-11,.cls-12,.cls-13,.cls-14,.cls-15,.cls-16,.cls-17,.cls-18,.cls-19,.cls-2,.cls-20,.cls-21,.cls-22,.cls-23,.cls-24,.cls-25,.cls-26,.cls-27,.cls-28,.cls-29,.cls-3,.cls-30,.cls-31,.cls-32,.cls-33,.cls-34,.cls-35,.cls-36,.cls-37,.cls-38,.cls-39,.cls-4,.cls-40,.cls-41,.cls-42,.cls-43,.cls-44,.cls-45,.cls-46,.cls-47,.cls-48,.cls-49,.cls-5,.cls-50,.cls-51,.cls-52,.cls-53,.cls-54,.cls-55,.cls-56,.cls-57,.cls-58,.cls-59,.cls-6,.cls-60,.cls-61,.cls-62,.cls-63,.cls-64,.cls-65,.cls-66,.cls-67,.cls-68,.cls-69,.cls-7,.cls-70,.cls-71,.cls-72,.cls-73,.cls-74,.cls-75,.cls-76,.cls-77,.cls-78,.cls-79,.cls-8,.cls-80,.cls-81,.cls-82,.cls-83,.cls-84,.cls-85,.cls-86,.cls-9{fill:none;stroke-miterlimit:10;}.cls-1{stroke:#f5ff3f;}.cls-1,.cls-10,.cls-11,.cls-12,.cls-13,.cls-14,.cls-15,.cls-16,.cls-17,.cls-18,.cls-19,.cls-2,.cls-20,.cls-21,.cls-22,.cls-23,.cls-24,.cls-25,.cls-26,.cls-27,.cls-28,.cls-29,.cls-3,.cls-30,.cls-31,.cls-32,.cls-33,.cls-34,.cls-35,.cls-36,.cls-37,.cls-38,.cls-39,.cls-4,.cls-40,.cls-41,.cls-42,.cls-43,.cls-44,.cls-45,.cls-46,.cls-47,.cls-48,.cls-49,.cls-5,.cls-50,.cls-51,.cls-52,.cls-53,.cls-54,.cls-55,.cls-56,.cls-57,.cls-58,.cls-59,.cls-6,.cls-60,.cls-61,.cls-62,.cls-63,.cls-64,.cls-65,.cls-66,.cls-67,.cls-68,.cls-69,.cls-7,.cls-70,.cls-71,.cls-72,.cls-73,.cls-74,.cls-75,.cls-76,.cls-77,.cls-78,.cls-79,.cls-80,.cls-81,.cls-82,.cls-83,.cls-84,.cls-85,.cls-86,.cls-9{stroke-width:3px;}.cls-2{stroke:#f5fe3e;}.cls-3{stroke:#f5fd3e;}.cls-4{stroke:#f5fc3d;}.cls-5{stroke:#f5fb3c;}.cls-6{stroke:#f6fa3b;}.cls-7{stroke:#f6f93b;}.cls-8{stroke:#f6f83a;stroke-width:3px;}.cls-9{stroke:#f6f739;}.cls-10{stroke:#f6f638;}.cls-11{stroke:#f6f538;}.cls-12{stroke:#f6f437;}.cls-13{stroke:#f6f336;}.cls-14{stroke:#f7f235;}.cls-15{stroke:#f7f135;}.cls-16{stroke:#f7f034;}.cls-17{stroke:#f7ef33;}.cls-18{stroke:#f7ee32;}.cls-19{stroke:#f7ed32;}.cls-20{stroke:#f7ec31;}.cls-21{stroke:#f7eb30;}.cls-22{stroke:#f7ea2f;}.cls-23{stroke:#f8e92f;}.cls-24{stroke:#f8e82e;}.cls-25{stroke:#f8e72d;}.cls-26{stroke:#f8e62c;}.cls-27{stroke:#f8e52c;}.cls-28{stroke:#f8e42b;}.cls-29{stroke:#f8e32a;}.cls-30{stroke:#f8e22a;}.cls-31{stroke:#f9e129;}.cls-32{stroke:#f9e028;}.cls-33{stroke:#f9df27;}.cls-34{stroke:#f9de27;}.cls-35{stroke:#f9dd26;}.cls-36{stroke:#f9dc25;}.cls-37{stroke:#f9db24;}.cls-38{stroke:#f9da24;}.cls-39{stroke:#f9d923;}.cls-40{stroke:#fad822;}.cls-41{stroke:#fad721;}.cls-42{stroke:#fad621;}.cls-43{stroke:#fad520;}.cls-44{stroke:#fad51f;}.cls-45{stroke:#fad41e;}.cls-46{stroke:#fad31e;}.cls-47{stroke:#fad21d;}.cls-48{stroke:#fbd11c;}.cls-49{stroke:#fbd01b;}.cls-50{stroke:#fbcf1b;}.cls-51{stroke:#fbce1a;}.cls-52{stroke:#fbcd19;}.cls-53{stroke:#fbcc18;}.cls-54{stroke:#fbcb18;}.cls-55{stroke:#fbca17;}.cls-56{stroke:#fbc916;}.cls-57{stroke:#fcc815;}.cls-58{stroke:#fcc715;}.cls-59{stroke:#fcc614;}.cls-60{stroke:#fcc513;}.cls-61{stroke:#fcc413;}.cls-62{stroke:#fcc312;}.cls-63{stroke:#fcc211;}.cls-64{stroke:#fcc110;}.cls-65{stroke:#fdc010;}.cls-66{stroke:#fdbf0f;}.cls-67{stroke:#fdbe0e;}.cls-68{stroke:#fdbd0d;}.cls-69{stroke:#fdbc0d;}.cls-70{stroke:#fdbb0c;}.cls-71{stroke:#fdba0b;}.cls-72{stroke:#fdb90a;}.cls-73{stroke:#fdb80a;}.cls-74{stroke:#feb709;}.cls-75{stroke:#feb608;}.cls-76{stroke:#feb507;}.cls-77{stroke:#feb407;}.cls-78{stroke:#feb306;}.cls-79{stroke:#feb205;}.cls-80{stroke:#feb104;}.cls-81{stroke:#feb004;}.cls-82{stroke:#ffaf03;}.cls-83{stroke:#ffae02;}.cls-84{stroke:#ffad01;}.cls-85{stroke:#ffac01;}.cls-86{stroke:#ffab00;}</style></defs><g id="圖層_2" data-name="圖層 2"><g id="圖層_1-2" data-name="圖層 1"><path class="cls-1" d="M580.62,124.24C563.06,190.58,499.45,214.49,436,204.3c-37.94-6.09-86.22-31.8-86.48-75.7-.26-43.47,38.16-105.28,78.6-121.2,31.12-12.25,75-3.59,104.71,9.29C579.35,36.88,591.65,82.59,580.62,124.24Z" transform="translate(0 0)"/><path class="cls-2" d="M347.85,129.14C348,86.41,386.18,25.67,426.09,10.63c30.49-11.49,73.2-2.49,101.78,10.12,45.52,19.88,57.1,64.75,46.2,105.4-17.36,65-79.77,87.94-142,77.69C395,197.67,347.67,172.37,347.85,129.14Z" transform="translate(0 0)"/><path class="cls-3" d="M346.18,129.67c.64-42,38.5-101.67,77.88-115.81,29.86-10.73,71.31-1.28,98.84,11,44.45,19.75,55.4,63.6,44.62,103.24-17.15,63.76-78.36,85.65-139.35,75.33C391.85,197.14,345.54,172.24,346.18,129.67Z" transform="translate(0 0)"/><path class="cls-4" d="M344.52,130.23C345.6,89,383.18,30.34,422,17.1c29.24-10,69.45-.12,95.91,11.79C561.35,48.42,571.63,91.34,561,130c-17,62.47-77,83.35-136.73,73C388.75,196.62,343.42,172.12,344.52,130.23Z" transform="translate(0 0)"/><path class="cls-5" d="M342.87,130.77C344.4,90.28,381.71,32.67,420,20.33c28.62-9.21,67.58,1,93,12.62,42.37,19.32,51.88,61.28,41.46,98.93-16.91,61.13-75.58,81.2-134.1,70.59C385.65,196.18,341.31,172,342.87,130.77Z" transform="translate(0 0)"/><path class="cls-6" d="M341.21,131.34c2-39.76,39-96.33,76.79-107.74,28-8.47,65.72,2.2,90,13.45,41.33,19.11,50.15,60.11,39.89,96.77-16.76,59.82-74.19,78.94-131.48,68.22C382.55,195.7,339.19,171.88,341.21,131.34Z" transform="translate(0 0)"/><path class="cls-7" d="M339.55,131.92c2.43-39,39.21-94.56,76.43-105,27.42-7.72,63.85,3.36,87.11,14.29,40.28,18.91,48.42,59,38.3,94.61-16.59,58.52-72.79,76.68-128.85,65.86C379.45,195.23,337.08,171.79,339.55,131.92Z" transform="translate(0 0)"/><path class="cls-8" d="M337.9,132.52C340.77,94.23,377.3,39.71,414,30.16c26.83-7,62,4.53,84.18,15.12,39.23,18.72,46.68,57.8,36.72,92.46-16.43,57.21-71.39,74.42-126.22,63.48C376.35,194.78,335,171.7,337.9,132.52Z" transform="translate(0 0)"/><path class="cls-9" d="M336.25,133.13c3.32-37.56,39.6-91.06,75.7-99.66,26.24-6.26,60.11,5.68,81.24,15.94,38.18,18.54,44.95,56.65,35.15,90.31-16.28,55.91-70,72.16-123.6,61.12C373.26,194.35,332.85,171.63,336.25,133.13Z" transform="translate(0 0)"/><path class="cls-10" d="M334.6,133.76c3.76-36.83,39.81-89.33,75.34-97,25.67-5.52,58.23,6.85,78.31,16.79,37.11,18.36,43.21,55.48,33.56,88.15-16.12,54.59-68.61,69.9-121,58.74C370.16,193.93,330.74,171.57,334.6,133.76Z" transform="translate(0 0)"/><path class="cls-11" d="M333,134.4c4.2-36.11,40-87.6,75-94.28,25.12-4.8,56.36,8,75.38,17.61,36,18.2,41.48,54.33,32,86-16,53.29-67.21,67.64-118.34,56.38C367.08,193.53,328.63,171.52,333,134.4Z" transform="translate(0 0)"/><path class="cls-12" d="M331.31,135.06c4.66-35.4,40.26-85.88,74.61-91.59,24.58-4.08,54.49,9.18,72.45,18.45,35,18,39.75,53.16,30.41,83.83-15.83,52-65.83,65.39-115.72,54C364,193.14,326.53,171.48,331.31,135.06Z" transform="translate(0 0)"/><path class="cls-13" d="M329.67,135.74c5.1-34.69,40.51-84.18,74.25-88.91,24-3.36,52.6,10.35,69.52,19.28,33.88,17.9,38,52,28.82,81.69-15.68,50.67-64.44,63.13-113.09,51.64C360.9,192.77,324.43,171.46,329.67,135.74Z" transform="translate(0 0)"/><path class="cls-14" d="M328,136.43c5.54-34,40.76-82.47,73.88-86.21,23.53-2.66,50.72,11.51,66.59,20.11,32.77,17.77,36.27,50.84,27.24,79.52-15.53,49.36-63.05,60.89-110.47,49.28C357.82,192.41,322.33,171.45,328,136.43Z" transform="translate(0 0)"/><path class="cls-15" d="M326.41,137.19c6-33.28,41.26-88.21,73.52-83.52C422.8,57,448.75,66.34,463.58,74.61c31.66,17.66,34.53,49.68,25.66,77.37C473.86,200,427.58,210.61,381.4,198.89,354.74,192.12,320.23,171.5,326.41,137.19Z" transform="translate(0 0)"/><path class="cls-16" d="M324.78,138.07c6.43-32.58,41.91-87.11,73.16-80.83,22.14,4.45,46.93,13.84,60.71,21.78,30.54,17.57,32.8,48.52,24.09,75.21-15.25,46.73-60.28,56.38-105.22,44.54C351.67,192,318.14,171.68,324.78,138.07Z" transform="translate(0 0)"/><path class="cls-17" d="M323.16,139C330,107.08,365.79,53,396,60.84c21.39,5.57,45,15,57.78,22.6,29.38,17.51,31.06,47.36,22.51,73.06-15.11,45.41-58.89,54.14-102.59,42.18C348.59,191.82,316.06,171.86,323.16,139Z" transform="translate(0 0)"/><path class="cls-18" d="M321.54,139.89C328.87,108.69,365,55.05,394,64.44c20.61,6.69,43.12,16.18,54.85,23.45,28.2,17.47,29.32,46.19,20.93,70.9-15,44.09-57.51,51.88-100,39.81C345.53,191.69,314,172.06,321.54,139.89Z" transform="translate(0 0)"/><path class="cls-19" d="M319.92,140.82c7.79-30.52,44.37-83.65,72.08-72.75,19.79,7.78,41.19,17.33,51.91,24.27,27,17.47,27.58,45,19.35,68.75-14.84,42.77-56.13,49.64-97.34,37.44C342.46,191.58,311.91,172.27,319.92,140.82Z" transform="translate(0 0)"/><path class="cls-20" d="M318.32,140.84c8.24-29.85,42.78-67,71.71-70.07,20.24,5.32,39.26,18.5,49,25.11,25.73,17.51,25.84,43.86,17.77,66.59-14.71,41.45-54.75,47.39-94.71,35.07C339.41,190.55,309.84,171.56,318.32,140.84Z" transform="translate(0 0)"/><path class="cls-21" d="M316.72,141.57c8.7-29.18,43-65,71.35-67.38,19.67,6.25,37.32,19.65,46.05,25.94,24.42,17.6,24.1,42.69,16.19,64.44-14.59,40.12-53.37,45.15-92.09,32.7C336.36,190.24,307.79,171.55,316.72,141.57Z" transform="translate(0 0)"/><path class="cls-22" d="M315.14,142.29c9.15-28.52,43.26-63,71-64.68,19.09,7.16,35.35,20.78,43.11,26.77,23,17.74,22.35,41.52,14.61,62.28-14.47,38.79-52,42.91-89.46,30.33C333.32,189.92,305.76,171.53,315.14,142.29Z" transform="translate(0 0)"/><path class="cls-23" d="M313.12,143c9.61-27.87,43.5-61,70.62-62,18.52,8.09,34.6,20.7,40.18,27.61C448.57,122,444.53,149,437,168.73c-14.36,37.46-50.63,40.67-86.84,28C329.84,189.59,303.28,171.5,313.12,143Z" transform="translate(0 0)"/><path class="cls-24" d="M311.45,143.69c10.08-27.22,43.75-59,70.26-59.3,18,9,32.77,21.8,37.25,28.44,23.66,13.08,18.87,39.17,11.45,58-14.24,36.11-49.26,38.43-84.21,25.6C326.72,189.24,301.18,171.45,311.45,143.69Z" transform="translate(0 0)"/><path class="cls-25" d="M309.79,144.37c10.54-26.57,44-56.94,69.9-56.6C397.06,97.7,410.62,110.67,414,117c22.67,12.77,17.12,38,9.87,55.81C409.72,207.62,376,209,342.29,196.08,323.59,188.88,299.07,171.38,309.79,144.37Z" transform="translate(0 0)"/><path class="cls-26" d="M308.12,145.05c11-25.94,44.23-54.93,69.53-53.91,16.8,10.86,29.09,24,31.38,30.1,21.68,12.46,15.38,36.81,8.29,53.65-14.05,33.43-46.54,34-78.95,20.87C320.45,188.52,297,171.3,308.12,145.05Z" transform="translate(0 0)"/><path class="cls-27" d="M306.44,145.73c11.5-25.31,44.47-52.92,69.17-51.23,16.23,11.79,27.25,25.11,28.45,30.94,20.68,12.15,13.62,35.63,6.71,51.5-14,32.06-45.19,31.73-76.33,18.5C317.31,188.16,294.86,171.21,306.44,145.73Z" transform="translate(0 0)"/><path class="cls-28" d="M304.75,146.41c12-24.7,44.72-50.91,68.81-48.54,15.65,12.71,25.42,26.21,25.51,31.77,19.69,11.84,11.88,34.44,5.14,49.34-13.9,30.7-43.84,29.5-73.71,16.13C314.15,187.79,292.75,171.12,304.75,146.41Z" transform="translate(0 0)"/><path class="cls-29" d="M303.05,147.08c12.48-24.08,45-48.89,68.45-45.84,15.08,13.63,23.58,27.31,22.58,32.6,18.69,11.53,10.13,33.25,3.55,47.18-13.83,29.32-42.49,27.27-71.08,13.76C311,187.42,290.64,171,303.05,147.08Z" transform="translate(0 0)"/><path class="cls-30" d="M301.34,147.75c13-23.47,45.21-46.87,68.09-43.15C383.94,119.16,391.17,133,389.08,138c17.69,11.23,8.37,32.05,2,45-13.78,27.93-41.16,25-68.45,11.4C307.79,187.06,288.53,170.92,301.34,147.75Z" transform="translate(0 0)"/><path class="cls-31" d="M299.62,148.42c13.49-22.86,45.45-44.86,67.72-40.46,13.94,15.49,19.91,29.53,16.72,34.27,16.71,10.91,6.63,30.85.39,42.87-13.74,26.52-39.82,22.81-65.82,9C304.59,186.69,286.42,170.81,299.62,148.42Z" transform="translate(0 0)"/><path class="cls-32" d="M297.89,149.1c14-22.27,45.69-42.85,67.36-37.77,13.37,16.41,18.07,30.63,13.79,35.1,15.71,10.6,4.87,29.63-1.19,40.71-13.73,25.09-38.51,20.59-63.2,6.66C301.37,186.32,284.3,170.7,297.89,149.1Z" transform="translate(0 0)"/><path class="cls-33" d="M296.15,149.77c14.54-21.67,45.93-40.83,67-35.07C375.94,132,379.38,146.43,374,150.63c14.71,10.29,3.13,28.41-2.77,38.56-13.73,23.64-37.2,18.35-60.58,4.29C298.14,186,282.19,170.6,296.15,149.77Z" transform="translate(0 0)"/><path class="cls-34" d="M294.4,150.46c15.07-21.09,46.17-38.82,66.63-32.39,12.22,18.26,14.39,32.84,7.92,36.76,13.72,10,1.38,27.18-4.35,36.41-13.75,22.15-35.89,16.12-58,1.92C294.88,185.59,280.07,170.5,294.4,150.46Z" transform="translate(0 0)"/><path class="cls-35" d="M292.63,151.15c15.62-20.51,46.42-36.81,66.27-29.7,11.65,19.18,12.56,33.94,5,37.6,12.73,9.67-.36,25.92-5.93,34.25-13.79,20.63-34.6,13.89-55.32-.45C291.61,185.23,278,170.4,292.63,151.15Z" transform="translate(0 0)"/><path class="cls-36" d="M290,151.85c16.18-19.92,46.66-34.8,65.9-27,11.08,20.11,10.72,35,2.06,38.43,11.73,9.37-2.09,24.65-7.51,32.1-13.86,19-33.33,11.65-52.7-2.82C287.43,184.87,274.94,170.32,290,151.85Z" transform="translate(0 0)"/><path class="cls-37" d="M287,152c16.76-19.33,46.91-32.78,65.55-24.31,10.5,21,8.88,36.15-.88,39.26,10.74,9.06-2.62,24.52-9.09,29.94-10.23,19.83-32.06,9.4-50.07-5.18C282.91,184,271.63,169.74,287,152Z" transform="translate(0 0)"/><path class="cls-38" d="M283.92,152.68c17.34-18.75,47.15-30.77,65.19-21.63,9.92,22,7,37.26-3.82,40.1,9.75,8.75-4.32,23.37-10.66,27.78-10,18.54-30.81,7.15-47.45-7.55C278.34,183.57,268.27,169.59,283.92,152.68Z" transform="translate(0 0)"/><path class="cls-39" d="M280.84,153.31c17.94-18.16,47.39-28.75,64.82-18.93,9.36,22.88,5.2,38.36-6.75,40.93,8.76,8.44-6,22.22-12.24,25.62-9.83,17.25-29.57,4.88-44.82-9.91C273.72,183.14,264.89,169.46,280.84,153.31Z" transform="translate(0 0)"/><path class="cls-40" d="M277.73,154c18.55-17.56,47.63-26.73,64.45-16.24,8.79,23.81,3.37,39.46-9.68,41.76,7.77,8.13-7.73,21.08-13.82,23.47-9.63,16-28.34,2.59-42.19-12.28C269.06,182.69,261.49,169.33,277.73,154Z" transform="translate(0 0)"/><path class="cls-41" d="M274.6,154.6c19.17-17,47.88-24.72,64.09-13.55,8.22,24.73,1.53,40.57-12.61,42.59,6.77,7.83-9.44,19.93-15.4,21.32-9.42,14.66-27.12.27-39.57-14.65C264.38,182.24,258.09,169.22,274.6,154.6Z" transform="translate(0 0)"/><path class="cls-42" d="M271.47,155.26c19.8-16.37,48.12-22.72,63.73-10.86,7.64,25.65-.31,41.66-15.55,43.42,5.78,7.51-11.14,18.78-17,19.16-9.22,13.37-25.9-2.07-36.94-17C259.68,181.77,254.69,169.12,271.47,155.26Z" transform="translate(0 0)"/><path class="cls-43" d="M268,156c20.45-15.76,48.37-20.7,63.37-8.17,7.07,26.58-2.14,42.77-18.48,44.26,4.78,7.2-12.85,17.62-18.56,17-9,12.08-22.21-6.37-34.32-19.39C256.23,180.61,251,169.16,268,156Z" transform="translate(0 0)"/><path class="cls-44" d="M264.88,156.68c21.11-15.14,48.61-18.69,63-5.48,6.5,27.51-4,43.88-21.41,45.09,3.79,6.89-14.56,16.47-20.14,14.85-8.81,10.79-20.81-8.67-31.69-21.76C251.64,180.17,247.61,169.06,264.88,156.68Z" transform="translate(0 0)"/><path class="cls-45" d="M261.77,157.32c21.78-14.49,48.85-16.67,62.65-2.78,5.92,28.43-5.82,45-24.35,45.92,2.8,6.58-16.26,15.33-21.72,12.69-8.61,9.5-19.4-11-29.06-24.12C247.09,179.75,244.26,169,261.77,157.32Z" transform="translate(0 0)"/><path class="cls-46" d="M258.73,158c22.45-13.84,49.09-14.65,62.28-.09,5.35,29.36-7.66,46.09-27.28,46.75,1.8,6.28-18,14.18-23.3,10.54-8.4,8.21-18-13.27-26.44-26.49C242.61,179.33,241,168.92,258.73,158Z" transform="translate(0 0)"/><path class="cls-47" d="M255.78,158.53c23.13-13.19,49.34-12.64,61.92,2.6,4.78,30.28-9.5,47.18-30.21,47.58.81,6-19.68,13-24.88,8.38-8.2,6.92-16.59-15.57-23.81-28.85C238.23,178.81,237.82,168.77,255.78,158.53Z" transform="translate(0 0)"/><path class="cls-48" d="M253,158.61c23.82-12.51,49.58-10.62,61.56,5.29,4.2,31.21-11.34,48.29-33.15,48.42-.19,5.66-21.38,11.88-26.46,6.22-8,5.63-15.19-17.86-21.19-31.22C234,177.82,234.84,168.16,253,158.61Z" transform="translate(0 0)"/><path class="cls-49" d="M250.33,158.68c24.51-11.82,49.82-8.62,61.19,8,3.63,32.13-13.17,49.39-36.08,49.25-1.18,5.35-23.09,10.73-28,4.07-7.79,4.33-13.78-20.17-18.56-33.6C229.9,176.81,231.93,167.54,250.33,158.68Z" transform="translate(0 0)"/><path class="cls-50" d="M247.62,158.72c25.21-11.1,50.06-6.6,60.83,10.67,3.06,33.06-15,50.5-39,50.09-2.18,5-24.8,9.58-29.62,1.91-7.59,3-12.38-22.47-15.94-36C225.75,175.78,229,166.92,247.62,158.72Z" transform="translate(0 0)"/><path class="cls-51" d="M244.89,158.74c25.91-10.37,50.31-4.58,60.47,13.37,2.48,34-16.85,51.6-41.95,50.91-3.16,4.73-26.5,8.43-31.2-.24-7.38,1.75-11-24.77-13.3-38.33C221.59,174.74,226.07,166.28,244.89,158.74Z" transform="translate(0 0)"/><path class="cls-52" d="M242.15,158.75c26.61-9.63,50.55-2.57,60.1,16.05,1.92,34.9-18.68,52.71-44.87,51.75-4.17,4.42-28.21,7.28-32.78-2.4-7.19.46-9.57-27.07-10.69-40.69C217.41,173.67,223.11,165.64,242.15,158.75Z" transform="translate(0 0)"/><path class="cls-53" d="M239.39,158.73c27.31-8.86,50.8-.55,59.75,18.75,1.34,35.83-20.53,53.81-47.81,52.58-5.16,4.11-29.92,6.13-34.36-4.56-7-.83-8.17-29.36-8.06-43.06C213.22,172.58,220.14,165,239.39,158.73Z" transform="translate(0 0)"/><path class="cls-54" d="M237,158.7c28-8.09,51,1.46,59.38,21.44.77,36.75-22.36,54.92-50.74,53.41-6.15,3.81-31.62,5-35.94-6.71-6.78-2.13-6.76-31.67-5.43-45.43C209.36,171.48,217.5,164.33,237,158.7Z" transform="translate(0 0)"/><path class="cls-55" d="M234.87,158.66c28.69-7.29,51.27,3.47,59,24.13.19,37.68-24.21,56-53.68,54.25-7.15,3.49-33.33,3.83-37.52-8.87-6.57-3.42-5.36-34-2.81-47.8C205.82,170.36,215.17,163.67,234.87,158.66Z" transform="translate(0 0)"/><path class="cls-56" d="M233,158.65c29.38-6.48,55.15,4.59,58.65,26.82,6,38.13-26,57.12-56.61,55.08-8.13,3.18-35,2.68-39.09-11-6.37-4.71-6.15-37.06-.18-50.16C200.75,168.32,213,163,233,158.65Z" transform="translate(0 0)"/><path class="cls-57" d="M231.13,158.58c30.07-5.66,55.27,6.75,58.3,29.51,5.21,39.19-27.88,58.22-59.55,55.91-9.13,2.87-36.74,1.53-40.67-13.18-6.17-6-4.56-39.46,2.44-52.53C197.63,167.13,211,162.37,231.13,158.58Z" transform="translate(0 0)"/><path class="cls-58" d="M229.39,158.83c30.74-4.81,55.39,8.89,57.93,32.2,4.4,40.24-29.73,54-62.47,56.75-10.41.88-38.45.38-42.26-15.34-6-7.29-3-41.83,5.07-54.9C194.59,166.29,209,162,229.39,158.83Z" transform="translate(0 0)"/><path class="cls-59" d="M227.71,158.71c31.41-4,55.5,11,57.57,34.9,3.58,41.27-31.49,55.6-65.41,57.57-11.33.66-40.15-.76-43.84-17.49-5.75-8.59-1.39-44.17,7.7-57.27C191.6,165.09,207.06,161.32,227.71,158.71Z" transform="translate(0 0)"/><path class="cls-60" d="M225.73,158.72c31.89,4.53,55.61,13.13,57.2,37.58,2.77,42.29-33.27,57.18-68.34,58.41-12.26.43-39.13-2.69-45.42-19.65-3.94-10.63.17-46.5,10.33-59.64C188.31,164,204.93,155.76,225.73,158.72Z" transform="translate(0 0)"/><path class="cls-61" d="M224.15,158.8c32.38,5.14,55.72,15.24,56.85,40.27,1.94,43.3-35.07,58.7-71.28,59.24-13.2.2-41.11-3.68-47-21.8-3.82-11.78,1.73-48.8,13-62C185.41,163.06,203.2,155.47,224.15,158.8Z" transform="translate(0 0)"/><path class="cls-62" d="M222.6,158.88c32.88,5.76,55.83,17.33,56.48,43,1.13,44.3-36.88,60.16-74.21,60.07-14.16,0-43.07-4.71-48.58-24-3.71-13,3.27-51.09,15.58-64.37C182.53,162.1,201.47,155.18,222.6,158.88Z" transform="translate(0 0)"/><path class="cls-63" d="M221.05,159c33.39,6.36,55.94,19.42,56.12,45.65.31,45.29-38.7,61.59-77.14,60.91-15.13-.27-45-5.76-50.16-26.12-3.59-14.16,4.79-53.37,18.21-66.74C179.64,161.15,199.72,154.9,221.05,159Z" transform="translate(0 0)"/><path class="cls-64" d="M219.51,159.05c33.9,7,56.05,21.5,55.76,48.35-.51,46.26-40.54,63-80.08,61.74-16.09-.5-46.89-6.84-51.73-28.27-3.48-15.39,6.3-55.65,20.83-69.11C176.76,160.21,198,154.63,219.51,159.05Z" transform="translate(0 0)"/><path class="cls-65" d="M218,159.15c34.42,7.56,56.17,23.57,55.4,51-1.32,47.23-42.37,64.34-83,62.57-17.07-.74-48.77-7.93-53.31-30.43-3.36-16.62,7.8-57.91,23.45-71.47C173.86,159.28,196.19,154.36,218,159.15Z" transform="translate(0 0)"/><path class="cls-66" d="M216.44,159.26c34.95,8.15,56.28,25.62,55,53.73-2.13,48.18-44.21,65.68-85.94,63.4-18.05-1-50.63-9-54.9-32.58-3.23-17.87,9.31-60.18,26.09-73.84C171,158.36,194.4,154.11,216.44,159.26Z" transform="translate(0 0)"/><path class="cls-67" d="M214.9,158.6c36.41,3.14,56.39,27.68,54.67,56.42-2.94,49.14-46,67-88.88,64.24-19-1.23-52.47-10.14-56.47-34.74-3.11-19.12,10.79-62.44,28.71-76.21C168.06,156.68,192,156.62,214.9,158.6Z" transform="translate(0 0)"/><path class="cls-68" d="M213.36,158.77c37,4,56.51,29.73,54.31,59.11C263.92,268,219.78,286.19,175.86,283c-20-1.48-54.31-11.26-58.05-36.9-3-20.38,12.27-64.69,31.33-78.58C165.14,155.83,190.15,156.23,213.36,158.77Z" transform="translate(0 0)"/><path class="cls-69" d="M211.82,159c37.57,5,56.62,31.78,53.94,61.81-4.54,51-49.73,69.58-94.74,65.9-21-1.72-56.13-12.38-59.63-39.05-2.85-21.64,13.74-66.95,34-80.95C162.22,155,188.29,155.87,211.82,159Z" transform="translate(0 0)"/><path class="cls-70" d="M210.27,159.19c38.14,5.87,56.74,33.81,53.58,64.5-5.34,51.95-51.58,70.86-97.67,66.73-22-2-57.94-13.5-61.21-41.2-2.71-22.91,15.2-69.2,36.58-83.32C159.28,154.2,186.41,155.52,210.27,159.19Z" transform="translate(0 0)"/><path class="cls-71" d="M208.72,159.43c38.7,6.78,56.86,35.84,53.22,67.19-6.14,52.88-53.43,72.12-100.61,67.57-23-2.22-59.74-14.64-62.79-43.36-2.57-24.19,16.66-71.45,39.21-85.69C156.34,153.41,184.53,155.2,208.72,159.43Z" transform="translate(0 0)"/><path class="cls-72" d="M207.16,159.69c39.26,7.69,57,37.87,52.86,69.88-6.92,53.8-55.28,73.37-103.54,68.4-24-2.47-61.53-15.77-64.37-45.52-2.43-25.46,18.11-73.7,41.83-88C153.38,152.64,182.63,154.89,207.16,159.69Z" transform="translate(0 0)"/><path class="cls-73" d="M205.6,160c39.81,8.59,57.1,39.89,52.49,72.57-7.7,54.71-57.12,74.61-106.47,69.23-25-2.72-63.32-16.91-65.95-47.67-2.29-26.74,19.57-76,44.46-90.42C150.42,151.88,180.73,154.59,205.6,160Z" transform="translate(0 0)"/><path class="cls-74" d="M204,160.24c40.35,9.5,57.22,41.91,52.13,75.26-8.48,55.63-59,75.85-109.4,70.07-26-3-65.11-18.05-67.53-49.83-2.14-28,21-78.21,47.08-92.79C147.45,151.13,178.81,154.3,204,160.24Z" transform="translate(0 0)"/><path class="cls-75" d="M202.46,160.53c40.88,10.41,57.35,43.93,51.77,77.95C245,295,193.41,315.56,141.89,309.38c-27-3.23-66.88-19.18-69.11-52-2-29.3,22.45-80.46,49.71-95.16C144.47,150.4,176.89,154,202.46,160.53Z" transform="translate(0 0)"/><path class="cls-76" d="M200.88,160.84c41.42,11.31,57.47,45.93,51.41,80.64-10,57.44-62.67,78.29-115.28,71.73-27.95-3.49-68.65-20.33-70.69-54.14-1.84-30.59,23.9-82.71,52.34-97.52C141.48,149.67,175,153.75,200.88,160.84Z" transform="translate(0 0)"/><path class="cls-77" d="M199.3,161.15c41.94,12.21,57.6,47.94,51,83.33C239.54,302.82,185.82,324,132.13,317c-28.95-3.74-70.42-21.47-72.26-56.29-1.7-31.87,25.32-85,55-99.89C138.48,149,173,153.49,199.3,161.15Z" transform="translate(0 0)"/><path class="cls-78" d="M197.71,161.46c42.46,13.11,57.73,49.95,50.68,86-11.57,59.24-66.37,80.71-121.14,73.4-29.95-4-72.19-22.62-73.85-58.46C51.86,229.28,80.16,175.21,111,160.18,135.48,148.23,171.05,153.24,197.71,161.46Z" transform="translate(0 0)"/><path class="cls-79" d="M196.11,161.79c43,14,57.86,52,50.32,88.72-12.33,60.13-68.22,81.91-124.07,74.22C91.41,320.47,48.41,301,46.93,264.12c-1.38-34.44,28.19-89.47,60.22-104.62C132.47,147.52,169.09,153,196.11,161.79Z" transform="translate(0 0)"/><path class="cls-80" d="M194.51,162.12c43.5,14.9,58,53.95,50,91.41-13.09,61-70.07,83.12-127,75.06-31.94-4.52-75.71-24.91-77-62.77-1.23-35.72,29.62-91.72,62.84-107C129.45,146.82,167.12,152.74,194.51,162.12Z" transform="translate(0 0)"/><path class="cls-81" d="M192.91,162.46c44,15.78,58.12,55.94,49.59,94.1-13.84,61.91-71.92,84.31-129.94,75.89C79.62,327.67,35.1,306.4,34,267.53c-1.06-37,31.05-94,65.47-109.36C126.43,146.12,165.14,152.5,192.91,162.46Z" transform="translate(0 0)"/><path class="cls-82" d="M191.3,162.8c44.51,16.67,58.26,57.94,49.23,96.79-14.59,62.8-73.77,85.51-132.87,76.73-33.95-5-79.22-27.2-80.17-67.08C26.58,230.93,60,173,95.58,157.51,123.4,145.42,163.15,152.26,191.3,162.8Z" transform="translate(0 0)"/><path class="cls-83" d="M189.68,163.15c45,17.56,58.4,59.93,48.87,99.48-15.34,63.69-75.62,86.69-135.8,77.56C67.8,334.89,21.77,311.84,21,271c-.75-39.6,33.9-98.5,70.72-114.1C120.36,144.73,161.16,152,189.68,163.15Z" transform="translate(0 0)"/><path class="cls-84" d="M188.06,163.5c45.52,18.44,58.53,61.92,48.51,102.17-16.08,64.58-77.47,87.88-138.74,78.39-35.94-5.56-82.72-29.49-83.33-71.39-.58-40.88,35.33-100.75,73.35-116.46C117.32,144,159.16,151.79,188.06,163.5Z" transform="translate(0 0)"/><path class="cls-85" d="M186.44,163.84c46,19.31,58.67,63.91,48.14,104.86-16.82,65.46-79.33,89.14-141.67,79.22C56,342.14,8.4,317.28,8,274.38c-.47-42.18,36.75-103,76-118.83C114.29,143.37,157.15,151.54,186.44,163.84Z" transform="translate(0 0)"/><path class="cls-86" d="M232.59,271.77C215,338.11,151.42,362,88,351.83,50,345.73,1.77,320,1.5,276.13c-.26-43.47,38.16-105.28,78.6-121.2,31.12-12.25,75-3.6,104.71,9.29C231.32,184.41,243.62,230.11,232.59,271.77Z" transform="translate(0 0)"/></g></g></svg>