<svg xmlns="http://www.w3.org/2000/svg" viewBox="0 0 110.52 107.68"><defs><style>.cls-1,.cls-10,.cls-11,.cls-12,.cls-13,.cls-14,.cls-15,.cls-16,.cls-17,.cls-18,.cls-19,.cls-2,.cls-20,.cls-21,.cls-22,.cls-23,.cls-24,.cls-25,.cls-26,.cls-27,.cls-28,.cls-29,.cls-3,.cls-30,.cls-31,.cls-32,.cls-33,.cls-34,.cls-35,.cls-36,.cls-37,.cls-38,.cls-39,.cls-4,.cls-40,.cls-41,.cls-42,.cls-43,.cls-44,.cls-45,.cls-46,.cls-47,.cls-48,.cls-49,.cls-5,.cls-50,.cls-51,.cls-52,.cls-53,.cls-54,.cls-55,.cls-56,.cls-57,.cls-58,.cls-59,.cls-6,.cls-60,.cls-61,.cls-62,.cls-63,.cls-64,.cls-65,.cls-66,.cls-67,.cls-68,.cls-69,.cls-7,.cls-70,.cls-71,.cls-72,.cls-73,.cls-74,.cls-75,.cls-76,.cls-77,.cls-78,.cls-79,.cls-8,.cls-80,.cls-81,.cls-82,.cls-83,.cls-84,.cls-85,.cls-86,.cls-9{fill:none;stroke-miterlimit:10;}.cls-1{stroke:#f5ff3f;}.cls-1,.cls-10,.cls-11,.cls-12,.cls-13,.cls-14,.cls-15,.cls-16,.cls-17,.cls-18,.cls-19,.cls-2,.cls-20,.cls-21,.cls-22,.cls-23,.cls-24,.cls-25,.cls-26,.cls-27,.cls-28,.cls-29,.cls-3,.cls-30,.cls-31,.cls-32,.cls-33,.cls-34,.cls-35,.cls-36,.cls-37,.cls-38,.cls-39,.cls-4,.cls-40,.cls-41,.cls-42,.cls-43,.cls-44,.cls-45,.cls-46,.cls-47,.cls-48,.cls-49,.cls-5,.cls-50,.cls-51,.cls-52,.cls-53,.cls-54,.cls-55,.cls-56,.cls-57,.cls-58,.cls-59,.cls-6,.cls-60,.cls-61,.cls-62,.cls-63,.cls-64,.cls-65,.cls-66,.cls-67,.cls-68,.cls-69,.cls-7,.cls-70,.cls-71,.cls-72,.cls-73,.cls-74,.cls-75,.cls-76,.cls-77,.cls-78,.cls-79,.cls-80,.cls-81,.cls-82,.cls-83,.cls-84,.cls-85,.cls-86,.cls-9{stroke-width:3px;}.cls-2{stroke:#f5fe3e;}.cls-3{stroke:#f5fd3e;}.cls-4{stroke:#f5fc3d;}.cls-5{stroke:#f5fb3c;}.cls-6{stroke:#f6fa3b;}.cls-7{stroke:#f6f93b;}.cls-8{stroke:#f6f83a;stroke-width:3px;}.cls-9{stroke:#f6f739;}.cls-10{stroke:#f6f638;}.cls-11{stroke:#f6f538;}.cls-12{stroke:#f6f437;}.cls-13{stroke:#f6f336;}.cls-14{stroke:#f7f235;}.cls-15{stroke:#f7f135;}.cls-16{stroke:#f7f034;}.cls-17{stroke:#f7ef33;}.cls-18{stroke:#f7ee32;}.cls-19{stroke:#f7ed32;}.cls-20{stroke:#f7ec31;}.cls-21{stroke:#f7eb30;}.cls-22{stroke:#f7ea2f;}.cls-23{stroke:#f8e92f;}.cls-24{stroke:#f8e82e;}.cls-25{stroke:#f8e72d;}.cls-26{stroke:#f8e62c;}.cls-27{stroke:#f8e52c;}.cls-28{stroke:#f8e42b;}.cls-29{stroke:#f8e32a;}.cls-30{stroke:#f8e22a;}.cls-31{stroke:#f9e129;}.cls-32{stroke:#f9e028;}.cls-33{stroke:#f9df27;}.cls-34{stroke:#f9de27;}.cls-35{stroke:#f9dd26;}.cls-36{stroke:#f9dc25;}.cls-37{stroke:#f9db24;}.cls-38{stroke:#f9da24;}.cls-39{stroke:#f9d923;}.cls-40{stroke:#fad822;}.cls-41{stroke:#fad721;}.cls-42{stroke:#fad621;}.cls-43{stroke:#fad520;}.cls-44{stroke:#fad51f;}.cls-45{stroke:#fad41e;}.cls-46{stroke:#fad31e;}.cls-47{stroke:#fad21d;}.cls-48{stroke:#fbd11c;}.cls-49{stroke:#fbd01b;}.cls-50{stroke:#fbcf1b;}.cls-51{stroke:#fbce1a;}.cls-52{stroke:#fbcd19;}.cls-53{stroke:#fbcc18;}.cls-54{stroke:#fbcb18;}.cls-55{stroke:#fbca17;}.cls-56{stroke:#fbc916;}.cls-57{stroke:#fcc815;}.cls-58{stroke:#fcc715;}.cls-59{stroke:#fcc614;}.cls-60{stroke:#fcc513;}.cls-61{stroke:#fcc413;}.cls-62{stroke:#fcc312;}.cls-63{stroke:#fcc211;}.cls-64{stroke:#fcc110;}.cls-65{stroke:#fdc010;}.cls-66{stroke:#fdbf0f;}.cls-67{stroke:#fdbe0e;}.cls-68{stroke:#fdbd0d;}.cls-69{stroke:#fdbc0d;}.cls-70{stroke:#fdbb0c;}.cls-71{stroke:#fdba0b;}.cls-72{stroke:#fdb90a;}.cls-73{stroke:#fdb80a;}.cls-74{stroke:#feb709;}.cls-75{stroke:#feb608;}.cls-76{stroke:#feb507;}.cls-77{stroke:#feb407;}.cls-78{stroke:#feb306;}.cls-79{stroke:#feb205;}.cls-80{stroke:#feb104;}.cls-81{stroke:#feb004;}.cls-82{stroke:#ffaf03;}.cls-83{stroke:#ffae02;}.cls-84{stroke:#ffad01;}.cls-85{stroke:#ffac01;}.cls-86{stroke:#ffab00;}</style></defs><g id="圖層_2" data-name="圖層 2"><g id="圖層_1-2" data-name="圖層 1"><path class="cls-1" d="M61,105.11c-11.42-3.92-14.81-15.39-12.21-26.4C50.3,72.13,55.42,64,63.13,64.49s18,8,20.28,15.34c1.75,5.62-.32,13.22-3,18.26C76.31,106,68.13,107.58,61,105.11Z" transform="translate(0)"/><path class="cls-2" d="M63.09,64.15c7.49.57,17.67,8,19.8,15.24,1.63,5.49-.49,12.88-3.07,17.73-4.07,7.74-12.09,9.2-19.09,6.77C49.54,100,46.31,88.77,48.9,78,50.46,71.54,55.5,63.56,63.09,64.15Z" transform="translate(0)"/><path class="cls-3" d="M63,63.89c7.36.64,17.36,8,19.34,15.14,1.5,5.38-.68,12.53-3.18,17.21-4,7.55-11.87,8.92-18.69,6.52-11-3.82-14-14.84-11.45-25.42C50.57,71.05,55.53,63.23,63,63.89Z" transform="translate(0)"/><path class="cls-4" d="M62.92,63.59c7.22.71,17,8,18.87,15,1.38,5.26-.86,12.19-3.29,16.69-4,7.37-11.65,8.63-18.29,6.27C49.46,97.82,46.56,87,49.14,76.66,50.7,70.51,55.58,62.86,62.92,63.59Z" transform="translate(0)"/><path class="cls-5" d="M62.84,63.29c7.09.78,16.73,8.06,18.41,14.95,1.25,5.14-1,11.85-3.4,16.16-3.93,7.19-11.41,8.33-17.89,6C49.44,96.67,46.67,86.12,49.27,76,50.82,70,55.63,62.49,62.84,63.29Z" transform="translate(0)"/><path class="cls-6" d="M62.77,63c6.95.85,16.41,8.07,17.93,14.85,1.13,5-1.22,11.51-3.5,15.63-3.88,7-11.19,8-17.5,5.77-10.29-3.7-12.91-14-10.3-23.94C50.94,69.43,55.68,62.12,62.77,63Z" transform="translate(0)"/><path class="cls-7" d="M62.69,62.69c6.82.92,16.1,8.09,17.47,14.75,1,4.91-1.41,11.17-3.62,15.11-3.83,6.83-11,7.75-17.09,5.52-10.07-3.66-12.54-13.75-9.93-23.45C51.07,68.89,55.72,61.75,62.69,62.69Z" transform="translate(0)"/><path class="cls-8" d="M62.61,62.39c6.68,1,15.79,8.1,17,14.65.88,4.8-1.58,10.83-3.73,14.59-3.78,6.65-10.74,7.46-16.69,5.27-9.84-3.61-12.16-13.48-9.54-23C51.19,68.35,55.77,61.38,62.61,62.39Z" transform="translate(0)"/><path class="cls-9" d="M62.52,62.09C69.08,63.15,78,70.2,79.06,76.65c.76,4.69-1.77,10.48-3.84,14.06-3.74,6.46-10.51,7.17-16.29,5-9.61-3.57-11.78-13.21-9.16-22.48C51.31,67.81,55.81,61,62.52,62.09Z" transform="translate(0)"/><path class="cls-10" d="M62.44,61.8c6.42,1.12,15.17,8.12,16.06,14.45.65,4.58-1.94,10.14-3.94,13.54-3.69,6.28-10.29,6.88-15.9,4.77-9.38-3.53-11.4-12.94-8.77-22C51.42,67.27,55.85,60.64,62.44,61.8Z" transform="translate(0)"/><path class="cls-11" d="M62.35,61.5c6.29,1.2,14.87,8.14,15.6,14.36.52,4.47-2.13,9.79-4,13C70.25,95,63.83,95.46,58.4,93.39c-9.16-3.49-11-12.66-8.4-21.49C51.54,66.74,55.89,60.27,62.35,61.5Z" transform="translate(0)"/><path class="cls-12" d="M62.26,61.2c6.16,1.27,14.57,8.16,15.13,14.26.4,4.37-2.3,9.45-4.16,12.49-3.61,5.9-9.84,6.3-15.1,4.27-8.93-3.44-10.64-12.39-8-21C51.65,66.2,55.93,59.9,62.26,61.2Z" transform="translate(0)"/><path class="cls-13" d="M62.17,60.9c6,1.34,14.26,8.19,14.66,14.17.29,4.26-2.48,9.1-4.27,12-3.57,5.72-9.61,6-14.7,4-8.7-3.4-10.27-12.12-7.63-20.51C51.76,65.66,56,59.53,62.17,60.9Z" transform="translate(0)"/><path class="cls-14" d="M62.07,60.61c5.9,1.4,14,8.2,14.2,14.07.16,4.16-2.67,8.75-4.38,11.43-3.54,5.52-9.39,5.72-14.31,3.77-8.46-3.36-9.88-11.84-7.24-20C51.87,65.13,56,59.16,62.07,60.61Z" transform="translate(0)"/><path class="cls-15" d="M62,60.31c5.76,1.48,13.65,8.23,13.72,14,0,4.07-2.84,8.41-4.48,10.91-3.51,5.33-9.16,5.43-13.91,3.52-8.24-3.31-9.51-11.57-6.86-19.53C52,64.59,56,58.79,62,60.31Z" transform="translate(0)"/><path class="cls-16" d="M61.88,60c5.63,1.54,13.35,8.26,13.26,13.87-.07,4-3,8.06-4.6,10.38-3.47,5.14-8.93,5.14-13.51,3.27-8-3.27-9.13-11.3-6.48-19C52.08,64.05,56.06,58.43,61.88,60Z" transform="translate(0)"/><path class="cls-17" d="M61.78,59.73c5.51,1.61,13,8.29,12.79,13.77-.19,3.88-3.21,7.71-4.71,9.85-3.44,4.94-8.7,4.85-13.11,3-7.78-3.23-8.75-11-6.1-18.55C52.18,63.52,56.09,58.06,61.78,59.73Z" transform="translate(0)"/><path class="cls-18" d="M61.67,59.43C67.06,61.12,74.43,67.76,74,73.11c-.31,3.8-3.39,7.36-4.82,9.33C65.76,87.17,60.7,87,56.47,85.21c-7.55-3.19-8.37-10.75-5.71-18C52.28,63,56.12,57.7,61.67,59.43Z" transform="translate(0)"/><path class="cls-19" d="M61.57,59.14C66.83,60.9,74,67.51,73.43,72.72c-.43,3.72-3.57,7-4.93,8.8-3.41,4.52-8.25,4.27-12.31,2.53-7.32-3.15-8-10.49-5.33-17.57C52.37,62.45,56.15,57.34,61.57,59.14Z" transform="translate(0)"/><path class="cls-20" d="M61.49,58.85c5.14,1.83,11.22,8.36,11.39,13.48a29.4,29.4,0,0,1-5,8.28c-3.4,4.29-8,4-11.91,2.27-7.09-3.11-7.63-10.21-5-17.07C52.5,61.92,56.21,57,61.49,58.85Z" transform="translate(0)"/><path class="cls-21" d="M61.4,58.57c5,1.89,10.87,8.37,10.92,13.38a29.64,29.64,0,0,1-5.14,7.75c-3.4,4.06-7.8,3.69-11.51,2-6.86-3.07-7.25-9.94-4.57-16.58C52.61,61.39,56.25,56.62,61.4,58.57Z" transform="translate(0)"/><path class="cls-22" d="M61.31,58.28c4.89,2,10.51,8.4,10.45,13.28a30.2,30.2,0,0,1-5.24,7.23c-3.41,3.82-7.58,3.4-11.12,1.77-6.63-3-6.87-9.67-4.19-16.09C52.72,60.87,56.3,56.26,61.31,58.28Z" transform="translate(0)"/><path class="cls-23" d="M61.22,57.89c4.77,2,10.15,8.42,10,13.19a21.41,21.41,0,0,1-5.35,6.7c-2.67,4.16-7.35,3.11-10.72,1.52-6.39-3-6.5-9.4-3.81-15.59C52.83,60.24,56.34,55.81,61.22,57.89Z" transform="translate(0)"/><path class="cls-24" d="M61.13,57.59c4.65,2.12,9.79,8.43,9.52,13.09a19.92,19.92,0,0,1-5.47,6.18c-2.6,4-7.11,2.81-10.32,1.27C48.7,75.17,48.74,69,51.44,63,52.94,59.69,56.39,55.44,61.13,57.59Z" transform="translate(0)"/><path class="cls-25" d="M61,57.29c4.53,2.19,9.44,8.45,9.05,13-2,2.92-4.41,5.14-5.58,5.65-2.52,3.82-6.88,2.52-9.92,1-5.92-2.92-5.74-8.86-3-14.61C53.05,59.15,56.44,55.07,61,57.29Z" transform="translate(0)"/><path class="cls-26" d="M61,57c4.41,2.26,9.08,8.46,8.58,12.89C67.41,72.69,65,74.68,63.85,75c-2.46,3.65-6.66,2.24-9.53.78-5.68-2.89-5.37-8.6-2.65-14.13C53.16,58.6,56.49,54.7,61,57Z" transform="translate(0)"/><path class="cls-27" d="M60.86,56.68c4.3,2.34,8.72,8.48,8.11,12.8-2.27,2.7-4.75,4.46-5.79,4.6-2.39,3.47-6.43,1.94-9.12.52-5.45-2.86-5-8.34-2.28-13.63C53.28,58.05,56.54,54.33,60.86,56.68Z" transform="translate(0)"/><path class="cls-28" d="M60.77,56.38c4.18,2.42,8.37,8.49,7.65,12.69-2.44,2.59-4.93,4.13-5.91,4.08-2.32,3.3-6.19,1.64-8.72.27-5.21-2.83-4.62-8.07-1.9-13.14C53.39,57.5,56.59,54,60.77,56.38Z" transform="translate(0)"/><path class="cls-29" d="M60.68,56.07c4.07,2.5,8,8.51,7.18,12.6-2.59,2.47-5.1,3.79-6,3.55-2.26,3.13-6,1.35-8.33,0-5-2.8-4.25-7.8-1.51-12.65C53.5,57,56.64,53.59,60.68,56.07Z" transform="translate(0)"/><path class="cls-30" d="M60.59,55.76c4,2.58,7.65,8.53,6.71,12.5-2.74,2.36-5.27,3.46-6.12,3-2.2,3-5.73,1.06-7.93-.23-4.73-2.77-3.87-7.54-1.13-12.16C53.61,56.39,56.69,53.22,60.59,55.76Z" transform="translate(0)"/><path class="cls-31" d="M60.5,55.45c3.84,2.66,7.29,8.55,6.24,12.4-2.9,2.25-5.44,3.12-6.23,2.5-2.13,2.8-5.5.77-7.53-.47-4.48-2.75-3.5-7.29-.75-11.67C53.72,55.84,56.74,52.85,60.5,55.45Z" transform="translate(0)"/><path class="cls-32" d="M60.4,55.14c3.74,2.74,6.94,8.57,5.78,12.3-3.05,2.14-5.61,2.79-6.34,2-2.06,2.62-5.26.48-7.13-.73-4.23-2.73-3.12-7-.37-11.18C53.83,55.28,56.78,52.48,60.4,55.14Z" transform="translate(0)"/><path class="cls-33" d="M60.31,54.83c3.62,2.82,6.58,8.58,5.31,12.2-3.21,2-5.78,2.45-6.45,1.45-2,2.45-5,.19-6.73-1-4-2.71-2.75-6.77,0-10.69C53.93,54.72,56.83,52.11,60.31,54.83Z" transform="translate(0)"/><path class="cls-34" d="M60.21,54.51c3.51,2.92,6.23,8.6,4.84,12.11-3.36,1.91-5.94,2.11-6.55.92-1.93,2.29-4.79-.1-6.34-1.22-3.71-2.7-2.37-6.51.4-10.2C54,54.15,56.88,51.74,60.21,54.51Z" transform="translate(0)"/><path class="cls-35" d="M60.12,54.11c3.4,3,5.87,8.62,4.37,12-3.52,1.8-6.12,1.77-6.67.4-1.86,2.11-4.54-.4-5.93-1.48-3.45-2.68-2-6.25.78-9.71C54.15,53.5,56.92,51.29,60.12,54.11Z" transform="translate(0)"/><path class="cls-36" d="M60,53.58c3.3,3.1,5.52,8.64,3.91,11.92-3.67,1.69-6.29,1.43-6.77-.13-1.8,1.94-4.3-.68-5.54-1.73-3.17-2.67-1.62-6,1.16-9.21C54.25,52.72,57,50.71,60,53.58Z" transform="translate(0)"/><path class="cls-37" d="M60,53.05c3.18,3.18,5.16,8.65,3.44,11.81-3.83,1.58-6.46,1.1-6.88-.65-1.73,1.77-4.27-.77-5.14-2-3.35-2-1.25-5.74,1.54-8.72C54.45,51.93,57.1,50.13,60,53.05Z" transform="translate(0)"/><path class="cls-38" d="M59.92,52.5c3.07,3.28,4.8,8.67,3,11.72-4,1.46-6.63.76-7-1.18-1.66,1.6-4-1.06-4.74-2.23-3.13-2-.86-5.5,1.93-8.23C54.57,51.13,57.15,49.54,59.92,52.5Z" transform="translate(0)"/><path class="cls-39" d="M59.83,52c3,3.38,4.45,8.68,2.5,11.62-4.14,1.35-6.8.42-7.1-1.71-1.59,1.43-3.82-1.34-4.34-2.47-2.9-2-.48-5.25,2.31-7.74C54.69,50.32,57.2,48.94,59.83,52Z" transform="translate(0)"/><path class="cls-40" d="M59.74,51.39c2.84,3.48,4.08,8.7,2,11.52-4.29,1.24-7,.09-7.21-2.23C53,61.94,51,59.06,50.62,58c-2.68-1.9-.1-5,2.69-7.25C54.8,49.5,57.24,48.34,59.74,51.39Z" transform="translate(0)"/><path class="cls-41" d="M59.64,50.83c2.74,3.58,3.73,8.72,1.56,11.42-4.44,1.13-7.14-.24-7.31-2.75-1.46,1.09-3.38-1.91-3.55-3-2.45-1.84.3-4.76,3.08-6.76C54.92,48.68,57.28,47.75,59.64,50.83Z" transform="translate(0)"/><path class="cls-42" d="M59.54,50.27C62.16,54,62.92,59,60.64,61.59c-4.6,1-7.31-.58-7.43-3.28-1.39.92-3.15-2.19-3.14-3.22-2.23-1.79.69-4.52,3.45-6.27C55,47.86,57.32,47.15,59.54,50.27Z" transform="translate(0)"/><path class="cls-43" d="M59.42,49.65c2.51,3.79,3,8.75.63,11.23-4.75.9-7.48-.92-7.53-3.81-1.33.75-2.93-2.48-2.75-3.47-2-1.74,1.4-3.82,3.84-5.78C55.26,47.26,57.34,46.49,59.42,49.65Z" transform="translate(0)"/><path class="cls-44" d="M59.33,49.09c2.38,3.9,2.66,8.77.16,11.13-4.91.79-7.65-1.26-7.65-4.33-1.25.57-2.7-2.77-2.35-3.73-1.78-1.68,1.79-3.54,4.23-5.29C55.37,46.46,57.37,45.9,59.33,49.09Z" transform="translate(0)"/><path class="cls-45" d="M59.23,48.53c2.26,4,2.3,8.79-.31,11-5.07.67-7.82-1.6-7.75-4.86-1.19.41-2.49-3.05-2-4-1.56-1.63,2.17-3.26,4.6-4.79C55.48,45.67,57.4,45.31,59.23,48.53Z" transform="translate(0)"/><path class="cls-46" d="M59.13,48c2.14,4.11,1.94,8.8-.78,10.93-5.22.57-8-1.93-7.86-5.38-1.12.23-2.26-3.34-1.55-4.23-1.34-1.58,2.55-3,5-4.3C55.58,44.89,57.43,44.74,59.13,48Z" transform="translate(0)"/><path class="cls-47" d="M59.1,47.49c2,4.22,1.59,8.82-1.24,10.83-5.38.45-8.17-2.27-8-5.91-1.06.07-2-3.62-1.16-4.47-1.11-1.53,3-2.72,5.37-3.81C55.76,44.15,57.53,44.2,59.1,47.49Z" transform="translate(0)"/><path class="cls-48" d="M59.1,47c1.9,4.34,1.24,8.83-1.71,10.73-5.53.34-8.33-2.6-8.07-6.43-1-.1-1.82-3.9-.76-4.72-.89-1.48,3.33-2.44,5.75-3.33C56,43.42,57.66,43.68,59.1,47Z" transform="translate(0)"/><path class="cls-49" d="M59.11,46.5c1.77,4.46.88,8.86-2.17,10.64-5.69.23-8.51-2.94-8.19-7-.92-.27-1.59-4.19-.36-5-.66-1.42,3.72-2.16,6.13-2.83C56.19,42.69,57.79,43.16,59.11,46.5Z" transform="translate(0)"/><path class="cls-50" d="M59.13,46c1.63,4.56.52,8.87-2.65,10.54-5.84.11-8.67-3.28-8.29-7.49-.86-.44-1.37-4.47,0-5.22-.44-1.37,4.1-1.89,6.51-2.34C56.41,42,57.93,42.63,59.13,46Z" transform="translate(0)"/><path class="cls-51" d="M59.15,45.51C60.64,50.19,59.32,54.4,56,56c-6,0-8.85-3.61-8.41-8-.79-.62-1.14-4.76.44-5.47-.21-1.32,4.49-1.61,6.9-1.85C56.64,41.21,58.07,42.11,59.15,45.51Z" transform="translate(0)"/><path class="cls-52" d="M59.18,45c1.35,4.79-.2,8.9-3.59,10.34-6.15-.11-9-4-8.51-8.53-.72-.79-.92-5,.84-5.73,0-1.26,4.87-1.33,7.28-1.35C56.87,40.47,58.21,41.58,59.18,45Z" transform="translate(0)"/><path class="cls-53" d="M59.2,44.57c1.21,4.91-.54,8.92-4.05,10.25-6.3-.22-9.18-4.29-8.62-9.06-.65-1-.69-5.33,1.24-6,.23-1.22,5.26-1.06,7.66-.87C57.11,39.8,58.35,41.11,59.2,44.57Z" transform="translate(0)"/><path class="cls-54" d="M59.24,44.2c1.06,5-.91,8.95-4.52,10.16C48.26,54,45.36,49.73,46,44.77c-.59-1.13-.47-5.61,1.63-6.22.46-1.17,5.65-.79,8.05-.38C57.35,39.2,58.5,40.71,59.24,44.2Z" transform="translate(0)"/><path class="cls-55" d="M59.27,43.87c.92,5.13-1.26,9-5,10.05-6.62-.44-9.53-5-8.84-10.11-.53-1.3-.25-5.9,2-6.47.68-1.11,6-.51,8.43.11C57.59,38.62,58.64,40.35,59.27,43.87Z" transform="translate(0)"/><path class="cls-56" d="M59.31,43.58c.76,5.24-1.51,9.63-5.46,10-6.77.57-9.69-5.3-9-10.64-.45-1.47,0-6.18,2.44-6.72.9-1.06,6.58-.61,8.8.6C58,37.81,58.79,40,59.31,43.58Z" transform="translate(0)"/><path class="cls-57" d="M59.35,43.28c.62,5.35-1.88,9.61-5.92,9.85-6.94.42-9.86-5.63-9-11.16-.39-1.64.19-6.47,2.83-7,1.13-1,7-.3,9.19,1.1C58.28,37.29,58.94,39.69,59.35,43.28Z" transform="translate(0)"/><path class="cls-58" d="M59.35,43c.45,5.46-2.27,9.61-6.39,9.76-7.12.26-9.1-5.9-9.17-11.69,0-1.84.42-6.75,3.23-7.22,1.36-.95,7.38,0,9.57,1.59C58.48,36.78,59,39.36,59.35,43Z" transform="translate(0)"/><path class="cls-59" d="M59.4,42.69c.29,5.57-2.64,9.6-6.86,9.66-7.29.11-9.36-6.23-9.28-12.21,0-2,.65-7,3.63-7.47,1.58-.9,7.77.31,10,2.08C58.74,36.27,59.2,39,59.4,42.69Z" transform="translate(0)"/><path class="cls-60" d="M59.45,42.35c.13,5.67-3,9.6-7.33,9.57-7.46-.05-9.61-6.57-9.38-12.74.08-2.16,1-6.84,4-7.72,1.91-.56,8.16.62,10.33,2.57C59,35.72,59.36,38.66,59.45,42.35Z" transform="translate(0)"/><path class="cls-61" d="M59.5,42.08c0,5.77-3.39,9.59-7.8,9.47-7.62-.21-9.85-6.9-9.49-13.27.13-2.32,1.17-7.17,4.43-8,2.11-.52,8.54.92,10.71,3.06C59.24,35.23,59.51,38.35,59.5,42.08Z" transform="translate(0)"/><path class="cls-62" d="M59.53,41.81c-.19,5.87-3.75,9.58-8.26,9.37-7.79-.37-10.09-7.24-9.6-13.79.18-2.49,1.37-7.5,4.82-8.22,2.32-.49,8.93,1.22,11.1,3.55C59.47,34.74,59.65,38,59.53,41.81Z" transform="translate(0)"/><path class="cls-63" d="M59.55,41.54c-.35,6-4.12,9.58-8.73,9.27-8-.52-10.32-7.57-9.71-14.31.24-2.65,1.59-7.83,5.22-8.48,2.54-.45,9.31,1.52,11.49,4.05C59.69,34.25,59.77,37.73,59.55,41.54Z" transform="translate(0)"/><path class="cls-64" d="M59.56,41.27c-.51,6.07-4.49,9.57-9.2,9.18-8.11-.68-10.54-7.92-9.81-14.85.29-2.81,1.79-8.14,5.62-8.72,2.74-.41,9.68,1.82,11.86,4.54C59.9,33.75,59.89,37.42,59.56,41.27Z" transform="translate(0)"/><path class="cls-65" d="M59.56,41c-.68,6.17-4.85,9.56-9.66,9.08-8.27-.83-10.76-8.26-9.93-15.37.35-3,2-8.46,6-9,3-.38,10.07,2.11,12.25,5C60.1,33.26,60,37.1,59.56,41Z" transform="translate(0)"/><path class="cls-66" d="M59.56,40.74c-.85,6.25-5.21,9.55-10.13,9-8.43-1-11-8.59-10-15.89.4-3.16,2.23-8.77,6.42-9.22C49,24.26,56.26,27,58.44,30.12,60.3,32.76,60.1,36.79,59.56,40.74Z" transform="translate(0)"/><path class="cls-67" d="M59.55,40.47C58.54,46.82,54,50,49,49.34c-8.58-1.14-11.17-8.93-10.14-16.41.46-3.33,2.45-9.09,6.81-9.48,3.4-.3,10.83,2.69,13,6C60.49,32.27,60.19,36.47,59.55,40.47Z" transform="translate(0)"/><path class="cls-68" d="M59.54,40.19C58.36,46.64,53.6,49.73,48.47,49,39.73,47.68,37.09,39.7,38.22,32c.51-3.49,2.67-9.39,7.21-9.72,3.62-.26,11.2,3,13.4,6.5C60.67,31.77,60.28,36.15,59.54,40.19Z" transform="translate(0)"/><path class="cls-69" d="M59.53,39.92c-1.35,6.53-6.3,9.54-11.54,8.69C39.09,47.16,36.41,39,37.63,31.14c.57-3.67,2.88-9.7,7.61-10,3.84-.22,11.58,3.27,13.78,7C60.85,31.26,60.37,35.83,59.53,39.92Z" transform="translate(0)"/><path class="cls-70" d="M59.51,39.65c-1.52,6.62-6.66,9.53-12,8.58-9-1.59-11.78-9.95-10.47-18,.63-3.84,3.11-10,8-10.22,4.06-.19,12,3.55,14.16,7.48C61,30.76,60.46,35.51,59.51,39.65Z" transform="translate(0)"/><path class="cls-71" d="M59.49,39.37c-1.69,6.71-7,9.53-12.47,8.49-9.21-1.75-12-10.29-10.59-18.52.69-4,3.33-10.3,8.41-10.47,4.28-.14,12.33,3.83,14.55,8C61.21,30.26,60.54,35.18,59.49,39.37Z" transform="translate(0)"/><path class="cls-72" d="M59.46,39.11c-1.85,6.79-7.37,9.52-12.94,8.39-9.35-1.9-12.17-10.64-10.69-19,.74-4.18,3.57-10.32,8.81-10.72,4.49-.34,12.71,4.12,14.93,8.46C61.38,29.76,60.62,34.86,59.46,39.11Z" transform="translate(0)"/><path class="cls-73" d="M59.44,38.83c-2,6.88-7.73,9.51-13.41,8.29-9.51-2-12.37-11-10.8-19.57.8-4.35,3.78-10.65,9.21-11,4.71-.28,13.08,4.4,15.3,9C61.56,29.24,60.7,34.53,59.44,38.83Z" transform="translate(0)"/><path class="cls-74" d="M59.41,38.55c-2.18,7-8.09,9.51-13.88,8.19C35.88,44.54,33,35.42,34.63,26.65c.85-4.52,4-11,9.6-11.23,4.94-.21,13.46,4.69,15.69,9.45C61.73,28.73,60.77,34.2,59.41,38.55Z" transform="translate(0)"/><path class="cls-75" d="M59.38,38.27c-2.35,7-8.44,9.5-14.34,8.09C35.23,44,32.28,34.71,34,25.74c.91-4.69,4.22-11.29,10-11.47,5.17-.16,13.84,5,16.08,9.94C61.9,28.22,60.85,33.86,59.38,38.27Z" transform="translate(0)"/><path class="cls-76" d="M59.35,38c-2.51,7.12-8.8,9.5-14.81,8-10-2.49-12.95-12-11.13-21.14,1-4.87,4.44-11.62,10.41-11.72C49.21,13,58,18.36,60.27,23.54,62.06,27.7,60.92,33.52,59.35,38Z" transform="translate(0)"/><path class="cls-77" d="M59.32,37.7c-2.68,7.21-9.15,9.5-15.28,7.9C33.93,43,30.9,33.27,32.8,23.93c1-5,4.67-12.09,10.8-12,5.62.11,14.6,5.53,16.84,10.92C62.23,27.18,61,33.19,59.32,37.7Z" transform="translate(0)"/><path class="cls-78" d="M59.28,37.42c-2.84,7.29-9.5,9.5-15.74,7.8C33.28,42.44,30.21,32.55,32.19,23c1.09-5.21,4.89-12.39,11.2-12.22,5.84.15,15,5.8,17.22,11.41C62.4,26.67,61.06,32.85,59.28,37.42Z" transform="translate(0)"/><path class="cls-79" d="M59.25,37.14c-3,7.36-9.86,9.49-16.22,7.7-10.4-2.93-13.51-13-11.45-22.72,1.14-5.38,5.11-12.68,11.6-12.47,6.06.19,15.35,6.09,17.6,11.9C62.56,26.15,61.14,32.51,59.25,37.14Z" transform="translate(0)"/><path class="cls-80" d="M59.21,36.85C56,44.3,49,46.35,42.53,44.46,32,41.39,28.83,31.1,31,21.21c1.2-5.55,5.33-13,12-12.72,6.28.24,15.72,6.37,18,12.39C62.72,25.63,61.21,32.16,59.21,36.85Z" transform="translate(0)"/><path class="cls-81" d="M59.17,36.57C55.84,44.09,48.61,46.06,42,44.08,31.33,40.86,28.14,30.38,30.35,20.3c1.26-5.72,5.56-13.27,12.4-13,6.51.28,16.1,6.65,18.36,12.88C62.89,25.11,61.27,31.82,59.17,36.57Z" transform="translate(0)"/><path class="cls-82" d="M59.14,36.28c-3.5,7.6-10.92,9.49-17.62,7.41-10.84-3.36-14.07-14-11.78-24.3C31.06,13.5,35.52,5.83,42.53,6.17,49.27,6.5,59,13.1,61.28,19.55,63.05,24.58,61.34,31.47,59.14,36.28Z" transform="translate(0)"/><path class="cls-83" d="M59.1,36C55.44,43.67,47.83,45.48,41,43.31,30,39.8,26.76,28.93,29.13,18.48,30.5,12.41,35.13,4.63,42.32,5c7,.37,16.86,7.2,19.13,13.87C63.21,24.06,61.41,31.13,59.1,36Z" transform="translate(0)"/><path class="cls-84" d="M59.06,35.7c-3.82,7.76-11.62,9.49-18.55,7.22-11.14-3.65-14.45-14.72-12-25.35C29.94,11.33,34.74,3.42,42.1,3.85c7.19.42,17.24,7.48,19.51,14.36C63.37,23.53,61.48,30.78,59.06,35.7Z" transform="translate(0)"/><path class="cls-85" d="M59,35.41c-4,7.84-12,9.49-19,7.12C28.73,38.75,25.36,27.47,27.9,16.66c1.48-6.42,6.45-14.45,14-14S59.5,10.45,61.78,17.53C63.53,23,61.55,30.43,59,35.41Z" transform="translate(0)"/><path class="cls-86" d="M39.49,42.14c-11.42-3.92-14.81-15.39-12.21-26.4C28.83,9.16,34,1,41.66,1.52s18,8,20.28,15.34c1.75,5.62-.32,13.22-3,18.26C54.84,43,46.66,44.61,39.49,42.14Z" transform="translate(0)"/><path class="cls-1" d="M3.56,53.72C9,42.94,20.82,41.14,31.37,45.2c6.31,2.44,13.69,8.62,12.14,16.19s-10.41,16.74-17.95,18c-5.81,1-13-2.11-17.69-5.41C.59,68.81.14,60.49,3.56,53.72Z" transform="translate(0)"/><path class="cls-2" d="M43.86,61.39c-1.59,7.35-10.37,16.42-17.79,17.55-5.67.87-12.7-2.23-17.16-5.45C1.8,68.41,1.44,60.26,4.8,53.66c5.35-10.57,16.93-12.24,27.27-8.2C38.24,47.87,45.46,54,43.86,61.39Z" transform="translate(0)"/><path class="cls-3" d="M44.13,61.34c-1.64,7.2-10.33,16.1-17.63,17.1C21,79.2,14.17,76.06,9.88,73,3,67.94,2.66,60,6,53.55,11.23,43.2,22.57,41.66,32.7,45.66,38.72,48.06,45.79,54,44.13,61.34Z" transform="translate(0)"/><path class="cls-4" d="M44.44,61.31C42.75,68.37,34.14,77.1,27,78c-5.4.65-12-2.51-16.08-5.52-6.77-4.94-7-12.71-3.73-19,5.19-10.14,16.28-11.55,26.2-7.58C39.24,48.27,46.15,54.13,44.44,61.31Z" transform="translate(0)"/><path class="cls-5" d="M44.74,61.28C43,68.2,34.48,76.76,27.44,77.49c-5.27.54-11.6-2.64-15.55-5.56C5.3,67.06,5.19,59.49,8.35,53.38c5.14-9.91,16-11.22,25.66-7.27C39.76,48.46,46.51,54.24,44.74,61.28Z" transform="translate(0)"/><path class="cls-6" d="M45.05,61.25C43.26,68,34.83,76.42,27.91,77c-5.14.43-11.24-2.78-15-5.6-6.42-4.8-6.44-12.18-3.34-18.12,5.06-9.69,15.65-10.88,25.12-6.95C40.28,48.66,46.88,54.35,45.05,61.25Z" transform="translate(0)"/><path class="cls-7" d="M45.36,61.22c-1.84,6.63-10.19,14.86-17,15.31-5,.33-10.88-2.91-14.48-5.64C7.65,66.17,7.71,59,10.75,53.21c5-9.48,15.32-10.56,24.58-6.65C40.8,48.87,47.24,54.45,45.36,61.22Z" transform="translate(0)"/><path class="cls-8" d="M45.67,61.19C43.78,67.68,35.5,75.73,28.84,76c-4.87.23-10.5-3-13.94-5.67C8.83,65.72,9,58.72,12,53.11c4.91-9.25,15-10.21,24-6.33C41.32,49.07,47.6,54.55,45.67,61.19Z" transform="translate(0)"/><path class="cls-9" d="M46,61.15C44,67.5,35.84,75.39,29.31,75.56c-4.74.12-10.14-3.17-13.41-5.71C10,65.27,10.23,58.46,13.14,53c4.84-9,14.68-9.87,23.51-6C41.84,49.26,48,54.65,46,61.15Z" transform="translate(0)"/><path class="cls-10" d="M46.28,61.12c-2,6.2-10.1,13.93-16.5,13.95-4.62,0-9.78-3.3-12.87-5.74-5.73-4.52-5.42-11.13-2.57-16.4,4.76-8.82,14.36-9.54,23-5.71C42.35,49.46,48.33,54.75,46.28,61.12Z" transform="translate(0)"/><path class="cls-11" d="M46.59,61.08c-2,6.06-10.08,13.62-16.34,13.5-4.5-.09-9.42-3.43-12.34-5.78-5.55-4.44-5.16-10.86-2.38-16,4.7-8.59,14-9.2,22.44-5.4C42.87,49.66,48.69,54.85,46.59,61.08Z" transform="translate(0)"/><path class="cls-12" d="M46.9,61C44.81,67,36.84,74.36,30.71,74.09c-4.38-.19-9-3.56-11.8-5.81C13.55,63.9,14,57.68,16.73,52.73c4.62-8.37,13.72-8.86,21.89-5.08C43.39,49.85,49.05,54.94,46.9,61Z" transform="translate(0)"/><path class="cls-13" d="M47.2,61c-2.14,5.79-10,13-16,12.6-4.26-.29-8.68-3.7-11.27-5.85-5.18-4.32-4.65-10.34-2-15.12,4.55-8.15,13.4-8.52,21.36-4.77C43.9,50,49.41,55,47.2,61Z" transform="translate(0)"/><path class="cls-14" d="M47.51,61c-2.2,5.65-10,12.71-15.87,12.15-4.14-.4-8.31-3.83-10.73-5.89-5-4.25-4.39-10.07-1.79-14.69,4.47-7.93,13.07-8.18,20.81-4.46C44.42,50.23,49.77,55.13,47.51,61Z" transform="translate(0)"/><path class="cls-15" d="M47.81,60.91c-2.24,5.51-10,12.42-15.7,11.71-4-.51-7.95-4-10.2-5.93-4.81-4.19-4.13-9.81-1.6-14.26,4.4-7.71,12.75-7.85,20.28-4.15C44.93,50.42,50.12,55.23,47.81,60.91Z" transform="translate(0)"/><path class="cls-16" d="M48.11,60.87c-2.29,5.37-10,12.11-15.54,11.25-3.93-.61-7.57-4.09-9.66-6C18.29,62,19,56.61,21.5,52.33c4.33-7.49,12.44-7.51,19.74-3.84C45.45,50.61,50.48,55.32,48.11,60.87Z" transform="translate(0)"/><path class="cls-17" d="M48.42,60.82c-2.35,5.24-10,11.81-15.39,10.8-3.82-.71-7.2-4.22-9.12-6-4.42-4.09-3.62-9.29-1.21-13.4C27,45,34.81,45.05,41.9,48.7,46,50.8,50.84,55.42,48.42,60.82Z" transform="translate(0)"/><path class="cls-18" d="M48.72,60.77c-2.4,5.11-10,11.51-15.22,10.36-3.73-.82-6.84-4.36-8.59-6-4.22-4-3.37-9-1-13,4.18-7,11.79-6.84,18.66-3.21C46.47,51,51.19,55.51,48.72,60.77Z" transform="translate(0)"/><path class="cls-19" d="M49,60.73c-2.46,5-10,11.19-15.06,9.9-3.63-.93-6.47-4.49-8.06-6.07-4-4-3.11-8.76-.83-12.55,4.12-6.82,11.48-6.5,18.13-2.9C47,51.16,51.54,55.6,49,60.73Z" transform="translate(0)"/><path class="cls-20" d="M49.31,60.76c-2.5,4.84-9.8,10-14.9,9.46a30,30,0,0,1-7.52-6.11c-3.79-4-2.85-8.49-.63-12.11,4-6.61,11.15-6.17,17.59-2.59C47.49,51.44,51.89,55.78,49.31,60.76Z" transform="translate(0)"/><path class="cls-21" d="M49.61,60.73c-2.56,4.71-9.78,9.62-14.74,9a29.78,29.78,0,0,1-7-6.14c-3.57-3.92-2.6-8.23-.44-11.69,4-6.38,10.83-5.83,17-2.27C48,51.63,52.24,55.89,49.61,60.73Z" transform="translate(0)"/><path class="cls-22" d="M49.9,60.69c-2.61,4.58-9.74,9.27-14.58,8.55a29.91,29.91,0,0,1-6.45-6.18c-3.32-3.89-2.33-8-.24-11.25,3.9-6.15,10.51-5.5,16.51-2C48.51,51.83,52.58,56,49.9,60.69Z" transform="translate(0)"/><path class="cls-23" d="M50.33,60.66c-2.67,4.44-9.71,8.91-14.41,8.1A21.54,21.54,0,0,1,30,62.54c-3.76-3.2-2.08-7.7-.05-10.83,3.84-5.92,10.2-5.15,16-1.65C49.15,52,53.06,56.11,50.33,60.66Z" transform="translate(0)"/><path class="cls-24" d="M50.65,60.62c-2.73,4.32-9.69,8.56-14.26,7.65A20.11,20.11,0,0,1,31,62c-3.6-3.12-1.82-7.44.14-10.4,3.77-5.7,9.88-4.82,15.43-1.34C49.68,52.22,53.43,56.21,50.65,60.62Z" transform="translate(0)"/><path class="cls-25" d="M51,60.58c-2.79,4.19-9.65,8.2-14.1,7.2-2.63-2.34-4.49-5.07-4.84-6.29-3.44-3-1.57-7.16.33-10,3.7-5.47,9.57-4.48,14.9-1C50.2,52.42,53.79,56.32,51,60.58Z" transform="translate(0)"/><path class="cls-26" d="M51.27,60.54c-2.84,4.07-9.62,7.85-13.94,6.75C34.84,64.81,33.2,62.1,33,61c-3.28-2.94-1.31-6.9.52-9.54,3.64-5.25,9.26-4.16,14.36-.72C50.73,52.61,54.15,56.43,51.27,60.54Z" transform="translate(0)"/><path class="cls-27" d="M51.59,60.5C48.68,64.44,42,68,37.81,66.8,35.44,64.18,34,61.49,34,60.44c-3.12-2.84-1-6.63.72-9.11,3.57-5,8.93-3.82,13.81-.41C51.26,52.8,54.51,56.54,51.59,60.5Z" transform="translate(0)"/><path class="cls-28" d="M51.9,60.46c-3,3.82-9.55,7.14-13.62,5.85-2.23-2.76-3.42-5.44-3.23-6.4-3-2.75-.79-6.36.91-8.68,3.51-4.78,8.62-3.48,13.28-.09C51.79,53,54.87,56.64,51.9,60.46Z" transform="translate(0)"/><path class="cls-29" d="M52.22,60.42c-3,3.69-9.53,6.78-13.46,5.4-2.1-2.9-3.06-5.56-2.7-6.44-2.8-2.66-.53-6.09,1.11-8.25,3.45-4.54,8.31-3.15,12.74.22C52.32,53.19,55.22,56.75,52.22,60.42Z" transform="translate(0)"/><path class="cls-30" d="M52.53,60.38C49.44,64,43,66.8,39.24,65.33c-2-3-2.71-5.69-2.17-6.48C34.43,56.28,36.8,53,38.37,51c3.39-4.31,8-2.81,12.2.53C52.85,53.37,55.58,56.85,52.53,60.38Z" transform="translate(0)"/><path class="cls-31" d="M52.85,60.33c-3.16,3.45-9.46,6.07-13.14,4.5-1.83-3.17-2.35-5.81-1.63-6.51-2.47-2.49,0-5.55,1.5-7.39,3.33-4.07,7.69-2.48,11.66.84C53.39,53.56,55.94,57,52.85,60.33Z" transform="translate(0)"/><path class="cls-32" d="M53.17,60.28c-3.23,3.33-9.43,5.72-13,4-1.7-3.31-2-5.93-1.09-6.54-2.32-2.4.24-5.28,1.69-7C44.06,47,48.17,48.68,51.91,52,53.92,53.75,56.29,57.06,53.17,60.28Z" transform="translate(0)"/><path class="cls-33" d="M53.49,60.23c-3.3,3.21-9.4,5.36-12.82,3.6-1.57-3.45-1.64-6-.56-6.58-2.16-2.31.5-5,1.88-6.54,3.23-3.57,7.08-1.81,10.59,1.47C54.46,53.93,56.65,57.16,53.49,60.23Z" transform="translate(0)"/><path class="cls-34" d="M54,60.18c-3.36,3.08-9.36,5-12.65,3.15-1.44-3.59-1.28-6.18,0-6.62-2-2.22.75-4.73,2.07-6.11,3.17-3.32,6.77-1.47,10,1.78C55.15,54.11,57.15,57.25,54,60.18Z" transform="translate(0)"/><path class="cls-35" d="M54.48,60.12c-3.44,3-9.33,4.65-12.49,2.7-1.31-3.73-.93-6.3.51-6.66-1.84-2.13,1-4.45,2.27-5.68,3.12-3,6.46-1.13,9.51,2.09C55.9,54.29,57.71,57.34,54.48,60.12Z" transform="translate(0)"/><path class="cls-36" d="M55,60.06c-3.51,2.84-9.3,4.29-12.33,2.25-1.18-3.87-.57-6.43,1.05-6.69-1.68-2,1.25-4.17,2.46-5.26,3.08-2.77,6.16-.79,9,2.41C56.66,54.46,58.28,57.42,55,60.06Z" transform="translate(0)"/><path class="cls-37" d="M55.57,60.11C52,62.83,46.3,64.05,43.4,61.91c-1-4-.21-6.55,1.58-6.73-1.51-2,1.35-4.12,2.66-4.82,2.48-3,5.86-.45,8.43,2.72C57.44,54.76,58.86,57.62,55.57,60.11Z" transform="translate(0)"/><path class="cls-38" d="M56.14,60.06c-3.67,2.59-9.24,3.58-12,1.35-.91-4.15.14-6.67,2.11-6.77-1.36-1.86,1.6-3.87,2.85-4.39,2.4-2.83,5.57-.11,7.9,3C58.22,54.94,59.45,57.71,56.14,60.06Z" transform="translate(0)"/><path class="cls-39" d="M56.71,60c-3.75,2.47-9.21,3.22-11.85.9-.78-4.28.5-6.8,2.65-6.8-1.2-1.78,1.85-3.61,3-4,2.32-2.61,5.27.24,7.36,3.34C59,55.12,60,57.8,56.71,60Z" transform="translate(0)"/><path class="cls-40" d="M57.28,59.94c-3.83,2.35-9.17,2.87-11.69.45-.64-4.42.86-6.92,3.19-6.84-1-1.68,2.1-3.35,3.23-3.54,2.24-2.4,5,.59,6.82,3.65C59.82,55.31,60.64,57.88,57.28,59.94Z" transform="translate(0)"/><path class="cls-41" d="M57.86,59.87c-3.92,2.23-9.15,2.52-11.53,0-.51-4.56,1.21-7,3.72-6.87-.88-1.6,2.35-3.09,3.43-3.11,2.16-2.18,4.68.94,6.28,4C60.63,55.49,61.23,58,57.86,59.87Z" transform="translate(0)"/><path class="cls-42" d="M58.43,59.8c-4,2.1-9.11,2.16-11.37-.45-.38-4.69,1.58-7.16,4.26-6.91-.72-1.5,2.61-2.83,3.63-2.68,2.07-2,4.38,1.3,5.74,4.28C61.43,55.67,61.83,58,58.43,59.8Z" transform="translate(0)"/><path class="cls-43" d="M59.07,59.72c-4.09,2-9.08,1.8-11.21-.9-.24-4.84,1.93-7.29,4.8-7-.56-1.41,2.85-2.56,3.81-2.25,2-1.75,3.6,1.91,5.21,4.59C62,55.92,62.48,58.08,59.07,59.72Z" transform="translate(0)"/><path class="cls-44" d="M59.64,59.65c-4.18,1.84-9,1.45-11-1.35-.11-5,2.29-7.41,5.33-7-.4-1.32,3.11-2.3,4-1.82,1.91-1.54,3.27,2.25,4.67,4.9C62.78,56.09,63.07,58.15,59.64,59.65Z" transform="translate(0)"/><path class="cls-45" d="M60.2,59.58c-4.28,1.7-9,1.09-10.89-1.81,0-5.11,2.64-7.53,5.86-7-.24-1.23,3.36-2,4.21-1.39C61.2,48,62.32,52,63.5,54.57,63.54,56.25,63.64,58.21,60.2,59.58Z" transform="translate(0)"/><path class="cls-46" d="M60.71,59.59c-4.36,1.57-9,.73-10.72-2.25.15-5.25,3-7.66,6.4-7.06-.08-1.15,3.61-1.79,4.39-1,1.75-1.11,2.62,2.94,3.59,5.52C64.27,56.5,64.17,58.35,60.71,59.59Z" transform="translate(0)"/><path class="cls-47" d="M61.23,59.63c-4.47,1.43-9,.38-10.57-2.7.28-5.39,3.35-7.78,6.94-7.1.07-1,3.86-1.52,4.59-.53,1.66-.89,2.28,3.28,3,5.83C65,56.78,64.69,58.52,61.23,59.63Z" transform="translate(0)"/><path class="cls-48" d="M61.74,59.68c-4.56,1.28-8.92,0-10.41-3.16.42-5.52,3.71-7.9,7.47-7.13.24-1,4.12-1.26,4.79-.1,1.58-.68,2,3.63,2.51,6.15C65.71,57.06,65.22,58.7,61.74,59.68Z" transform="translate(0)"/><path class="cls-49" d="M62.25,59.73c-4.65,1.14-8.89-.33-10.24-3.6.54-5.66,4.06-8,8-7.17.4-.87,4.37-1,5,.33,1.5-.47,1.64,4,2,6.46C66.43,57.35,65.74,58.88,62.25,59.73Z" transform="translate(0)"/><path class="cls-50" d="M62.77,59.8c-4.75,1-8.87-.69-10.09-4.06.68-5.8,4.42-8.15,8.54-7.2.56-.79,4.62-.75,5.17.75,1.42-.25,1.31,4.32,1.43,6.77C67.15,57.66,66.27,59.06,62.77,59.8Z" transform="translate(0)"/><path class="cls-51" d="M63.22,59.87c-4.84.84-8.83-1-9.92-4.51.81-5.94,4.78-8.27,9.07-7.24.72-.7,4.88-.48,5.37,1.18,1.33,0,1,4.67.89,7.09C67.82,58,66.74,59.25,63.22,59.87Z" transform="translate(0)"/><path class="cls-52" d="M63.59,59.94c-4.94.69-8.8-1.4-9.77-4.95.94-6.08,5.14-8.4,9.61-7.28.88-.61,5.13-.22,5.56,1.61,1.25.18.66,5,.36,7.4C68.39,58.27,67.11,59.45,63.59,59.94Z" transform="translate(0)"/><path class="cls-53" d="M63.92,60.08c-5,.53-8.77-1.75-9.61-5.4,1.08-6.22,5.5-8.52,10.15-7.31,1-.52,5.37,0,5.75,2,1.17.4.34,5.36-.18,7.71C68.93,58.65,67.46,59.71,63.92,60.08Z" transform="translate(0)"/><path class="cls-54" d="M64.22,60.21c-5.11.38-8.73-2.11-9.44-5.85C56,48,60.63,45.72,65.46,47c1.2-.43,5.63.3,6,2.47,1.09.61,0,5.7-.72,8C69.44,59,67.78,60,64.22,60.21Z" transform="translate(0)"/><path class="cls-55" d="M64.52,60.34c-5.21.21-8.7-2.46-9.29-6.3,1.34-6.5,6.21-8.77,11.22-7.39,1.36-.34,5.88.55,6.14,2.89,1,.83-.31,6.05-1.26,8.34C70,59.38,68.09,60.2,64.52,60.34Z" transform="translate(0)"/><path class="cls-56" d="M64.79,60.47c-5.3,0-9.33-2.8-9.13-6.76.36-6.78,6.57-8.88,11.76-7.42,1.51-.25,6.13.82,6.33,3.32.92,1-.29,6.61-1.8,8.65C70.68,60,68.38,60.44,64.79,60.47Z" transform="translate(0)"/><path class="cls-57" d="M65.07,60.58c-5.38-.12-9.27-3.18-9-7.21.53-6.94,6.92-9,12.29-7.45,1.68-.17,6.38,1.07,6.52,3.75.85,1.25-.65,7-2.33,8.95C71.15,60.33,68.68,60.66,65.07,60.58Z" transform="translate(0)"/><path class="cls-58" d="M65.35,60.43c-5.46-.29-9.21-3.55-8.8-7.66.71-7.08,7.16-6.32,12.83-7.49,1.8-.37,6.63,1.33,6.71,4.18.76,1.47-1,7.31-2.87,9.27C71.62,60.41,69,60.62,65.35,60.43Z" transform="translate(0)"/><path class="cls-59" d="M65.63,60.59c-5.55-.46-9.15-3.92-8.64-8.11.89-7.23,7.45-8.43,13.36-7.53,2,.3,6.88,1.6,6.91,4.61.68,1.69-1.37,7.66-3.41,9.58C72.08,60.81,69.28,60.89,65.63,60.59Z" transform="translate(0)"/><path class="cls-60" d="M65.94,60.67c-5.64-.64-9.1-4.29-8.48-8.56,1.06-7.38,7.81-8.63,13.89-7.57,2.13.38,6.64,1.89,7.11,5,.29,2-1.73,8-3.95,9.89C72.57,61.12,69.61,61.08,65.94,60.67Z" transform="translate(0)"/><path class="cls-61" d="M66.2,60.74c-5.71-.81-9-4.66-8.32-9,1.24-7.53,8.18-8.83,14.43-7.6,2.28.44,6.94,2.13,7.3,5.46.23,2.17-2.08,8.34-4.49,10.21C73,61.41,69.9,61.26,66.2,60.74Z" transform="translate(0)"/><path class="cls-62" d="M66.46,60.8c-5.79-1-9-5-8.16-9.46,1.42-7.67,8.54-9,15-7.64,2.44.52,7.24,2.38,7.49,5.89.17,2.37-2.42,8.68-5,10.52C73.48,61.7,70.19,61.43,66.46,60.8Z" transform="translate(0)"/><path class="cls-63" d="M66.73,60.85c-5.87-1.16-8.93-5.38-8-9.91,1.59-7.81,8.9-9.19,15.5-7.67,2.59.59,7.53,2.63,7.68,6.32.11,2.57-2.77,9-5.56,10.83C73.94,62,70.48,61.59,66.73,60.85Z" transform="translate(0)"/><path class="cls-64" d="M67,60.9c-5.94-1.34-8.87-5.75-7.84-10.36,1.77-7.95,9.27-9.37,16-7.71,2.75.67,7.82,2.88,7.88,6.75,0,2.78-3.12,9.35-6.11,11.14C74.39,62.26,70.77,61.75,67,60.9Z" transform="translate(0)"/><path class="cls-65" d="M67.26,60.94c-6-1.51-8.82-6.11-7.68-10.81,2-8.08,9.64-9.53,16.57-7.75,2.91.75,8.11,3.14,8.07,7.18,0,3-3.45,9.69-6.64,11.46C74.86,62.52,71.06,61.9,67.26,60.94Z" transform="translate(0)"/><path class="cls-66" d="M67.52,61c-6.08-1.69-8.75-6.47-7.52-11.26,2.13-8.22,10-9.7,17.11-7.79,3.07.83,8.39,3.4,8.27,7.61-.1,3.2-3.8,10-7.18,11.77C75.32,62.79,71.36,62,67.52,61Z" transform="translate(0)"/><path class="cls-67" d="M67.79,61c-6.15-1.87-8.7-6.82-7.36-11.71,2.3-8.35,10.37-9.86,17.65-7.82,3.23.9,8.66,3.66,8.45,8-.16,3.4-4.13,10.36-7.71,12.07C75.79,63.05,71.66,62.18,67.79,61Z" transform="translate(0)"/><path class="cls-68" d="M68.06,61c-6.22-2-8.65-7.18-7.2-12.16C63.33,40.39,71.6,38.87,79,41c3.39,1,8.94,3.92,8.65,8.47-.23,3.62-4.47,10.69-8.25,12.39C76.26,63.3,72,62.32,68.06,61Z" transform="translate(0)"/><path class="cls-69" d="M68.33,61.06c-6.29-2.22-8.59-7.53-7-12.6,2.65-8.62,11.1-10.17,18.72-7.9,3.55,1.06,9.21,4.18,8.84,8.9-.29,3.83-4.8,11-8.79,12.7C76.73,63.56,72.27,62.46,68.33,61.06Z" transform="translate(0)"/><path class="cls-70" d="M68.6,61.09c-6.35-2.4-8.53-7.89-6.87-13.06C64.54,39.28,73.19,37.71,81,40.1c3.71,1.14,9.48,4.43,9,9.32-.37,4-5.14,11.36-9.34,13C77.2,63.81,72.58,62.59,68.6,61.09Z" transform="translate(0)"/><path class="cls-71" d="M68.88,61.11c-6.42-2.58-8.49-8.24-6.72-13.51,3-8.88,11.83-10.47,19.79-8,3.87,1.22,9.75,4.7,9.23,9.76-.44,4.25-5.47,11.69-9.87,13.32C77.68,64.05,72.89,62.72,68.88,61.11Z" transform="translate(0)"/><path class="cls-72" d="M69.15,61.13c-6.47-2.76-8.43-8.6-6.55-14,3.15-9,12.19-10.62,20.32-8,4,1.3,10,5,9.43,10.19-.51,4.47-5.81,12-10.42,13.63C78.16,64.3,73.2,62.85,69.15,61.13Z" transform="translate(0)"/><path class="cls-73" d="M69.43,61.15C62.89,58.21,61.05,52.2,63,46.74c3.32-9.14,12.55-10.77,20.85-8,4.2,1.37,10.29,5.21,9.62,10.61-.58,4.68-6.13,12.36-11,13.95C78.64,64.55,73.52,63,69.43,61.15Z" transform="translate(0)"/><path class="cls-74" d="M69.71,61.16c-6.6-3.11-8.32-9.3-6.23-14.86C67,37,76.39,35.39,84.87,38.22c4.36,1.46,10.55,5.48,9.81,11C94,54.17,88.21,62,83.19,63.52,79.12,64.79,73.84,63.1,69.71,61.16Z" transform="translate(0)"/><path class="cls-75" d="M70,61.17c-6.66-3.28-8.27-9.65-6.07-15.3,3.65-9.4,13.28-11.06,21.92-8.12,4.53,1.54,10.82,5.74,10,11.47-.72,5.12-6.8,13-12,14.57C79.61,65,74.16,63.23,70,61.17Z" transform="translate(0)"/><path class="cls-76" d="M70.27,61.19c-6.71-3.46-8.22-10-5.91-15.76C68.18,35.9,78,34.23,86.82,37.28c4.69,1.61,11.08,6,10.2,11.89-.79,5.34-7.12,13.38-12.56,14.89C80.1,65.27,74.48,63.35,70.27,61.19Z" transform="translate(0)"/><path class="cls-77" d="M70.56,61.2C63.78,57.57,62.39,50.84,64.8,45c4-9.65,14-11.34,23-8.19,4.85,1.7,11.35,6.26,10.4,12.33-.87,5.55-7.46,13.7-13.11,15.19C80.59,65.51,74.81,63.47,70.56,61.2Z" transform="translate(0)"/><path class="cls-78" d="M70.84,61.21C64,57.4,62.72,50.5,65.25,44.55c4.15-9.78,14.37-11.48,23.53-8.23,5,1.78,11.61,6.53,10.59,12.76-.94,5.76-7.79,14-13.64,15.51C81.08,65.75,75.13,63.59,70.84,61.21Z" transform="translate(0)"/><path class="cls-79" d="M71.13,61.22c-6.89-4-8.07-11.06-5.43-17.11C70,34.2,80.43,32.49,89.77,35.85c5.17,1.86,11.86,6.78,10.77,13.18-1,6-8.11,14.38-14.18,15.82C81.57,66,75.46,63.72,71.13,61.22Z" transform="translate(0)"/><path class="cls-80" d="M71.42,61.22c-7-4.15-8-11.4-5.27-17.55,4.47-10,15.09-11.76,24.6-8.3,5.33,1.94,12.13,7,11,13.61C100.63,55.18,93.28,63.7,87,65.11,82.06,66.23,75.79,63.84,71.42,61.22Z" transform="translate(0)"/><path class="cls-81" d="M71.71,61.23c-7-4.32-8-11.75-5.12-18,4.64-10.15,15.46-11.9,25.14-8.33,5.5,2,12.39,7.31,11.17,14-1.16,6.41-8.77,15-15.26,16.44C82.56,66.47,76.12,64,71.71,61.23Z" transform="translate(0)"/><path class="cls-82" d="M72,61.24c-7.06-4.49-7.92-12.1-5-18.46,4.81-10.28,15.82-12,25.68-8.37,5.66,2.1,12.65,7.57,11.36,14.47-1.24,6.63-9.1,15.39-15.8,16.76C83.05,66.7,76.46,64.08,72,61.24Z" transform="translate(0)"/><path class="cls-83" d="M72.29,61.24c-7.11-4.66-7.87-12.44-4.79-18.91,5-10.4,16.18-12.17,26.21-8.4,5.82,2.18,12.91,7.83,11.55,14.9C104,55.67,95.83,64.55,88.93,65.89,83.55,66.94,76.79,64.2,72.29,61.24Z" transform="translate(0)"/><path class="cls-84" d="M72.58,61.25c-7.17-4.83-7.82-12.8-4.63-19.36,5.12-10.53,16.54-12.31,26.74-8.45,6,2.27,13.17,8.1,11.75,15.33-1.39,7.06-9.75,16.07-16.87,17.38C84.05,67.18,77.13,64.32,72.58,61.25Z" transform="translate(0)"/><path class="cls-85" d="M72.87,61.26c-7.22-5-7.77-13.15-4.47-19.81C73.68,30.79,85.31,29,95.68,33c6.15,2.34,13.44,8.35,11.94,15.75s-10.08,16.4-17.41,17.7C84.55,67.41,77.47,64.44,72.87,61.26Z" transform="translate(0)"/><path class="cls-86" d="M68.86,41c5.44-10.79,17.26-12.58,27.81-8.52,6.31,2.43,13.69,8.62,12.14,16.19s-10.41,16.73-18,18c-5.81,1-13-2.11-17.69-5.41C65.89,56.09,65.44,47.77,68.86,41Z" transform="translate(0)"/></g></g></svg>