<svg xmlns="http://www.w3.org/2000/svg" viewBox="0 0 621.85 217.4"><defs><style>.cls-1,.cls-10,.cls-11,.cls-12,.cls-13,.cls-14,.cls-15,.cls-16,.cls-17,.cls-18,.cls-19,.cls-2,.cls-20,.cls-21,.cls-22,.cls-23,.cls-24,.cls-25,.cls-26,.cls-27,.cls-28,.cls-29,.cls-3,.cls-30,.cls-31,.cls-32,.cls-33,.cls-34,.cls-35,.cls-36,.cls-37,.cls-38,.cls-39,.cls-4,.cls-40,.cls-41,.cls-42,.cls-43,.cls-44,.cls-45,.cls-46,.cls-47,.cls-48,.cls-49,.cls-5,.cls-50,.cls-51,.cls-52,.cls-53,.cls-54,.cls-55,.cls-56,.cls-57,.cls-58,.cls-59,.cls-6,.cls-60,.cls-61,.cls-62,.cls-63,.cls-64,.cls-65,.cls-66,.cls-67,.cls-68,.cls-69,.cls-7,.cls-70,.cls-71,.cls-72,.cls-73,.cls-74,.cls-75,.cls-76,.cls-77,.cls-78,.cls-79,.cls-8,.cls-80,.cls-81,.cls-82,.cls-83,.cls-84,.cls-85,.cls-86,.cls-9{fill:none;stroke-miterlimit:10;}.cls-1{stroke:#f5ff3f;}.cls-1,.cls-10,.cls-11,.cls-12,.cls-13,.cls-14,.cls-15,.cls-16,.cls-17,.cls-18,.cls-19,.cls-2,.cls-20,.cls-21,.cls-22,.cls-23,.cls-24,.cls-25,.cls-26,.cls-27,.cls-28,.cls-29,.cls-3,.cls-30,.cls-31,.cls-32,.cls-33,.cls-34,.cls-35,.cls-36,.cls-37,.cls-38,.cls-39,.cls-4,.cls-40,.cls-41,.cls-42,.cls-43,.cls-44,.cls-45,.cls-46,.cls-47,.cls-48,.cls-49,.cls-5,.cls-50,.cls-51,.cls-52,.cls-53,.cls-54,.cls-55,.cls-56,.cls-57,.cls-58,.cls-59,.cls-6,.cls-60,.cls-61,.cls-62,.cls-63,.cls-64,.cls-65,.cls-66,.cls-67,.cls-68,.cls-69,.cls-7,.cls-70,.cls-71,.cls-72,.cls-73,.cls-74,.cls-75,.cls-76,.cls-77,.cls-78,.cls-79,.cls-80,.cls-81,.cls-82,.cls-83,.cls-84,.cls-85,.cls-86,.cls-9{stroke-width:3px;}.cls-2{stroke:#f5fe3e;}.cls-3{stroke:#f5fd3e;}.cls-4{stroke:#f5fc3d;}.cls-5{stroke:#f5fb3c;}.cls-6{stroke:#f6fa3b;}.cls-7{stroke:#f6f93b;}.cls-8{stroke:#f6f83a;stroke-width:3px;}.cls-9{stroke:#f6f739;}.cls-10{stroke:#f6f638;}.cls-11{stroke:#f6f538;}.cls-12{stroke:#f6f437;}.cls-13{stroke:#f6f336;}.cls-14{stroke:#f7f235;}.cls-15{stroke:#f7f135;}.cls-16{stroke:#f7f034;}.cls-17{stroke:#f7ef33;}.cls-18{stroke:#f7ee32;}.cls-19{stroke:#f7ed32;}.cls-20{stroke:#f7ec31;}.cls-21{stroke:#f7eb30;}.cls-22{stroke:#f7ea2f;}.cls-23{stroke:#f8e92f;}.cls-24{stroke:#f8e82e;}.cls-25{stroke:#f8e72d;}.cls-26{stroke:#f8e62c;}.cls-27{stroke:#f8e52c;}.cls-28{stroke:#f8e42b;}.cls-29{stroke:#f8e32a;}.cls-30{stroke:#f8e22a;}.cls-31{stroke:#f9e129;}.cls-32{stroke:#f9e028;}.cls-33{stroke:#f9df27;}.cls-34{stroke:#f9de27;}.cls-35{stroke:#f9dd26;}.cls-36{stroke:#f9dc25;}.cls-37{stroke:#f9db24;}.cls-38{stroke:#f9da24;}.cls-39{stroke:#f9d923;}.cls-40{stroke:#fad822;}.cls-41{stroke:#fad721;}.cls-42{stroke:#fad621;}.cls-43{stroke:#fad520;}.cls-44{stroke:#fad51f;}.cls-45{stroke:#fad41e;}.cls-46{stroke:#fad31e;}.cls-47{stroke:#fad21d;}.cls-48{stroke:#fbd11c;}.cls-49{stroke:#fbd01b;}.cls-50{stroke:#fbcf1b;}.cls-51{stroke:#fbce1a;}.cls-52{stroke:#fbcd19;}.cls-53{stroke:#fbcc18;}.cls-54{stroke:#fbcb18;}.cls-55{stroke:#fbca17;}.cls-56{stroke:#fbc916;}.cls-57{stroke:#fcc815;}.cls-58{stroke:#fcc715;}.cls-59{stroke:#fcc614;}.cls-60{stroke:#fcc513;}.cls-61{stroke:#fcc413;}.cls-62{stroke:#fcc312;}.cls-63{stroke:#fcc211;}.cls-64{stroke:#fcc110;}.cls-65{stroke:#fdc010;}.cls-66{stroke:#fdbf0f;}.cls-67{stroke:#fdbe0e;}.cls-68{stroke:#fdbd0d;}.cls-69{stroke:#fdbc0d;}.cls-70{stroke:#fdbb0c;}.cls-71{stroke:#fdba0b;}.cls-72{stroke:#fdb90a;}.cls-73{stroke:#fdb80a;}.cls-74{stroke:#feb709;}.cls-75{stroke:#feb608;}.cls-76{stroke:#feb507;}.cls-77{stroke:#feb407;}.cls-78{stroke:#feb306;}.cls-79{stroke:#feb205;}.cls-80{stroke:#feb104;}.cls-81{stroke:#feb004;}.cls-82{stroke:#ffaf03;}.cls-83{stroke:#ffae02;}.cls-84{stroke:#ffad01;}.cls-85{stroke:#ffac01;}.cls-86{stroke:#ffab00;}</style></defs><g id="圖層_2" data-name="圖層 2"><g id="圖層_1-2" data-name="圖層 1"><path class="cls-1" d="M24.35,42.35C67.15-11.3,135-7.56,189,27.31c32.28,20.86,66.12,63.83,48.68,104.12-17.27,39.9-77.33,81-120.76,79.28-33.42-1.32-70.13-26.93-92.1-50.67C-9.67,122.83-2.52,76,24.35,42.35Z"/><path class="cls-2" d="M239.4,131.69c-17.37,39-76.75,79.28-119.33,77-32.54-1.77-68-27.2-89.09-50.26-33.65-36.53-26.19-82.26.16-115.08C73.23-9.23,139.57-5,192.39,29.39,223.89,50,257,92.19,239.4,131.69Z"/><path class="cls-3" d="M241.15,132c-17.48,38.17-76.18,77.56-117.92,74.64C91.58,204.38,57.44,179,37.17,156.76c-32.73-36-25.09-80.52.74-112.47C79.29-7.16,144.12-2.54,195.79,31.47,226.53,51.81,258.89,93.25,241.15,132Z"/><path class="cls-4" d="M242.92,132.2c-17.6,37.3-75.62,75.85-116.51,72.33-30.78-2.66-63.62-27.86-83-49.42-31.87-35.36-24-78.78,1.31-109.86C85.35-5.1,148.69,0,199.21,33.54,229.17,53.62,260.8,94.3,242.92,132.2Z"/><path class="cls-5" d="M244.66,132.45c-17.71,36.45-75.06,74.15-115.09,70-29.91-3.09-61.45-28.17-80-49-31-34.74-22.81-77,1.9-107.25C91.54-2.93,153.32,2.33,202.61,35.61,231.85,55.35,262.69,95.35,244.66,132.45Z"/><path class="cls-6" d="M246.41,132.69c-17.82,35.59-74.51,72.46-113.67,67.69-29.06-3.53-59.27-28.48-77-48.57C25.6,117.67,34,76.58,58.2,47.16,97.63-.84,157.9,4.79,206,37.67,234.5,57.13,264.59,96.39,246.41,132.69Z"/><path class="cls-7" d="M248.16,132.92c-17.93,34.74-74,70.77-112.26,65.38-28.2-4-57.09-28.79-74-48.16-29.25-33.54-20.57-73.46,3-102,38.76-46.88,97.5-40.87,144.46-8.38C237.15,58.91,266.48,97.43,248.16,132.92Z"/><path class="cls-8" d="M249.91,133.15c-18,33.89-73.44,69.08-110.84,63.06-27.37-4.41-54.91-29.11-71-47.74-28.37-32.94-19.45-71.71,3.63-99.42,38.09-45.75,95.32-39.36,141.1-7.27C239.79,60.67,268.38,98.47,249.91,133.15Z"/><path class="cls-9" d="M251.66,133.37c-18.16,33-72.92,67.41-109.43,60.74-26.54-4.85-52.73-29.41-67.94-47.32C46.81,114.45,56,76.84,78.49,50c37.42-44.61,93.14-37.86,137.74-6.16C242.44,62.43,270.27,99.5,251.66,133.37Z"/><path class="cls-10" d="M253.4,133.58c-18.28,32.2-72.41,65.74-108,58.43-25.72-5.29-50.55-29.73-64.92-46.9C53.89,113.35,63.26,76.92,85.25,50.9c36.75-43.47,90.95-36.35,134.39-5C245.08,64.19,272.16,100.53,253.4,133.58Z"/><path class="cls-11" d="M255.14,133.79c-18.39,31.36-71.92,64.06-106.59,56.1-24.93-5.72-48.36-30-61.91-46.48C61,112.24,70.56,77,92,51.82,128.09,9.48,180.77,17,223,47.88,247.72,65.93,274.05,101.56,255.14,133.79Z"/><path class="cls-12" d="M256.88,134c-18.51,30.53-71.44,62.4-105.18,53.79-24.13-6.16-46.17-30.35-58.88-46.07-24.74-30.59-15-64.66,5.93-89,35.42-41.2,86.59-33.34,127.68-2.83C250.36,67.67,275.93,102.58,256.88,134Z"/><path class="cls-13" d="M258.62,134.18c-18.64,29.7-71,60.73-103.77,51.47C131.49,179.05,110.87,155,99,140c-23.8-30-13.85-62.91,6.51-86.38,34.76-40.06,84.41-31.84,124.32-1.72C253,69.4,277.81,103.59,258.62,134.18Z"/><path class="cls-14" d="M260.35,134.36c-18.76,28.87-70.53,59.07-102.35,49.16-22.61-7.05-41.79-31-52.85-45.23-22.84-29.46-12.72-61.14,7.09-83.76,34.1-38.92,82.23-30.34,121-.62C255.63,71.12,279.68,104.61,260.35,134.36Z"/><path class="cls-15" d="M262.07,134.54c-18.88,28.05-70.09,57.4-100.93,46.83-21.87-7.49-39.59-31.26-49.83-44.8C89.44,107.65,99.71,77.19,119,55.42c33.44-37.78,80.06-28.84,117.6.49C258.26,72.84,281.54,105.62,262.07,134.54Z"/><path class="cls-16" d="M263.79,134.71c-19,27.23-69.68,55.73-99.52,44.52-21.14-7.95-37.38-31.57-46.8-44.39C96.6,106.46,107,77.22,125.72,56.3,158.49,19.67,203.59,29,240,57.9,260.88,74.55,283.4,106.62,263.79,134.71Z"/><path class="cls-17" d="M265.5,134.87c-19.14,26.42-69.28,54.06-98.1,42.2-20.44-8.41-35.17-31.87-43.78-44-19.84-27.86-9.36-55.86,8.82-75.94,32.12-35.48,75.71-25.83,110.89,2.72C263.5,76.25,285.25,107.62,265.5,134.87Z"/><path class="cls-18" d="M267.21,135c-19.28,25.61-68.9,52.37-96.69,39.88-19.76-8.88-33-32.16-40.76-43.54C111,104,121.53,77.28,139.16,58c31.46-34.33,73.54-24.33,107.53,3.82C266.11,78,287.09,108.63,267.21,135Z"/><path class="cls-19" d="M268.9,135.18c-19.41,24.8-68.53,50.67-95.27,37.57-19.1-9.36-30.72-32.46-37.74-43.13-17.66-26.86-7.11-52.32,10-70.72C176.68,25.73,217.24,36.07,250,63.84,268.72,79.64,288.91,109.62,268.9,135.18Z"/><path class="cls-20" d="M270.59,136.21c-19.56,24-66.15,44.11-93.86,35.25-16.38-13-28.49-32.74-34.72-42.71-16.5-26.38-6-50.55,10.56-68.1,30.16-32,69.2-21.33,100.81,6C271.31,82.21,290.72,111.51,270.59,136.21Z"/><path class="cls-21" d="M272.26,136.42c-19.71,23.21-65.56,42.17-92.44,32.94-15.49-13.64-26.24-33-31.7-42.29-15.27-25.94-4.87-48.78,11.13-65.5,29.51-30.85,67-19.83,97.46,7.15C273.89,84,292.51,112.57,272.26,136.42Z"/><path class="cls-22" d="M273.91,136.63c-19.86,22.42-65,40.23-91,30.61-14.6-14.24-24-33.26-28.69-41.87-13.93-25.51-3.74-47,11.71-62.88,28.87-29.68,64.88-18.34,94.11,8.26C276.45,85.71,294.28,113.64,273.91,136.63Z"/><path class="cls-23" d="M276.58,136.82c-20,21.64-64.38,38.29-89.61,28.3-13.7-14.86-23.34-32.88-25.66-41.45-17.18-22.18-2.62-45.23,12.28-60.28,28.23-28.5,62.72-16.83,90.75,9.38C280,87.45,297.05,114.69,276.58,136.82Z"/><path class="cls-24" d="M278.35,137c-20.19,20.86-63.79,36.35-88.19,26-12.8-15.48-21.22-33.15-22.65-41-16.38-21.5-1.49-43.45,12.87-57.67C208,37,241,49,267.77,74.77,282.72,89.17,298.93,115.74,278.35,137Z"/><path class="cls-25" d="M280.12,137.19c-20.35,20.08-63.2,34.4-86.77,23.66-11.9-16.09-19.09-33.42-19.62-40.61-15.61-20.82-.37-41.67,13.44-55.06,27-26.13,58.42-13.84,84,11.59C285.42,90.89,300.81,116.79,280.12,137.19Z"/><path class="cls-26" d="M281.9,137.35c-20.54,19.31-62.61,32.47-85.36,21.35-11-16.71-17-33.69-16.6-40.19-14.82-20.14.75-39.89,14-52.45,26.32-24.93,56.27-12.34,80.67,12.7C288.11,92.6,302.67,117.82,281.9,137.35Z"/><path class="cls-27" d="M283.68,137.5c-20.73,18.54-62,30.53-84,19-10.11-17.32-14.83-34-13.58-39.77-14-19.45,1.88-38.1,14.6-49.84,25.7-23.72,54.14-10.84,77.31,13.81C290.82,94.29,304.53,118.84,283.68,137.5Z"/><path class="cls-28" d="M285.45,137.64c-20.91,17.77-61.43,28.58-82.53,16.71-9.21-17.94-12.7-34.23-10.56-39.35-13.25-18.77,3-36.31,15.18-47.23,25.08-22.5,52-9.35,74,14.92C293.52,96,306.39,119.85,285.45,137.64Z"/><path class="cls-29" d="M287.23,137.76c-21.12,17-60.84,26.64-81.11,14.39-8.32-18.55-10.58-34.5-7.54-38.93C186.11,95.13,202.7,78.7,214.33,68.6c24.47-21.27,49.88-7.85,70.6,16C296.23,97.64,308.23,120.84,287.23,137.76Z"/><path class="cls-30" d="M289,137.86c-21.33,16.25-60.26,24.7-79.7,12.08-7.41-19.18-8.45-34.77-4.52-38.52-11.68-17.4,5.24-32.71,16.33-42,23.86-20,47.76-6.34,67.25,17.14C298.94,99.28,310.07,121.81,289,137.86Z"/><path class="cls-31" d="M290.81,137.94c-21.56,15.5-59.67,22.76-78.28,9.76-6.52-19.79-6.33-35-1.5-38.1-10.9-16.72,6.35-30.9,16.91-39.4,23.26-18.74,45.64-4.84,63.88,18.25C301.67,100.91,311.91,122.76,290.81,137.94Z"/><path class="cls-32" d="M293.59,138c-21.79,14.74-59.08,20.82-76.86,7.44-5.63-20.4-4.21-35.31,1.51-37.67-10.1-16,7.47-29.09,17.49-36.8,22.67-17.43,43.54-3.33,60.53,19.36C305.4,102.52,314.73,123.69,293.59,138Z"/><path class="cls-33" d="M296.5,138c-22,14-58.49,18.88-75.45,5.13-4.73-21-2.07-35.59,4.54-37.26-9.32-15.35,8.58-27.27,18.06-34.19,22.09-16.1,41.44-1.81,57.18,20.47C309.25,104.11,317.67,124.58,296.5,138Z"/><path class="cls-34" d="M299.53,138c-22.29,13.23-57.9,16.94-74,2.81-3.83-21.64,0-35.85,7.56-36.84-8.54-14.67,9.68-25.43,18.64-31.57C273.2,57.68,291,72.11,305.51,94,313.23,105.67,320.71,125.45,299.53,138Z"/><path class="cls-35" d="M302.65,138c-22.56,12.47-57.31,15-72.62.49-2.93-22.25,2.18-36.12,10.58-36.42-7.75-14,10.77-23.58,19.22-29,20.93-13.33,37.27,1.22,50.46,22.69C317.31,107.21,323.84,126.27,302.65,138Z"/><path class="cls-36" d="M305.86,137.93c-22.84,11.71-56.72,13-71.2-1.83-2-22.86,4.3-36.39,13.6-36-7-13.3,11.84-21.72,19.79-26.35,20.36-11.86,35.2,2.75,47.1,23.79C321.48,108.72,327,127.06,305.86,137.93Z"/><path class="cls-37" d="M309.14,138.6C286,149.54,253,149.71,239.35,134.46,238.21,111,245.78,97.79,256,98.87c-6.19-12.61,12.27-21.39,20.37-23.74,17.36-14,33.13,4.3,43.74,24.91C325.72,111,330.3,128.58,309.14,138.6Z"/><path class="cls-38" d="M312.46,138.55c-23.43,10.17-55.55,9.17-68.37-6.46-.25-24.1,8.55-36.94,19.63-35.16-5.39-11.94,13.37-19.66,21-21.14,16.65-12.93,31.07,5.86,40.38,26C330,112.51,333.6,129.37,312.46,138.55Z"/><path class="cls-39" d="M315.8,138.47c-23.74,9.4-55,7.23-67-8.78C249.49,105,259.53,92.49,271.5,95,266.89,83.7,286,77,293,76.42c15.94-11.83,29,7.45,37,27.13C334.32,114,336.9,130.11,315.8,138.47Z"/><path class="cls-40" d="M319.1,138.36c-24.06,8.61-54.37,5.29-65.54-11.09,1.55-25.33,12.81-37.48,25.68-34.32C275.41,82.38,294.8,76.77,301.34,77c15.24-10.73,27,9,33.68,28.23C338.6,115.55,340.15,130.83,319.1,138.36Z"/><path class="cls-41" d="M322.35,138.23c-24.38,7.81-53.78,3.35-64.12-13.41,2.44-25.95,14.93-37.74,28.69-33.9-3-9.89,16.67-14.44,22.69-13.31C324.14,68,334.54,88.28,339.92,107,342.84,117.05,343.35,131.5,322.35,138.23Z"/><path class="cls-42" d="M325.55,138.08c-24.72,7-53.19,1.4-62.71-15.73,3.34-26.56,17.06-38,31.72-33.49-2.26-9.2,17.76-12.69,23.26-10.7,13.82-8.52,22.87,12.33,27,30.46C347,118.55,346.49,132.14,325.55,138.08Z"/><path class="cls-43" d="M328.9,137.88c-25.06,6.18-52.6-.54-61.29-18,4.24-27.17,19.19-38.28,34.74-33.06-1.48-8.52,18.86-11,23.84-8.09,13.11-7.43,17.76,14.77,23.6,31.56C349.61,120.14,349.78,132.73,328.9,137.88Z"/><path class="cls-44" d="M331.81,138.14c-25.41,5.35-52-2.48-59.87-20.37C277.07,90,293.26,79.22,309.7,85.13c-.69-7.84,20-9.22,24.41-5.48,12.41-6.33,15.55,16.31,20.25,32.67C353.4,122,352.61,133.76,331.81,138.14Z"/><path class="cls-45" d="M334.72,138.63c-25.76,4.5-51.42-4.42-58.46-22.68,6-28.41,23.45-38.83,40.78-32.23.1-7.15,21.06-7.48,25-2.87,11.7-5.22,13.33,17.85,16.88,33.79C357.19,124,355.45,135,334.72,138.63Z"/><path class="cls-46" d="M337.64,139.19c-26.13,3.63-50.84-6.36-57.05-25,6.93-29,25.57-39.1,43.8-31.81.88-6.47,22.16-5.74,25.57-.26,11-4.12,11.13,19.39,13.53,34.9C361,126.13,358.28,136.32,337.64,139.19Z"/><path class="cls-47" d="M340.55,139.81c-26.49,2.75-50.25-8.3-55.63-27.32,7.82-29.64,27.69-39.37,46.81-31.39,1.67-5.78,23.26-4,26.15,2.35,10.29-3,8.92,20.93,10.18,36C364.78,128.31,361.11,137.67,340.55,139.81Z"/><path class="cls-48" d="M343.3,140.72c-26.84,1.86-49.66-10.24-54.22-29.63,8.72-30.26,29.83-39.64,49.84-31,2.45-5.11,24.36-2.26,26.73,5,9.58-1.93,6.7,22.47,6.81,37.11C368.42,130.78,363.78,139.3,343.3,140.72Z"/><path class="cls-49" d="M345.37,142c-27.19,1-49.07-12.18-52.8-31.95,9.62-30.87,31.95-39.9,52.86-30.55,3.24-4.42,25.46-.52,27.31,7.57,8.87-.82,4.49,24,3.45,38.23C371.37,133.64,365.78,141.31,345.37,142Z"/><path class="cls-50" d="M347.23,143.27c-27.55,0-48.48-14.12-51.38-34.27,10.51-31.48,34.08-40.17,55.88-30.13,4-3.73,26.55,1.22,27.88,10.18,8.17.28,2.28,25.55.1,39.33C374.12,136.46,367.57,143.26,347.23,143.27Z"/><path class="cls-51" d="M349,144.49c-27.89-.94-47.89-16.07-50-36.59,11.41-32.1,36.21-40.44,58.9-29.71,4.81-3,27.66,3,28.46,12.79,7.47,1.38.07,27.09-3.25,40.44C376.72,139.23,369.22,145.17,349,144.49Z"/><path class="cls-52" d="M350.57,145.65c-28.23-1.9-47.3-18-48.55-38.9C314.33,74,340.35,66,363.94,77.46c5.59-2.37,28.75,4.7,29,15.4,6.76,2.47-2.14,28.63-6.61,41.55C379.22,142,370.77,147,350.57,145.65Z"/><path class="cls-53" d="M352.11,146.77c-28.57-2.89-46.72-20-47.14-41.22,13.21-33.34,40.46-41,64.94-28.88,6.38-1.68,29.85,6.44,29.62,18,6.05,3.58-4.36,30.17-10,42.66C381.65,144.63,372.25,148.8,352.11,146.77Z"/><path class="cls-54" d="M353.59,147.82c-28.89-3.88-46.13-21.89-45.72-43.54,14.1-33.95,42.59-41.26,68-28.45C383,74.82,406.78,84,406,96.44c5.35,4.68-6.56,31.71-13.32,43.77C384,147.24,373.68,150.51,353.59,147.82Z"/><path class="cls-55" d="M355.05,148.8C325.84,143.92,309.51,125,310.74,103c15-34.57,44.72-41.53,71-28,7.95-.32,32,9.92,30.77,23.23,4.64,5.78-8.77,33.25-16.68,44.88C386.35,149.79,375.09,152.15,355.05,148.8Z"/><path class="cls-56" d="M356.88,149.73c-29.51-5.9-48.63-26.42-42.89-48.17,9.85-37.32,46.84-41.8,74-27.61,8.73.36,33.15,11.65,31.35,25.83,3.93,6.88-9.3,36.4-20,46C390.25,153.85,376.89,153.73,356.88,149.73Z"/><path class="cls-57" d="M358.37,150.55c-29.79-6.92-47.87-28.43-41.47-50.48,11-38,49-42.07,77-27.2,9.52,1,34.25,13.39,31.93,28.45,3.22,8-11.73,38-23.4,47.1C392.49,156.22,378.36,155.2,358.37,150.55Z"/><path class="cls-58" d="M359.85,150.24c-30.07-8-47.11-30.45-40.05-52.81,12.18-38.6,48.94-37.42,80-26.78,9.88,3.39,35.34,15.13,32.5,31.06,2.52,9.08-14.13,39.48-26.76,48.21C394.71,157.43,379.81,155.53,359.85,150.24Z"/><path class="cls-59" d="M361.23,151.08c-30.34-9-46.36-32.43-38.64-55.12,13.34-39.22,51.22-38.22,83.06-26.36,10.63,4,36.44,16.87,33.08,33.67,1.81,10.18-16.52,41-30.11,49.31C396.85,159.79,381.18,157,361.23,151.08Z"/><path class="cls-60" d="M362.78,151.87c-30.59-10.07-45.61-34.41-37.22-57.44,14.5-39.82,53.48-38.94,86.08-25.94C423,73,446.37,86.71,445.29,104.77c-.67,11.31-18.88,42.49-33.46,50.43C399.18,162.08,382.73,158.44,362.78,151.87Z"/><path class="cls-61" d="M364.19,152.62c-30.84-11.14-44.87-36.39-35.81-59.76,15.65-40.42,55.74-39.6,89.1-25.52,12.16,5.13,36.14,19.93,34.23,38.88-1.24,12.33-21.23,44-36.83,51.54C401.36,164.32,384.14,159.82,364.19,152.62Z"/><path class="cls-62" d="M365.59,153.32c-31.07-12.2-44.12-38.35-34.39-62.08,16.81-41,58-40.21,92.12-25.1,12.95,5.74,37.52,21.66,34.81,41.5C456.31,121,434.57,153.09,418,160.28,403.57,166.51,385.56,161.16,365.59,153.32Z"/><path class="cls-63" d="M367,154c-31.29-13.26-43.38-40.3-33-64.39C352,48,394.26,48.81,429.17,64.91c13.74,6.34,38.86,23.4,35.39,44.1-2.41,14.42-25.88,46.93-43.54,53.76C405.79,168.66,387,162.46,367,154Z"/><path class="cls-64" d="M368.44,154.62c-31.5-14.33-42.65-42.25-31.57-66.71C356,45.77,399.34,46.59,435,63.65c14.53,6.94,40.17,25.14,36,46.71-3,15.48-28.18,48.4-46.89,54.87C408,170.78,388.46,163.73,368.44,154.62Z"/><path class="cls-65" d="M369.88,155.22c-31.7-15.4-41.92-44.19-30.15-69C360,43.5,404.42,44.37,440.91,62.35c15.32,7.56,41.45,26.9,36.55,49.33-3.63,16.56-30.48,49.86-50.26,56C410.3,172.87,389.94,165,369.88,155.22Z"/><path class="cls-66" d="M371.33,155.81c-31.88-16.47-41.19-46.13-28.73-71.35C364,41.21,409.51,42.15,446.8,61c16.12,8.17,42.71,28.65,37.12,51.93-4.23,17.66-32.75,51.34-53.61,57.09C412.59,174.94,391.44,166.19,371.33,155.81Z"/><path class="cls-67" d="M372.8,156.37c-32.07-17.54-40.47-48.05-27.32-73.66,22.48-43.8,69.13-42.79,107.22-23,16.92,8.79,43.95,30.42,37.7,54.54-4.86,18.76-35,52.81-57,58.2C414.9,177,393,167.4,372.8,156.37Z"/><path class="cls-68" d="M374.28,156.91c-32.24-18.6-39.75-50-25.91-76C372,36.6,419.72,37.7,458.62,58.35c17.72,9.41,45.17,32.17,38.27,57.15-5.48,19.85-37.28,54.27-60.32,59.3C417.23,179,394.5,168.58,374.28,156.91Z"/><path class="cls-69" d="M375.77,157.44c-32.4-19.67-39-51.89-24.49-78.3C376,34.27,424.83,35.48,464.54,57c18.53,10,46.39,33.93,38.86,59.76-6.11,21-39.54,55.74-63.68,60.41C419.57,181.05,396.06,169.76,375.77,157.44Z"/><path class="cls-70" d="M377.27,158C344.72,137.22,339,104.16,354.2,77.34,380,31.94,430,33.25,470.48,55.59c19.34,10.66,47.59,35.7,39.44,62.37-6.75,22.06-41.79,57.22-67,61.53C421.93,183.06,397.63,170.92,377.27,158Z"/><path class="cls-71" d="M378.79,158.45c-32.7-21.79-37.61-55.7-21.65-82.93C384.05,29.59,435.09,31,476.44,54.2c20.14,11.28,48.78,37.45,40,65-7.39,23.16-44,58.68-70.4,62.63C424.31,185.06,399.23,172.07,378.79,158.45Z"/><path class="cls-72" d="M380.32,158.94c-32.84-22.84-36.9-57.6-20.24-85.24,28-46.46,80.15-44.9,122.32-20.91,21,11.91,50,39.21,40.59,67.59-8,24.28-46.27,60.16-73.75,63.74C426.71,187.06,400.84,173.22,380.32,158.94Z"/><path class="cls-73" d="M381.86,159.42c-33-23.89-36.2-59.5-18.82-87.56,29.09-47,82.33-45.29,125.34-20.49,21.75,12.55,51.15,41,41.16,70.2-8.67,25.39-48.49,61.64-77.11,64.85C429.12,189,402.46,174.36,381.86,159.42Z"/><path class="cls-74" d="M383.41,159.9C350.31,135,347.91,98.49,366,70c30.17-47.49,84.52-45.67,128.36-20.07,22.56,13.18,52.32,42.74,41.74,72.81-9.33,26.51-50.73,63.12-80.47,66C431.54,191,404.1,175.49,383.41,159.9Z"/><path class="cls-75" d="M385,160.36c-33.23-26-34.8-63.3-16-92.2,31.25-48,86.72-46,131.38-19.65,23.38,13.81,53.49,44.5,42.33,75.42-10,27.62-53,64.6-83.83,67.07C434,193,405.76,176.62,385,160.36Z"/><path class="cls-76" d="M386.55,160.82c-33.36-27-34.11-65.19-14.58-94.52,32.32-48.53,88.9-46.42,134.4-19.23,24.19,14.45,54.65,46.26,42.9,78-10.63,28.73-55.18,66.08-87.18,68.18C436.42,195,407.43,177.74,386.55,160.82Z"/><path class="cls-77" d="M388.13,161.27C354.66,133.2,354.72,94.19,375,64.44c33.39-49,91.08-46.79,137.42-18.81,25,15.08,55.81,48,43.48,80.63-11.29,29.85-57.4,67.57-90.54,69.29C438.88,196.93,409.11,178.87,388.13,161.27Z"/><path class="cls-78" d="M389.72,161.72c-33.59-29.1-32.72-69-11.74-99.15C412.42,13,471.23,15.42,518.42,44.18c25.8,15.72,57,49.77,44.05,83.24-11.94,31-59.62,69.05-93.89,70.4C441.35,198.89,410.8,180,389.72,161.72Z"/><path class="cls-79" d="M391.32,162.16C357.62,132,359.28,91.31,381,60.69c35.51-50.07,95.44-47.5,143.47-18,26.61,16.36,58.11,51.53,44.63,85.86-12.61,32.08-61.84,70.54-97.26,71.51C443.83,200.85,412.51,181.1,391.32,162.16Z"/><path class="cls-80" d="M392.93,162.6C359.12,131.45,361.58,89.87,384,58.82,420.58,8.23,481.63,11,530.5,41.26c27.42,17,59.27,53.29,45.21,88.47-13.27,33.19-64.06,72-100.61,72.62C446.32,202.81,414.23,182.22,392.93,162.6Z"/><path class="cls-81" d="M394.55,163c-33.92-32.17-30.67-74.62-7.5-106.11,37.61-51.09,99.79-48.2,149.5-17.13,28.23,17.64,60.41,55.05,45.79,91.07-13.93,34.32-66.27,73.52-104,73.73C448.82,204.77,416,183.34,394.55,163Z"/><path class="cls-82" d="M396.17,163.47c-34-33.19-30-76.5-6.08-108.42,38.65-51.61,102-48.55,152.52-16.72,29,18.29,61.56,56.81,46.37,93.69-14.6,35.43-68.49,75-107.33,74.84C451.32,206.72,417.69,184.45,396.17,163.47Z"/><path class="cls-83" d="M397.8,163.9c-34.13-34.2-29.31-78.38-4.66-110.74C432.83,1,497.27,4.26,548.68,36.86c29.85,18.93,62.7,58.56,46.94,96.3-15.26,36.54-70.7,76.5-110.68,76C453.84,208.67,419.43,185.57,397.8,163.9Z"/><path class="cls-84" d="M399.44,164.32c-34.23-35.2-28.63-80.25-3.25-113C436.92-1.36,502.5,2,554.75,35.39,585.41,55,618.59,95.71,602.27,134.3c-15.93,37.66-72.91,78-114,77.06C456.36,210.63,421.18,186.68,399.44,164.32Z"/><path class="cls-85" d="M401.08,164.76c-34.34-36.21-28-82.12-1.83-115.37C441-3.75,507.76-.25,560.83,33.93c31.49,20.18,65,62.09,48.09,101.52-16.56,38.79-75.12,79.45-117.39,78.16C458.88,212.56,422.94,187.81,401.08,164.76Z"/><path class="cls-86" d="M402.32,47.48C445.11-6.17,513-2.43,566.92,32.44,599.2,53.3,633,96.27,615.6,136.57c-17.27,39.89-77.33,81-120.76,79.27-33.42-1.32-70.13-26.93-92.1-50.67C368.3,128,375.45,81.17,402.32,47.48Z"/></g></g></svg>