<svg xmlns="http://www.w3.org/2000/svg" viewBox="0 0 488.42 486.91"><defs><style>.cls-1,.cls-10,.cls-11,.cls-12,.cls-13,.cls-14,.cls-15,.cls-16,.cls-17,.cls-18,.cls-19,.cls-2,.cls-20,.cls-21,.cls-22,.cls-23,.cls-24,.cls-25,.cls-26,.cls-27,.cls-28,.cls-29,.cls-3,.cls-30,.cls-31,.cls-32,.cls-33,.cls-34,.cls-35,.cls-36,.cls-37,.cls-38,.cls-39,.cls-4,.cls-40,.cls-41,.cls-42,.cls-43,.cls-44,.cls-45,.cls-46,.cls-47,.cls-48,.cls-49,.cls-5,.cls-50,.cls-51,.cls-52,.cls-53,.cls-54,.cls-55,.cls-56,.cls-57,.cls-58,.cls-59,.cls-6,.cls-60,.cls-61,.cls-62,.cls-63,.cls-64,.cls-65,.cls-66,.cls-67,.cls-68,.cls-69,.cls-7,.cls-70,.cls-71,.cls-72,.cls-73,.cls-74,.cls-75,.cls-76,.cls-77,.cls-78,.cls-79,.cls-8,.cls-80,.cls-81,.cls-82,.cls-83,.cls-84,.cls-85,.cls-86,.cls-9{fill:none;stroke-miterlimit:10;}.cls-1{stroke:#f5ff3f;}.cls-1,.cls-10,.cls-11,.cls-12,.cls-13,.cls-14,.cls-15,.cls-16,.cls-17,.cls-18,.cls-19,.cls-2,.cls-20,.cls-21,.cls-22,.cls-23,.cls-24,.cls-25,.cls-26,.cls-27,.cls-28,.cls-29,.cls-3,.cls-30,.cls-31,.cls-32,.cls-33,.cls-34,.cls-35,.cls-36,.cls-37,.cls-38,.cls-39,.cls-4,.cls-40,.cls-41,.cls-42,.cls-43,.cls-44,.cls-45,.cls-46,.cls-47,.cls-48,.cls-49,.cls-5,.cls-50,.cls-51,.cls-52,.cls-53,.cls-54,.cls-55,.cls-56,.cls-57,.cls-58,.cls-59,.cls-6,.cls-60,.cls-61,.cls-62,.cls-63,.cls-64,.cls-65,.cls-66,.cls-67,.cls-68,.cls-69,.cls-7,.cls-70,.cls-71,.cls-72,.cls-73,.cls-74,.cls-75,.cls-76,.cls-77,.cls-78,.cls-79,.cls-80,.cls-81,.cls-82,.cls-83,.cls-84,.cls-85,.cls-86,.cls-9{stroke-width:3px;}.cls-2{stroke:#f5fe3e;}.cls-3{stroke:#f5fd3e;}.cls-4{stroke:#f5fc3d;}.cls-5{stroke:#f5fb3c;}.cls-6{stroke:#f6fa3b;}.cls-7{stroke:#f6f93b;}.cls-8{stroke:#f6f83a;stroke-width:3px;}.cls-9{stroke:#f6f739;}.cls-10{stroke:#f6f638;}.cls-11{stroke:#f6f538;}.cls-12{stroke:#f6f437;}.cls-13{stroke:#f6f336;}.cls-14{stroke:#f7f235;}.cls-15{stroke:#f7f135;}.cls-16{stroke:#f7f034;}.cls-17{stroke:#f7ef33;}.cls-18{stroke:#f7ee32;}.cls-19{stroke:#f7ed32;}.cls-20{stroke:#f7ec31;}.cls-21{stroke:#f7eb30;}.cls-22{stroke:#f7ea2f;}.cls-23{stroke:#f8e92f;}.cls-24{stroke:#f8e82e;}.cls-25{stroke:#f8e72d;}.cls-26{stroke:#f8e62c;}.cls-27{stroke:#f8e52c;}.cls-28{stroke:#f8e42b;}.cls-29{stroke:#f8e32a;}.cls-30{stroke:#f8e22a;}.cls-31{stroke:#f9e129;}.cls-32{stroke:#f9e028;}.cls-33{stroke:#f9df27;}.cls-34{stroke:#f9de27;}.cls-35{stroke:#f9dd26;}.cls-36{stroke:#f9dc25;}.cls-37{stroke:#f9db24;}.cls-38{stroke:#f9da24;}.cls-39{stroke:#f9d923;}.cls-40{stroke:#fad822;}.cls-41{stroke:#fad721;}.cls-42{stroke:#fad621;}.cls-43{stroke:#fad520;}.cls-44{stroke:#fad51f;}.cls-45{stroke:#fad41e;}.cls-46{stroke:#fad31e;}.cls-47{stroke:#fad21d;}.cls-48{stroke:#fbd11c;}.cls-49{stroke:#fbd01b;}.cls-50{stroke:#fbcf1b;}.cls-51{stroke:#fbce1a;}.cls-52{stroke:#fbcd19;}.cls-53{stroke:#fbcc18;}.cls-54{stroke:#fbcb18;}.cls-55{stroke:#fbca17;}.cls-56{stroke:#fbc916;}.cls-57{stroke:#fcc815;}.cls-58{stroke:#fcc715;}.cls-59{stroke:#fcc614;}.cls-60{stroke:#fcc513;}.cls-61{stroke:#fcc413;}.cls-62{stroke:#fcc312;}.cls-63{stroke:#fcc211;}.cls-64{stroke:#fcc110;}.cls-65{stroke:#fdc010;}.cls-66{stroke:#fdbf0f;}.cls-67{stroke:#fdbe0e;}.cls-68{stroke:#fdbd0d;}.cls-69{stroke:#fdbc0d;}.cls-70{stroke:#fdbb0c;}.cls-71{stroke:#fdba0b;}.cls-72{stroke:#fdb90a;}.cls-73{stroke:#fdb80a;}.cls-74{stroke:#feb709;}.cls-75{stroke:#feb608;}.cls-76{stroke:#feb507;}.cls-77{stroke:#feb407;}.cls-78{stroke:#feb306;}.cls-79{stroke:#feb205;}.cls-80{stroke:#feb104;}.cls-81{stroke:#feb004;}.cls-82{stroke:#ffaf03;}.cls-83{stroke:#ffae02;}.cls-84{stroke:#ffad01;}.cls-85{stroke:#ffac01;}.cls-86{stroke:#ffab00;}</style></defs><g id="圖層_2" data-name="圖層 2"><g id="圖層_1-2" data-name="圖層 1"><path class="cls-1" d="M82.09,2.69C150-6.87,196.76,42.47,212,104.89c9.12,37.33,4.17,91.8-36.19,109.08-40,17.12-111.84,5.69-142.21-25.39C10.22,164.65,1.16,120.82,1.51,88.47,2.06,37.77,39.42,8.7,82.09,2.69Z" transform="translate(0 0)"/><path class="cls-2" d="M176.86,215.32c-39.44,16.41-110.23,4.83-139.58-26.11C14.86,165.57,6.58,122.72,7.11,91.48,7.76,41.82,44.61,13.73,86.31,8,153-1.26,198.32,47.37,213,108.69,221.75,145.3,216.79,198.71,176.86,215.32Z" transform="translate(0 0)"/><path class="cls-3" d="M177.93,216.65c-38.93,15.71-108.64,4-137-26.81C19.49,166.48,12.11,124.61,12.7,94.49c.94-48.63,37.11-75.74,77.83-81.2,65.41-8.93,109.34,39,123.5,99.2C222.38,148.38,217.41,200.72,177.93,216.65Z" transform="translate(0 0)"/><path class="cls-4" d="M179,218c-38.42,15-107.06,3.13-134.34-27.53-20.54-23.08-27.07-64-26.37-93C19.44,49.9,55,23.77,94.75,18.59c64.14-8.62,106.68,38.58,120.3,97.69C223,151.45,218,202.74,179,218Z" transform="translate(0 0)"/><path class="cls-5" d="M180.05,219.3c-37.91,14.3-105.48,2.28-131.72-28.24-19.6-22.8-25.27-62.69-24.46-90.59C25.23,53.92,60.2,28.88,99,23.86c62.9-8.13,104.17,38.15,117.1,96.19C223.73,154.49,218.64,204.73,180.05,219.3Z" transform="translate(0 0)"/><path class="cls-6" d="M181.12,220.62C143.71,234.22,77.2,222,52,191.67c-18.68-22.53-23.48-61.42-22.55-88.21C31,58,65.4,33.91,103.17,29.15c61.64-7.78,101.54,37.73,113.91,94.68C224.39,157.54,219.27,206.74,181.12,220.62Z" transform="translate(0 0)"/><path class="cls-7" d="M182.19,221.93c-36.9,12.91-102.37.57-126.48-29.66C38,170,34,132.12,35.07,106.45c1.79-44.47,35.54-67.51,72.33-72,60.37-7.42,98.92,37.32,110.7,93.19C225.06,160.59,219.89,208.74,182.19,221.93Z" transform="translate(0 0)"/><path class="cls-8" d="M183.27,223.24c-36.4,12.22-100.82-.29-123.85-30.37-16.86-22-19.89-58.88-18.75-83.45,2-43.42,35.15-65.45,71-69.73,59.11-7.06,96.3,36.92,107.5,91.69C225.73,163.64,220.52,210.74,183.27,223.24Z" transform="translate(0 0)"/><path class="cls-9" d="M184.36,224.54c-35.9,11.52-99.3-1.15-121.23-31.08-16-21.76-18.1-57.6-16.84-81.06C48.55,70,81,49,115.87,45c57.85-6.7,93.68,36.5,104.3,90.18C226.41,166.68,221.16,212.73,184.36,224.54Z" transform="translate(0 0)"/><path class="cls-10" d="M185.47,225.84c-35.41,10.83-97.78-2-118.62-31.79-15.06-21.52-16.29-56.33-14.93-78.69C54.43,74,86.28,54,120.13,50.21c56.58-6.32,91.05,36.1,101.1,88.69C227.11,169.71,221.81,214.72,185.47,225.84Z" transform="translate(0 0)"/><path class="cls-11" d="M186.59,227.13c-34.92,10.14-96.27-2.89-116-32.5-14.18-21.29-14.49-55.06-13-76.31C60.35,78,91.54,59,124.41,55.47c55.31-6,88.43,35.69,97.89,87.18C227.83,172.74,222.47,216.7,186.59,227.13Z" transform="translate(0 0)"/><path class="cls-12" d="M187.74,228.41C153.31,237.86,93,224.64,74.37,195.2c-13.3-21.06-12.69-53.77-11.12-73.93,3-39.22,33.57-57.26,65.47-60.56,54-5.59,85.81,35.29,94.69,85.68C228.58,175.76,223.17,218.68,187.74,228.41Z" transform="translate(0 0)"/><path class="cls-13" d="M188.94,229.68C155,238.45,95.64,225,78.18,195.76,65.75,174.92,67.3,143.27,69,124.22,72.31,86.05,102.14,69,133.06,66c52.78-5.22,83.2,34.88,91.49,84.18C229.37,178.77,223.9,220.66,188.94,229.68Z" transform="translate(0 0)"/><path class="cls-14" d="M190.18,231C156.71,239,98.35,225.4,82.05,196.32c-11.58-20.65-9.08-51.2-7.31-69.17,3.65-37.1,32.78-53.16,62.71-56,51.52-4.85,80.59,34.47,88.3,82.68C230.21,181.78,224.67,222.62,190.18,231Z" transform="translate(0 0)"/><path class="cls-15" d="M191.47,232.21c-33,7.4-90.37-6.47-105.51-35.34-10.73-20.47-7.27-49.91-5.4-66.79,4-36,32.38-51.11,61.34-53.68,50.25-4.47,78,34.07,85.09,81.18C231.1,184.77,225.49,224.58,191.47,232.21Z" transform="translate(0 0)"/><path class="cls-16" d="M192.83,233.46c-32.53,6.72-88.92-7.39-102.89-36.05-9.9-20.3-5.46-48.62-3.5-64.41,4.34-34.95,32-49,60-51.39,49-4.08,75.36,33.67,81.89,79.68C232.06,187.76,226.37,226.54,192.83,233.46Z" transform="translate(0 0)"/><path class="cls-17" d="M194.24,234.7c-32.06,6-87.47-8.34-100.26-36.76-9.07-20.15-3.65-47.32-1.59-62C97.12,102,124,88.91,151,86.82c47.72-3.71,72.75,33.26,78.69,78.17C233.07,190.75,227.31,228.48,194.24,234.7Z" transform="translate(0 0)"/><path class="cls-18" d="M195.72,235.93c-31.6,5.36-86-9.3-97.64-37.47-8.25-20-1.83-46,.31-59.64,5.16-32.77,31.19-44.95,57.22-46.81,46.45-3.32,70.14,32.86,75.49,76.68C234.15,193.72,228.31,230.41,195.72,235.93Z" transform="translate(0 0)"/><path class="cls-19" d="M197.26,237.15c-31.15,4.68-84.61-10.29-95-38.18-7.44-19.92,0-44.69,2.22-57.27,5.62-31.65,30.79-42.89,55.85-44.51,45.17-2.92,67.53,32.46,72.28,75.18C235.3,196.68,229.36,232.34,197.26,237.15Z" transform="translate(0 0)"/><path class="cls-20" d="M198.08,238.39c-30.71,4-78.36-13.41-92.4-38.89-3-20.72,1.8-43.36,4.12-54.89,6.15-30.51,30.39-40.83,54.48-42.22,43.9-2.53,64.92,32.06,69.08,73.67C235.72,199.66,229.68,234.28,198.08,238.39Z" transform="translate(0 0)"/><path class="cls-21" d="M199.76,239.58c-30.27,3.31-76.6-14.42-89.78-39.61-1.88-20.54,3.62-42,6-52.5,6.74-29.34,30-38.78,53.1-39.93,42.64-2.13,62.33,31.66,65.88,72.17C237,202.59,230.86,236.17,199.76,239.58Z" transform="translate(0 0)"/><path class="cls-22" d="M201.56,240.75c-29.84,2.64-74.84-15.42-87.17-40.31-.8-20.38,5.44-40.65,7.94-50.13,7.42-28.11,29.59-36.71,51.73-37.63,41.36-1.73,59.73,31.26,62.68,70.67C238.4,205.51,232.15,238.05,201.56,240.75Z" transform="translate(0 0)"/><path class="cls-23" d="M203.47,242.05c-29.41,2-73.08-16.43-84.55-41,.27-20.21,5.64-39.93,9.85-47.75,2.77-27.91,29.28-33.23,50.35-35.34,39.91-4,57.13,30.87,59.48,69.17C239.91,208.56,233.55,240.05,203.47,242.05Z" transform="translate(0 0)"/><path class="cls-24" d="M205.4,243.2c-29,1.28-71.31-17.44-81.92-41.74,1.34-20,7.37-38.66,11.75-45.36,2.87-26.88,28.87-31.08,49-33,38.64-3.8,54.54,30.48,56.28,67.67C241.46,211.46,235,241.9,205.4,243.2Z" transform="translate(0 0)"/><path class="cls-25" d="M207.33,244.33c-28.58.6-69.55-18.44-79.3-42.45,2.42-19.87,9.1-37.39,13.66-43,3-25.85,28.46-28.92,47.6-30.76,37.37-3.6,52,30.09,53.08,66.17C243,214.34,236.38,243.72,207.33,244.33Z" transform="translate(0 0)"/><path class="cls-26" d="M209.25,245.44c-28.19-.08-67.79-19.44-76.68-43.15,3.49-19.7,10.83-36.13,15.56-40.61,3.07-24.81,28.05-26.75,46.23-28.46,36.1-3.41,49.37,29.71,49.88,64.66C244.52,217.2,237.76,245.53,209.25,245.44Z" transform="translate(0 0)"/><path class="cls-27" d="M211.16,246.54c-27.8-.77-66-20.45-74.06-43.86,4.56-19.53,12.56-34.87,17.47-38.23,3.17-23.77,27.62-24.57,44.85-26.17,34.83-3.23,46.78,29.33,46.68,63.17C246,220.06,239.13,247.32,211.16,246.54Z" transform="translate(0 0)"/><path class="cls-28" d="M213,247.63c-27.41-1.46-64.27-21.45-71.44-44.57,5.64-19.37,14.3-33.6,19.38-35.85,3.27-22.74,27.19-22.39,43.48-23.88,33.56-3.07,44.2,28.95,43.47,61.67C247.54,222.91,240.47,249.1,213,247.63Z" transform="translate(0 0)"/><path class="cls-29" d="M214.9,248.71c-27-2.16-62.51-22.46-68.82-45.29,6.72-19.19,16-32.33,21.28-33.46,3.38-21.71,26.76-20.21,42.11-21.59,32.29-2.92,41.62,28.58,40.27,60.16C249,225.75,241.78,250.85,214.9,248.71Z" transform="translate(0 0)"/><path class="cls-30" d="M216.72,249.77c-26.67-2.85-60.74-23.47-66.19-46,7.79-19,17.75-31.06,23.18-31.08,3.48-20.67,26.32-18,40.74-19.3,31-2.78,39.05,28.21,37.07,58.67C250.44,228.57,243.05,252.59,216.72,249.77Z" transform="translate(0 0)"/><path class="cls-31" d="M218.51,250.82c-26.31-3.56-59-24.47-63.58-46.71,8.87-18.85,19.49-29.8,25.09-28.7,3.58-19.63,25.87-15.79,39.37-17,29.75-2.67,36.48,27.86,33.87,57.17C251.84,231.39,244.27,254.3,218.51,250.82Z" transform="translate(0 0)"/><path class="cls-32" d="M220.25,252.23c-26-4.26-57.22-25.48-60.95-47.42,9.94-18.68,21.21-28.54,27-26.32,3.67-18.6,25.41-16,38-14.71,28.45,2.91,33.92,27.5,30.67,55.66C253.2,234.58,245.44,256.37,220.25,252.23Z" transform="translate(0 0)"/><path class="cls-33" d="M222,253.48c-25.62-5-55.46-26.48-58.33-48.13,11-18.51,22.95-27.27,28.9-23.94,3.78-17.56,25-13.91,36.62-12.42,27.11,3.48,31.35,27.16,27.46,54.16C254.52,237.61,246.56,258.27,222,253.48Z" transform="translate(0 0)"/><path class="cls-34" d="M223.6,254.77c-25.28-5.7-53.7-27.48-55.71-48.83,12.09-18.35,24.68-26,30.81-21.57,3.88-16.52,24.5-11.82,35.24-10.13,25.75,4.08,28.79,26.83,24.26,52.66C255.79,240.69,247.63,260.2,223.6,254.77Z" transform="translate(0 0)"/><path class="cls-35" d="M225.2,256.11c-25-6.44-51.94-28.49-53.09-49.55,13.16-18.18,26.41-24.74,32.72-19.19,4-15.48,24-9.73,33.86-7.83,24.37,4.71,26.23,26.5,21.07,51.16C257,243.82,248.65,262.16,225.2,256.11Z" transform="translate(0 0)"/><path class="cls-36" d="M226.75,257.49c-24.64-7.19-50.18-29.5-50.47-50.26,14.24-18,28.14-23.48,34.62-16.81,4.08-14.45,23.53-7.64,32.49-5.54,22.95,5.38,23.68,26.19,17.87,49.66C258.17,247,249.61,264.15,226.75,257.49Z" transform="translate(0 0)"/><path class="cls-37" d="M228.16,259.17c-24.33-7.94-48.42-30.51-47.85-51,15.3-17.85,29.86-22.22,36.52-14.43,4.18-13.42,23.62-7.11,31.12-3.25,22.25,1.74,21.11,25.9,14.66,48.16C259.19,250.49,250.42,266.43,228.16,259.17Z" transform="translate(0 0)"/><path class="cls-38" d="M229.58,260.6c-24-8.7-46.66-31.51-45.23-51.68,16.38-17.67,31.6-20.95,38.43-12,4.28-12.38,23.22-5.09,29.74-1,21,2.05,18.55,25.62,11.46,46.66C260.22,253.75,251.24,268.46,229.58,260.6Z" transform="translate(0 0)"/><path class="cls-39" d="M231,262.19c-23.7-9.48-44.89-32.51-42.61-52.39,17.46-17.5,33.33-19.68,40.34-9.66,4.38-11.35,22.82-3.07,28.37,1.33,19.71,2.37,16,25.36,8.26,45.16C261.21,257.18,252,270.63,231,262.19Z" transform="translate(0 0)"/><path class="cls-40" d="M232.3,264.86c-23.39-10.28-43.13-33.52-40-53.1,18.54-17.34,35.06-18.42,42.25-7.29,4.48-10.31,22.42-1.05,27,3.63,18.44,2.68,13.39,25.11,5.06,43.66C262.15,261.69,252.77,273.85,232.3,264.86Z" transform="translate(0 0)"/><path class="cls-41" d="M233.6,267.54c-23.08-11.08-41.37-34.53-37.36-53.81,19.6-17.17,36.79-17.15,44.15-4.91,4.58-9.27,22,1,25.62,5.92,17.17,3,10.78,24.89,1.86,42.16C263,266.24,253.48,277.08,233.6,267.54Z" transform="translate(0 0)"/><path class="cls-42" d="M234.87,270.23c-22.77-11.9-39.61-35.54-34.74-54.53,20.68-17,38.52-15.88,46.05-2.52,4.68-8.24,21.63,3,24.25,8.21,15.9,3.31,8.15,24.67-1.35,40.66C263.89,270.8,254.16,280.31,234.87,270.23Z" transform="translate(0 0)"/><path class="cls-43" d="M236.45,273C214,260.3,198.6,236.49,204.32,217.8c21.76-16.83,40.26-14.62,48-.15,4.79-7.2,21.24,5,22.88,10.51,14.63,3.62,2.75,22.94-4.55,39.15C263.67,274.38,255.15,283.64,236.45,273Z" transform="translate(0 0)"/><path class="cls-44" d="M237.59,275.74c-22.13-13.58-36.08-37.54-29.5-55.94,22.83-16.66,42-13.36,49.86,2.23,4.89-6.16,20.84,7,21.51,12.8,13.36,3.94.08,22.54-7.75,37.65C264.39,278.83,255.71,286.86,237.59,275.74Z" transform="translate(0 0)"/><path class="cls-45" d="M238.71,278.44c-21.81-14.44-34.32-38.55-26.88-56.66,23.9-16.49,43.71-12.09,51.77,4.62,5-5.13,20.44,9,20.13,15.09,12.09,4.25-2.58,22.14-11,36.15C265.07,283.26,256.25,290.05,238.71,278.44Z" transform="translate(0 0)"/><path class="cls-46" d="M239.8,281.11c-21.47-15.32-32.56-39.56-24.26-57.37,25-16.32,45.44-10.82,53.68,7,5.08-4.1,20,11.06,18.75,17.38,10.83,4.56-5.24,21.74-14.15,34.65C265.74,287.67,256.77,293.21,239.8,281.11Z" transform="translate(0 0)"/><path class="cls-47" d="M240.87,283.74c-21.13-16.2-30.8-40.56-21.64-58.08,26.06-16.15,47.18-9.56,55.59,9.38,5.18-3.06,19.64,13.07,17.38,19.67,9.55,4.88-7.91,21.34-17.36,33.15C266.38,292,257.28,296.32,240.87,283.74Z" transform="translate(0 0)"/><path class="cls-48" d="M241.93,286.31c-20.77-17.09-29-41.56-19-58.78,27.13-16,48.91-8.3,57.49,11.75,5.29-2,19.25,15.1,16,22,8.28,5.19-10.58,20.93-20.56,31.65C267,296.36,257.79,299.36,241.93,286.31Z" transform="translate(0 0)"/><path class="cls-49" d="M243,288.82c-20.41-18-27.28-42.57-16.4-59.49,28.2-15.82,50.64-7,59.39,14.13,5.39-1,18.85,17.12,14.64,24.26,7,5.5-13.24,20.53-23.76,30.15C267.62,300.61,258.29,302.33,243,288.82Z" transform="translate(0 0)"/><path class="cls-50" d="M243.89,291.24c-20-18.92-25.52-43.58-13.78-60.2,29.28-15.65,52.37-5.77,61.3,16.51,5.49,0,18.45,19.13,13.26,26.56,5.75,5.81-15.9,20.12-27,28.64C268.1,304.77,258.67,305.21,243.89,291.24Z" transform="translate(0 0)"/><path class="cls-51" d="M244.49,293.56c-19.62-19.85-23.75-44.58-11.15-60.92,30.35-15.48,54.09-4.5,63.2,18.9,5.59,1.08,18.06,21.15,11.89,28.84,4.47,6.13-18.57,19.73-30.16,27.15C268.27,308.83,258.75,308,244.49,293.56Z" transform="translate(0 0)"/><path class="cls-52" d="M245.11,295.76c-19.21-20.79-22-45.59-8.54-61.63,31.43-15.31,55.83-3.24,65.11,21.27,5.69,2.12,17.66,23.17,10.52,31.14,3.2,6.45-21.24,19.33-33.36,25.64C268.46,312.76,258.85,310.63,245.11,295.76Z" transform="translate(0 0)"/><path class="cls-53" d="M245.74,297.83c-18.78-21.72-20.23-46.59-5.92-62.33,32.5-15.14,57.56-2,67,23.65,5.79,3.16,17.26,25.19,9.14,33.43,1.93,6.76-23.9,18.93-36.56,24.14C268.66,316.58,259,313.15,245.74,297.83Z" transform="translate(0 0)"/><path class="cls-54" d="M246.38,299.88c-18.32-22.66-18.47-47.59-3.29-63,33.57-15,59.29-.71,68.92,26,5.89,4.19,16.86,27.21,7.76,35.73.67,7.07-26.56,18.52-39.76,22.64C268.87,320.37,259.12,315.65,246.38,299.88Z" transform="translate(0 0)"/><path class="cls-55" d="M247,302c-17.86-23.62-16.7-48.61-.67-63.76,34.65-14.8,61,.56,70.83,28.41,6,5.23,16.47,29.23,6.39,38-.6,7.39-29.23,18.12-43,21.14C269.09,324.18,259.29,318.16,247,302Z" transform="translate(0 0)"/><path class="cls-56" d="M248.1,305.24c-17.38-24.57-17.17-52.62,2-64.47,32.81-20.35,62.75,1.82,72.73,30.79,6.09,6.27,16.07,31.25,5,40.31-1.87,7.7-31.77,20.06-46.17,19.64C269.51,331.16,259.89,321.89,248.1,305.24Z" transform="translate(0 0)"/><path class="cls-57" d="M248.72,307.22c-16.88-25.51-15.23-53.56,4.57-65.18,34.1-20,64.49,3.09,74.64,33.17,6.2,7.3,15.68,33.27,3.65,42.61-3.15,8-34.6,19.51-49.37,18.13C269.61,334.77,260.05,324.33,248.72,307.22Z" transform="translate(0 0)"/><path class="cls-58" d="M249.55,309c-16.37-26.46-13.31-54.5,7.19-65.89,35.38-19.68,61.27,6.45,76.54,35.55,4.86,9.25,15.28,35.28,2.27,44.9-4.41,8.32-37.39,19-52.56,16.63C269.93,338.19,260.41,326.57,249.55,309Z" transform="translate(0 0)"/><path class="cls-59" d="M250.22,310.91c-15.85-27.4-11.39-55.42,9.81-66.6,36.64-19.32,63.47,7.44,78.45,37.94,5,10.18,14.88,37.3.89,47.19-5.68,8.64-40.17,18.43-55.76,15.13C270.11,341.72,260.64,328.93,250.22,310.91Z" transform="translate(0 0)"/><path class="cls-60" d="M251.28,312.81c-15.31-28.34-9.48-56.35,12.43-67.31,37.91-19,65.61,8.47,80.36,40.31,5.15,11.14,12.71,37.11-.48,49.49-8.27,7.75-42.92,17.89-59,13.63C270.7,345.23,261.26,331.29,251.28,312.81Z" transform="translate(0 0)"/><path class="cls-61" d="M251.91,314.63c-14.75-29.28-7.58-57.27,15-68,39.16-18.6,67.71,9.54,82.27,42.69,5.31,12.09,12.56,39.32-1.85,51.78-9.38,8.09-45.65,17.35-62.17,12.13C270.88,348.68,261.46,333.57,251.91,314.63Z" transform="translate(0 0)"/><path class="cls-62" d="M252.57,316.39c-14.19-30.21-5.7-58.18,17.67-68.73,40.39-18.23,69.76,10.65,84.17,45.08,5.47,13.06,12.38,41.52-3.22,54.06-10.51,8.46-48.36,16.83-65.38,10.63C271.09,352.07,261.69,335.81,252.57,316.39Z" transform="translate(0 0)"/><path class="cls-63" d="M253.25,318.11C239.63,287,249.43,259,273.54,248.67c41.62-17.86,71.78,11.77,86.08,47.46,5.62,14,12.15,43.7-4.6,56.36-11.67,8.81-51.06,16.3-68.58,9.12C271.33,355.43,262,338,253.25,318.11Z" transform="translate(0 0)"/><path class="cls-64" d="M253.94,319.78c-13-32-1.94-60,22.92-70.15,42.83-17.48,73.77,12.92,88,49.84,5.78,15,11.9,45.87-6,58.65-12.84,9.18-53.74,15.79-71.78,7.63C271.6,358.74,262.23,340.17,253.94,319.78Z" transform="translate(0 0)"/><path class="cls-65" d="M254.66,321.42c-12.44-33-.08-60.91,25.54-70.87,44-17.11,75.74,14.08,89.88,52.22,5.94,16,11.63,48-7.34,60.94-14,9.55-56.41,15.29-75,6.13C271.9,362,262.54,342.29,254.66,321.42Z" transform="translate(0 0)"/><path class="cls-66" d="M255.39,323c-11.84-33.88,1.78-61.81,28.16-71.57,45.24-16.74,77.69,15.24,91.79,54.59,6.1,17,11.33,50.17-8.72,63.24-15.21,9.91-59.07,14.78-78.18,4.62C272.22,365.27,262.86,344.38,255.39,323Z" transform="translate(0 0)"/><path class="cls-67" d="M256.14,324.57c-11.24-34.78,3.63-62.71,30.78-72.28,46.43-16.37,79.62,16.43,93.7,57,6.25,18,11,52.3-10.1,65.53-16.41,10.28-61.73,14.29-81.38,3.12C272.55,368.49,263.21,346.44,256.14,324.57Z" transform="translate(0 0)"/><path class="cls-68" d="M256.9,326.1c-10.63-35.67,5.47-63.61,33.4-73,47.61-16,81.54,17.62,95.61,59.35,6.41,19,10.7,54.42-11.47,67.82-17.63,10.66-64.38,13.81-84.58,1.63C272.9,371.69,263.57,348.48,256.9,326.1Z" transform="translate(0 0)"/><path class="cls-69" d="M257.68,327.61c-10-36.55,7.31-64.51,36-73.7,48.79-15.62,83.44,18.82,97.51,61.73,6.57,20,10.38,56.53-12.84,70.11-18.84,11-67,13.33-87.78.13C273.27,374.87,264,350.5,257.68,327.61Z" transform="translate(0 0)"/><path class="cls-70" d="M258.47,329.1c-9.39-37.43,9.14-65.41,38.64-74.42,50-15.24,85.33,20,99.42,64.12,6.72,21,10,58.63-14.22,72.41-20.06,11.38-69.67,12.84-91-1.38C273.66,378,264.35,352.51,258.47,329.1Z" transform="translate(0 0)"/><path class="cls-71" d="M259.28,330.57c-8.78-38.3,11-66.31,41.26-75.12,51.11-14.87,87.2,21.24,101.32,66.49,6.87,22,9.7,60.74-15.59,74.7C365,408.4,314,409,292.08,393.76,274.06,381.19,264.76,354.51,259.28,330.57Z" transform="translate(0 0)"/><path class="cls-72" d="M260.09,332c-8.15-39.16,12.79-67.21,43.88-75.83,52.27-14.5,89.08,22.46,103.23,68.87,7,23.05,9.35,62.83-17,77-22.52,12.12-75,11.91-97.39-4.38C274.47,384.33,265.18,356.5,260.09,332Z" transform="translate(0 0)"/><path class="cls-73" d="M260.92,333.48c-7.53-40,14.6-68.11,46.5-76.55,53.42-14.13,90.94,23.69,105.14,71.26,7.18,24.06,9,64.92-18.34,79.28-23.76,12.49-77.6,11.45-100.59-5.88C274.89,387.47,265.62,358.48,260.92,333.48Z" transform="translate(0 0)"/><path class="cls-74" d="M261.76,334.92c-6.91-40.87,16.41-69,49.12-77.26,54.56-13.76,92.79,24.91,107,73.64,7.34,25.08,8.64,67-19.71,81.58-25,12.84-80.23,11-103.79-7.39C275.33,390.6,266.07,360.47,261.76,334.92Z" transform="translate(0 0)"/><path class="cls-75" d="M262.61,336.35c-6.28-41.71,18.22-69.89,51.74-78,55.7-13.41,94.64,26.14,109,76,7.48,26.1,8.27,69.09-21.09,83.87-26.23,13.21-82.86,10.54-107-8.88C275.78,393.73,266.53,362.45,262.61,336.35Z" transform="translate(0 0)"/><path class="cls-76" d="M263.47,337.78c-5.65-42.56,20-70.79,54.37-78.68,56.83-13,96.47,27.37,110.85,78.4,7.63,27.11,7.91,71.16-22.46,86.16-27.47,13.57-85.5,10.09-110.19-10.38C276.23,396.86,267,364.42,263.47,337.78Z" transform="translate(0 0)"/><path class="cls-77" d="M264.34,339.21c-5-43.4,21.82-71.7,57-79.39,58-12.69,98.31,28.6,112.75,80.77,7.79,28.14,7.55,73.24-23.83,88.46-28.71,13.93-88.13,9.63-113.39-11.89C276.7,400,267.49,366.4,264.34,339.21Z" transform="translate(0 0)"/><path class="cls-78" d="M265.22,340.63c-4.4-44.22,23.62-72.59,59.61-80.1C383.91,248.2,425,290.37,439.49,343.68c7.94,29.16,7.17,75.31-25.21,90.75-30,14.29-90.77,9.19-116.59-13.39C277.18,403.11,268,368.38,265.22,340.63Z" transform="translate(0 0)"/><path class="cls-79" d="M266.11,342c-3.78-45,25.42-73.48,62.23-80.8,60.2-12,102,31.07,116.57,85.53,8.08,30.18,6.8,77.38-26.59,93-31.2,14.64-93.4,8.75-119.79-14.89C277.66,406.24,268.48,370.37,266.11,342Z" transform="translate(0 0)"/><path class="cls-80" d="M267,343.46c-3.16-45.86,27.2-74.38,64.85-81.52,61.32-11.62,103.79,32.32,118.47,87.92,8.23,31.19,6.43,79.44-28,95.33-32.45,15-96,8.3-123-16.39C278.15,409.36,269,372.35,267,343.46Z" transform="translate(0 0)"/><path class="cls-81" d="M267.91,344.88c-2.53-46.68,29-75.28,67.47-82.23,62.44-11.28,105.62,33.56,120.38,90.29,8.38,32.22,6.06,81.51-29.33,97.63-33.7,15.35-98.66,7.86-126.19-17.89C278.65,412.49,269.51,374.33,267.91,344.88Z" transform="translate(0 0)"/><path class="cls-82" d="M268.83,346.29c-1.92-47.49,30.78-76.18,70.09-82.94,63.54-10.92,107.43,34.8,122.28,92.68,8.53,33.24,5.68,83.57-30.7,99.92-34.95,15.7-101.3,7.42-129.4-19.39C279.16,415.61,270,376.32,268.83,346.29Z" transform="translate(0 0)"/><path class="cls-83" d="M269.75,347.71c-1.3-48.3,32.56-77.08,72.71-83.65,64.65-10.59,109.25,36,124.19,95.05,8.68,34.27,5.3,85.63-32.08,102.21-36.2,16.06-103.93,7-132.59-20.89C279.68,418.74,270.57,378.31,269.75,347.71Z" transform="translate(0 0)"/><path class="cls-84" d="M270.68,349.12C270,300,305,271.15,346,264.76c65.75-10.24,111.06,37.29,126.1,97.44,8.82,35.28,4.92,87.68-33.45,104.5-37.46,16.41-106.57,6.56-135.8-22.39C280.2,421.87,271.1,380.31,270.68,349.12Z" transform="translate(0 0)"/><path class="cls-85" d="M271.6,350.53c-.06-49.9,36.13-78.87,77.95-85.07,66.86-9.9,113,38.52,128,99.82,9,36.3,4.56,89.78-34.83,106.79-38.69,16.8-109.17,6.1-139-23.89C280.74,425,271.64,382.3,271.6,350.53Z" transform="translate(0 0)"/><path class="cls-86" d="M353.13,266.17c68-9.56,114.67,39.78,129.91,102.2,9.11,37.33,4.16,91.8-36.2,109.08-40,17.12-111.84,5.7-142.2-25.39C281.27,428.13,272.2,384.3,272.55,352,273.11,301.25,310.46,272.18,353.13,266.17Z" transform="translate(0 0)"/></g></g></svg>