<svg xmlns="http://www.w3.org/2000/svg" viewBox="0 0 894.08 1041.38"><defs><style>.cls-1{opacity:0.85;}.cls-2{fill:#d1e2fb;}.cls-3{fill:#bed6fa;}.cls-4{fill:#99bff7;}.cls-5{fill:#e3edfd;}.cls-6{fill:#accbf8;}.cls-7{fill:#84b2f5;}</style></defs><g id="圖層_2" data-name="圖層 2"><g id="圖層_1-2" data-name="圖層 1"><g class="cls-1"><g class="cls-1"><path class="cls-2" d="M882.56,540.86c0,4.78.15,10.12.22,14.44-.56,8-1.24,16.49-2,24.12.62,2.89,1.16,5.78,1.73,8.86s1.22,6.42,1.85,9.79c.76,8.58,1.72,18.41,2.67,27.48,1.26-6.92,1.72-12.72,2.24-17.88.12-1.3.24-2.56.36-3.81l.19-1.87c.06-.63.08-1.34.13-2,.17-2.68.34-5.44.54-8.51,1,6.19,2,12.31,3.17,19.7.2,7.82.34,15.77.43,23.73,0,4,0,8,0,12s0,8-.14,11.83c-.2,3.63-.41,7.46-.62,11.29s-.54,7.57-.81,11.12a4.09,4.09,0,0,1-3.23-.66c.17,7.82.35,15.88.53,23.94l0,3.08c0,1,0,2,0,3,0,2,0,3.95,0,5.91,0,4,0,8,0,11.87-.59,3.63-1.19,7.26-1.82,10.82-.24.35-.48.71-.72,1l-.74,1c-.49.64-1,1.3-1.46,2-1,1.38-2,2.89-3,4.66a24.35,24.35,0,0,1,.39,15.35c-1,4.24-2.82,7.76-2,14.58a28.16,28.16,0,0,1-5.87,8.78c-1,1-2,1.88-3,2.69s-2,1.41-2.9,2.15c-3.59,2.93-5.8,6.77-4.1,19.11a3.63,3.63,0,0,0-3.31-.51,7.65,7.65,0,0,0-1.83.89,9.57,9.57,0,0,0-1,.69c-.32.24-.66.49-1,.77-2.68,2.22-5.47,5.93-8,10.47,1.15,9.21,1,13.24.07,14.53s-2.53-.13-4.15-1.59c-3.23-2.81-6.65-6.36-4.76,12.91-1.4-3-3.21-4.27-5.15-4.32a5.82,5.82,0,0,0-3,.83,12.05,12.05,0,0,0-3,2.45,25.62,25.62,0,0,0-5,8.81,33.27,33.27,0,0,0-1.9,12.32c-2.58,2-5.38,4.17-8.2,6.46s-5.68,4.72-8.58,7.28c-1.46,1.26-2.93,2.41-4.46,3.67s-3.1,2.49-4.65,3.78q-4.68,3.88-9.41,8.14c-1.59,1.41-3.11,2.87-4.76,4.33l-2.45,2.21-2.49,2.1q-5,4.26-9.93,8.87c-3.25,3.1-6.71,6.23-10,9.52q-2.52,2.46-5,5c-1.68,1.62-3.36,3.23-5,4.9-.93.86-1.92,1.74-3,2.62s-2.27,1.76-3.48,2.63c-2.42,1.75-5,3.48-7.78,5.1a86.39,86.39,0,0,1-8.6,4.48,45.34,45.34,0,0,1-27.6,3.44,28.67,28.67,0,0,1-15.68-9.78c-5.41,6.46-1.3,19.16-2.32,29.51-2-1.26-5.15.15-7.8.39s-4.84-.76-4.57-6.67c-2-8.76-5.88-7.1-9.1-7-3.87,4.6-3.28,13.54-3.37,21a61.15,61.15,0,0,0-9.76-6.74,45.66,45.66,0,0,0-9.43-3.88,35.93,35.93,0,0,0-17.92-.81,67.6,67.6,0,0,0-17.71,6.3c-3,1.47-5.91,3.09-8.88,4.79-1.48.88-3,1.66-4.51,2.45l-4.6,2.38A193.25,193.25,0,0,1,562.94,994c-1.58.6-3.15,1.17-4.73,1.68s-3.24.89-4.86,1.25a52.53,52.53,0,0,1-9.76,1.22,41.65,41.65,0,0,1-4.87-.18c-.82-.07-1.63-.17-2.44-.31s-1.61-.35-2.41-.57a36.8,36.8,0,0,1-9.66-4.14c-6.46-3.88-12.74-9.95-18.57-19-1.32,9-3.24,13.73-5.52,16.35a9.07,9.07,0,0,1-3.65,2.6,21.28,21.28,0,0,1-4,1c-5.49.93-11.2,1.95-15.47,20.6-5.51.16-11,.07-16.47,0s-11.18-.6-16.75-1l-16.66-1.13c-5.63-.48-11.3-1-16.94-1.39a52.3,52.3,0,0,1-11.18-.79,59.31,59.31,0,0,1-11-3,122.5,122.5,0,0,1-21.46-11c-1.74-1.08-3.47-2.2-5.19-3.33l-2.58-1.71-2.61-1.81L345.79,982c-3.38-2.54-6.74-5-10.1-7.39-1.68-1.18-3.37-2.33-5.06-3.43l-2.53-1.62-2.58-1.63c-2.81-10.69-7.4-14.94-12.78-14.63s-11.5,5.19-16.94,12.86c-2.33-1.62-4.62-3.13-7-4.81l-7-4.93c-4.72-3.2-9.29-6.68-13.84-10.12l-6.8-5.2-3.51-2.74-3.67-2.9c-4.85-3.9-9.71-7.84-14.26-12-2.58-13.8-5.66-22.82-11.6-28a22.44,22.44,0,0,0-11.51-5c-4.68-.9-10.4-1-17.5-.36-5-6.5-9.89-13.32-14.65-20s-9.16-13.36-13.22-19.61a137.45,137.45,0,0,0-6.33-19.68c-2.22-5.12-4.46-8.9-7-11-5.09-4.14-11.4-1.71-19.08,9.11q-2.08-4-4.19-8.06c-2-3.07-4.13-6-6.22-8.89s-4.2-5.73-6.33-8.54c-4.29-5.58-8.61-11.18-12.94-17.05-1.48-1.31-3.41-2.59-5.38-4a37.86,37.86,0,0,1-5.64-4.81c-2.71-11.36-3.72-24.88-5.61-36.21,3-10-1.55-12.33-8.07-12.42s-15,2.12-19.37,1.79c-2.24-7.93-4.34-15.8-6.25-23.82l-1.43-6-1.24-6c-.8-4.09-1.57-8.15-2.31-12.21C57.2,669,53.68,663.93,49.3,661c-2.18-1.47-4.53-2.4-6.22-3.57s-2.68-2.62-2.16-5c-.93-7.54-1.78-14.91-2.44-22.49-.33-3.77-.67-7.5-.9-11.26s-.35-7.6-.48-11.39-.22-7.57-.29-11.33-.07-7.61-.07-11.38,0-7.56.12-11.3.21-7.59.36-11.36a30.09,30.09,0,0,1-8-8,27.23,27.23,0,0,1-3.7-9,36,36,0,0,1-.69-4.75c-.09-1.62-.09-3.25,0-4.9.14-3.35.54-6.76,1-10.21,5.14-2.94,10.14-4.76,15.27-7.62.36-2.56.68-4.88,1-7.19l1.15-7.22a67,67,0,0,1-6.32-10.17c-1.71-3.34-3.08-6.69-4.54-9.88a72,72,0,0,0-4.84-9.26A42.76,42.76,0,0,0,20.45,465c.49-2.12,1.05-4.49,1.73-7s1.35-5.11,2.11-7.78c4.11-3.18,6.63-6.35,11.06-10.42,2.75-9.16,6.26-19.36,9.47-28.24.08-4.55.47-8.62.79-12.53s.62-7.68.79-11.78c-1.32-2.7-2.52-5.43-3.9-8.21a81,81,0,0,0-4.84-8.55c7.53-2,13.63-4.27,19.61-6.37,2.8-9,3.4-16.66,4.74-25.5L65.55,332l3.36-6.08c2.25-4,4.51-8,6.93-12.05-1.47-4.92-2.45-9.51-3.45-14.15-.9-4.81-1.73-9.64-2.64-15A34,34,0,0,1,87.6,265.11a40.59,40.59,0,0,1,6.91-2.49,53.79,53.79,0,0,1,7.91-1.54,78.81,78.81,0,0,1,18.54.22l.07-4.46c.06-1.52.15-3.07.25-4.61.2-3.08.46-6.16.8-9.23.15-1.51.39-3.1.64-4.67s.52-3.13.82-4.69.63-3.09,1-4.62.73-3,1.21-4.58c4.23-4.4,7.4-7.61,10.53-10.74,1.92-5.44,4.07-10.83,6.51-16.25,1.27-2.75,2.6-5.5,4-8.22l2.08-4.09,1.07-2L151,181c3-5.47,6.21-11,9.47-16.27l4.93-7.87,2.49-3.91,2.43-3.74q3.06-2.12,6-4.26l5.72-4.18c3.66-2.67,7.19-5.38,10.67-8.05s6.69-5,10-7.43l2.52-1.79,2.43-1.63c1.63-1.07,3.27-2.12,4.94-3.13s3.36-2,5.06-2.9,3.33-1.64,5.05-2.39a57.78,57.78,0,0,1,10.64-3.61q2.72-.61,5.58-1c1-.13,1.93-.23,2.91-.32a29.17,29.17,0,0,1,2.94-.13,60.62,60.62,0,0,1,12.39,1.24c2.54-6.63,5.42-13.26,7-19.33,2.18-.44,4.26-1,6.12-1.47s3.55-1,5.22-1.5l9.58-3.14a13,13,0,0,1,.54-3.74,7.91,7.91,0,0,1,1.27-2.64,7.74,7.74,0,0,1,4.56-2.76,12.73,12.73,0,0,1,2.91-.33,28.19,28.19,0,0,1,3.22.23c1.12.14,2.29.32,3.45.55l3.36.83,3.37.84,1.65.38c.51.14,1,.27,1.52.38a19.09,19.09,0,0,0,5.5.62c3.06-.1,5.14-1.73,5.44-6.47,4.64,1.67,9.33,3.26,14.08,5.17s9.43,3.79,13.88,5.6c3.16,10.58,6.06,20.13,9.38,30.82-.19,4.61-.27,9.33-.65,13-2.54-1.42-5.19-3.08-7.86-4.73s-5.32-3.24-7.93-4.61c-6.07-5.95-6.63-2.7-6.14,1.9.23,2.31.75,4.92.84,6.91s-.2,3.32-1.47,3l-11.2,5.32c-1,.46-2,.95-3.06,1.46s-2.17,1-3.28,1.54L315.11,139c-1.2.53-2.42,1.06-3.65,1.56A186.25,186.25,0,0,0,278,142c-2.53,1.95-4.9,4-7.34,6.06s-5,4.4-7.46,6.63-5.09,4.78-7.57,7.2-5.15,5.17-7.66,7.79l-1.92,2-1.95,2.11-3.84,4.24c-1.25,1.38-2.57,2.91-3.86,4.43L232.53,187l-1.9,2.3-1.93,2.43c-1.26,1.64-2.51,3.29-3.77,4.94-2.47,3.24-5,6.83-7.43,10.32l-4,2.71-3.89,2.81q-3.86,2.82-7.63,5.75c-2.45,1.93-4.88,3.9-7.33,5.94L191,227.36l-3.63,3.18c-1.44,1.74-2.87,3.52-4.31,5.32l-2.15,2.71-2.06,2.68c-2.73,3.58-5.56,7.35-8.12,10.91s-5.18,7.36-7.57,10.85l-7.18,10.46q10.62.79,21,2c6.93.81,13.7,1.86,20.24,3.2a14.9,14.9,0,0,1,2.43,6.33,18.8,18.8,0,0,1-.21,6,51.51,51.51,0,0,1-1.56,5.76,54.76,54.76,0,0,0-1.43,5.35c-1.37,7,1.35,12.29,21.89,15.19a89.64,89.64,0,0,1-6.26,12.46c-1.18,2-2.46,4.07-3.74,6.14L204.5,342c-5.12,8.19-10.18,16.54-12.78,24.58s-2.8,15.66,1.82,22.48c4.78,6.75,14.07,12.58,30.66,16.16,9.19,2.34,16,4.29,21,6.09s8.38,3.43,10.51,5.05c4.23,3.24,3.86,6.43,3.95,9.68a199.43,199.43,0,0,0-26,10.73c-17.34,5-26.57,9.34-35.49,13.19-2.74,2.54-3.29,4.34-2.47,5.59s3.07,1.95,5.82,2.39c5.53.9,13.24.74,16.66,2,16.91-.46,33.85-1,50.57-2.19-.21,2.88-.31,5.71-.41,8.57s-.21,5.75-.23,8.61-.1,5.78-.1,8.68.05,5.82.07,8.73.16,5.83.26,8.8.21,5.94.46,8.87c.39,5.95,1,11.87,1.71,17.93-5.19,5.87-7,9.61-6.72,11.83s2.63,3,5.91,2.9c6.55-.1,16.59-3.26,20.95-2.48-.11,3.65,0,7.89,0,11.59-.67,3.53-1.59,7.26-2.51,11A105,105,0,0,0,286,573.59c-2.48,6.19-2.66,9.56-1.67,11.12s3.24,1.29,5.7.45c4.93-1.69,10.84-5.77,10.48-2.46,3-.23,5.93-.47,7.66.85a61.53,61.53,0,0,0-4.56,11.58c-.76,3-.85,5.16-.46,6.67.78,3,3.38,3.56,6.3,3.22,5.86-.64,13.07-4.84,10.69,2-1.51,3.6-3,7.21-4.57,11l-5.13,12.47c5.53-2.88,9.8-4.67,14-6.52.68,2.46,1.27,4.23,1.83,6-.93,7.52.27,10.52,2.36,11s5.11-1.57,8.19-4.09,6.23-5.53,8.63-7,4-1.33,4.16,2.35c-.34,3.63-1.55,9.15-2.6,14.72,6.39-.63,11.58-.07,16.78.37-1.24,2.91-3.89,9.2-7.39,17.15S348.63,682,343.8,691.43c.68,1.21,1,1.8,1.66,3,6.31-4.25,12.18-6.52,17.55-7.31a29.58,29.58,0,0,1,14.78,1.39,32.52,32.52,0,0,1,6.36,3,42.57,42.57,0,0,1,5.45,4,39.15,39.15,0,0,1,7.91,9.75,8.78,8.78,0,0,1,8.87,1.09c2.63,1.77,5,4.81,7.24,8.56s4.38,8.19,6.49,12.72c1.06,2.3,2.11,4.5,3.15,6.68s2.09,4.29,3.13,6.28c4.71-5.26,8.57-8,11.87-9.12a9,9,0,0,1,8.39,1.32c4.72,3.35,8.15,11,11.45,17.17,3.66,3.47,7.35,6.59,11.12,9.8s7.66,6.21,11.57,9.31c3.89,2.91,7.83,5.76,11.84,8.6l6.06,4.23,3.06,2.09,3,2c4.8-15.35,8-16.74,10.87-16.51s5.25,2.19,7.77-6.11c3.37-4.13,8.52-4,13.11-.22s8.68,11.37,9.55,22.09c1.55.8,3.08,1.61,5.14,2.6,6.64-11.93,9.64-14.18,12.91-15.71a27.3,27.3,0,0,0,5.4-2.9,39.48,39.48,0,0,0,7.83-8.71c4.61,2.53,9.34,5.21,14.09,7.73s9.5,4.74,14.35,7.08,9.69,4.55,14.56,6.69,9.83,4.18,14.67,5.89c4.07-2.13.38-19,4.93-13.61,4.65-5.51,6.12.61,7.64,8.1s3,16.44,7.7,16.4c1-7.74,2.63-11.86,4.52-14.12s4-2.82,6.19-3.2,4.24-.64,5.92-2.45,2.88-5.22,3.27-11.74c4,8.68,7.87,12.52,11.58,13.69a9.15,9.15,0,0,0,5.48,0,21.45,21.45,0,0,0,5.27-2.67c3.49-2.27,7-5.11,10.64-6.6a11.57,11.57,0,0,1,11.74,1.2c5.29-3.58,10.61-7.21,15.64-11l7.59-5.75c1.26-1,2.5-2,3.73-3l3.61-3.11,7.18-6.22c2.38-2.07,4.75-4.12,7-6.24,4.51-4.4,9.06-8.71,13.4-13a19.75,19.75,0,0,1,6.44-3.59,23.81,23.81,0,0,1,7.65-1.32,27.88,27.88,0,0,1,8.09,1.06,33.37,33.37,0,0,1,8,3.52c1.41-1,3.14-2.33,4.8-3.69,2-1,4.08-1.89,6.19-2.72l3.16-1.19L824,716l1.5-.63c-1.38-6.61-2.23-12.54-3.36-18.14q4.76-4,9.43-8.24l1.16-1.07c.38-.38.74-.77,1.11-1.15l2.19-2.34c1.45-1.57,2.89-3.16,4.3-4.79s2.82-3.27,4.2-4.94,2.59-3.58,3.86-5.41,2.49-3.7,3.7-5.59,2.44-3.75,3.51-5.84a93.69,93.69,0,0,1,3.5-15.58c1.39-4.09,2.74-7.88,4.16-11.41,2.84-7.09,6-13.85,8.67-24.53.14-3.17,0-6.47.06-9.54a35.55,35.55,0,0,1,.86-8.35c.84-3.25,1.78-7.11,2.56-10.46.37-2.43.73-4.75,1.06-7s.6-4.46.87-6.55c.57-4.12,1.1-7.78,1.63-11.16.26-1.67.52-3.29.77-4.85.12-.78.24-1.54.37-2.3l.18-1.12.15-1.18c.39-3.13.75-6.11,1.12-9.06.2-2.24.39-4.49.59-6.73.09-1.14.2-2.24.27-3.41l.18-3.57c.22-4.78.48-9.38.5-14.29C883,500.62,883.66,526.69,882.56,540.86Z"/><path class="cls-3" d="M872.86,588.45a35.55,35.55,0,0,0-.86,8.35c0,3.07.08,6.37-.06,9.54-2.71,10.68-5.83,17.44-8.67,24.53-1.42,3.53-2.77,7.32-4.16,11.41a93.69,93.69,0,0,0-3.5,15.58c-1.07,2.09-2.31,3.92-3.51,5.84s-2.44,3.75-3.7,5.59-2.53,3.66-3.86,5.41-2.78,3.32-4.2,4.94-2.85,3.22-4.3,4.79l-2.19,2.34c-.37.38-.73.77-1.11,1.15L831.58,689q-4.67,4.25-9.43,8.24c1.13,5.6,2,11.53,3.36,18.14L824,716l-1.57.57-3.16,1.19c-2.11.83-4.21,1.71-6.19,2.72-1.66,1.36-3.39,2.68-4.8,3.69a33.37,33.37,0,0,0-8-3.52,27.88,27.88,0,0,0-8.09-1.06,23.81,23.81,0,0,0-7.65,1.32,19.75,19.75,0,0,0-6.44,3.59c-4.34,4.33-8.89,8.64-13.4,13-2.27,2.12-4.64,4.17-7,6.24L750.49,750l-3.61,3.11c-1.23,1-2.47,2-3.73,3l-7.59,5.75c-5,3.84-10.35,7.47-15.64,11a11.57,11.57,0,0,0-11.74-1.2c-3.69,1.49-7.15,4.33-10.64,6.6a21.45,21.45,0,0,1-5.27,2.67,9.15,9.15,0,0,1-5.48,0c-3.71-1.17-7.56-5-11.58-13.69-.39,6.52-1.6,9.93-3.27,11.74s-3.78,2.07-5.92,2.45-4.31.87-6.19,3.2-3.49,6.38-4.52,14.12c-4.67,0-6.2-8.91-7.7-16.4s-3-13.61-7.64-8.1c-4.55-5.41-.86,11.48-4.93,13.61-4.84-1.71-9.8-3.72-14.67-5.89s-9.68-4.29-14.56-6.69-9.64-4.71-14.35-7.08-9.48-5.2-14.09-7.73a39.48,39.48,0,0,1-7.83,8.71,27.3,27.3,0,0,1-5.4,2.9c-3.27,1.53-6.27,3.78-12.91,15.71-2.06-1-3.59-1.8-5.14-2.6-.87-10.72-5-18.25-9.55-22.09s-9.74-3.91-13.11.22c-2.52,8.3-4.95,6.34-7.77,6.11s-6.07,1.16-10.87,16.51l-3-2-3.06-2.09-6.06-4.23c-4-2.84-7.95-5.69-11.84-8.6-3.91-3.1-7.8-6.07-11.57-9.31s-7.46-6.33-11.12-9.8c-3.3-6.19-6.73-13.82-11.45-17.17a9,9,0,0,0-8.39-1.32c-3.3,1.09-7.16,3.86-11.87,9.12-1-2-2.08-4.11-3.13-6.28s-2.09-4.38-3.15-6.68c-2.11-4.53-4.25-9-6.49-12.72s-4.61-6.79-7.24-8.56a8.78,8.78,0,0,0-8.87-1.09,39.15,39.15,0,0,0-7.91-9.75,42.57,42.57,0,0,0-5.45-4,32.52,32.52,0,0,0-6.36-3A29.58,29.58,0,0,0,363,687.1c-5.37.79-11.24,3.06-17.55,7.31-.66-1.18-1-1.77-1.66-3,4.83-9.4,9.16-19,12.67-26.95s6.15-14.24,7.39-17.15c-5.2-.44-10.39-1-16.78-.37,1.05-5.57,2.26-11.09,2.6-14.72-.15-3.68-1.76-3.8-4.16-2.35s-5.55,4.44-8.63,7-6.09,4.57-8.19,4.09-3.29-3.46-2.36-11c-.56-1.8-1.15-3.57-1.83-6L312.09,636.1c-.52-1.92-1.07-3.78-1.61-5.64L315.61,618c1.56-3.75,3.06-7.36,4.57-11,2.38-6.85-4.83-2.65-10.69-2-2.92.34-5.52-.18-6.3-3.22-.39-1.51-.3-3.68.46-6.67a61.53,61.53,0,0,1,4.56-11.58c10.57-10.93,21.34-21.17,32.17-31.37,8.27-4.69,17.81-10.62,25.92-15.14-.53,4.71,0,7.67,1,9.58a5.72,5.72,0,0,0,4.2,3.1c3.42.73,7.41-.19,9.84,2.58-5.21,8.5-5.62,12.62-5,15.5s2.44,4.5,1.78,8.41c-.06,3.3-.32,6.73-.72,10.4s-.9,7.53-1.22,11.48c8.68-.15,15,1,20,3.08A32,32,0,0,1,403,604.9a47.26,47.26,0,0,1,5.7,4.56l5.26,5a64.08,64.08,0,0,0,5.46,4.81,36.44,36.44,0,0,0,6.19,4,29.07,29.07,0,0,0,7.3,2.36c-.18,13.43,2.86,17,7.2,15.29s10.09-8.19,16.15-14.56c-.08-9.09-.62-14.1-1.64-16.66s-2.51-2.62-4.16-1.91c-3.3,1.46-7.45,6.52-9.31,2.79,2.17-8.46,5.45-17.76,8.72-27.58-5.19,1.67-9.41.71-12.59-1.75s-5.25-6.73-6.25-12-1-11.57-.16-18.24a120.37,120.37,0,0,1,4.85-20.87c-3.6,1.31-7.53,3-11.53,4.67s-8,3.24-11.84,4.47c-4.14-1.4-8.3-3.39-13.66-3.88,9.49-15.11,19.61-29.81,30.18-43.88,3.56-6.74,6.43-12.05,8.84-16.49l6.08-11.06a103.13,103.13,0,0,1,10.34-15.8l-8.25,1.39c-2.78.45-5.62.89-8.5,1.27,5.41-9,11.13-17.18,16.2-24.16,16.5-9.13,34.34-19.27,50.59-28.73-1.79,1.8-3.32,3.64-5,5.65-5.16,3.83-9,6.94-12,9.48a85.82,85.82,0,0,0-6.39,5.87c-2.7,2.82-2.45,3.51-1.16,3.27a39,39,0,0,0,5.76-2.31c2-.88,3.57-1.43,3.13-.25-6,5.11-10.58,9.24-15.22,13.73,2.83-.21,5.46-.13,9.59-1.72a351.62,351.62,0,0,0-31,45c8.47-7.35,14.23-12.21,18.18-15.26s6.08-4.29,7.25-4.54,1.33.56,1.26,1.57a11.74,11.74,0,0,0-.25,2.75c-10.64,13.83-9.1,14.78-5.37,13,1.88-.92,4.31-2.51,6.13-3.41s3.06-1.11,2.69.78a19,19,0,0,1,7-4.88,20.86,20.86,0,0,0,7.4-5.38c-.23,2.65-.37,4.89-.52,7.67,0,.38,0,1.15,0,1.52-4.68,7.33-9.33,14.54-14,21.76-.37,3-.86,6.38-1.42,10.05-.27,1.88-.55,3.76-.83,5.62s-.52,3.81-.77,5.67a48.56,48.56,0,0,1,5.54-4.91c1.35-.95,2.38-1.31,3.09-1.18,1.46.25,1.88,2.4,2.47,5.11,8.14-13.95,15.24-26.53,22.78-40.66.25,2.33.63,5.06,1,7.45-1.94,7.25-3.88,14.5-5.77,21.53,5.59-7.2,10.43-12.77,14.95-18.27-.31,2.67-1.24,7-1.53,9.81.27,1,.53,2,.79,3l.41,1.52.46,1.46c-5.15,17.39-10,35.24-14.07,51.49,4.12-8.62,6.72-12,8.65-12.67s3.15,1.52,4.5,3.76,2.69,4.81,4.55,5.14,4.17-1.56,7.26-8.25c.81,14.24,2.36,20.81,3.78,23.55s2.86,1.69,4.26.53c0,6.23-.19,12.11-.66,19.52-2.79,8.48-5.68,17-9.39,26.72-.47,5.53-.9,11.06-1.64,16.21,3.58,3.83,7.61,8,11.43,11.82-9.07,15.54-15.94,21-13.2-3.85-3.38.27-6.39-1.13-9.79-.87a18.55,18.55,0,0,1-4.34,1.63,13.25,13.25,0,0,1-4.12.35,19.11,19.11,0,0,1-7.6-2.33,41,41,0,0,1-6.85-4.66c-2.17-1.83-4.26-3.74-6.34-5.43a28.7,28.7,0,0,0-6.3-4.12,12.29,12.29,0,0,0-6.81-1.37,17,17,0,0,0-8.13,3.35,40.78,40.78,0,0,0-4.82,4,74.65,74.65,0,0,0-5.46,5.69c0,2.79.1,5.45.18,7.91s.19,4.69.32,6.75a55.33,55.33,0,0,0,1.25,9.64c1.19,4.47,3.19,4.67,6.83-1.32a53.44,53.44,0,0,0,10.31,13.1,73.06,73.06,0,0,0,6.12,5.17l1.61,1.18,1.63,1.08c1.1.71,2.21,1.4,3.34,2.07,2.25,1.34,4.56,2.62,6.93,3.8s4.77,2.39,7.18,3.4c4.84,2.11,9.79,4.19,14.76,6.52,2.47,1.09,5,2.21,7.43,3.43s5,2.47,7.46,3.87,5,2.85,7.42,4.44,4.92,3.34,7.37,5.27a128,128,0,0,1,14.66,13.7q3.65,4,7.33,8.76c2.45,3.2,4.85,6.52,7.3,10.22,4.76-9,9.17-16.29,13.47-25.09,5.3,1.48,10.83,4.28,16.51,7.35,2.85,1.57,5.67,3,8.53,4.48s5.72,2.83,8.57,3.95c1.42.55,2.83,1.05,4.24,1.49s2.77.73,4.14,1a28.72,28.72,0,0,0,8,.43,19.38,19.38,0,0,0,7.32-2.18,21.12,21.12,0,0,0,6.34-5.6,27.6,27.6,0,0,0,3,13.27c5.09,3.15,7.1-4.84,8.39-14s1.89-19.54,4.55-21.61c2.18,2.5,4.5,5,6.9,7.46s4.88,4.91,7.34,7.19c4.36,18.46,7.44,15.25,10.36,8.63,1.46-3.32,2.89-7.49,4.49-10.35s3.3-4.48,5.52-2.72c7.72,5.56,15.86,9.24,22.93,12.41a49.4,49.4,0,0,0,7.76-4.42,32.43,32.43,0,0,0,7.87-8.45,39.31,39.31,0,0,0,5.48-13.72,65.75,65.75,0,0,0,.51-20.48c1.1-2.44,1.82-4.74,2.77-6,5.47-2.92,10.95-5.61,16.33-8.56l4-2.19,4-2.24c2.61-1.52,5.22-3,7.75-4.57,2.71,10.57,5.67,22.09,8.35,32.53,2.43,3.22,4.66,2.81,6.81,1.63s4.16-3.21,6.28-3.45c1.72-1,3.07-1.91,4.76-3-.29-4-.35-7.12-.73-9.94,2.61-1.77,5.17-3.61,7.72-5.5q1.9-1.42,3.79-2.89c.62-.49,1.26-1,1.87-1.49l1.79-1.6c.79-7.72-3.41-15.81-1.16-22.21l3-2.38c1-.79,2-1.55,2.94-2.5,3.84,5.65,7.67,10,11.32,15.12,1.49,2,2.68,1.16,3.81-.36s2.18-3.69,3.38-4.44c-.66-5.83.39-10.21,1.65-14.62s2.73-8.76,2.93-14.43c2.23-3.8,4.19-7.32,6.3-11.32,2.26,2.14,3.75-5.06,5.44-8,2.65.47,4-1.68,5-3.25s1.62-2.87,2.37-1.69A2,2,0,0,0,872.86,588.45Z"/><path class="cls-2" d="M852.53,613.62c-.2,5.67-1.69,10-2.93,14.43s-2.31,8.79-1.65,14.62c-1.2.75-2.26,2.91-3.38,4.44s-2.32,2.38-3.81.36c-3.65-5.11-7.48-9.47-11.32-15.12a112.33,112.33,0,0,0,12.14-8.3c1.89-1.61,3.76-3.27,5.59-5A62.84,62.84,0,0,0,852.53,613.62Z"/><path class="cls-2" d="M809.48,670.92c.38,2.82.44,6,.73,9.94-1.69,1.07-3,1.95-4.76,3-2.12.24-4.16,2.24-6.28,3.45s-4.38,1.59-6.81-1.63c-2.68-10.44-5.64-22-8.35-32.53A67.89,67.89,0,0,0,794,652c3.22-.6,6.48-1.19,9.71-2,3.48-1.89,6.92-3.88,10.27-6,1.7-1,3.29-2.17,4.86-3.31s3.12-2.31,4.64-3.49c-2.25,6.4,2,14.49,1.16,22.21l-1.79,1.6c-.61.53-1.25,1-1.87,1.49q-1.89,1.47-3.79,2.89C814.65,667.31,812.09,669.15,809.48,670.92Z"/><path class="cls-2" d="M726.21,573.1c2.09,16.86-1.63,18.19-5.9,17.45s-9.08-3.53-9.42,7.81c-2.83-5.08-5.87-11.36-8.9-17.88-1.33-6.83-2.91-15-4.27-22,2.18-6.51,4.54-11.63,6.48-16.81,3.52,4.56,6.95,8.84,10.39,13.14l10.4,13C725.22,568.82,725.72,571,726.21,573.1Z"/><path class="cls-2" d="M620.46,443.07c-1.42-6.84-2.93-12.8-4.37-18.84-.46-6.94-.84-12.57-1.3-19.51-.34-14.63.67-16.08,2.18-13.92s3.56,7.95,4.85,7.77c1.08,13.06,4,32.35,2.71,37.71A23.13,23.13,0,0,0,620.46,443.07Z"/><path class="cls-4" d="M646.74,583.53c-3.5-8.64-6.87-17.43-10-25-2.48-5.1-3.82-3.81-5-1.19s-2.34,6.5-4.16,6.51c-2.4,5-4.9,10.14-7.51,15.36-.15,8.44-.69,16.64-.92,26.6-3.72-5.43-7.28-10.93-10.39-14.8-1.29-12.93-2.17-25.66-3-38.39-3.25-7.91-5.65-12.25-7.68-14s-3.64-1.07-5.13.8c-2.94,3.69-5.36,12-8.34,13.75-.88-.94-1.75-1.93-2.89-3.22-3.89-6.06-7.34-14.09-10.92-20.7-1.7-.42-3.78.12-5.45-.39-2.83-.42-5.48-.37-8-2.41-.66-1.13-1.33-2.22-2-3.37-2.18-3.69-4.25-7.34-6-10.63-.76-1.53-1.31-2.64-1.86-3.83-2.72-1-5.07-3.43-7.67-4.51-.65-1.56-1.12-2.71-1.56-3.93a44.19,44.19,0,0,0-6-2.75,25,25,0,0,0-6.14-1.88c-.91.41-2.39,2.45-3.33,2.86l-.46-1.46-.41-1.52c-.26-1-.52-2-.79-3,.29-2.78,1.22-7.14,1.53-9.81,1.22-9.7,2.56-19.2,2-22.11s-3.48,1.18-11.22,18.85c-.36-2.39-.74-5.12-1-7.45.22-2.59.66-5.64,1.25-8.9s1.3-6.68,2.08-10.08c-13.2,19-13.93,12.69-20.16,17.52,0-.37,0-1.14,0-1.52.15-2.78.29-5,.52-7.67,4.24-8.78,9.67-18.69,15.45-28.46.39-1.58.83-3.23,1.29-4.85s1-3.29,1.47-4.8a109.34,109.34,0,0,1-9.35,10c-2.26,2-3.59,2.73-3.68,2s1.07-2.75,3.76-6.3,6.92-8.6,12.82-15.31c-6.25,5.85-7.85,6.09-7,4s4.07-6.39,6.64-9.75c-.28-.6-1.58-.29-3.16.36-10.77,9.94-13.47,11.36-14.57,11.36s-.5-1.52-5.17,1.89c1-2,1.86-3.88,2.9-5.76s2-3.65,3.19-5.5c6.59-6,12-10.88,17.47-15.49-11.19,8-15.87,10.34-16.42,9.9s3.18-3.6,8.32-7c6.26-4.41,12.45-8.63,15.76-10.84s3.74-2.46-1.44,1.27c4.59-4.52,10.92-8.43-7,2.14-.58-.12-1.3-.21-1.83-.35a8.46,8.46,0,0,1-1.6-.47c.93-.59,2-1.22,3.07-1.86s2.2-1.28,3.39-1.91c2.35-1.26,4.73-2.47,6.75-3.45-6.23,2.73-14,6.09-21.72,9.39,1.07-.73,2.22-1.46,3.35-2.16l1.7-1,1.75-.92c3.46-1.55,6.43-2.77,9.55-3.83l2.31-.78.27-.08-.12,0-.24.08-.49.14-1.81.55-14.28,4a51.46,51.46,0,0,1,6.47-2.1c.53-.15,1.1-.27,1.67-.39l.21,0-.09,0-.24.05-.49.1-1.92.35-.85.15c-2.21.36-3.89.62-5.15.79s-2.14.29-2.68.34l-.61,0h-.2c0-.09,3.13-.5,2.68-.48l1.71-.16c.42,0,.21,0,.25,0h-.13l-.19,0-.51.05c-.41,0-1.28.08-2.24.12h-1.09l-.92,0-8.32-.29-2.35-.11-4.66-.28c-1.54-.1-3.08-.22-4.62-.37s-3-.25-4.52-.42c-3.05-.37-5.89-.63-8.82-1.1-1.45-.22-2.82-.39-4.23-.63l-4.16-.73c-1.22-.21-2.86-.52-4.76-.95s-3.84-.8-6-1.37-4.05-1-6-1.61-3.59-1.06-5.12-1.59a99.05,99.05,0,0,1-13.72-5.6,56.28,56.28,0,0,1-6.93-4.07c-.34-.22-.67-.46-1-.71l-.25-.19-.12-.1-.06,0,0,0h0l.62.47.7.53c.46.36.89.72,1.3,1.08.16.16.48.41.76.65l.83.72.8.74.39.37c.12.12.24.24.43.41.68.62,1.34,1.25,2,1.9l2.08,2.16q1.18,1.23,2.31,2.52l.55.66.71.78,1.39,1.59,1.37,1.65c.45.57.85,1.1,1.46,1.81q1.67,2,3.29,4.2l.8,1.09.46.61.5.65q1,1.31,2,2.67c.58.82,1.14,1.62,1.7,2.4s1,1.53,1.7,2.46q1.88,2.66,3.44,5c1.89,3,4.23,6.45,5.76,8.92s2.64,4.32,3.17,5.22c.67,1.06.59,1-.18-.3-1.1-1.87-2.27-3.78-3.47-5.68l-1.83-2.85-.93-1.42-.47-.71-.39-.61c-1-1.61-2.06-3.19-3.1-4.73L446,398.88c-.5-.72-1.11-1.53-1.48-2.1-1.66-2.46-3.3-4.69-4.74-6.56-.39-.5-.63-.85-.9-1.22l-.77-1-1.26-1.64A148.1,148.1,0,0,0,424,371.74l-.56-.52-.34-.32-.29-.28c-.41-.4-.91-.87-1.48-1.37l-.91-.76-.71-.62c-.49-.41-1-.83-1.55-1.22l-.64-.49,0,0,.06.05.14.11.27.21c.18.12.35.25.51.37l1,.67c.69.48,1.15.75,1.19.78l1.56.95c.57.33,1.13.65,1.69.93s1.31.73,1.94,1l1.95.94c.86.43,1.74.82,2.64,1.19.42.16,1,.44,1.49.65s1,.43,1.57.63c1.11.43,2.24.85,3.39,1.28.6.22,1.21.43,1.82.63l.92.29,1,.35c1.35.45,2.72.87,4.1,1.24s3,.88,4.49,1.24l1.13.27,1.21.32c.82.2,1.63.4,2.45.58l5.05,1.07c6.89,1.35,14.43,2.4,22.09,3.16,1.88.14,3.83.35,5.72.48l5.67.35,2.8.12,7.91.27.56,0h1.1c.49,0,.86,0,1.35-.06.72,0,1.58-.1,2.08-.16,1-.07,2.36-.26,4.14-.53l2.45-.44c.78-.16,1.35-.3,1.8-.4s1-.21,1.48-.33c1.61-.42,3-.78,4-1.08l2.3-.71c-.19.06.59-.17,1.57-.52l.77-.27.87-.3,1.53-.55c3-1.18,1.93-.71,4.49-1.82,3.13-1.28,7.19-3.39,8.5-4.08a95.55,95.55,0,0,0,18.58-12.8l.15-.15.08-.07-2.48,2.3c-4.35,4.05-9.33,8.75-15.55,14.7,1.68-1.36,3.65-3,5.75-4.92s4.36-4,6.54-6.13c2.37-2.34,4.65-4.67,6.79-6.92l1-1,.06-.07-2.68,3c-1.93,2.17-3.38,3.85-4.44,5.11-2.12,2.52-2.67,3.34-2.31,3s1.78-1.87,3.57-4l2.93-3.52,2.82-3.5-.47.61-.34.47-.19.26-2.73,3.88-3.94,5.67c.47-.59-1.17,1.88-1.88,3.08s-.52,1.09,3.4-4.82l3-4.54c.39-.6.74-1.14,1.09-1.66h0l-.05.07-.27.41c-.24.36-.57.89-.87,1.4l.07-.11c-2.1,3.42-3.58,5.85-5,8.14-3.79,6.18-6.89,11.37-7.29,12.47-2.25,4.08-2.51,5-1.71,3.89s2.7-4.22,4.85-8c1.08-1.89,2.23-3.95,3.35-6l3.16-5.88-.07.15v0h0c-.23.44,2-3.81,1.05-2l0,0,.18-.33.36-.64c.45-.78.88-1.55,1.31-2.31.78-1.39,1.37-2.44,1.7-3-.43,1.12-.86,2.27-1.28,3.44s-.84,2.44-1.27,3.66-.82,2.54-1.21,3.82-.66,2.49-1,3.73q-1.5,5.7-2.72,11.86c-.74,4.06-1.24,8.09-1.72,12.36q-.37,3.24-.64,6.56c-.14,2.17-.21,4.32-.27,6.51-.1,4.37-.09,8.82.09,13.28.77.65.29,6.1,3.1-2.38,3.55-14.69,5.27-19.92,6.06-21s.78,2.26,1,4.42a133.35,133.35,0,0,0-3.6,17.91c1.42.05,3-3,4.3-4.47.64-.73,1.21-1.06,1.66-.4s.76,2.34,1.09,5.48c-4,20.73-1.06,17.25-4.25,37.07,1.87-2.26,3.52-3.43,5.06-3.91a6.76,6.76,0,0,1,2.31-.26,6.33,6.33,0,0,1,2.22.65,15.4,15.4,0,0,1,4.31,3.54c.74.74,1.49,1.55,2.25,2.42s1.51,1.84,2.28,2.81c1.55,1.93,3.11,4.06,4.8,5.9a48.27,48.27,0,0,0,5.23,5c3.56,2.92,7.49,4.42,11.33,3.36-2.46-12.42-4.87-23.13-7.15-32.09a223.37,223.37,0,0,0-6.27-21.47c-2-5.24-3.68-8.94-5.42-10.5a2.55,2.55,0,0,0-2.58-.79,4.9,4.9,0,0,0-2.5,2.12c-3.16,3.21.57-18-.76-23.42a14.14,14.14,0,0,1-1.33,2.44,3,3,0,0,1-1.13,1.06c-.71.32-1.34-.12-1.88-1.08a14.11,14.11,0,0,1-1.39-4.07,51.43,51.43,0,0,1-.78-6.11c-.35-4.44-.55-9.14-.75-12.56a17.56,17.56,0,0,0-.45-3.87c-.27-.71-.66-.84-1.27-.16a1.4,1.4,0,0,1-.46-.52,5.42,5.42,0,0,1-.26-1,21.77,21.77,0,0,1-.25-3c0-1.15,0-2.39,0-3.62s.23-2.56.33-3.7.18-2,.19-2.74a3.42,3.42,0,0,0-.18-1.31c-.22-.33-1,.74-2.7,4,1.52-3.89,3.06-7.78,4.81-11.77q1.31-3,2.69-6c.47-1,.94-2,1.4-3l.72-1.49.09-.19s0,0,0,0l0,.06-.06.12c-.07.17-.15.34-.23.5.47-1,.86-1.87,1.26-2.81.6-1.23,1.14-2.44,1.66-3.68.29-.68.85-2.06,1.39-3.57.75-1.82,1.59-4,2.13-5.57.31-.89.6-1.77.88-2.65l.2-.66c.07-.21.13-.43.23-.71l.55-1.58c.71-2.1,1.34-4.19,1.91-6.25l.46-1.75c.08-.3.13-.55.23-.88l.29-1c.39-1.33.77-2.7,1.16-4.23q.42-1.68.81-3.36l.36-1.68.18-.83.08-.42,0-.11v-.05l0,.12-.13.54c-1.21,5.69-2.23,11.21-3.1,16.75.19,0,.22.6.31,1.49a35.52,35.52,0,0,1,.28,3.71c.06,1.91.12,3.82.17,5.73s.36,4.25.59,6.53.49,4.61.81,6.9.84,4.33,1.32,6.51a58.42,58.42,0,0,0,1.6,5.79,15.32,15.32,0,0,0,1,2.28A15,15,0,0,0,591,355a66.16,66.16,0,0,0,2.91,9,22.63,22.63,0,0,0,2.83,4.85,7.16,7.16,0,0,0,2.45,2.07,6.1,6.1,0,0,0,2.28.48l2.86,7.86c1,2.7,2,5.62,3.14,8.39,2.24,5.59,4.66,11.32,7.3,17.07.46,6.94.84,12.57,1.3,19.51-1.43,4.09-3,8.28-4.54,12.6,0,31.16,6.14,23.19,9.64,31.42.27.28.81,1,1.09,1.32,4.45,11.52,7.66,18,10,21.88a24.1,24.1,0,0,0,5.18,6.56c3.22,4.22,6.69,9.66,9.78,13.39,1.88,11.06,3.43,21.81,5.34,32.91,1.5,13.19,3,26.49,4.23,38.46C653.35,583.39,650.16,582.92,646.74,583.53Z"/><path class="cls-2" d="M585.7,303.32c-.39,1.53-.77,2.9-1.16,4.23l-.29,1c-.1.33-.15.58-.23.88l-.46,1.75c-.57,2.06-1.2,4.15-1.91,6.25L581.1,319c-.1.28-.16.5-.23.71l-.2.66c-.28.88-.57,1.76-.88,2.65.49-1.39.84-2.52,1.18-3.63.85-2.4,1.61-4.75,2.26-7,.33-1.15.63-2.3.92-3.44s.78-2.66,1.13-4C585.42,304.37,585.56,303.85,585.7,303.32Z"/><path class="cls-5" d="M24.29,450.19a64.24,64.24,0,0,0-4-12.49c-.83-1.95-1.76-3.84-2.7-5.7s-1.9-3.69-2.9-5.47c-4-7.16-8.33-13.68-11.17-20.23S-.95,393.42.61,386.86A25.63,25.63,0,0,1,5.53,377a42.4,42.4,0,0,1,4.58-5c.89-.83,1.84-1.67,2.87-2.51s2.14-1.75,3.32-2.62c.74-2.46,1.42-5,2.07-7.6.32-1.32.65-2.65,1-4s.63-2.75.95-4.15c1.27-5.67,2.58-11.52,3.88-17.36a31.85,31.85,0,0,1-2.12-12.48c0-1.09.08-2.16.2-3.3s.3-2.3.51-3.46a58,58,0,0,1,1.75-7,71.89,71.89,0,0,1,2.74-7.28c1.1-2.47,2.34-4.94,3.7-7.4.66-1.21,1.39-2.49,2.15-3.77s1.54-2.56,2.34-3.83c1.61-2.55,3.31-5.07,5.1-7.59s3.76-5.21,5.73-7.78,4-5,6.14-7.68,4.31-5.17,6.51-7.69l3.33-3.79,3.43-3.85q3.44-3.82,6.86-7.49c2.33-2.51,4.66-5,7-7.48l6.8-7.25L93,217.35A57.83,57.83,0,0,1,85.46,208a37,37,0,0,1-4.3-9.38,34.59,34.59,0,0,1-1.5-9.31,34.13,34.13,0,0,1,1-9.21A49.12,49.12,0,0,1,83.88,171a64,64,0,0,1,5-8.88,104.72,104.72,0,0,1,6.54-8.67q1.77-2.11,3.66-4.19c1.25-1.38,2.61-2.79,4-4.16,5.43-5.49,11.28-10.8,17-15.64l8.55-7.23,4.09-3.44c1.32-1.11,2.63-2.23,3.9-3.34,2.55-2.24,5-4.47,7.26-6.69a77.8,77.8,0,0,0,6.1-6.51,47.72,47.72,0,0,0,4.77-6.89c.34-.59.66-1.2,1-1.81s.55-1.17.8-1.77a31.54,31.54,0,0,0,1.28-3.69c2.33-1.22,4.66-2.31,7-3.28a63.87,63.87,0,0,1,6.87-2.49,97.39,97.39,0,0,1,13.26-2.92,64.15,64.15,0,0,1,6.42-.66q3.15-.2,6.29-.25c4.16-.07,8.39-.08,12.31.24l11.91.8c2,.09,3.86.32,5.78.45s3.8.28,5.7.36,3.82.18,5.73.2,3.68.15,5.53.14,3.68-.08,5.53-.21l2.76-.24c.88-.07,1.76-.16,2.65-.26a32.3,32.3,0,0,1,1.89-5.42c.38-.84.79-1.64,1.22-2.42.22-.39.44-.78.67-1.15l.65-1.06a35.56,35.56,0,0,1,6.16-7.19,63.2,63.2,0,0,1,6.62-5.25l3.15-2.22c1-.71,2-1.42,2.94-2.16a26.57,26.57,0,0,0,4.77-4.6,15.64,15.64,0,0,0,1.71-2.72,14.4,14.4,0,0,0,.65-1.55,12.07,12.07,0,0,0,.42-1.65c.9-4.62.11-11-3.49-20.73,9.93,2.52,17.5,5.76,27.07,14.05.83-8.85,5.95-9.76,12.24-8s13.76,5.9,20,7.78c3.77-3.75,7.56-7.87,11.66-10.93,8.25,6.37,14.54,9.9,19.9,11.9,1.34.5,2.62.9,3.85,1.23s2.45.67,3.62.91c2.35.52,4.55.78,6.75,1.08a76.68,76.68,0,0,1,13.56,2.48c1.22.37,2.47.81,3.77,1.34a33.3,33.3,0,0,1,4.06,1.92,75,75,0,0,1,9.19,6.13c1.72-.88,4.19-.43,6.8.34s5.38,1.82,7.78,2.32,4.45.45,5.63-1.23,1.51-4.91.45-10.75c9.6,8.05,16.32,12.43,22.42,15.36a41.34,41.34,0,0,0,8.78,3.07,80.78,80.78,0,0,0,9,1.5,105.05,105.05,0,0,0-9.67-16.6c-3.53-5.05-7.24-9.63-10.73-14.2a110.49,110.49,0,0,1-9.37-13.84,46.18,46.18,0,0,1-5.43-15.63,4.7,4.7,0,0,1,2.27-1.9,4.89,4.89,0,0,1,2.87.1,20,20,0,0,1,6.93,4.44c5,4.41,10.49,11.28,15.49,17.49,2.5,3.06,4.93,6.25,7.13,8.85a49.06,49.06,0,0,0,5.89,6.16c3.39,2.76,5.66,2.6,6.14-3,1.55,2.11,3.38,4.26,5.24,6.41s3.8,4.49,5.54,6.64c3.5,4.34,6.29,8.29,6.74,11.1a151.68,151.68,0,0,1,10,17.12c1.42,2.77,2.76,5.7,4,8.55l3.75,8.52c2.45,5.64,4.87,11.2,7.55,16.78a180.23,180.23,0,0,0,9.13,16.85c2.39,4.07,5.7,9.38,8,13.86s3.63,8.14,2.27,9.41a54.22,54.22,0,0,0-7.91,1.86c-3.77-4-7.67-7.75-11.59-11.69-3.75-6.07-7.65-13-11.6-19.76-4.27-.75-12.16-6.19-12.73-.74-9.87-12.18-12.87-15.4-20-10.32-4,2.63-7.94,5.77-11.72,8.78-6.06-3.38-12.06-6.56-18.14-9.64l-9.25-4.73c-3.13-1.64-6.27-3.16-9.46-4.62-6.11-2.77-12.33-5.53-18.72-8.33-1.61-.71-3.18-1.29-4.79-1.91l-4.83-1.87-9.93-3.78a6.63,6.63,0,0,1-4.94,3.88,16.78,16.78,0,0,1-3.56.29c-1.25,0-2.57,0-3.92-.12a55.34,55.34,0,0,0-8.11-.2,9.82,9.82,0,0,0-6.58,2.91c-2.74-2.17-6.42-5.66-9.85-8.15-5.47.22-10.23,1.07-15.67,1.6-4.45-1.81-9.15-3.75-13.88-5.6s-9.44-3.5-14.08-5.17c-.3,4.74-2.38,6.37-5.44,6.47A19.09,19.09,0,0,1,311,78c-.5-.11-1-.24-1.52-.38l-1.65-.38-3.37-.84-3.36-.83c-1.16-.23-2.33-.41-3.45-.55a28.19,28.19,0,0,0-3.22-.23,12.73,12.73,0,0,0-2.91.33,7.74,7.74,0,0,0-4.56,2.76,7.91,7.91,0,0,0-1.27,2.64,13,13,0,0,0-.54,3.74l-9.58,3.14c-1.67.54-3.4,1-5.22,1.5s-3.94,1-6.12,1.47c-1.58,6.07-4.46,12.7-7,19.33a60.62,60.62,0,0,0-12.39-1.24,29.17,29.17,0,0,0-2.94.13c-1,.09-2,.19-2.91.32q-2.86.39-5.58,1a57.78,57.78,0,0,0-10.64,3.61q-2.58,1.13-5.05,2.39c-1.7.91-3.4,1.9-5.06,2.9s-3.31,2.06-4.94,3.13l-2.43,1.63-2.52,1.79c-3.35,2.42-6.64,4.87-10,7.43s-7,5.38-10.67,8.05L176.31,145q-2.91,2.14-6,4.26L167.91,153l-2.49,3.91-4.93,7.87c-3.26,5.27-6.44,10.8-9.47,16.27l-1.13,2.06-1.07,2-2.08,4.09c-1.36,2.72-2.69,5.47-4,8.22-2.44,5.42-4.59,10.81-6.51,16.25-3.13,3.13-6.3,6.34-10.53,10.74-.48,1.57-.84,3.05-1.21,4.58s-.7,3.06-1,4.62-.57,3.12-.82,4.69-.49,3.16-.64,4.67c-.34,3.07-.6,6.15-.8,9.23-.1,1.54-.19,3.09-.25,4.61L121,261.3a78.81,78.81,0,0,0-18.54-.22,53.79,53.79,0,0,0-7.91,1.54,40.59,40.59,0,0,0-6.91,2.49,34,34,0,0,0-17.85,19.64c.91,5.35,1.74,10.18,2.64,15,1,4.64,2,9.23,3.45,14.15-2.42,4.08-4.68,8-6.93,12.05L65.55,332,62,338.59c-1.34,8.84-1.94,16.47-4.74,25.5-6,2.1-12.08,4.35-19.61,6.37A81,81,0,0,1,42.5,379c1.38,2.78,2.58,5.51,3.9,8.21-.17,4.1-.43,7.86-.79,11.78s-.71,8-.79,12.53c-3.21,8.88-6.72,19.08-9.47,28.24C30.92,443.84,28.4,447,24.29,450.19Z"/><path class="cls-4" d="M448.73,399.72c-.57-1.08-1.82-3.41-3.09-5.8a12.55,12.55,0,0,0,.54-1.64,7.53,7.53,0,0,1,.31-.95,3.6,3.6,0,0,1,.49-.78c.59.15,1.14.31,1.83.44l1.94.33c1.41.17,2.77.33,4.26.39,1,.06,2.14.1,3.27.13l3.35.08c-4.11-11.45-2.33-12.17.16-12s5.84,1.61,5.68-5.06c-1.84-5.44-3.34-9.88-5.18-15.35-.81-3.29-1.29-6.55-2.09-10.85.72,2.18,1.45,4.42,1.79,5.45,2.54,2.74,5.07,5.56,7.46,8.07s4.68,4.85,6.85,6.86l3.26-.29,3.28-.23c1.53-4.4-3.18-18.59-1.15-19.73,1.15-.09,2.57-.21,4-.29-2.26-8.91-4.7-18.73-7.09-28.49.65-7.66-.27-16.11,3-13.07,6.2.44,6.32-3.19,4.8-8.34s-4.87-12.05-5.36-17.86c-1.61-4.65-3.09-8.43-4.36-13a27.54,27.54,0,0,0-4.89,1.21,29.15,29.15,0,0,0-4.33,2,34.21,34.21,0,0,0-7.22,5.61c-4.21,4.34-7.41,9.16-10.47,12.55a53.28,53.28,0,0,0-7.18-6.28,31.11,31.11,0,0,0-9.51,3.09c.23,4.11.88,9.35,1.62,14.64-5.65-1.05-11-1.91-16.47-3C409.8,290.76,401,283.73,391.91,278c-1.73-7.86-2.25-14.43-3.13-22,2.79,2.12,3.92,1.3,4.69-.63s1.19-5,2.4-7.26c2.41-3.26,5.68-4.27,9.12-4.33s7.07.85,10.23,1.23c6.34.75,11-.26,10.64-12.68,3.07,3.28,5.64,5.21,7.89,6.19a8.78,8.78,0,0,0,6,.65c3.52-.92,6.38-4,9.5-6.28s6.46-3.84,10.53-2.3,8.91,6.38,14.68,16.2c1.09-5.11,2.28-10.14,3.61-14.86s2.78-9.28,4.32-13.65c-2.81-5.68-5.26-11.33-8.35-18.11-1.11-7.4-2.33-15.54-3.89-26.83C461,165.3,452.26,158.61,442.47,151c2.48-7,5.93-8,9-8,1.54,0,3,.23,4.26.2a3.61,3.61,0,0,0,3.12-1.56l5.16,3.16A75.49,75.49,0,0,1,479.36,138l2.05,1.45c3.9,3.73,7.59,7.29,11.23,10.92,1.81,1.81,3.6,3.59,5.4,5.43l5.4,5.65,1.89,1.37c1.57-5.85,4.41-6.16,7.62-4.73a27.41,27.41,0,0,1,5.08,3.32c1.74,1.33,3.51,2.74,5.23,3.89,3,2.24,5.83,4.21,8.65,6.25s5.62,4.28,8.48,6.61c.92-.11,1.86-.16,2.32-.18-1.06-4.62-2.13-9.32-3.71-14.61-1.5-6.15-9.75-9.82-8.47-15.79.11-1.83.24-4.07.37-6.32,1.06-.27,2.13-.49,2.74-1.65,3.92,3.94,7.82,7.65,11.59,11.69,3.15,4.78,3.85,7.22,3.88,9.05s-.64,3-.37,5a19.59,19.59,0,0,0,4.61,6.92c1,1,2,2,2.94,3,.49.5,1,1,1.43,1.51s.92,1.09,1.34,1.64a117.24,117.24,0,0,0,8.41,14.09,48.45,48.45,0,0,0,5.86,6.79c1.79,1.73,3.52,3.2,5.51,5.12A44.62,44.62,0,0,1,582,207.9c1.15,1.35,2.39,2.9,3.75,4.68,3.42,7,6.63,13.24,9.79,18.41a44.14,44.14,0,0,0-8.38-3.65c-.57,1.51-1.19,3.32-1.82,5.29l-4.32-3.07-4.38-3a49,49,0,0,0-5,7.5c-1.95-1.13-4-2.45-6.08-3.89s-4.17-3-6.2-4.52a9.34,9.34,0,0,1-3.9.08,26.72,26.72,0,0,1-3.27-3.95c-4.13-3.41-6.77-4-8.7-1.91s-3.2,6.33-4.72,12.12c-1.32,3.51-3.43,3.34-5.72,3s-4.73-.61-6.41,3.37c.2,4.4.38,8.17.56,11.89.73,7.68,1.81,14.85,2.57,22,2.32.18,4.3.23,6.61.32,1.47,3.69,3.22,7.85,4.9,11.28a4.39,4.39,0,0,0,4.8,2.41c1.89-.38,3.95-1.87,5.83-4.13l1.23-.24c1.47,7.48,2.89,14.19,4.24,20.67,1.44-.83,1.33,1.24,1.23,3.9s-.19,5.92,1.16,6.89c1.63-1.35,3.21-2.69,4.76-4.05s3.09-2.61,4.62-4.19l-2.25,6.65c-.71,2.17-1.37,4.4-1.95,6.72-1.13,4.12-2,8.68-2.73,12.84,2.49.05,4.66.4,7.08-.4-.7,3.24-1.47,6.14-2.24,8.78s-1.55,5-2.29,7.17a69.06,69.06,0,0,0-3.5,13.2c-1.53,2.3-3.08,4.87-4.61,7.26a36.84,36.84,0,0,1-2.29,3.29c-.76,1-1.52,2-2.26,2.82-.47-7.3-.89-14.49-1.29-22.17l-5.48,6.52c-1,11.53-2.56,18.56-4.52,23.42s-4.41,6.84-6.68,9.62c-.33-7.2-.45-13.45-.66-21a13.15,13.15,0,0,0-5,4.22,22.9,22.9,0,0,0-1.63,2.56c-.48.86-.93,1.65-1.35,2.41-1.73,2.95-3.09,5.29-6.84,2.36a29.29,29.29,0,0,0-1.48,4.48,27.4,27.4,0,0,0-.72,4.17,44.89,44.89,0,0,0,.06,8c.43,5.15,1.22,10,.52,15,3.26,2.4,5.15,1.45,6.55-.56,1.35-2.18,2.12-5.69,2.84-8.91s1.34-6.24,2.3-7.62c.48-.71,1-1,1.69-.83a5,5,0,0,1,2.34,2.19c1.3,10,2.86,22.06,4.44,34.23-.33,4-.47,7.68-.68,11.8-.51,4.07-1,8.09-1.34,12.1l-.57,5.85c-.18,1.95-.33,3.91-.47,5.86-.29,3.92-.51,7.86-.66,11.85-.08,2-.15,4-.17,6.05s-.1,4-.11,6a116.12,116.12,0,0,1,0,13.16,94,94,0,0,1-1,9.57,69.07,69.07,0,0,0-.9,9.21c0,1.77,0,3.71.14,5.92.07,1.1.17,2.26.31,3.51s.28,2.46.48,3.82c.49,4.61,1.13,9.34,2.28,15.17-1.55-1.21-2.54-1.32-3-.44a4.43,4.43,0,0,0-.38,1.73,15.3,15.3,0,0,0,.16,2.65,67.64,67.64,0,0,0,1.51,7.08c.33,1.26.63,2.55,1,3.75s.83,2.24,1.25,3.35l0,.39c0,.07,0,.11.08.16l-4.1-9c.44.94.88,1.9,1.32,2.87l.34.73.08.19-.11-.25-.24-.52-1-2.07-3.92-8.48c-2.67-5.73-5.28-11.64-7.87-17.52-.35-1.14-.69-2.24-1-3.3s-.76-2.25-1-3.44c-.54-2.36-1.11-4.76-1.69-7.14-1.27-5.13-2.36-9.56-3.35-13.59s-1.84-7.89-2.26-10.64-.41-4.52.19-5c.86-.6,1.84-1.39,2.68-2.06-.25-2-.52-3.89-.82-6s-.63-4.29-1-6.69c1.93,1.23,3.75,2.29,5.2,2.21,2,.71.79-5.52-.64-12.45s-3.16-14.55-2.62-17c2.84-.05,5.54-1.32,8.22-1.87,1.45-1,.54-5.77-.78-11.65s-3.16-13.11-3.43-19.17a48.64,48.64,0,0,1-4.52,3.59c-2.62-2.81-2.8,1.26-2.46,6.43s1.14,11.41,0,12.32c-1.27-1.49-2.69-3.4-4.16-5.45l-4.62-6.54c-4.08-4.83-3.09.74-1.39,7.67s4,15.21,2.37,15.54a38.87,38.87,0,0,0-4.31-4.57,4,4,0,0,0-2.5-1.25c-1.14.1-1.29,1.91-1.07,4.29.43,4.75,2.35,11.76.21,11.33-2.81-4.1-4.57-6.05-5.61-6.65s-1.4.13-1.53,1.18c-.24,2.07.31,5.45-2.47,1.56-1.61-3.45-3.42-6.9-5.25-10.37-.85-1.12-1.68-2.18-2.5-3.2s-1.51-2-2.26-3-1.47-1.88-2.2-2.79-1.36-1.85-2-2.76a4.32,4.32,0,0,1-1.3-.37l-.56-.25a1.74,1.74,0,0,1-.51-.28l-.87-.69-.3-.43-.16-.23-.08-.11,0-.06,0-.06-.26-.44c-2-3.59-3.84-6.83-5.51-9.82l-4.79-8.64C453.74,409,451.23,404.36,448.73,399.72Z"/><path class="cls-2" d="M526.64,238.35c1.68-4,4.14-3.59,6.41-3.37s4.4.49,5.72-3c2.45,2.36,4.83,4.58,7.18,6.58s4.64,3.89,6.91,5.48A89.72,89.72,0,0,0,549,254.8c-1.78,2.76-6.9,2.64-4.82,10a49.68,49.68,0,0,0-7.78,7.73c-2.31-.09-4.29-.14-6.61-.32-.76-7.16-1.84-14.33-2.57-22C527,246.52,526.84,242.75,526.64,238.35Z"/><path class="cls-6" d="M552.19,221.75a26.72,26.72,0,0,0,3.27,3.95,9.34,9.34,0,0,0,3.9-.08c2,1.48,4.13,3.09,6.2,4.52s4.13,2.76,6.08,3.89a49,49,0,0,1,5-7.5l4.38,3,4.32,3.07c.63-2,1.25-3.78,1.82-5.29a44.14,44.14,0,0,1,8.38,3.65c3,4.7,5.31,7.86,6.72,10.13s2,3.45,1.52,4.27A63.23,63.23,0,0,0,610,250c1.09.7,1.55,1,2.29,1.42a3.18,3.18,0,0,0-1.85.05c-.19.22,0,.53.11.77a5.93,5.93,0,0,0,3.18-.13,37.63,37.63,0,0,0-7.67,3.24,9.12,9.12,0,0,0,4.52-1,47.75,47.75,0,0,0-4.63,4.48,90.59,90.59,0,0,0-7.08,7.31c-1.19,1.37-2.38,2.86-3.57,4.34s-2.36,2.94-3.53,4.5c-4.57,5.6-8.61,12.24-12.77,18.74.18.82.64,1.32.8,2.11-1.29,4.64-2.47,9.16-3.63,14.5-2.46,6.41-4.75,13.29-6.87,20.53-2.42.8-4.59.45-7.08.4.76-4.16,1.6-8.72,2.73-12.84.58-2.32,1.24-4.55,1.95-6.72l2.25-6.65c-1.53,1.58-3.07,2.8-4.62,4.19s-3.13,2.7-4.76,4.05c-1.35-1-1.27-4.26-1.16-6.89s.21-4.73-1.23-3.9c-1.35-6.48-2.77-13.19-4.24-20.67a134.68,134.68,0,0,1,14.64-15.49,27.8,27.8,0,0,0,8.63,2A101.55,101.55,0,0,1,583,257.3c-1.08-2.92-2.16-6.13-3.28-9.57a76.84,76.84,0,0,0-8.93,2.67,75.52,75.52,0,0,1-8.89-2.74c-3-1.07-6.06-2.28-9.07-3.64-2.27-1.59-4.57-3.49-6.91-5.48s-4.73-4.22-7.18-6.58c1.52-5.79,2.79-10.11,4.72-12.12S548.06,218.34,552.19,221.75Z"/><path class="cls-2" d="M570,257.18c2.18.12,4.34.11,6.51.18s4.34.05,6.5-.06a2.32,2.32,0,0,0,1.37,1.23,72.87,72.87,0,0,0-8,9.86,27.8,27.8,0,0,1-8.63-2C568.4,263.18,569.31,260.47,570,257.18Z"/><path class="cls-5" d="M885,553.15c.25,3.28.27,6.07.32,9.12s0,6.12,0,9.55-.13,7.2-.27,11.56c-.06,2.19-.13,4.52-.21,7s-.28,4.93-.44,7.66c-.63-3.37-1.25-6.66-1.85-9.79s-1.11-6-1.73-8.86c.79-7.63,1.47-16.14,2-24.12.17-.64.33-1.28.5-1.91.08-.31.16-.62.25-.92l.22-1C884.36,550.17,884.64,551.59,885,553.15Z"/><path class="cls-5" d="M864.27,594.33c-.3-9,2.5-12.16,4.11-17.26,1,3.82,2.16,8.08,3.28,12.32-.75-1.18-1.37.07-2.37,1.69S866.92,594.8,864.27,594.33Z"/><path class="cls-5" d="M892.5,681.1c-.42,9.19,0,20.67.06,30.35,0,1.19,0,2.36,0,3.51s-.07,2.13-.12,3.13c-.1,2-.25,3.74-.45,5.24-.41,3-1.06,4.85-2.12,4.93,0-3.91,0-7.87,0-11.87,0-2,0-3.94,0-5.91,0-1,0-2,0-3l0-3.08c-.18-8.06-.36-16.12-.53-23.94A4.09,4.09,0,0,0,892.5,681.1Z"/><path class="cls-5" d="M889.81,755.78c-.52,7.9-1,15.86-1.37,24.74a8.33,8.33,0,0,0-1.4,1c-.51.35-1,.74-1.51,1.16-1,.82-2,1.71-2.93,2.39q-2.42,9.09-5.09,18c-.43,1.52-1,2.92-1.47,4.31l-1.55,4.2q-1.56,4.18-3.18,8.34L868,828.2c-.54,1.37-1.14,2.74-1.73,4.11s-1.24,2.59-1.86,3.89c-2.49,5.14-5,10.24-7.6,15.34a82.38,82.38,0,0,1-2.53,11.9,54.18,54.18,0,0,1-1.79,5.23c-.66,1.66-1.35,3.27-2.09,4.82a78.39,78.39,0,0,1-4.85,8.73,84.69,84.69,0,0,1-5.77,7.75c-1,1.22-2.05,2.43-3.1,3.59s-2.17,2.16-3.27,3.22c-2.22,2.12-4.37,4.21-6.72,6.3s-4.6,4.24-6.83,6.5c-1.12,1.13-2.22,2.29-3.3,3.5l-3.2,3.67a48.1,48.1,0,0,1-4.07,10.88,45.47,45.47,0,0,1-5.67,8.45,51.68,51.68,0,0,1-6.77,6.64c-1.2,1-2.42,1.94-3.73,2.83-.66.43-1.31.87-2,1.32s-1.34.78-2,1.17c-5.42,3-11,5.72-16.37,9.22a56.53,56.53,0,0,0-7.95,6,57.3,57.3,0,0,0-7.16,8c-2,1.74-4,3.45-6,5.12s-4.36,3.31-6.58,4.93q-6.63,4.83-13.55,9.35c-2.29,1.5-4.62,3-7,4.33s-4.83,2.55-7.26,3.78q-7.32,3.71-14.84,7.11t-15.48,6.31L685,1013c-.66.24-1.32.44-2,.66l-4,1.26c-1.32.41-2.63.84-4,1.23l-4.07,1.14q-8.16,2.26-16.44,4.3c-2.76.68-5.49,1.37-8.31,2s-5.66,1.26-8.51,1.72q-8.57,1.35-17.16,2.56c-2.84.43-5.83.75-8.76,1.1l-8.83,1-8.84,1c-3,.32-5.86.72-8.91.78l-18.15.87L558,1033c-3,.16-6.17.24-9.25.37l-9.3.4c-3.1.14-6.2.34-9.28.33-6.11.15-12.55.09-18.85.22s-12.66.29-19,.58c-3.22,14.48-12.14,3.28-15.35-20.51,4.27-18.65,10-19.67,15.47-20.6a21.28,21.28,0,0,0,4-1,9.07,9.07,0,0,0,3.65-2.6c2.28-2.62,4.2-7.35,5.52-16.35,5.83,9,12.11,15.1,18.57,19a36.8,36.8,0,0,0,9.66,4.14c.8.22,1.61.41,2.41.57s1.62.24,2.44.31a41.65,41.65,0,0,0,4.87.18,52.53,52.53,0,0,0,9.76-1.22q2.43-.54,4.86-1.25c1.58-.51,3.15-1.08,4.73-1.68a193.25,193.25,0,0,0,18.65-8.78l4.6-2.38c1.54-.79,3-1.57,4.51-2.45,3-1.7,5.93-3.32,8.88-4.79a67.6,67.6,0,0,1,17.71-6.3,35.93,35.93,0,0,1,17.92.81,45.66,45.66,0,0,1,9.43,3.88,61.15,61.15,0,0,1,9.76,6.74c.09-7.47-.5-16.41,3.37-21,3.22-.15,7.08-1.81,9.1,7-.27,5.91,1.86,6.88,4.57,6.67s5.83-1.65,7.8-.39c1-10.35-3.09-23,2.32-29.51a28.67,28.67,0,0,0,15.68,9.78,45.34,45.34,0,0,0,27.6-3.44,86.39,86.39,0,0,0,8.6-4.48c2.75-1.62,5.36-3.35,7.78-5.1,1.21-.87,2.38-1.75,3.48-2.63s2-1.76,3-2.62c1.66-1.67,3.34-3.28,5-4.9s3.33-3.37,5-5c3.34-3.29,6.8-6.42,10-9.52s6.61-6,9.93-8.87l2.49-2.1,2.45-2.21c1.65-1.46,3.17-2.92,4.76-4.33q4.73-4.26,9.41-8.14,2.33-1.94,4.65-3.78c1.53-1.26,3-2.41,4.46-3.67q4.35-3.84,8.58-7.28c2.82-2.29,5.62-4.44,8.2-6.46a33.27,33.27,0,0,1,1.9-12.32,25.62,25.62,0,0,1,5-8.81,12.05,12.05,0,0,1,3-2.45,5.82,5.82,0,0,1,3-.83c1.94,0,3.75,1.34,5.15,4.32-1.89-19.27,1.53-15.72,4.76-12.91,1.62,1.46,3.23,2.88,4.15,1.59s1.08-5.32-.07-14.53c2.52-4.54,5.31-8.25,8-10.47.33-.28.67-.53,1-.77a9.57,9.57,0,0,1,1-.69,7.65,7.65,0,0,1,1.83-.89,3.63,3.63,0,0,1,3.31.51c-1.7-12.34.51-16.18,4.1-19.11.89-.74,1.91-1.35,2.9-2.15s2-1.67,3-2.69a28.16,28.16,0,0,0,5.87-8.78c-.82-6.82,1-10.34,2-14.58a24.35,24.35,0,0,0-.39-15.35c1.09-1.77,2.07-3.28,3-4.66.49-.69,1-1.35,1.46-2l.74-1c.24-.32.48-.68.72-1,.36,2.93.62,5.62.89,8.32S889.47,752.85,889.81,755.78Z"/><path class="cls-5" d="M841.93,776.93c0-4.42.1-7.83.31-10.55A47.28,47.28,0,0,1,843,760a14.42,14.42,0,0,1,2.57-6,15.71,15.71,0,0,1,4,17.62,11.82,11.82,0,0,1-3.92,5.52C844.21,778,842.75,778.06,841.93,776.93Z"/><path class="cls-5" d="M831.41,783.6c-1.13,12.24-3.17,20.62-5.64,26.77s-5.57,9.84-8.9,12.38a21.63,21.63,0,0,1-5.25,2.91c-1.81.76-3.63,1.41-5.51,2.13a30.89,30.89,0,0,0-11.37,6.63c3.13-6.41,6.11-12.42,9-17.87s5.66-10.28,8.49-14.82a70.34,70.34,0,0,1,4.4-6.12,45.07,45.07,0,0,1,4.54-5.07,33.61,33.61,0,0,1,4.92-3.91c.87-.54,1.72-1.11,2.6-1.63S830.49,784,831.41,783.6Z"/><path class="cls-5" d="M741.72,571.59c.61,9-1.92,13.29-5.29,13.36s-7.58-4.25-10.22-11.85c-.49-2.14-1-4.28-1.22-5.28l-10.4-13c-3.44-4.3-6.87-8.58-10.39-13.14.11-3.43.27-6.53.43-9.63s.3-6.19.39-9.45c3.51-.66,6.17,3.63,9.06,10.34s6,16,10.39,25c1.28-.56,1.93-2.32,2.57-4,3.05.9,6.07,1.74,9.11,2.5a21.47,21.47,0,0,0,3.13,5.36C740,564.74,740.75,567.71,741.72,571.59Z"/><path class="cls-5" d="M749.18,676.69c-5.53-5-11.19-10.54-16.76-16.29,1.07-5.71,4.1-10,7.7-9.48s7.94,5.74,11.83,19.77C751,672,750.28,674.25,749.18,676.69Z"/><path class="cls-5" d="M723.89,677.73c-5-2.56-8.64-1.06-12,1.6s-6.64,6.33-10.64,7.77c-1.73-.38-3.42-.85-5.07-1.37s-3.31-1.17-4.89-1.81c-3.18-1.31-6.16-2.75-9-4.13s-5.38-2.64-7.84-3.73a25,25,0,0,0-6.84-2.19c-3.43-1-6.82-2-10.24-3.16-2.82-15.83-8.88-10.08-9.7-29.53,0-19.06-.43-39.17-.94-57.65,3.42-.61,6.61-.14,10-.76q2.22,1.25,4.47,2.44c1.49.77,3,1.51,4.49,2.24q4.53,2.19,9.12,4.22c1.09-2.49,1.32-8.33,1.95-12.3s1.69-6.06,4.54-1.34c6.79.74,13.57,1.05,20.64,2.45,3,6.52,6.07,12.8,8.9,17.88-2.42,8.21-5.5,13-8,18.57a48.77,48.77,0,0,0-3.14,9.42A71.35,71.35,0,0,0,698.2,640c3.9,9.83,5.35,7.36,6.36,3.24s1.68-9.8,4.32-7c2.14,4.45,5.2,7.29,8.63,10.59a55,55,0,0,1,10.86,13.43C727.08,666,725.34,671.89,723.89,677.73Z"/><path class="cls-5" d="M743.36,877.26c-1.26-9.82-1.24-17.63.16-22.62.7-2.49,1.75-4.29,3.17-5.3a5.09,5.09,0,0,1,2.39-.93,7.25,7.25,0,0,1,2.9.25c3.34,12.12,3.88,22.34,2.15,28.09S748.47,883.69,743.36,877.26Z"/><path class="cls-5" d="M653.59,506l-6.38,5.36c-3.09-3.73-6.56-9.17-9.78-13.39a24.1,24.1,0,0,1-5.18-6.56c-2.31-3.91-5.52-10.36-10-21.88-.57-8.31-1.24-18.07-1.82-26.5a23.13,23.13,0,0,1,4.07-6.79c2.32,5.5,4.31,9.29,7.1,14.9a36.85,36.85,0,0,0,5.24-5.37c3,19.1,5,27.76,6.7,32.15s3,4.43,4.52,6.39a84.88,84.88,0,0,0,3.75,8.94C652.36,497.1,652.9,501,653.59,506Z"/><path class="cls-5" d="M591,355a15,15,0,0,1-1.06-1.78,15.32,15.32,0,0,1-1-2.28,58.42,58.42,0,0,1-1.6-5.79c-.48-2.18-1-4.24-1.32-6.51s-.58-4.63-.81-6.9-.42-4.49-.59-6.53-.11-3.82-.17-5.73a35.52,35.52,0,0,0-.28-3.71c-.09-.89-.12-1.47-.31-1.49.87-5.54,1.89-11.06,3.1-16.75l.13-.54,0-.12v.05l0,.11-.08.42-.18.83-.36,1.68q-.39,1.68-.81,3.36c-.14.53-.28,1.05-.42,1.59.39-1.43.75-2.9,1.1-4.39.16-.74.33-1.49.49-2.25s.28-1.45.52-2.36c.84-3.45,1.56-7,2.13-10.42l.21-1.29c.07-.43.13-.85.24-1.35.17-.94.35-1.89.52-2.83.34-1.88.63-3.73.89-5.55s.48-3.59.67-5.32.53-3.71.75-5.47c.07-.6.14-1.21.21-1.85-.15,1.46-.31,2.95-.47,4.48-.29,3-.53,5.65-.72,8.2-.09,1.27-.18,2.51-.24,3.72l-.11,3.54-.06,3.53c0,1.24,0,2.49,0,3.72,0,5.05,0,10.55.11,17.47.21,9.53.41,18.3.57,25.78.68.64,1.4,1.4,2.13,2.18l2.43,2.42c.26-3.6,1.14-4.46,2.11.37s2.3,15.07,2.77,34.16a6.1,6.1,0,0,1-2.28-.48,7.16,7.16,0,0,1-2.45-2.07,22.63,22.63,0,0,1-2.83-4.85A66.16,66.16,0,0,1,591,355Z"/><path class="cls-5" d="M325.52,967.88c-10,6.22-19,8.94-24.71,8.52s-8.09-4-5-10.29c5.44-7.67,11.58-12.54,16.94-12.86S322.71,957.19,325.52,967.88Z"/><path class="cls-5" d="M579.79,323c-.54,1.6-1.38,3.75-2.13,5.57-.54,1.51-1.1,2.89-1.39,3.57-.52,1.24-1.06,2.45-1.66,3.68-.4.94-.79,1.83-1.26,2.81-.38.78-.8,1.61-1.25,2.44l-.34.63v0l-14.6,27.94h0l0,0,0-.07.07-.13.14-.27.55-1-.07.12,1.24-2.18,1.07-1.77c.31-.47.6-.93.91-1.41l.46-.69.76-1.07.53-.71.4-.5,0,0-.22.25-.66.68c-.27.26-.67.67-1.11,1.07-.71.66-1.78,1.64-3.26,2.83-.74.61-1.59,1.29-2.53,2s-2,1.43-3.08,2.23a110.41,110.41,0,0,1-16,9.09c-.91.43-2,.86-2.92,1.28s-2,.84-3.06,1.24-2,.79-3.09,1.16-2,.71-3.08,1a88.16,88.16,0,0,1-10.54,2.64c-.28,0-.57.11-.82.15l-.67.12-1.31.19-1.07.14c-.79.11-1.75.18-2.34.24s-1.52.09-2,.12l-.69,0h-.63c-.3,0-.63,0-1,0l-7.74-.26L493,386l-5-.3c-1.66-.1-3.31-.24-5-.4s-3.23-.27-4.84-.45l-1.94-.24c2.23.29,4.45.51,6.57.67s4.25.38,6.16.48c2.19.12,4.54.3,6.93.36l7.89.27h.73c.36,0,.69,0,1,0,.51,0,1.42-.06,2-.11l1.59-.16c.41,0,.87-.09,1.32-.16l1.61-.23,2.71-.48c.94-.17,1.78-.39,2.9-.63.52-.11,1-.24,1.53-.37l.74-.2.8-.21c2.1-.57,2.43-.73,2.67-.79s.25-.06,1.53-.46c.77-.24,1.47-.51,2.28-.78s1.61-.57,2.35-.86a108.61,108.61,0,0,0,10.57-4.67c3.35-1.69,6.35-3.45,8.8-5,.26-.16,3.27-2.1,4.88-3.28a70.54,70.54,0,0,0,8.12-6.66l.38-.37.56-.58c.21-.21.41-.44.39-.42s.07-.08,0,0l-.2.25a7.26,7.26,0,0,0-.46.59c-.09.13-.35.46-.61.84s-.62.91-.81,1.17c-.46.71-.78,1.21-1,1.58s-.42.69-.57.92c-.3.51-.49.8-1.12,1.94l-.11.2-.6,1.06-.33.62-.17.34-.09.17,0,.08q7.29-14,14.63-28c.58-1.06,1.16-2.17,1.65-3.21,1.06-2.32,2-4.34,2.37-5.23.53-1.18,1.17-2.79,1.49-3.64s1.26-3.13,2-5.05,1.34-3.88,1.72-5.15C580.63,320.51,580.28,321.64,579.79,323Z"/><path class="cls-6" d="M456.26,626.33c-6.06,6.37-11.79,12.94-16.15,14.56s-7.38-1.86-7.2-15.29a29.07,29.07,0,0,1-7.3-2.36,36.44,36.44,0,0,1-6.19-4,64.08,64.08,0,0,1-5.46-4.81l-5.26-5a47.26,47.26,0,0,0-5.7-4.56,32,32,0,0,0-6.77-3.73c-5.05-2.09-11.34-3.23-20-3.08.32-4,.83-7.83,1.22-11.48s.66-7.1.72-10.4c-1.07-5.29-1.94-10-2.66-15.3,2.41-2.92,3.48-5.15,5.84-8.61-2.43-2.77-6.42-1.85-9.84-2.58a5.72,5.72,0,0,1-4.2-3.1c-1-1.91-1.52-4.87-1-9.58-8.11,4.52-17.65,10.45-25.92,15.14-10.83,10.2-21.6,20.44-32.17,31.37-1.73-1.32-4.69-1.08-7.66-.85,5.08-7.91,8.83-15.16,12.82-21.73-.19-2.35-.31-4.1-.38-5.88,4.16-4.72,8.39-9.38,12.6-14,0-2.26,0-4,0-5.66-11.51,5.9-21.7,10.72-34.89,16.4-.08-3.7-.15-7.94,0-11.59q11.13-9.15,22.5-18.1a74.46,74.46,0,0,1-12,.62c-3.44-.1-6.45-.37-9.46-.39-6,0-12,.85-21.15,5.62-.7-6.06-1.32-12-1.71-17.93-.25-2.93-.36-5.91-.46-8.87s-.23-5.86-.26-8.8-.05-5.82-.07-8.73.06-5.82.1-8.68.13-5.75.23-8.61.2-5.69.41-8.57c2.95-4.45,5.89-8.84,8.87-13.13s5.68-8.32,8.16-12.13c4.87-7.45-22.41-.87-26.13-6.5-.09-3.25.28-6.44-3.95-9.68-2.13-1.62-5.42-3.27-10.51-5.05s-11.85-3.75-21-6.09c5.15-4,10-7.62,14.59-11.1L245.6,389c2.26-1.68,4.53-3.33,6.84-5,40.5-1.79,36.92-5.51,29.38-11.95-1.88-1.6-4-3.34-5.83-5.18a14.17,14.17,0,0,1-3.71-5.66,5,5,0,0,1,1.93-5.39c2-1.62,5.45-3,10.93-3.92-5.24-2.21-7.93-4.28-8.95-6.08s-.35-3.41,1.31-4.81c3.24-2.78,10.27-4.63,15.05-6.43,4.4-4.13,8.81-8,13.56-11.71,2.31-1.83,4.78-3.63,7.23-5.33,1.22-.86,2.52-1.7,3.78-2.52s2.53-1.62,3.86-2.4c2.12-1.24,4.15-2.42,6.32-3.52s4.23-2.15,6.42-3.11a16.08,16.08,0,0,1-.8-7.5,11.69,11.69,0,0,1,2.17-5.28c2.08-2.91,5.12-4.49,7.48-6.16,4.78-3.2,7-6.47-2.31-21.16,7.54-.05,14.27.37,21.2,2.42s13.93,5.9,21.65,12.82c.85-1,1.12-3.21,2-4.19-7.27-13-15.15-27.15-22.55-40.11a55.68,55.68,0,0,1-7.91-9.52,24.52,24.52,0,0,1-3.17-7.7c-1.18-4.87-1-9.63-3.66-16.59-3.72-6-7-10.71-10.16-16.59a45.44,45.44,0,0,0-4.39-3.14l-2.35-1.47-2.73-1.64-4.59-.57c-.78-.09-1.54-.21-2.35-.3l-2.44-.25c-3.29-.33-6.58-.75-10.16-1l-5.35-.38c-1.79-.12-3.73-.16-5.58-.19l-5.68-.06c-1.95,0-3.94.12-5.92.21a27.67,27.67,0,0,0-4.18-.38c-.62,0-1.21,0-1.76.07a15,15,0,0,0-1.61.28,9.32,9.32,0,0,0-4.59,2.38,9.47,9.47,0,0,0-2.31,3.91,23.77,23.77,0,0,0-1,4.9c-.2,1.7-.32,3.45-.53,5.15-.11.85-.23,1.69-.41,2.51A19.9,19.9,0,0,1,269,199a11.41,11.41,0,0,1-2.76,4.28,11.7,11.7,0,0,1-2.31,1.73,19.81,19.81,0,0,1-3.19,1.52,35.44,35.44,0,0,0-10.15,1.89c-3.53,1.16-7.05,2.6-10.65,3.56-7.19,2-14.78,2.54-22.44-5,2.44-3.49,5-7.08,7.43-10.32,1.26-1.65,2.51-3.3,3.77-4.94l1.93-2.43,1.9-2.3,3.85-4.56c1.29-1.52,2.61-3,3.86-4.43l3.84-4.24L246,171.7l1.92-2c2.51-2.62,5.1-5.27,7.66-7.79s5-4.83,7.57-7.2,4.93-4.44,7.46-6.63,4.81-4.11,7.34-6.06a186.25,186.25,0,0,1,33.48-1.48c1.23-.5,2.45-1,3.65-1.56l3.39-1.52c1.11-.5,2.2-1,3.28-1.54s2-1,3.06-1.46l11.2-5.32c1.27.34,1.55-1,1.47-3s-.61-4.6-.84-6.91c-.49-4.6.07-7.85,6.14-1.9,2.61,1.37,5.28,3,7.93,4.61s5.32,3.31,7.86,4.73c.38-3.63.46-8.35.65-13,5.78,5,11.46,10.06,17.27,16,1.43.54,2.86,1.11,4.29,1.69s2.85,1.13,4.29,1.74c-.6-3.89-.29-6.48-.54-9.28-.83-3.06-1.64-6-2.76-10.15,6.59,5.15,12.82,10.06,18.85,15l8.86,7.24,8.59,7.23c4.1,1.09,8.23,2.49,12.29,3.83l6.06,2c2,.63,4,1.39,6,2,9.79,7.61,18.57,14.3,27.64,22.24a34.35,34.35,0,0,0,2.81,4.48A72,72,0,0,0,477,202.5c2.14,6.19,4.4,10.74,5.31,15.68-1.54,4.37-3,8.9-4.32,13.65s-2.52,9.75-3.61,14.86c-5.77-9.82-10.61-14.65-14.68-16.2s-7.41,0-10.53,2.3-6,5.36-9.5,6.28a8.78,8.78,0,0,1-6-.65c-2.25-1-4.82-2.91-7.89-6.19.32,12.42-4.3,13.43-10.64,12.68-3.16-.38-6.78-1.26-10.23-1.23s-6.71,1.07-9.12,4.33c-1.21,2.3-1.61,5.3-2.4,7.26s-1.9,2.75-4.69.63c.88,7.62,1.4,14.19,3.13,22,9.13,5.78,17.89,12.81,26.31,19.66,5.5,1.06,10.82,1.92,16.47,3-.74-5.29-1.39-10.53-1.62-14.64a31.11,31.11,0,0,1,9.51-3.09,53.28,53.28,0,0,1,7.18,6.28c3.06-3.39,6.26-8.21,10.47-12.55a34.21,34.21,0,0,1,7.22-5.61,29.15,29.15,0,0,1,4.33-2,27.54,27.54,0,0,1,4.89-1.21c1.27,4.61,2.75,8.39,4.36,13,.49,5.81,3.84,12.72,5.36,17.86s1.4,8.78-4.8,8.34c-3.27-3-2.35,5.41-3,13.07,2.39,9.76,4.83,19.58,7.09,28.49-1.42.08-2.84.2-4,.29-2,1.14,2.68,15.33,1.15,19.73l-3.28.23-3.26.29c-2.27-1.46-4.53-3-6.84-4.57L465.92,362l-3.63-2.47c1.84,5.47,3.34,9.91,5.18,15.35.16,6.67-3.11,5.37-5.68,5.06s-4.27.53-.16,12l-3.35-.08c-1.13,0-2.28-.07-3.27-.13-3.29-8.11-6.1-15-9.37-23.14-2.51.9-2.73,4.43-2,8.75.36,2.14.94,4.51,1.53,6.79s1.32,4.51,1.85,6.44a3.6,3.6,0,0,0-.49.78,7.53,7.53,0,0,0-.31.95,12.55,12.55,0,0,1-.54,1.64c1.27,2.39,2.52,4.72,3.09,5.8,2.5,4.64,5,9.27,7.95,14.62l4.79,8.64c1.67,3,3.5,6.23,5.51,9.82-.4-.7-.81-1.39-1.19-2.05s-.6-1.08-.87-1.55c-2-3.62-4.25-7.37-7.16-12,.77,1.25.85,1.36.18.3-.53-.9-1.59-2.7-3.17-5.22s-3.87-6-5.76-8.92q-1.56-2.38-3.44-5c-.68-.93-1.15-1.66-1.7-2.46s-1.12-1.58-1.7-2.4-1.32-1.8-2-2.67l-.5-.65-.46-.61-.8-1.09q-1.62-2.17-3.29-4.2c-.61-.71-1-1.24-1.46-1.81l-1.37-1.65-1.39-1.59-.71-.78-.55-.66q-1.12-1.29-2.31-2.52L425.27,373c-.63-.65-1.29-1.28-2-1.9-.19-.17-.31-.29-.43-.41l-.39-.37-.8-.74-.83-.72c-.28-.24-.6-.49-.76-.65-.41-.36-.84-.72-1.3-1.08l-.7-.53-.62-.47h0l0,0,.06,0,.12.1.25.19c.33.25.66.49,1,.71a56.28,56.28,0,0,0,6.93,4.07,99.05,99.05,0,0,0,13.72,5.6c1.53.53,3.3,1.1,5.12,1.59s4,1.14,6,1.61,4.14,1,6,1.37,3.54.74,4.76.95l4.16.73c1.41.24,2.78.41,4.23.63,2.93.47,5.77.73,8.82,1.1,1.51.17,3,.3,4.52.42s3.08.27,4.62.37l4.66.28,2.35.11,8.32.29.92,0h1.09l.86,0c.37,0,.91,0,1.29-.08l1-.09c.29,0,.41,0,.28,0l-2.3.22c.45,0-2.73.39-2.68.48h.2l.61,0c.54-.05,1.41-.16,2.68-.34s2.94-.43,5.15-.79l.85-.15,1.92-.35.49-.1.24-.05.09,0-.21,0c-.57.12-1.14.24-1.67.39a51.46,51.46,0,0,0-6.47,2.1l14.28-4,1.81-.55.49-.14.24-.08.12,0-.27.08-2.31.78c-3.12,1.06-6.09,2.28-9.55,3.83l-1.75.92-1.7,1c-1.13.7-2.28,1.43-3.35,2.16,7.74-3.3,15.49-6.66,21.72-9.39-2,1-4.4,2.19-6.75,3.45-1.19.63-2.3,1.27-3.39,1.91s-2.14,1.27-3.07,1.86a8.46,8.46,0,0,0,1.6.47c.53.14,1.25.23,1.83.35,17.94-10.57,11.61-6.66,7-2.14,5.18-3.73,4.76-3.48,1.44-1.27s-9.5,6.43-15.76,10.84c-5.14,3.43-8.81,6.56-8.32,7s5.23-1.9,16.42-9.9c-5.49,4.61-10.88,9.52-17.47,15.49-1.18,1.85-2.16,3.63-3.19,5.5s-1.94,3.73-2.9,5.76c4.67-3.41,4-1.9,5.17-1.89s3.8-1.42,14.57-11.36c1.58-.65,2.88-1,3.16-.36-2.57,3.36-5.77,7.65-6.64,9.75s.71,1.85,7-4c-5.9,6.71-10.13,11.75-12.82,15.31s-3.84,5.62-3.76,6.3,1.42,0,3.68-2a109.34,109.34,0,0,0,9.35-10c-.49,1.51-1,3.17-1.47,4.8s-.9,3.27-1.29,4.85c-5.78,9.77-11.21,19.68-15.45,28.46a20.86,20.86,0,0,1-7.4,5.38,19,19,0,0,0-7,4.88c.37-1.89-.87-1.66-2.69-.78s-4.25,2.49-6.13,3.41c-3.73,1.8-5.27.85,5.37-13a11.74,11.74,0,0,1,.25-2.75c.07-1-.1-1.81-1.26-1.57s-3.31,1.5-7.25,4.54-9.71,7.91-18.18,15.26a351.62,351.62,0,0,1,31-45c-4.13,1.59-6.76,1.51-9.59,1.72,4.64-4.49,9.23-8.62,15.22-13.73q-4.17,2.11-8.46,4.1c-2.81,1.29-5.66,2.53-8.52,3.71,3.66-3.66,2.27-4.26,4-6.71.89-1.21,2.53-2.84,6.15-5.5s9.08-6.32,17.47-11.66c1.69-2,3.22-3.85,5-5.65-16.25,9.46-34.09,19.6-50.59,28.73-5.07,7-10.79,15.14-16.2,24.16,2.88-.38,5.72-.82,8.5-1.27l8.25-1.39a103.13,103.13,0,0,0-10.34,15.8L437.71,475c-2.41,4.44-5.28,9.75-8.84,16.49-10.57,14.07-20.69,28.77-30.18,43.88,5.36.49,9.52,2.48,13.66,3.88,3.84-1.23,7.88-2.84,11.84-4.47s7.93-3.36,11.53-4.67A120.37,120.37,0,0,0,430.87,551c-.84,6.67-.91,13,.16,18.24s3.12,9.43,6.25,12,7.4,3.42,12.59,1.75c-3.27,9.82-6.55,19.12-8.72,27.58,1.86,3.73,6-1.33,9.31-2.79,1.65-.71,3.15-.66,4.16,1.91S456.18,617.24,456.26,626.33Z"/><path class="cls-5" d="M239.7,923.43a29.37,29.37,0,0,1-16.21,0A33.91,33.91,0,0,1,210,915.81a37.89,37.89,0,0,1-5.1-5.67,34.71,34.71,0,0,1-3.56-6.54,28.48,28.48,0,0,1-2.27-13.51c7.1-.6,12.82-.54,17.5.36a22.44,22.44,0,0,1,11.51,5C234,900.61,237.12,909.63,239.7,923.43Z"/><path class="cls-5" d="M171.22,850.5a59.53,59.53,0,0,1-16.69-.33,30.16,30.16,0,0,1-12.09-4.49c-6-4.26-7.9-10.32-3.65-16.74,7.68-10.82,14-13.25,19.08-9.11,2.56,2.09,4.8,5.87,7,11A137.45,137.45,0,0,1,171.22,850.5Z"/><path class="cls-5" d="M134.6,820.88c-10.24,4.08-17.34,5.42-22,4.74s-7-3.28-7.94-7.08c-1.8-7.61,2.28-20.1,4.48-32.14,4.33,5.87,8.65,11.47,12.94,17.05,2.13,2.81,4.24,5.64,6.33,8.54S132.55,817.81,134.6,820.88Z"/><path class="cls-5" d="M98.09,777.59a70.25,70.25,0,0,1-9.54-3.66,64.13,64.13,0,0,1-8.36-4.61A48.9,48.9,0,0,1,67.63,758c-6.21-8.38-7.77-17.82-2.59-27.25,4.4.33,12.85-1.84,19.37-1.79s11.06,2.45,8.07,12.42C94.37,752.71,95.38,766.23,98.09,777.59Z"/><path class="cls-5" d="M53.81,682.7c-9.7-2.89-19.83-9.06-24.06-15.18-2.13-3-2.74-6.19-1.12-8.81s5.47-4.83,12.29-6.31c-.52,2.4.48,3.84,2.16,5s4,2.1,6.22,3.57C53.68,663.93,57.2,669,53.81,682.7Z"/><path class="cls-5" d="M25.8,525c-2.81-2.92-5.5-6-8-9.1a103.72,103.72,0,0,1-6.65-9.68,73,73,0,0,1-5-9.64,47.74,47.74,0,0,1-2.79-9.25c-1.09-5.89-.55-11.06,2.17-15s7.49-6.5,14.86-7.32a42.76,42.76,0,0,1,7.07,8.66,72,72,0,0,1,4.84,9.26c1.46,3.19,2.83,6.54,4.54,9.88a67,67,0,0,0,6.32,10.17l-1.15,7.22c-.32,2.31-.64,4.63-1,7.19C35.94,520.2,30.94,522,25.8,525Z"/><path class="cls-5" d="M442.15,377.75l-3.78-1.24c-.95-.32-1.7-.6-2.31-.82-1.24-.5-1.73-.65-2.21-.84s-.84-.32-1.56-.62l-3.38-1.46a61.24,61.24,0,0,1-11-6.29,91,91,0,0,1,13.41,13.09c.93,1,1.77,2.05,2.55,3l.58.73c.17.23.45.55.67.82l1.35,1.66c.88,1.11,1.72,2.21,2.54,3.33.37.52.91,1.21,1.41,1.88l1.51,2,1.68,2.35.81,1.19c.27.39.52.77.87,1.26q2,2.76,3.79,5.52l1.76,2.75,2.06,3.13c1.36,2.11,2.66,4.19,3.89,6.22l1,1.63.55.91.6,1,2.36,3.89q2.33,3.88,4.5,7.81c1.81,3.07,3.6,6.21,5.29,9.27,1.76,3.22,3.48,6.4,5.16,9.49q3,5.46,5.7,10.64,1.33,2.6,2.62,5.09l1.25,2.48,1.6,3.05c4.2,8.06,7.85,15.38,10.88,21.65,2.26,4.56,4.61,9.31,7,14.16,2.45,5,4.91,10.14,7.33,15.28q1.89,4,3.76,8l5.07,10.63c3.34,7,6.58,14,9.65,20.66l4.1,9s-.11-.09-.08-.16l0-.39c-.42-1.11-.83-2.22-1.25-3.35s-.68-2.49-1-3.75a67.64,67.64,0,0,1-1.51-7.08,15.3,15.3,0,0,1-.16-2.65,4.43,4.43,0,0,1,.38-1.73c.44-.88,1.43-.77,3,.44-1.15-5.83-1.79-10.56-2.28-15.17-.2-1.36-.35-2.62-.48-3.82s-.24-2.41-.31-3.51c-.15-2.21-.18-4.15-.14-5.92a69.07,69.07,0,0,1,.9-9.21,94,94,0,0,0,1-9.57,116.12,116.12,0,0,0,0-13.16c0-2,0-4,.11-6s.09-4.05.17-6.05c.15-4,.37-7.93.66-11.85.14-1.95.29-3.91.47-5.86l.57-5.85c.38-4,.83-8,1.34-12.1,3.39,8.91,6.71,17.19,9.73,24.79-.18,4.72-.27,9.48-.24,14.43s.14,9.88.28,14.71q.21,6.84.42,13.7c.13,4.29.24,8.28.25,11.79,0,2.54,0,5.11.1,7.7,0,1.31.11,2.61.16,3.89s.13,2.52.2,3.76c.29,5,.73,10,1.19,14.83.24,2.35.48,4.71.72,7.11.12,1.12.23,2.25.35,3.4s.16,2,.25,3.06a97.19,97.19,0,0,1,.36,10.26c4.61,13.9,3.35,12.87,2.18,12.28-.6-.37-1.12-.49-.61,1.81s2.07,7,5.62,16.31c-.43,0-1.44-1.14-1.88-.82-.22.16-.29.7,0,2,.13.67.35,1.51.67,2.6s.71,2.31,1.24,3.86c4.8,10.91,7.7,18.77,9,22.83.66,2,.89,3.07.65,3a.46.46,0,0,1-.23-.25l-.09-.31-3.23-7.27c-4.72-10.61-8.85-19.76-12-26.74,9,19.95-2-4.54-9.42-20.6l-3.06-6.6-2.18-4.8-4-8.85c-2.7-5.9-5.42-11.76-8.1-17.47l-13.2-27.9c2.83,6-2.63-5.79-10.1-20.82-.91-1.84-1.85-3.72-2.8-5.63l-2.18-4.49c-1.49-3-3-6-4.36-8.76l-3.91-7.64c-1.13-2.18-2.09-4-2.82-5.41-2.68-5.33-5.41-10.52-8.08-15.43-2.32-4.28-4.53-8.34-6.57-12.08l-2.77-4.91c-.87-1.51-1.7-2.93-2.46-4.26-1.25-2.23-2.33-4.1-3.16-5.52-1.34-2.29-2.74-4.6-4.18-6.92l-1.83-3L454.63,412c-1.22-1.94-2.54-4-3.78-5.82-1-1.67-2.13-3.33-3.24-5l-3.27-4.72c-.94-1.37-1.89-2.72-2.87-4.05l-1.47-2c-.23-.31-.53-.68-.71-.94l-.6-.82c-.81-1.09-1.62-2.15-2.45-3.18-1.8-2.18-2.95-3.69-4.3-5.25l-3.4-3.85c-.49-.54-1-1-1.42-1.51l-.67-.68-.5-.54c-.64-.67-1.2-1.23-1.66-1.67L422,369.88c-.37-.34-.76-.68-1.16-1l-.58-.49-.44-.39-.94-.76-1.25-1c.46.36.91.69,1.34,1a55.42,55.42,0,0,0,5.55,3.35,26.3,26.3,0,0,0,2.41,1.22c1.89,1,3.9,1.78,2.71,1.27l1.11.47,1.2.53c.8.34,1.55.64,2.28.9l2.21.84c.74.27,1.43.52,2.1.74,1.28.4,2.69.91,3.85,1.26l1.69.5.78.21.8.24c2.06.62,3.64,1,4.93,1.3s2.37.6,3.2.78l4.14.89c.78.17,1.71.36,2.94.58l5,.87A174.5,174.5,0,0,1,442.15,377.75Z"/><path class="cls-5" d="M544.16,264.84c-2.08-7.4,3-7.28,4.82-10A89.72,89.72,0,0,1,552.86,244c3,1.36,6,2.57,9.07,3.64a75.52,75.52,0,0,0,8.89,2.74c-.3,2.5-.55,4.62-.8,6.78-.71,3.29-1.62,6-2.24,9.22a134.68,134.68,0,0,0-14.64,15.49l-1.23.24c-1.88,2.26-3.94,3.75-5.83,4.13a4.39,4.39,0,0,1-4.8-2.41c-1.68-3.43-3.43-7.59-4.9-11.28A49.68,49.68,0,0,1,544.16,264.84Z"/><path class="cls-5" d="M561.27,360.07a69.06,69.06,0,0,1,3.5-13.2c.74-2.2,1.52-4.55,2.29-7.17s1.54-5.54,2.24-8.78c2.12-7.24,4.41-14.12,6.87-20.53a12.14,12.14,0,0,0,4.71-2c-.34,3.54-.6,6.31-.91,9.48-3.66,7-6.82,17.12-9.54,26.72-2.8,8.94-5.15,17.57-8,18.63A10.6,10.6,0,0,0,561.27,360.07Z"/><path class="cls-3" d="M702,580.48c-7.07-1.4-13.85-1.71-20.64-2.45-2.94-18.61-5.75-35.77-8.61-52.83l3.21,2c7,10.67,14.53,20.81,21.77,31.31C699.08,565.51,700.66,573.65,702,580.48Z"/><path class="cls-6" d="M749.18,676.69a65.75,65.75,0,0,1-.51,20.48,39.31,39.31,0,0,1-5.48,13.72,32.43,32.43,0,0,1-7.87,8.45,49.4,49.4,0,0,1-7.76,4.42c-7.07-3.17-15.21-6.85-22.93-12.41l-3,4.59c-1,1.53-2.08,3-3.13,4.58l-6.42,9.31c-3.31-1-7.06-4.19-10.91-9.29A110.5,110.5,0,0,1,670,701.14c-2.66,2.07-3.27,12.42-4.55,21.61s-3.3,17.1-8.39,14a27.6,27.6,0,0,1-3-13.27,21.12,21.12,0,0,1-6.34,5.6,19.38,19.38,0,0,1-7.32,2.18,28.72,28.72,0,0,1-8-.43c-1.37-.26-2.75-.58-4.14-1s-2.82-.94-4.24-1.49c-2.85-1.12-5.72-2.52-8.57-3.95s-5.68-2.91-8.53-4.48c-5.68-3.07-11.21-5.87-16.51-7.35-4.3,8.8-8.71,16.12-13.47,25.09-2.45-3.7-4.85-7-7.3-10.22s-4.9-6.1-7.33-8.76a128,128,0,0,0-14.66-13.7q-3.68-2.89-7.37-5.27c-2.46-1.59-4.93-3-7.42-4.44s-5-2.66-7.46-3.87-5-2.34-7.43-3.43c-5-2.33-9.92-4.41-14.76-6.52-2.41-1-4.82-2.22-7.18-3.4s-4.68-2.46-6.93-3.8c-1.13-.67-2.24-1.36-3.34-2.07l-1.63-1.08-1.61-1.18a73.06,73.06,0,0,1-6.12-5.17,53.44,53.44,0,0,1-10.31-13.1c-3.64,6-5.64,5.79-6.83,1.32a55.33,55.33,0,0,1-1.25-9.64c-.13-2.06-.24-4.32-.32-6.75s-.13-5.12-.18-7.91a74.65,74.65,0,0,1,5.46-5.69,40.78,40.78,0,0,1,4.82-4,17,17,0,0,1,8.13-3.35,12.29,12.29,0,0,1,6.81,1.37,28.7,28.7,0,0,1,6.3,4.12c2.08,1.69,4.17,3.6,6.34,5.43a41,41,0,0,0,6.85,4.66,19.11,19.11,0,0,0,7.6,2.33,13.25,13.25,0,0,0,4.12-.35,18.55,18.55,0,0,0,4.34-1.63,48.69,48.69,0,0,0,11.56-7.1c.74-5.15,1.17-10.68,1.64-16.21,3.71-9.7,6.6-18.24,9.39-26.72.47-7.41.66-13.29.66-19.52-1.4,1.16-2.81,2.19-4.26-.53s-3-9.31-3.78-23.55c-3.09,6.69-5.41,8.56-7.26,8.25s-3.22-2.86-4.55-5.14-2.57-4.43-4.5-3.76-4.53,4-8.65,12.67c4.06-16.25,8.92-34.1,14.07-51.49.94-.41,2.42-2.45,3.33-2.86a25,25,0,0,1,6.14,1.88,44.19,44.19,0,0,1,6,2.75c.44,1.22.91,2.37,1.56,3.93,2.6,1.08,5,3.54,7.67,4.51.55,1.19,1.1,2.3,1.86,3.83,1.77,3.29,3.84,6.94,6,10.63.65,1.15,1.32,2.24,2,3.37,2.53,2,5.18,2,8,2.41,1.67.51,3.75,0,5.45.39,3.58,6.61,7,14.64,10.92,20.7,1.14,1.29,2,2.28,2.89,3.22,3-1.77,5.4-10.06,8.34-13.75,1.49-1.87,3.12-2.58,5.13-.8s4.43,6.11,7.68,14c.84,12.73,1.72,25.46,3,38.39,3.11,3.87,6.67,9.37,10.39,14.8.23-10,.77-18.16.92-26.6,2.61-5.22,5.11-10.36,7.51-15.36,1.82,0,2.94-3.87,4.16-6.51s2.57-3.91,5,1.19c3.13,7.54,6.5,16.33,10,25,.51,18.48.89,38.59.94,57.65.82,19.45,6.88,13.7,9.7,29.53,3.42,1.16,6.81,2.13,10.24,3.16a25,25,0,0,1,6.84,2.19c2.46,1.09,5,2.34,7.84,3.73s5.78,2.82,9,4.13c1.58.64,3.25,1.28,4.89,1.81s3.34,1,5.07,1.37c4-1.44,7.22-5.17,10.64-7.77s7-4.16,12-1.6c1.45-5.84,3.19-11.69,4.48-17.45,1.62.05,2.85.13,4,.12C738,666.15,743.65,671.7,749.18,676.69Z"/><path class="cls-7" d="M557.05,376c.31-1.24.6-2.45,1-3.73s.79-2.56,1.21-3.82.85-2.45,1.27-3.66.85-2.32,1.28-3.44c-.33.55-.92,1.6-1.7,3-.43.76-.86,1.53-1.31,2.31l-.36.64-.18.33,0,0c.94-1.79-1.28,2.46-1.05,2h0v0l.07-.15-3.16,5.88c-1.12,2.06-2.27,4.12-3.35,6-2.15,3.76-4,6.9-4.85,8s-.54.19,1.71-3.89c.4-1.1,3.5-6.29,7.29-12.47,1.4-2.29,2.88-4.72,5-8.14l-.07.11c.3-.51.63-1,.87-1.4l.27-.41.05-.07h0c-.35.52-.7,1.06-1.09,1.66l-3,4.54c-3.92,5.91-4.12,6-3.4,4.82s2.35-3.67,1.88-3.08l3.94-5.67,2.73-3.88.19-.26.34-.47.47-.61-2.82,3.5-2.93,3.52c-1.79,2.1-3.17,3.63-3.57,4s.19-.52,2.31-3c1.06-1.26,2.51-2.94,4.44-5.11l2.68-3-.06.07-1,1c-2.14,2.25-4.42,4.58-6.79,6.92-2.18,2.13-4.42,4.22-6.54,6.13s-4.07,3.56-5.75,4.92c6.22-6,11.2-10.65,15.55-14.7l2.48-2.3-.08.07-.15.15a95.55,95.55,0,0,1-18.58,12.8c-1.31.69-5.37,2.8-8.5,4.08-2.56,1.11-1.54.64-4.49,1.82l-1.53.55-.87.3-.77.27c-1,.35-1.76.58-1.57.52l-2.3.71c-1,.3-2.42.66-4,1.08-.48.12-1,.23-1.48.33s-1,.24-1.8.4l-2.45.44c-1.78.27-3.13.46-4.14.53-.5.06-1.36.14-2.08.16-.49,0-.86.06-1.35.06h-1.1l-.56,0-7.91-.27-2.8-.12-5.67-.35c-1.89-.13-3.84-.34-5.72-.48-7.66-.76-15.2-1.81-22.09-3.16L454,380.91c-.82-.18-1.63-.38-2.45-.58l-1.21-.32-1.13-.27c-1.51-.36-3-.79-4.49-1.24s-2.75-.79-4.1-1.24l-1-.35-.92-.29c-.61-.2-1.22-.41-1.82-.63-1.15-.43-2.28-.85-3.39-1.28-.53-.2-1.05-.41-1.57-.63s-1.07-.49-1.49-.65c-.9-.37-1.78-.76-2.64-1.19l-1.95-.94c-.63-.31-1.29-.67-1.94-1s-1.12-.6-1.69-.93l-1.56-.95s-.5-.3-1.19-.78l-1-.67c-.16-.12-.33-.25-.51-.37l-.27-.21-.14-.11-.06-.05,0,0,.64.49c.54.39,1.06.81,1.55,1.22l.71.62.91.76c.57.5,1.07,1,1.48,1.37l.29.28.34.32.56.52a148.1,148.1,0,0,1,12.9,14.59l1.26,1.64.77,1c.27.37.51.72.9,1.22,1.44,1.87,3.08,4.1,4.74,6.56.37.57,1,1.38,1.48,2.1l1.57,2.28c1,1.54,2.08,3.12,3.1,4.73l.39.61.47.71.93,1.42,1.83,2.85c1.2,1.9,2.37,3.81,3.47,5.68,2.91,4.67,5.12,8.42,7.16,12,.27.47.56,1,.87,1.55s.79,1.35,1.19,2.05l1.48,2.47.29.5.35.48.7.95a42.18,42.18,0,0,0,2.93,3.68c.5.6,1.15,1.17,1.68,1.71a21.25,21.25,0,0,0,1.75,1.64l1.88,1.62c.63.54,1.39,1,2.07,1.59,1.83,3.47,3.64,6.92,5.25,10.37,2.78,3.89,2.23.51,2.47-1.56.13-1.05.48-1.78,1.53-1.18s2.8,2.55,5.61,6.65c2.14.43.22-6.58-.21-11.33-.22-2.38-.07-4.19,1.07-4.29a4,4,0,0,1,2.5,1.25,38.87,38.87,0,0,1,4.31,4.57c1.67-.33-.7-8.63-2.37-15.54s-2.69-12.5,1.39-7.67l4.62,6.54c1.47,2.05,2.89,4,4.16,5.45,1.12-.91.29-7.19,0-12.32s-.16-9.24,2.46-6.43a48.64,48.64,0,0,0,4.52-3.59c.27,6.06,2.1,13.26,3.43,19.17s2.23,10.64.78,11.65c-2.68.55-5.38,1.82-8.22,1.87-.54,2.41,1.17,10,2.62,17s2.6,13.16.64,12.45c-1.45.08-3.27-1-5.2-2.21.35,2.4.66,4.56,1,6.69s.57,4,.82,6c-.84.67-1.82,1.46-2.68,2.06-.6.43-.61,2.21-.19,5s1.27,6.52,2.26,10.64,2.08,8.46,3.35,13.59c.58,2.38,1.15,4.78,1.69,7.14.23,1.19.66,2.31,1,3.44s.66,2.16,1,3.3c2.59,5.88,5.2,11.79,7.87,17.52l3.92,8.48,1,2.07.24.52.11.25-.08-.19-.34-.73c-.44-1-.88-1.93-1.32-2.87-3.07-6.68-6.31-13.62-9.65-20.66l-5.07-10.63q-1.87-4-3.76-8c-2.42-5.14-4.88-10.27-7.33-15.28-2.39-4.85-4.74-9.6-7-14.16-3-6.27-6.68-13.59-10.88-21.65l-1.6-3.05-1.25-2.48q-1.29-2.49-2.62-5.09-2.7-5.18-5.7-10.64c-1.68-3.09-3.4-6.27-5.16-9.49-1.69-3.06-3.48-6.2-5.29-9.27q-2.17-3.92-4.5-7.81L458.88,419l-.6-1-.55-.91-1-1.63c-1.23-2-2.53-4.11-3.89-6.22l-2.06-3.13-1.76-2.75q-1.82-2.76-3.79-5.52c-.35-.49-.6-.87-.87-1.26l-.81-1.19-1.68-2.35-1.51-2c-.5-.67-1-1.36-1.41-1.88-.82-1.12-1.66-2.22-2.54-3.33l-1.35-1.66c-.22-.27-.5-.59-.67-.82l-.58-.73c-.78-1-1.62-2-2.55-3a91,91,0,0,0-13.41-13.09,61.24,61.24,0,0,0,11,6.29l3.38,1.46c.72.3,1.09.44,1.56.62s1,.34,2.21.84c.61.22,1.36.5,2.31.82l3.78,1.24c1.09.35,2.09.6,3.23.94s2.27.66,3.38.94l1.64.4c.59.14,1.16.29,1.73.44,1.14.28,2.25.53,3.32.75,3.93.88,7.38,1.46,11,2.07l5.38.78c.92.13,1.86.25,2.81.36l1.45.15,1.53.19c1.86.22,3.75.39,5.67.54s3.91.34,5.86.45,3.94.26,5.88.32l8.54.29h.87c.44,0,.86,0,1.25,0l1.48-.08,1.74-.16c.13,0,.89-.09,1.59-.2l1.15-.15.64-.1.67-.12,1.88-.34c.66-.12,1.26-.27,1.87-.41s1.25-.27,1.84-.41l.88-.23.43-.12.49-.13c.66-.16,1.3-.34,1.94-.53l1-.3,1.08-.32c1.08-.33,2-.68,3.08-1s2.11-.76,3.09-1.16,2.09-.81,3.06-1.24,2-.85,2.92-1.28a110.41,110.41,0,0,0,16-9.09c1.1-.8,2.14-1.49,3.08-2.23s1.79-1.37,2.53-2c1.48-1.19,2.55-2.17,3.26-2.83.44-.4.84-.81,1.11-1.07l.66-.68.23-.26-.33.4-.35.46-.47.64c-.53.76-.07.09-.86,1.23-.12.2-.25.39-.38.59-.87,1.31-1.83,2.93-2.94,4.92l-.55,1-.14.27-.07.13,0,.07,0,0h0l14.6-27.94v0l.34-.63c.45-.83.87-1.66,1.25-2.44.08-.16.16-.33.23-.5l.06-.12,0-.06s0,0,0,0l-.09.19-.72,1.49c-.46,1-.93,2-1.4,3q-1.38,3-2.69,6c-1.75,4-3.29,7.88-4.81,11.77,1.74-3.3,2.48-4.37,2.7-4a3.42,3.42,0,0,1,.18,1.31c0,.71-.07,1.6-.19,2.74s-.29,2.46-.33,3.7-.05,2.47,0,3.62a21.77,21.77,0,0,0,.25,3,5.42,5.42,0,0,0,.26,1,1.4,1.4,0,0,0,.46.52c.61-.68,1-.55,1.27.16a17.56,17.56,0,0,1,.45,3.87c.2,3.42.4,8.12.75,12.56a51.43,51.43,0,0,0,.78,6.11,14.11,14.11,0,0,0,1.39,4.07c.54,1,1.17,1.4,1.88,1.08a3,3,0,0,0,1.13-1.06,14.14,14.14,0,0,0,1.33-2.44c1.33,5.42-2.4,26.63.76,23.42a4.9,4.9,0,0,1,2.5-2.12,2.55,2.55,0,0,1,2.58.79c1.74,1.56,3.42,5.26,5.42,10.5a223.37,223.37,0,0,1,6.27,21.47c2.28,9,4.69,19.67,7.15,32.09-3.84,1.06-7.77-.44-11.33-3.36a48.27,48.27,0,0,1-5.23-5c-1.69-1.84-3.25-4-4.8-5.9-.77-1-1.53-1.93-2.28-2.81s-1.51-1.68-2.25-2.42a15.4,15.4,0,0,0-4.31-3.54,6.33,6.33,0,0,0-2.22-.65,6.76,6.76,0,0,0-2.31.26c-1.54.48-3.19,1.65-5.06,3.91,3.19-19.82.23-16.34,4.25-37.07-.33-3.14-.63-4.83-1.09-5.48s-1-.33-1.66.4c-1.27,1.46-2.88,4.52-4.3,4.47a133.35,133.35,0,0,1,3.6-17.91c-.23-2.16-.21-5.41-1-4.42s-2.51,6.27-6.06,21c-2.81,8.48-2.33,3-3.1,2.38-.18-4.46-.19-8.91-.09-13.28.06-2.19.13-4.34.27-6.51s.39-4.4.64-6.56c.48-4.27,1-8.3,1.72-12.36S556.05,379.81,557.05,376Z"/><path class="cls-3" d="M576.93,625.72c-3-.8-6-1.71-9-2.79a47.48,47.48,0,0,1-4.39-1.84c-.73-.34-1.45-.71-2.17-1.1s-1.42-.85-2.13-1.32c-.3,10.48-.76,22.48-.55,33.16-3.75-3.2-7.06-6.07-10.66-9.25,2.66-8.58,5.45-18.66,8.17-26.81-2.62-8.07-5-16.16-6.88-24,1.93-11.06,3.54-20.61,5.38-31.72.79,1.09,1.61,2.11,2.42,3.17,1.76,9.72,4,17.88,6.18,25.6,2.15,5,4.43,9.86,6.8,14.92q3.69,7.92,7.37,15.77C577.34,621.12,577.07,624.12,576.93,625.72Z"/><path class="cls-3" d="M558,368.13c1.11-2,2.07-3.61,2.94-4.92.13-.2.26-.39.38-.59l-.17.27c-.31.48-.6.94-.91,1.41l-1.07,1.77-1.24,2.18Z"/><path class="cls-3" d="M290.7,540.27c-4.36-.78-14.4,2.38-20.95,2.48-3.28.07-5.62-.67-5.91-2.9s1.53-6,6.72-11.83c9.18-4.77,15.15-5.66,21.15-5.62,3,0,6,.29,9.46.39a74.46,74.46,0,0,0,12-.62Q301.86,531.11,290.7,540.27Z"/><path class="cls-3" d="M218.23,460c-3.42-1.31-11.13-1.15-16.66-2-2.75-.44-5-1.14-5.82-2.39s-.27-3.05,2.47-5.59c8.92-3.85,18.15-8.22,35.49-13.19a199.43,199.43,0,0,1,26-10.73c3.72,5.63,31-.95,26.13,6.5q-3.72,5.71-8.16,12.13c-3,4.29-5.92,8.68-8.87,13.13C252.08,459,235.14,459.56,218.23,460Z"/><path class="cls-3" d="M524.28,382.75l-1.08.32-1,.3c-.64.19-1.28.37-1.94.53l-.49.13-.43.12-.88.23c-.59.14-1.2.28-1.84.41s-1.21.29-1.87.41l-1.88.34c.25,0,.54-.11.82-.15,1.47-.24,2.69-.54,4.28-.89.53-.13,1.05-.26,1.55-.4l1.67-.44c1.11-.31,2.13-.65,3.34-1Z"/><path class="cls-3" d="M461.7,392.58c3.48,0,7-.08,9.6-.13,1.33,0,2.44,0,3.28,0a3.82,3.82,0,0,1,1.55.21c.3.25-1,.76-4.73,1.73s-9.83,2.4-19.16,4.31c1.63-1.2,3.17-2.29,4.74-3.3S460.19,393.46,461.7,392.58Z"/><path class="cls-3" d="M90.73,413.84c1.44-2.21,2.88-4.38,4.34-6.53s3-4.28,4.46-6.37c3-4.19,5.94-8.23,9-12.17s6.2-7.79,9.36-11.52c1.59-1.86,3.18-3.71,4.76-5.57s3.24-3.75,4.86-5.58c-3.91-1.93-8.18-4-12.35-6.35a98,98,0,0,1-11.83-7.47c6.11-5.09,10.37-9.38,13.27-13.52a28,28,0,0,0,3.2-5.72,16.77,16.77,0,0,0,1.22-5.23,12.62,12.62,0,0,0-2.93-8.67,22,22,0,0,0-8.79-6.19,374.23,374.23,0,0,1,18.13-48.08c8.06,1.53,14.81,2.5,22.07,5.1,5.45-6.63,11.36-13.46,17.73-20.16s13.22-13.19,20.13-19.27l3.63-3.18,3.69-3.12c2.45-2,4.88-4,7.33-5.94s5.06-3.87,7.63-5.75l3.89-2.81,4-2.71c2.44-3.49,5-7.08,7.43-10.32,1.26-1.65,2.51-3.3,3.77-4.94l1.93-2.43,1.9-2.3,3.85-4.56c1.29-1.52,2.61-3,3.86-4.43l3.84-4.24L246,171.7l1.92-2c2.51-2.62,5.1-5.27,7.66-7.79s5-4.83,7.57-7.2,4.93-4.44,7.46-6.63,4.81-4.11,7.34-6.06c4.9,3.09,9.45,6.29,13.92,9.41l6.58,4.69c2.13,1.58,4.19,3.19,6.25,4.79,4.1,3.19,8.13,6.36,12,9.57s7.65,6.52,11.41,9.79l2.73,1.64,2.35,1.47a45.44,45.44,0,0,1,4.39,3.14c3.15,5.88,6.44,10.64,10.16,16.59,2.64,7,2.48,11.72,3.66,16.59a24.52,24.52,0,0,0,3.17,7.7,55.68,55.68,0,0,0,7.91,9.52c7.4,13,15.28,27.1,22.55,40.11-.86,1-1.13,3.18-2,4.19-7.72-6.92-14.76-10.67-21.65-12.82s-13.66-2.47-21.2-2.42c9.31,14.69,7.09,18,2.31,21.16-2.36,1.67-5.4,3.25-7.48,6.16a11.69,11.69,0,0,0-2.17,5.28,16.08,16.08,0,0,0,.8,7.5c-2.19,1-4.28,2-6.42,3.11s-4.2,2.28-6.32,3.52c-1.33.78-2.58,1.59-3.86,2.4s-2.56,1.66-3.78,2.52c-2.45,1.7-4.92,3.5-7.23,5.33-4.75,3.7-9.16,7.58-13.56,11.71-4.78,1.8-11.81,3.65-15.05,6.43-1.66,1.4-2.34,3-1.31,4.81s3.71,3.87,8.95,6.08c-5.48.88-9,2.3-10.93,3.92a5,5,0,0,0-1.93,5.39,14.17,14.17,0,0,0,3.71,5.66c1.8,1.84,3.95,3.58,5.83,5.18,7.54,6.44,11.12,10.16-29.38,11.95-2.31,1.65-4.58,3.3-6.84,5l-6.81,5.11c-4.62,3.48-9.44,7.13-14.59,11.1-16.59-3.58-25.88-9.41-30.66-16.16-4.62-6.82-4.41-14.41-1.82-22.48s7.66-16.39,12.78-24.58l3.83-6.15c1.28-2.07,2.56-4.11,3.74-6.14a89.64,89.64,0,0,0,6.26-12.46c-20.54-2.9-23.26-8.15-21.89-15.19a54.76,54.76,0,0,1,1.43-5.35,51.51,51.51,0,0,0,1.56-5.76,18.8,18.8,0,0,0,.21-6,14.9,14.9,0,0,0-2.43-6.33c-6.54-1.34-13.31-2.39-20.24-3.2s-13.95-1.45-21-2A105.5,105.5,0,0,0,163,286.53c2.69,4.13,5.56,8.05,8.33,11.52a22.13,22.13,0,0,1-.64,8.29,34.13,34.13,0,0,1-1.43,4.16,43.74,43.74,0,0,1-2,4.12c-.74,1.38-1.56,2.79-2.44,4.22s-1.78,2.79-2.75,4.22l-6,8.75c-2,2.95-4,6-5.85,9a77.22,77.22,0,0,0-4.82,9.25,46.16,46.16,0,0,0-1.73,4.67,33,33,0,0,0-1.09,4.61,27.43,27.43,0,0,0-.36,4.6,20.92,20.92,0,0,0,.52,4.47c-3.38,4.65-6.5,9.12-9.58,13.77-1.55,2.32-3,4.67-4.46,7.05s-2.82,4.77-4.21,7.19c-5.62,9.71-10.83,19.75-16.18,30.18C102,422.36,95.73,417.68,90.73,413.84Z"/><path class="cls-3" d="M477.58,384.77l-1.53-.19-1.45-.15c-1-.11-1.89-.23-2.81-.36l-5.38-.78c-3.58-.61-7-1.19-11-2.07-1.07-.22-2.18-.47-3.32-.75-.57-.15-1.14-.3-1.73-.44l-1.64-.4c-1.11-.28-2.24-.59-3.38-.94s-2.14-.59-3.23-.94a174.5,174.5,0,0,0,23.66,5.44c3.15.47,7.13,1.1,10.42,1.41l1.94.24Z"/><path class="cls-3" d="M441.9,393.05l1.68,2.35.81,1.19c.27.39.52.77.87,1.26q2,2.76,3.79,5.52l1.76,2.75,2.06,3.13c1.36,2.11,2.66,4.19,3.89,6.22l1,1.63.55.91.6,1,2.36,3.89q2.33,3.88,4.5,7.81c1.81,3.07,3.6,6.21,5.29,9.27,1.76,3.22,3.48,6.4,5.16,9.49q3,5.46,5.7,10.64,1.33,2.6,2.62,5.09l1.25,2.48,1.6,3.05c4.2,8.06,7.85,15.38,10.88,21.65-3-6.27-6.68-13.59-10.88-21.65l-1.6-3.05-1.25-2.48q-1.29-2.49-2.62-5.09-2.7-5.18-5.7-10.64c-1.68-3.09-3.4-6.27-5.16-9.49-1.69-3.06-3.48-6.2-5.29-9.27q-2.17-3.92-4.5-7.81L458.88,419l-.6-1-.55-.91-1-1.63c-1.23-2-2.53-4.11-3.89-6.22l-2.06-3.13-1.76-2.75q-1.82-2.76-3.79-5.52c-.35-.49-.6-.87-.87-1.26l-.81-1.19Z"/><path class="cls-3" d="M447,390.55c-.53-1.93-1.26-4.15-1.85-6.44s-1.17-4.65-1.53-6.79c-.69-4.32-.47-7.85,2-8.75,3.27,8.09,6.08,15,9.37,23.14-1.49-.06-2.85-.22-4.26-.39l-1.94-.33C448.12,390.86,447.57,390.7,447,390.55Z"/><path class="cls-3" d="M349.87,82.88c5.44-.53,10.2-1.38,15.67-1.6,3.43,2.49,7.11,6,9.85,8.15A9.82,9.82,0,0,1,382,86.52a55.34,55.34,0,0,1,8.11.2c1.35.09,2.67.15,3.92.12a16.78,16.78,0,0,0,3.56-.29,6.63,6.63,0,0,0,4.94-3.88l9.93,3.78,4.83,1.87c1.61.62,3.18,1.2,4.79,1.91,6.39,2.8,12.61,5.56,18.72,8.33,3.19,1.46,6.33,3,9.46,4.62l9.25,4.73c6.08,3.08,12.08,6.26,18.14,9.64,3.78-3,7.68-6.15,11.72-8.78l10.12,9,9.84,9a58.05,58.05,0,0,0-6.8,10.58A24.36,24.36,0,0,0,491.33,130a30.18,30.18,0,0,1-5.82-2.69,38.65,38.65,0,0,1-7.6-6.26c.44,5.58.94,11.24,1.45,16.94A75.49,75.49,0,0,0,464,144.81c-2.43-.57-4.79-1.23-7-1.71-1.12-.21-2.2-.38-3.24-.48a16.45,16.45,0,0,0-3,0C447,143,444,145,442.47,151c-2-.64-4-1.4-6-2l-6.06-2c-4.06-1.34-8.19-2.74-12.29-3.83l-8.59-7.23-8.86-7.24c-6-4.93-12.26-9.84-18.85-15,1.12,4.1,1.93,7.09,2.76,10.15.25,2.8-.06,5.39.54,9.28-1.44-.61-2.86-1.17-4.29-1.74s-2.86-1.15-4.29-1.69c-5.81-5.92-11.49-10.94-17.27-16C355.93,103,353,93.46,349.87,82.88Z"/><path class="cls-3" d="M534.54,551.36c-1.55-1.21-2.54-1.32-3-.44a4.43,4.43,0,0,0-.38,1.73,15.3,15.3,0,0,0,.16,2.65,67.64,67.64,0,0,0,1.51,7.08c.33,1.26.63,2.55,1,3.75s.83,2.24,1.25,3.35c-.42-1.11-.83-2.22-1.25-3.35s-.68-2.49-1-3.75a67.64,67.64,0,0,1-1.51-7.08,15.3,15.3,0,0,1-.16-2.65,4.43,4.43,0,0,1,.38-1.73C532,550,533,550.15,534.54,551.36Z"/><path class="cls-3" d="M570.82,250.4a76.84,76.84,0,0,1,8.93-2.67c1.12,3.44,2.2,6.65,3.28,9.57-2.16.11-4.33.1-6.5.06s-4.33-.06-6.51-.18C570.27,255,570.52,252.9,570.82,250.4Z"/><path class="cls-3" d="M579,293.78c4.16-6.5,8.2-13.14,12.77-18.74.16,1.45,0,3.21.2,4.64l-3.13,4c-1,1.36-2.06,2.76-3.07,4.14l-3,4.15-3,3.89C579.64,295.1,579.18,294.6,579,293.78Z"/><path class="cls-4" d="M563,360.29l.33-.4-.23.26.22-.25,0,0Z"/><path class="cls-4" d="M505.65,386.35c-.39,0-.81,0-1.25,0h-.87l-8.54-.29c-1.94-.06-3.92-.21-5.88-.32s-3.92-.26-5.86-.45-3.81-.32-5.67-.54l.59.07c1.61.18,3.22.33,4.84.45s3.3.3,5,.4l5,.3,2.52.11,7.74.26c.37,0,.7,0,1,0h.63l.69,0C505.85,386.34,505.76,386.34,505.65,386.35Z"/><path class="cls-6" d="M681.35,578c-2.85-4.72-3.9-2.64-4.54,1.34s-.86,9.81-1.95,12.3q-4.59-2-9.12-4.22c-1.5-.73-3-1.47-4.49-2.24s-3-1.61-4.47-2.44c-1.26-12-2.73-25.27-4.23-38.46-1.91-11.1-3.46-21.85-5.34-32.91l6.38-5.36c3.06,3,6.11,6.26,9.29,9.46l4.84,4.81c1.65,1.63,3.31,3.27,5,4.89C675.6,542.26,678.41,559.42,681.35,578Z"/><path class="cls-6" d="M622.28,469.57c-.28-.34-.82-1-1.09-1.32-3.5-8.23-9.63-.26-9.64-31.42,1.59-4.32,3.11-8.51,4.54-12.6,1.44,6,2.95,12,4.37,18.84C621,451.5,621.71,461.26,622.28,469.57Z"/><path class="cls-6" d="M507.61,500.88c1.89-7,3.83-14.28,5.77-21.53,7.74-17.67,10.66-21.69,11.22-18.85s-.82,12.41-2,22.11C518,488.11,513.2,493.68,507.61,500.88Z"/><path class="cls-6" d="M489.61,512.56c-.59-2.71-1-4.86-2.47-5.11-.71-.13-1.74.23-3.09,1.18a48.56,48.56,0,0,0-5.54,4.91q.38-2.79.77-5.67c.28-1.86.56-3.74.83-5.62.56-3.67,1.05-7.05,1.42-10.05,4.7-7.22,9.35-14.43,14-21.76,6.23-4.83,7,1.49,20.16-17.52-.78,3.4-1.5,6.83-2.08,10.08s-1,6.31-1.25,8.9C504.85,486,497.75,498.61,489.61,512.56Z"/><path class="cls-6" d="M561.29,362.62c.79-1.14.33-.47.86-1.23l.47-.64.35-.46.3-.37-.4.5-.53.71-.76,1.07-.46.69Z"/><path class="cls-6" d="M505.65,386.35c.11,0,.2,0-.09,0,.45,0,1.3-.05,2-.12s1.55-.13,2.34-.24l1.07-.14,1.31-.19-.64.1-1.15.15c-.7.11-1.46.19-1.59.2l-1.74.16Z"/><path class="cls-6" d="M488.46,257.88c2.17-4.27,4.46-8.46,6.77-13.08,2-.54,4.09,1.06,5.9,3.24a26.71,26.71,0,0,1,4.07,7c-1.67,4-3.49,8.93-5,13.33,2.3,9,4.7,18.81,7.26,27.72-1.78-.08-3.63-.12-5.48-.18s-3.73-.16-5.53-.27c-2.74-3.6-4.54-8.53-6.42-13.89s-3.86-11.19-7.21-16.95C484.59,262.6,486.76,260.71,488.46,257.88Z"/><path class="cls-6" d="M477.91,121a38.65,38.65,0,0,0,7.6,6.26,30.18,30.18,0,0,0,5.82,2.69,24.36,24.36,0,0,1,11.17,7.35,58.05,58.05,0,0,1,6.8-10.58c1,.93,1.54,1.47,2.55,2.43a94,94,0,0,0,8,10.31,20.33,20.33,0,0,0,8,5.91,8,8,0,0,1,2.68,2.15c-1.28,6,7,9.64,8.47,15.79,1.58,5.29,2.65,10,3.71,14.61-.46,0-1.4.07-2.32.18-2.86-2.33-5.65-4.47-8.48-6.61s-5.66-4-8.65-6.25c-1.72-1.15-3.49-2.56-5.23-3.89a27.41,27.41,0,0,0-5.08-3.32c-3.21-1.43-6.05-1.12-7.62,4.73l-1.89-1.37-5.4-5.65c-1.8-1.84-3.59-3.62-5.4-5.43-3.64-3.63-7.33-7.19-11.23-10.92L479.36,138C478.85,132.28,478.35,126.62,477.91,121Z"/><path class="cls-6" d="M532.8,397.27c.45-1.54.78-3.9,1.34-6.44,2.27-2.78,4.74-4.65,6.68-9.62s3.55-11.89,4.52-23.42l5.48-6.52c.4,7.68.82,14.87,1.29,22.17-1,5.42-2.11,11.44-3,16.38-1.17,3.54-2.26,7.15-3.26,10.94-.49,1.9-1,3.8-1.46,5.7s-.93,3.82-1.41,5.59c-.94,3.6-1.86,7.1-2.79,10.47-.46,1.67-.94,3.28-1.42,4.81q-.37,1.14-.75,2.22c-.26.68-.53,1.32-.8,1.95C535.66,419.33,534.1,407.27,532.8,397.27Z"/><path class="cls-7" d="M503.44,161.43l1.89,1.37c2.4,2.93,4.77,6,7,9s4.43,6,6.46,8.82a52.2,52.2,0,0,0-8.29,0c-2.7.22-5.39.54-8.19.69-1.5-2.83-3-5.68-5-8.89,1-2,1.95-3.92,3-5.73S502.38,163.11,503.44,161.43Z"/><path class="cls-7" d="M513.91,274.19c2.55.32,5,.59,7.42.77s4.82.3,7.31.48c-2.65,5-5.18,10-7.53,11.76s-4.56.51-6.47-6.32C514.15,276.39,514,274.9,513.91,274.19Z"/><path class="cls-7" d="M553.58,203.91c1.85-1.34,4.14-.33,6.48,1.58a92.6,92.6,0,0,1,6.75,7c2.87,1.33,5.33,2.34,8.16,3.95,1.07,1.24,2.08,2.71,3.09,4.12-.48,1.89-.93,3.89-1.39,6-3.08-3.38-6.66-6.94-10.34-10.87a11,11,0,0,0-3.92.78C559.53,212.35,556.61,208.35,553.58,203.91Z"/><path class="cls-7" d="M565.52,183.08c-1.18-6.91-2.42-14.11-3.26-20.86a63.47,63.47,0,0,1,13.07,18.84c1.37,2.93,2.59,5.9,4,9.22s3,7.27,5.15,11.61c-1.37-1.39-2.87-2.82-4.37-4.16a54.51,54.51,0,0,0-4.4-3.29c.91,1.55,1.8,3.05,2.69,4.53l1.29,2.17,1.28,2.22c1.7,2.92,3.38,5.72,5.14,8.49l-.33.73c-1.36-1.78-2.6-3.33-3.75-4.68a44.62,44.62,0,0,0-3.19-3.48c-2-1.92-3.72-3.39-5.51-5.12a48.45,48.45,0,0,1-5.86-6.79,117.24,117.24,0,0,1-8.41-14.09A64.71,64.71,0,0,1,565.52,183.08Z"/><path class="cls-5" d="M794.74,834.42c.9,23.22-9.2,21.42-14.84,20.48-2.06,2.47-4.08,4.56-6.12,6.65l-3.17,3.13c-1.08,1-2.18,2.08-3.3,3.23a136.66,136.66,0,0,1-.8-13.65,51.42,51.42,0,0,1,1-10.9c1.37-5.91,4.14-8.51,9.42-5.29a73.15,73.15,0,0,1,9-2l4.45-.72C791.8,835.13,793.25,834.77,794.74,834.42Z"/><path class="cls-5" d="M704.2,541.72c-1.94,5.18-4.3,10.3-6.48,16.81-7.24-10.5-14.79-20.64-21.77-31.31a105.58,105.58,0,0,1,1-20.53,22.74,22.74,0,0,1,6.18,3.83,39.84,39.84,0,0,1,3.23,3.09c1.09,1.14,2.2,2.41,3.33,3.83C694.23,523.1,699,531,704.2,541.72Z"/><path class="cls-3" d="M308.21,583.55c-1.73-1.32-4.69-1.08-7.66-.85C303.52,582.47,306.48,582.23,308.21,583.55Z"/><path class="cls-3" d="M454.31,425.39c-4.18,1.86-8.28,3.64-14.12,6.48.36-.65.75-1.31.88-1.61-2.62-1.17-4.88-2.8-7.46-4.14a46.76,46.76,0,0,1,1.85-5.2c.78-1.73,1.51-3.41,2.41-5.05s1.71-3.22,2.64-4.73l1.31-2.22c.41-.72.77-1.41,1.18-2.08,1.16-1.16,2.25-2.22,3.34-3.24s2.29-2,3.49-3c3.87-.26,8.1-.72,12.35-1.3s8.56-1.27,12.42-2l8-2.26a1.81,1.81,0,0,1,1.13.7,1.63,1.63,0,0,0,1,.73A134.45,134.45,0,0,0,469,406.17c-3.14,1.74-4,2.54-3.43,2.67s2.57-.38,5.09-1.22c5.05-1.66,12.22-4.59,14.73-5.48-4.66,3-9.9,6.59-15.22,10.53S459.48,420.93,454.31,425.39Z"/><path class="cls-3" d="M453.58,426.63c.22-.33.58-.94.73-1.24C454.16,425.69,453.8,426.3,453.58,426.63Z"/><path class="cls-4" d="M585.78,212.58l.33-.73Z"/><path class="cls-6" d="M457.6,628.62c-.54-.91-.83-1.34-1.34-2.29C456.77,627.28,457.06,627.71,457.6,628.62Z"/><path class="cls-7" d="M517.08,413c.7-5.06-.09-9.87-.52-15a44.89,44.89,0,0,1-.06-8,27.4,27.4,0,0,1,.72-4.17,29.29,29.29,0,0,1,1.48-4.48c3.75,2.93,5.11.59,6.84-2.36.42-.76.87-1.55,1.35-2.41a22.9,22.9,0,0,1,1.63-2.56,13.15,13.15,0,0,1,5-4.22c.21,7.56.33,13.81.66,21-.56,2.54-.89,4.9-1.34,6.44a5,5,0,0,0-2.34-2.19c-.66-.2-1.21.12-1.69.83-1,1.38-1.59,4.39-2.3,7.62s-1.49,6.73-2.84,8.91C522.23,414.45,520.34,415.4,517.08,413Z"/><path class="cls-7" d="M517.4,418.36c0-1.1-.09-3.31-.32-5.36C517.31,415.05,517.37,417.26,517.4,418.36Z"/><path class="cls-7" d="M558,368.13l-.07.12Z"/><path class="cls-7" d="M518.83,180.64c1.73-1.61,3-3.42,4.39-4.6,2.9,1.64,5.68,3.32,8.41,5s5.48,3.64,8.27,5.68c2.89,4.71,5.29,8.56,7.61,12.58-.54,1.4-1.44,2.1-1.93,3.14-7.69-2.51-12.68-5.33-16.61-9S522.21,185.34,518.83,180.64Z"/><path class="cls-3" d="M300.55,582.7c.36-3.31-5.55.77-10.48,2.46-2.46.84-4.69,1.11-5.7-.45s-.81-4.93,1.67-11.12a105,105,0,0,1,2.19-10.73c.92-3.74,1.84-7.47,2.51-11,13.19-5.68,23.38-10.5,34.89-16.4-.06,1.7-.05,3.4,0,5.66-4.21,4.59-8.44,9.25-12.6,14,.07,1.78.19,3.53.38,5.88C309.38,567.54,305.63,574.79,300.55,582.7Z"/></g></g></g></g></svg>