<svg xmlns="http://www.w3.org/2000/svg" viewBox="0 0 467.38 418.68"><defs><style>.cls-1,.cls-3{opacity:0.9;}.cls-2{fill:#ddeafc;}.cls-3{fill:#a0c4f7;}.cls-4{fill:#b5d1f9;}.cls-5{fill:#cbdffb;}.cls-6{fill:#ecf3fd;}.cls-7{fill:none;stroke:#c6dbfa;stroke-width:0;}.cls-8{fill:#f9fbff;}</style></defs><g id="圖層_2" data-name="圖層 2"><g id="圖層_1-2" data-name="圖層 1"><g class="cls-1"><g class="cls-1"><path class="cls-2" d="M419.53,272c1.59-1,3.73-5.09,5.45-11.19a60.19,60.19,0,0,0,1.9-22.59,57.93,57.93,0,0,0-3.94-15.34,64.8,64.8,0,0,0-7.26-13c-5.39-7.46-11-12.25-12.66-14.14a74.16,74.16,0,0,0-16.66-12q-2.76-1.5-5.8-3c-1-.49-2-1-3.09-1.46l-3-1.35c-3.11-1.34-6.25-2.59-9.32-3.75-3.52-1.36-4.91-1.75-7.08-2.66s-4.1-1.77-6-2.77a56.55,56.55,0,0,1-8.56-5.46,5.24,5.24,0,0,0-.91-.58c-.09,0-.22-.07-.27,0h-.06l-.08,0-.61.24c-.38.15-.76.28-1.16.4a17.28,17.28,0,0,1-3.12.74,6.14,6.14,0,0,1-.68,0h0l.25,0,.38.06.46.1c.19,0,.48.09.69.15l.34.1.16.06.08,0-2.14-.65h.08c.26.08.51.16.74.25s.64.23.93.36l1.08.46.57.27,0,0h0s0,0,0,0l-.06-.08a.64.64,0,0,1,0-.32,3.66,3.66,0,0,1,.33-1,24.63,24.63,0,0,1,4.4-5.7c1.71-1.69,2.76-2.54,3-2.29.49.88,2.58,1.59,5.49,2.14.73.13,1.49.26,2.33.38l1.27.16.66.08a1.42,1.42,0,0,0,.43,0l.48-.09c2.61-.5,5.64-1.19,8.84-2A200.65,200.65,0,0,0,388,149.94c3.42-1.32,6.7-2.73,9.62-4.13a62.7,62.7,0,0,0,7.41-4.17,222.75,222.75,0,0,0,26.12-20.42,132,132,0,0,0,18.21-20.45,89.31,89.31,0,0,0,10.21-18.55,65.93,65.93,0,0,0,4.26-16c1.87-9.73.24-10.7,3.44-15.57.55-1-.77-2.29-1.92-5s-2.14-6.5-1.17-13c.21-1.11.48-2.34.82-3.63.17-.64.35-1.29.55-1.95l.15-.5c0-.14.17-.38,0-.41l-.43-.45c-1.12-1.19-2.19-2.44-3.29-3.65-2.23-2.41-4.55-4.71-8.59-5.58l-.41,0c-7.42.35-17.58.49-28.84.5s-23.61-.11-35.58-.19c-23.94-.25-46.36-.28-57.66,0l-14.54.47c-4.47.14-8.61.24-12.51.3l-10.6.11c-3.07,0-6,0-8.94-.06a273.43,273.43,0,0,1-35.16-3.28c-19.39-3.61-35.62-2.39-55.54-4.24-10.46-.78-19.44-1-28.42-1.35s-18-.5-28.43-1.18c-9.85-1.19-19.32-2.11-29-2.81S88.33,3.76,77.73,3.63A35.45,35.45,0,0,0,70,4.72c-2,.66-7.48.29-10.31.5C42.6,3.72,27.1-.44,10.31.24,5.67.39-1.21,2,.18,3.68c7,8.42,20,14.7,35,20.43,14.2,5.27,32.47,5.65,51.3,7.39a101.4,101.4,0,0,1,33.45,8.61,105.23,105.23,0,0,1,23.35,14.62c8.72,8,15.19,20.1,37.1,20.48,25.69,0,49.33-5,75.38.21,9.07,1.94,17.23,3.87,25.45,5.59l6.19,1.25,3.13.6,1.58.29c.36,0,.28.08.38.12l.18.1a28.5,28.5,0,0,0,2.87,1.44c.37.55,2.61,2,1.75,2.16.14-.23.2-.23.22-.21s0,.06.21-.09a63.61,63.61,0,0,1,8.19-4.48,14.46,14.46,0,0,1,3.93-.8,17.38,17.38,0,0,0,3.06-.23c.39-.07.83-.15,1.37-.27a1.6,1.6,0,0,1,.63,0l.6,0c.88,0,2.1,0,3.73-.11,6.49-.38,11.87.87,14.09,3.43a4.87,4.87,0,0,1,1.06,4.62,13.33,13.33,0,0,1-3.65,5.78,57.64,57.64,0,0,1-7.55,6.74c-1.41,1.08-2.88,2.12-4.37,3.12-.75.51-1.51,1-2.26,1.47l-2.33,1.45a53.47,53.47,0,0,1-6.19,3.67c-2.8,1.57-6,3.06-9.85,5.52-1.93,1.21-4,2.61-6,4.18a67.94,67.94,0,0,0-6.1,5.31,64.72,64.72,0,0,0-9.29,11.44c-.46.7-.91,1.51-1.35,2.3s-.87,1.61-1.28,2.5-.81,1.78-1.17,2.68-.69,1.82-1,2.76a54.79,54.79,0,0,0-2.61,12.44,59.29,59.29,0,0,0,3.76,26.39,61.45,61.45,0,0,0,5.32,10.71c1,1.54,2,3.09,3,4.44.52.68,1,1.38,1.57,2l1.58,1.86a65.82,65.82,0,0,0,12.25,10.88,116.33,116.33,0,0,0,18,9.15,155.1,155.1,0,0,0,17.74,6c.75.22,1.51.42,2.27.61s1.62.44,2.13.52l3.54.71c2.32.47,4.57.94,6.77,1.44l1.63.37.2.05h.12l.24,0,.49.05c.67.08,1.35.16,2,.28a42.84,42.84,0,0,1,4.29.91,12.14,12.14,0,0,1,4.55,3.65c1.22,1.49,2.28,3.1,3.62,4.76a29.93,29.93,0,0,1,6.11,8.19,30.46,30.46,0,0,1,2.67,8.75c.25,1.56.42,3.19.53,4.91,0,.43.05.86.07,1.3l0,.66,0,.34,0,.18a.27.27,0,0,1,0,.11v.28l0,.58-.07,1.15c-.05.76-.11,1.53-.16,2.31a173.27,173.27,0,0,0-1.53,22.84,158.67,158.67,0,0,0,.8,16.33,98.89,98.89,0,0,0,3.24,17.5c2,6.45,2.63,4.71,2.52,6.15a16.35,16.35,0,0,1,0,4.58c-.2,1.41-.54,2.75-.85,4.15-.16.7-.33,1.42-.48,2.17l-.11.57,0,.29s-.07,0-.09.08c-.09.27-.18.54-.25.82a11.7,11.7,0,0,0-.36,3.7,34.17,34.17,0,0,0,3.84,10.85c1.83,3.53,3.8,7.15,5.19,10.4a21.23,21.23,0,0,1,1.58,6.4,13.54,13.54,0,0,1-.95,6.24c-1.46,3.44-4.19,5.92-7.32,8.25a81.67,81.67,0,0,1-10.79,6.78A92.06,92.06,0,0,1,355,407.54c-1.13.4-2.34.78-3.57,1.15s-2.47.71-3.71,1c-2.5.63-5,1.17-7.61,1.59,1.78.37,2.72,1.35,4.47.9l14.27-2.51c4.76-.86,9.6-1.78,14.54-2.81s10-2.21,14.91-3.66,9.88-3.18,13.91-6.42a19.57,19.57,0,0,0,2.48-2.42L405.8,393c.33-.47.63-1,.95-1.44a22.92,22.92,0,0,0,2.53-6.31,41.33,41.33,0,0,0,.6-13.63,147.79,147.79,0,0,0-2.5-14.86q-.87-3.93-1.74-8-.45-2-.9-4.08c-.23-1.19-.46-2.4-.69-3.61A62.65,62.65,0,0,1,400.66,329c-.73-7.77-1.36-14.8-1.6-21.88.07-6.15,3.29-14.3,7.56-20.63,1.08-1.58,2.2-3.06,3.29-4.4a42.89,42.89,0,0,1,3.36-3.53l.4-.37.2-.18.24-.36.47-.7c.15-.21.3-.37.45-.55.58-.7,1.15-1.35,1.68-1.92A14.58,14.58,0,0,1,419.53,272Z"/><path class="cls-3" d="M87,31.34C68.16,29.59,49.9,29.21,35.71,24c-15-5.75-28-12-35-20.44C-.72,1.83,6.18.22,10.83.08c16.77-.69,32.27,3.47,49.4,5,2.82-.21,8.27.15,10.3-.51a35.45,35.45,0,0,1,7.7-1.09c10.61.14,20.44.57,30.09,1.21s19.11,1.63,29,2.82c21,1.32,35.92,1,56.86,2.54,19.91,1.85,36.15.63,55.54,4.25,6.46,1,12.36,1.73,18.08,2.25s11.29.89,17.09,1c2.9.07,5.87.09,8.94.06l10.7-.11c3.91-.06,8.06-.16,12.54-.29l14.61-.47c11.27-.29,33.57-.25,57.42,0,11.93.09,24.23.21,35.49.2s21.44-.13,28.94-.46l.24.1c4.09.85,6.41,3.17,8.64,5.62,1.1,1.23,2.16,2.5,3.28,3.71.5.13,0,1-.14,1.65s-.39,1.32-.56,2c-.34,1.31-.63,2.51-.83,3.64l-1.35,1.62c-.9,1.1-2.25,2.7-4,4.79-3.58,4.19-8.86,10.34-16.2,17.63a167.22,167.22,0,0,0,7-23l.33-1.5L450,32c.05-.09-.08-.06-.11-.09l-.17-.05-.34-.09c-.89-.26-1.81-.51-2.73-.74q-2.79-.72-5.76-1.3-5.94-1.17-12.64-1.85-41.36,1.63-73.43,4.38c-10.71.91-20.64,2-29.76,3.07-4.52.53-9,1.12-13.28,1.7s-8.41,1.19-12.38,1.79l-26-1.4-26.62-1.3Q220.2,34.92,193.56,34,140.3,32.07,87,31.34Z"/><path class="cls-4" d="M454.57,37s-.07.27-.19.78-.32,1.26-.59,2.18-.6,2.07-1,3.36-.88,2.71-1.39,4.27a157.21,157.21,0,0,1-9.31,21.55A82.07,82.07,0,0,1,435.34,80a61.4,61.4,0,0,1-8.11,9,38.75,38.75,0,0,1-4.16,3.27,22.29,22.29,0,0,1-4,2.14,8.54,8.54,0,0,1-6.82.24s-.3-2.8-.79-7.48c-.49-4.43-1.22-10-1.34-15.86,0-.37,0-.75,0-1.12a.74.74,0,0,0-.19-.53l-.31-.51c-.44-.7-.89-1.38-1.35-2-1-1.36-2-2.66-3.09-4a100,100,0,0,0-7.07-7.33l-1.79-1.73c-.6-.57-1.2-1.15-1.74-1.7l-.21-.21-.1-.11,0,0h-.09l-.18,0-1.39.18-2.7.35-5,.61a136.54,136.54,0,0,1-15.27,1.15c-.68,0-1.31,0-1.9-.06,0,0-4.95-.26-11.15-.52s-13.64-.48-18.78-.43a11.29,11.29,0,0,0-1.93-1.11A34.36,34.36,0,0,0,329.19,50a71.32,71.32,0,0,0-11.76-1.87c-2.25-.19-5-.29-7.81-.26s-5.66.19-8.54.51l-3.88.16-2,.08-.56,0h-.8l-1.69,0-7.86.1L264.47,49c-7.28.08-15.07.14-22.93.15-31.43.13-63.88-.09-68.06-3,0,0-12.33-1.23-26.23-2.92S117.89,39.26,111.64,37a72.68,72.68,0,0,0-12.15-5.82C92,28.3,81.72,25.51,70.56,26c0,0-16.82-3.27-29.37-6.56s-20.83-6.84-3.59-7.58c0,0,20-2.4,30.31-2.87,0,0,36.43,1.81,73.82,4.7s75.72,6.76,79.74,8.79c0,0,7.29,1,19.33,2.3s28.79,3,47.73,4.3l14.52.92c4.93.28,10,.53,15.11.72,10.28.4,21,.69,32.26.69s23.11-.12,35.72-.55,26-1.16,40.4-2.19c7.06.21,13.57.6,19.4,1.21,1.46.15,2.88.31,4.26.49l2,.28,1,.14a2.72,2.72,0,0,1,.15.71c.16,1,.34,1.94.54,2.87S454.32,36.14,454.57,37Z"/><path class="cls-5" d="M459,37.83s0,.65-.11,1.88-.28,3-.61,5.23A105,105,0,0,1,454,62.29c-.58,1.68-1.19,3.47-1.9,5.25L451,70.25c-.39.92-.86,1.84-1.31,2.77-.88,1.87-2,3.75-3.15,5.65s-2.51,3.81-4,5.71A67.27,67.27,0,0,1,437.68,90c-.9.92-1.77,1.83-2.75,2.74s-2,1.79-3,2.66l-1.55,1.28L428.73,98c-1.11.83-2.24,1.64-3.39,2.42a81.51,81.51,0,0,1-7.34,4.36l-1,.74-2.93,2c-1.24.88-2.76,1.93-4.59,3.1s-3.77,2.48-6.05,3.86a318.35,318.35,0,0,1-32.35,17.31c-5.55,2.59-10.76,4.84-15.2,6.57-2.24.86-4.26,1.61-6.1,2.19a42.31,42.31,0,0,1-4.82,1.25,6.57,6.57,0,0,1-3.15-.06,3.36,3.36,0,0,1-1.86-1.11,2.93,2.93,0,0,1-.54-2.13,5.51,5.51,0,0,1,.32-1.53,18,18,0,0,1,.9-2l7-12.85c2-3.71,4.25-7.86,6.32-12a120.33,120.33,0,0,0,5.44-12.48,50,50,0,0,0,2.82-11.49A31.25,31.25,0,0,0,361.73,76a50.17,50.17,0,0,0-3-9.09c-.13-.36-.31-.74-.46-1.1l-.21-.55s0-.11-.08-.13l-.33,0-.66.06-4.94.41c-3.12.23-5.89.38-8.36.44-1.25,0-2.42,0-3.51,0a5.33,5.33,0,0,0-.8,0,26.21,26.21,0,0,0-3,.42,82,82,0,0,0-14.3,4.19s-1.37.29-3.18.63a59.15,59.15,0,0,1-6.05.85,11.08,11.08,0,0,1-5.2-.59c-1.5-.65-2.24-1.84-3.93-4,0,0-1.2-.76-3.46-1.91-1.14-.57-2.54-1.24-4.21-2l-1.29-.55-.68-.28a4.29,4.29,0,0,0-.93-.29l-5.61-1.28c-7.68-1.7-16.06-3.41-23.94-4.58a121.52,121.52,0,0,0-20.87-1.67,85.65,85.65,0,0,0-10.6-3.43c-6.1-1.56-13.8-2.85-20.19-1.66,0,0,31.33-1.89,64.58-2.3l12.5-.09h6l4.56,0c3,0,6,0,8.94.08l4.27.1,2.06.08,1.86.09A95.9,95.9,0,0,1,329,49.22c3.09.57,5,1.34,5.33,2.32a21.36,21.36,0,0,0,2.11.68,50.18,50.18,0,0,0,6.28,1.25,90.77,90.77,0,0,0,10.94.78c4.6.08,10.25-.12,17.68-.65,4.29-.3,9.18-.73,14.88-1.31l9.19-1,1.24-.14c.14,0,.14,0,.16.06l.07.11.14.22.59.9c.41.62.81,1.22,1.2,1.84a150.68,150.68,0,0,1,9.81,16.56,5.6,5.6,0,0,1,1,.27,14.33,14.33,0,0,0,2.35.56,25.62,25.62,0,0,0,9.68-.61A36.29,36.29,0,0,0,429,68.44a48.8,48.8,0,0,0,8.84-5.5,56.92,56.92,0,0,0,4.91-4.2c.84-.79,1.7-1.64,2.57-2.53s1.73-1.87,2.61-2.88A101.76,101.76,0,0,0,459,37.83Z"/><path class="cls-6" d="M465.92,72.61c-.6,4.15-1.07,8.46-2.16,13.15a73.42,73.42,0,0,1-2,7.29c-.44,1.27-1,2.57-1.5,3.87l-.84,2c-.33.67-.67,1.35-1,2a69.1,69.1,0,0,1-8.08,10.49c-3.44,3.86-7.43,7.85-10.86,11.42a99.88,99.88,0,0,1-7.82,7c-1.41,1.13-2.82,2.25-4.25,3.34s-3,2.15-4.43,3.18c-2.89,2.08-5.89,4-8.66,5.77s-5.41,3.36-7.72,4.78C395.47,153.08,383.44,160,372,167.79c-1.4,1-2.91,2-4.15,2.91-.64.37-1.32.75-1.93,1.13-1.24.76-2.55,1.54-3.73,2.31-2.67,1.73-4.34,2.79-4.94,2.75l-.1,0-.05,0h0l-.24-.2q-.94-.8-1.92-1.56L353,173.6l-1.66-1.27-1.64-1.18c-.92-.68-2-1.38-2.86-2a49.89,49.89,0,0,0-7.91-4.39c-.38-.18-.83-.34-1.2-.48l-.45-.16-.24-.07-.12,0h-.07l2.14.65h0c-.26-.08-.53-.16-.82-.23l-.67-.15c-.92-.16-.95-.12-.84-.13h.27l.46-.05c.25,0,.85-.12,1.3-.24l.42-.1.47-.12,1-.3c.76-.23,1.36-.49,2.26-.83.41-.17.78-.34,1.18-.53s.9-.41,1.32-.62c.79-.43,1.82-.93,2.67-1.45,1.61-.88,4.62-3,3.22-2a2.31,2.31,0,0,0-.34.61,2.24,2.24,0,0,0-.06.68,2.72,2.72,0,0,0,.69,1.47,6.42,6.42,0,0,1,1.28.28,8,8,0,0,0,1.41.3,62.08,62.08,0,0,0,7.3,4.57c.68.34,1.36.67,2,1l1,.43,1.74.72c2.41,1,5,2,7.63,2.94,1.1.37,2.23.79,3.36,1.23l1.06.44,1.25.53,2.44,1.1c3.25,1.5,6.41,3.13,9.45,4.91a86.05,86.05,0,0,1,16.41,12.34,66.84,66.84,0,0,1,19,32.31,81.23,81.23,0,0,1,2.3,13.83,77,77,0,0,1-.59,15,95.49,95.49,0,0,1-3.38,14.89,61.71,61.71,0,0,1-3.07,8c-.26.58-.53,1.14-.8,1.68l-.41.8-.44,1-.11.25-.06.12,0,.05-.16.21-.32.4-.65.77c-1.79,2-3.6,3.63-5.38,5.29-3.54,3.34-6.94,6.88-8.27,14.2a67.54,67.54,0,0,0-1.26,17.32,109,109,0,0,0,2.35,16.7l.92,4.09c.34,1.35.69,2.71,1,4.07.43,2,1,3.82,1.51,5.76l1.56,5.77c.52,1.93,1.08,3.9,1.52,5.82s.86,3.86,1.26,5.8A61.83,61.83,0,0,1,415.5,377a51.81,51.81,0,0,1-.5,6.27,33.07,33.07,0,0,1-1.39,6.06A24.24,24.24,0,0,1,407,399.75a35.39,35.39,0,0,1-10.91,6.42,93.16,93.16,0,0,1-12.41,3.8l-19.16,3.42c-3.13.53-6.28,1.06-9.26,1.46s-5.77.71-8.65,1c-2.68.31-9.86-1.16-9.88-2,.83-1.43,7-2.58,10.38-4.35a26.63,26.63,0,0,1,6.52-2.29,28.6,28.6,0,0,1,5.61-.5c3.66,0,7.34.42,11.2,0a61.44,61.44,0,0,0,14.16-4.3c2.41-1,4.83-2.06,7.18-3.32a30.22,30.22,0,0,0,6.6-4.63c.41-.41.81-.81,1.18-1.24a25.35,25.35,0,0,0,4.09-5.1,35.23,35.23,0,0,0,2.73-5.54c1.26-2.72,1.13-6.64.09-10.92s-2.88-8.95-4.39-13.49a46.46,46.46,0,0,1-2.36-8.57c-.25-1.45-.51-2.91-.66-4.41-.09-.83-.13-1.45-.17-2.11l-.12-2c-.2-5.3-.14-10.63-.61-15.9-.54-7-1.87-13.44-2.63-19.74s-.9-12.39,1-18.15c-.87,2.45-1,1-.63-2.51.24-1.73.55-3.95,1-6.4.25-1.21.52-2.49.8-3.8.33-1.52.68-2.91,1-4.38.73-2.91,1.47-5.81,2.05-8.47s1-5.07,1.32-6.93.47-3.18.61-3.66.31-.11.36,1.4a6.12,6.12,0,0,1,.78-2.91,9,9,0,0,1,1.79-2.9c.78.08,2-.9,2.37.19,1.62,4.4,3.26,6.44,5.25,7.76s4.07,1.89,5.81,3.7a34,34,0,0,0,.78-5.57,64.2,64.2,0,0,0-.17-12.67,58,58,0,0,0-2.11-9.93,61.72,61.72,0,0,0-3.91-9.69,119,119,0,0,0-9.36-14.84,75.78,75.78,0,0,0-11.59-14,73.28,73.28,0,0,0-18.25-12.32c-3-1.07-5.18.09-8-.84A50.05,50.05,0,0,0,361.2,177l-.5-.13-.26-.06-.18,0-.77-.14c-.54-.08-1.11-.22-1.71-.33-1.2-.26-2.55-.56-4-.95a66.73,66.73,0,0,1-9.08-3.13,50.81,50.81,0,0,1-8-4.32c-1.06-.71-1.93-1.36-2.64-1.9s-1.26-1-1.73-1.39a4.45,4.45,0,0,1-1.4-3.85,14,14,0,0,1,2.54-5.89,16.2,16.2,0,0,1,3.39-3.77,26.58,26.58,0,0,1,6.93-2.87c2.16-.5,3.84-.37,4,.78,1.43,2.42,3.48,3.27,8.09,1.9,2.16-.53,4.54-1.25,6.87-1.87a32.18,32.18,0,0,1,6.64-1.17c1.74.22,0,3.4,1.72,3.65a53,53,0,0,0,12.18-3,71.4,71.4,0,0,0,14.94-7.39,210.09,210.09,0,0,0,25.31-17.61,112.58,112.58,0,0,0,18-18,183.59,183.59,0,0,0,13.84-16.62A175.32,175.32,0,0,0,465.92,72.61Z"/><path class="cls-7" d="M199.47,74.38s2.41-.38,6.61-.77,10.21-.78,17.38-.79c14.35-.06,33.41,1.36,52.1,7.16,0,0,7.9,1.63,16.67,3.24.18,0,.16,0,.2.06l.1.06.19.11.38.22.73.42c.47.27.91.51,1.31.71a3,3,0,0,0,1.87.47l.39.45.18.23c.07.08.14.15.08.22a6.23,6.23,0,0,1-.38.84l0,.08s0,0,.3-.28a14.85,14.85,0,0,1,2.12-1.36c1.23-.71,3.2-1.7,5.93-3.11,0,0,.69-.22,1.62-.47a22.37,22.37,0,0,1,2.94-.61c.77-.1,1.16-.05.51.28,0,0,0,0,.45,0A25.07,25.07,0,0,0,313.9,81l.32-.07.16,0H316l2.9,0c2.3,0,5.37,0,9.16.3"/><path class="cls-8" d="M397.69,179A97.12,97.12,0,0,1,419,199.28a73.82,73.82,0,0,1,10,17.68,64,64,0,0,1,3,9.81c.38,1.63.65,3.28.92,4.89s.39,3.22.5,4.79a67,67,0,0,1-3.23,25.47c-2.14,6.53-5,12.77-7.55,18.5-2,3.12-3.85,6.32-5.61,9.62a173.24,173.24,0,0,0-9.64,21.22,9.5,9.5,0,0,0,0,5c1.73,4.75,2.28,9.95,3,15.11.14,1.3.32,2.58.51,3.86s.35,2.53.62,3.76l.39,1.82.21.9.06.22.09.45.17.68c.44,1.76,1,3.47,1.61,5.14,1,2.89,2.17,5.67,3.3,8.57.27.73.55,1.46.82,2.2s.47,1.47.68,2.22A44.66,44.66,0,0,1,420,365.8a62.21,62.21,0,0,1,.35,19.91,32.15,32.15,0,0,1-2.89,9.18c-.38.72-.73,1.45-1.18,2.14l-.64,1c-.23.34-.5.66-.74,1a23.75,23.75,0,0,1-3.22,3.63,38.14,38.14,0,0,1-10.87,6.75c-1.94.85-3.95,1.59-6,2.27s-4.09,1.32-6.13,1.9c-4.16,1.11-8.31,2-12.38,2.74s-8,1.33-11.81,1.8c-1.41.16-2.77.29-4.11.38l-2,.12c-.65,0-1.33.06-1.88.05-2.3,0-4.56-.09-6.81-.19-4.51-.22-9-.57-13.77-.78-1.79-.38-4.75-.5-4.77-1.59-.62-.68,3.5-1.38,5.52-2.3,2.64-.25,5,.24,8.56-.14a76.36,76.36,0,0,0,10.25-1.56,78,78,0,0,1,10.35-1.64c7.07-.87,13.64-1,21.87-3.25,5.35-1.7,10-3.37,14.34-6.69a31,31,0,0,0,2.66-2.17,20.26,20.26,0,0,0,2.35-2.64l1-1.44c.3-.5.58-1,.87-1.53a24.34,24.34,0,0,0,2.26-6.53,42.7,42.7,0,0,0,.21-13.54c-.26-2.27-.65-4.55-1.1-6.87s-1-4.69-1.49-7.05-1.14-4.78-1.7-7.18-1.09-4.82-1.64-7.24c-.14-.25-.27-.47-.4-.75l-.1-.27-.09-.16-.16-.29c-.22-.39-.41-.8-.6-1.22a18.93,18.93,0,0,1-.93-2.69,35.72,35.72,0,0,1-.93-6c-.13-2.09-.22-4.22-.18-6.29l0-3c0-1,0-2,0-2.89,0-2.26.6-4.41,1-7.14.28-6.7-.49-13.92,2.08-18.27l2.1-3.16,2.14-3.11c1.38-2.08,2.88-4.12,4.28-6.19l2.18-3.11.55-.78a4.72,4.72,0,0,0,.27-.43l.37-.84c.13-.31.24-.52.35-.74l.35-.67c.22-.46.45-.91.67-1.37a113.52,113.52,0,0,0,5.18-11.87,66,66,0,0,0,3.76-25c-.07-1.47-.21-3-.37-4.51s-.43-3.08-.77-4.63a57.81,57.81,0,0,0-2.7-9.37,68.15,68.15,0,0,0-9.61-17.17,91.58,91.58,0,0,0-22.37-20.6q-3.66-2.43-7.55-4.54c-1.3-.71-2.6-1.39-3.92-2.05l-2-1-1.73-.82c-3.64-1.72-7.11-3.14-10.33-4.43l-2.17-.87c-.45-.18-.92-.36-1.37-.56-.93-.38-1.83-.83-2.72-1.28a22.14,22.14,0,0,1-4.7-3.23c-.2-.22,1.78-.91,5.67-.4,1,.12,2.08.3,3.3.56.61.12,1.24.27,1.89.42a7.84,7.84,0,0,1,.78.24l.93.31,2,.71c1.39.51,2.91,1.1,4.54,1.77l2.56,1.09,1.34.6,1.56.72A135.43,135.43,0,0,1,397.69,179Z"/></g></g></g></g></svg>