<svg xmlns="http://www.w3.org/2000/svg" viewBox="0 0 2095.37 128.98"><defs><style>.cls-1{opacity:0.9;}.cls-2{fill:#fcfefb;}.cls-3{fill:#f9fef8;}.cls-4{fill:#fbfefb;}.cls-5{fill:#edfbea;}.cls-6{fill:#f0fced;}.cls-7{fill:#eefbeb;}.cls-8{fill:#f1fcef;}.cls-9{fill:#f5fdf4;}.cls-10{fill:#f4fcf2;}.cls-11{fill:#f7fdf5;}</style></defs><g id="圖層_2" data-name="圖層 2"><g id="圖層_1-2" data-name="圖層 1"><g class="cls-1"><g class="cls-1"><path class="cls-2" d="M927.88,11.93l9.55-.72c-28.35,0-58.58-.05-91.17-.24-42-.84-51.25,1.77-67.18,4.68C838,15.78,888.45,14.85,927.88,11.93Z"/><path class="cls-3" d="M1546.71,1l-33.34-1-7.21.11Z"/><path class="cls-2" d="M1104,3.77c-17.24,1.79,8.08,2.92,14.5,4.25,27.23-.73,58.65-1.32,97.24-1.7,40.08-.48,76-1.19,109.74-2-10.16-.57-22.36-1.39-19.36-2.12-13.82.39-13.82.39-3.77.92l-30.11-1.59c-37.67.24-59,2.45-52.75,3.9l-58.76-3.1q-19.14.4-37.42.86a84.59,84.59,0,0,0-9.25,1.13Z"/><path class="cls-2" d="M396.12,22.21c4.76-.15,9.54-.3,14.5-.43-17.25-.56-31.69-1.2-45.57-1.85q-24.48.74-48.76,1.5c7.78.31,15.67.68,23.09,1.06-6.72,0-13.49.08-20.21.14-9.23-.06-18.29-.15-26.46-.46l-1.7.06c-9,.29-17.95.58-26.68.88l26.84-.25c-5.17.88-26.37,1.78,9,2C333.32,24.65,361.6,23.32,396.12,22.21Z"/><path class="cls-4" d="M296.33,36.75c36.1-.11,72.58-.09,110,.14-20.09-1.06,35.15-2.6,15.06-3.66,190.83,1.15,272.4-6.8,389.15-8.44,119.69-2.11,163.93-6.29,255.57-8.95-17.18-.55-48.63-.44-53.45-1.55-23.25.65-29.38,1.4-18.84,2.26,2.13.16,4.36.32,7.54.49-3.18-.17-5.56-.33-7.54-.49-8.08-.63-9.77-1.24-11.81-2-3,.25-9.64.41-20.78.35-7.11-.14-10.76-.31-12.55-.48-85,2.47-174.59,4.7-304.32,4.82l-9.57.72c-39.43,2.91-89.9,3.85-148.78,3.72-9.72,1.78-22,3.67-45.8,4.95-50.07,2.09-112.35,3.93-174.94,5.82,13.91.65,28.35,1.28,45.65,1.84C305.93,36.45,301.06,36.6,296.33,36.75Z"/><path class="cls-5" d="M1167.67,129c198.38-.68,419.29-6.84,421.8-13.4,27.81-6.76,55.56-13.51,75.26-20.7-86.44,1-188.37.25-247.24-2.86-30.11-1.59,42.67-4.43,8.78-5.1-70.3-3.71-151.88-4.68-194.58-9.16-27.61.77-89.11.87-92.88,1.78-59,2.46-84.1,5.59-13.82,9.3,20.08,1.06-86.65,3.23-113,.72-25.1,3.14,15.07,5.26,17.57,7.62,21.36,6.7-168.21,2.26-274.93,4.43-28.89.35-49,.86-62.66,1.47,84.14,4.64,197.08,9,282.37,13.47,20.06,1.06-35.14,2.6-15.09,3.66C991.92,124.13,1092.35,129.43,1167.67,129Z"/><path class="cls-6" d="M1630.46,66.9c27.66,1.22,46.11,2.54,58.66,3.92,37-2.07,74.32-4.11,110.43-6.14-19.76-.55-39.28-1.13-59.15-1.64C1723.57,64.61,1690.09,66,1630.46,66.9Z"/><path class="cls-6" d="M650.47,97.2c95.4.58,102.91-1.26,182-2.65-60.26-3.18-38.93-5.4,54-7.18-23.85-.15-6.26-1.45-16.31-2,23.85.15,65.26-1,85.38,0-20.12-1.06,21.33-2.22-12.58-2.89,31.38-1.69,67.82,1.35,109.23.19-134.32-6,69-10.84,194.58-8.67,57.77.82,87.88,2.41,169.46,3.37s32.66,4,11.3,6.17c51.49-.63,76.57-3.76,130.58-2,32,1.68,73.53,3.55,122.86,4.7-11-4.6-74.59-10.19-41.26-12.65,16.31-1,32.83-1.89,49.42-2.82-12.55-1.38-31-2.7-58.66-3.92,59.63-1,93.11-2.29,109.94-3.86-24.2-.63-49-1.17-75.61-1.45-91.67-1.49-90.42,4.14-169.44,5.54-49-5.93-215.95-6.94-346.52-4.91-79.09,1.39-134.33,2.94-193.3,5.39-17.6,1.3-25.14,3.13,5,4.73-10-.54-40.17-2.12-54-1.74-48.95,3-151.9,4.24-119.26,8.19-23.86-.15-37.65.24-57.73-.82,40.15,2.12-89.16.87-49,3-65.26,1-198.35.67-185.77,3.56,6.77.82,5.92,1.43,2.18,2,40.08,2.07,71.64,4.32,83.18,7,8.31,1.92,25.47,3.74,48.31,5.5C628.55,98.1,630.42,97.32,650.47,97.2Z"/><path class="cls-7" d="M754.65,101.58c106.72-2.17,296.29,2.27,274.93-4.43-2.5-2.36-42.67-4.48-17.57-7.62,26.33,2.51,133.06.34,113-.72-70.28-3.71-45.19-6.84,13.82-9.3,3.77-.91,65.27-1,92.88-1.78,42.7,4.48,124.28,5.45,194.58,9.16,33.89.67-38.89,3.51-8.78,5.1,58.87,3.11,160.8,3.89,247.24,2.86A114.45,114.45,0,0,0,1682.4,87a5.35,5.35,0,0,0-1.44-.74c-49.33-1.15-90.91-3-122.86-4.7-54-1.74-79.09,1.39-130.58,2,21.36-2.22,70.32-5.2-11.3-6.17s-111.69-2.55-169.46-3.37c-125.54-2.17-328.9,2.7-194.58,8.67-41.41,1.16-77.85-1.88-109.23-.19,33.91.67-7.54,1.83,12.58,2.89-20.12-1.06-61.53.1-85.38,0,10.05.53-7.54,1.83,16.31,2-92.89,1.78-114.22,4-54,7.18-79.12,1.39-86.63,3.23-182,2.65-20.05.12-21.92.9-22,1.78,18,1.39,39.48,2.75,63.52,4.07C705.62,102.44,725.76,101.93,754.65,101.58Z"/><path class="cls-8" d="M494.8,84.52C482.22,81.63,615.31,82,680.57,81c-40.17-2.12,89.14-.87,49-3,20.08,1.06,33.87.67,57.73.82-32.64-4,70.31-5.2,119.26-8.19,13.82-.38,43.94,1.2,54,1.74-30.15-1.6-22.61-3.43-5-4.73,59-2.45,114.21-4,193.3-5.39,130.57-2,297.53-1,346.52,4.91,79-1.4,77.77-7,169.44-5.54,26.61.28,51.41.82,75.61,1.45,40.86-3.81-17.06-9-41.37-13.13-34.43-.14-62.39,0-74.42.65-118,4.91-277.43,2.07-415.49,5.92-27.66.77-49,3-62.81,3.38-92.89,1.78-194.58-.25-287.47,1.54-23.89-.15,12.55,2.89-25.13,3.13-65.24,1-160.65.43-182,2.65C582.37,73.24,433.5,75.1,297.54,77.64,357.48,80.71,436.8,83.41,497,86.51,500.72,86,501.57,85.34,494.8,84.52Z"/><path class="cls-9" d="M2091.5,19.72c-11.14-1.28-16.36-2.47-17.8-3.6-80.17,5.26-200.91,7.75-347.41,9.72-51.48.62,0,8.91-126.8,10-47.69-.29-77.83-1.88-94.16-3.85-153.1,7.51-409.21,7.37-554.85,13.05S577.63,55.47,355.45,56c-96.18.15-147.84,4-218.62,7.16,25.13,1.25,50.62,2.5,73.54,3.73,56.71-1.77,113-3.26,176.47-3.66C599,62.17,743.34,59.76,855.07,53.4c45.21-2.07,222.21-.53,263.62-1.69,189.57-4.48,357.79-6.74,553.64-9.78,48.8-.59,108.67-1.86,168.76-3.42,7.14-2.71,0-5.43,27-8.15C1847.27,22.45,2125,24.86,2091.5,19.72Z"/><path class="cls-10" d="M651.71,67.18c21.35-2.22,116.76-1.64,182-2.65,37.68-.24,1.24-3.28,25.13-3.13,92.89-1.79,194.58.24,287.47-1.54,13.82-.39,35.15-2.61,62.81-3.38,138.06-3.85,297.49-1,415.49-5.92,12-.65,40-.79,74.42-.65l-.27,0c68.3.65,68.3-2,68.3-2.62,0-3.28,34.18-4.59,68.31-7.21a33.17,33.17,0,0,0,5.72-1.53c-60.09,1.56-120,2.83-168.76,3.42-195.85,3-364.07,5.3-553.64,9.78-41.41,1.16-218.41-.38-263.62,1.69C743.34,59.76,599,62.17,386.84,63.23c-63.43.4-119.76,1.89-176.47,3.66,19.39,1,37,2.07,50.92,3.08,20.08,1.06-35.15,2.61-35.15,2.61,15.3,1.85,40.87,3.5,71.4,5.06C433.5,75.1,582.37,73.24,651.71,67.18Z"/><path class="cls-11" d="M2083.56,12.21c-10.12-.69-20.42-1.5-23.34-2.18-16.31-2,31.38-1.68,35.15-2.6l-13.79.39c1.53-.21,2.53-.41,3.86-.62-54.23.9-111.1,1.48-173.37,1.41-1.8,1.18-11.66,2.19-40.15,2.63-195.85,3-421.8,4.48-531,13.2-39,3.52-266.15-.67-360.29,4.39-31.38,1.68-32.66,5-108,5.44-99.15.34-210.86-2.22-273.67,1.16C463.06,43.91,250.77,50.64,6.14,51.66-22.71,55.06,55,59.1,136.83,63.16c70.78-3.15,122.44-7,218.62-7.16,222.18-.53,449.4-5.25,595-10.94S1352.23,39.52,1505.33,32c16.33,2,46.47,3.56,94.16,3.85,126.8-1.11,75.32-9.4,126.8-10,146.5-2,267.24-4.46,347.41-9.72C2072,14.75,2076.12,13.47,2083.56,12.21Z"/><path class="cls-3" d="M599,35.43c62.81-3.38,174.52-.82,273.67-1.16,75.32-.48,76.6-3.76,108-5.44,94.14-5.06,321.33-.87,360.29-4.39,109.22-8.72,335.17-10.17,531-13.2,28.49-.44,38.35-1.45,40.15-2.63-24.63,0-50-.15-76.56-.41-47.72-.29-110.46,3.09-165.71,4.63-92.41.9-159.81-1.08-224.34-3.05l-40.55-.9,7.19-.11c-8.81-.26-17.6-.51-26.5-.75C1364,8.69,1342,9.34,1319,9.93c-.2.23-2.11.47-6.92.73l-7-.38c-33.7.82-69.66,1.53-109.73,2-38.6.37-70,1-97.22,1.7,1.51.32,2,.64.54,1a80.65,80.65,0,0,0-10.53-.72c-91.67,2.66-135.93,6.84-255.62,9-116.73,1.63-198.35,9.59-389.16,8.43,20.13,1.06-35.15,2.6-15,3.66-37.4-.23-73.9-.25-110-.14-34.51,1.1-62.79,2.43-95.92,2.65-35.39-.22-14.18-1.12-9-2l-26.84.25-8.78.31c2.65.53,9.91,1.07,20.71,1.55,27.23.54,53.84,1.15,77.89,1.63-32.09-.19-59.79-.84-77.89-1.63-14.11-.29-28.4-.55-42.58-.77-31.2,1.15-59.94,2.38-84.18,3.73,3.88.27,7.89.54,12.58.79L70.12,41c-3.29.18-6.6.37-9.7.56l100.42,5.3c-93,1.35-139.2,3-154.7,4.81C250.77,50.64,463.06,43.91,599,35.43Z"/></g></g></g></g></svg>