<svg xmlns="http://www.w3.org/2000/svg" viewBox="0 0 565.93 344.17"><defs><style>.cls-1,.cls-3{opacity:0.9;}.cls-2{fill:#ddeafc;}.cls-3{fill:#a0c4f7;}.cls-4{fill:#b5d1f9;}.cls-5{fill:#cbdffb;}.cls-6{fill:#ecf3fd;}.cls-7{fill:none;stroke:#c6dbfa;stroke-width:0;}.cls-8{fill:#f9fbff;}</style></defs><g id="圖層_2" data-name="圖層 2"><g id="圖層_1-2" data-name="圖層 1"><g class="cls-1"><g class="cls-1"><path class="cls-2" d="M393.09,262.3c-2-2.82-13.13-3-24.36-2.52-11.25.29-22.65,1.22-25.33.77a65.36,65.36,0,0,0-11.46.26c-4.56.39-9.76,1.18-15.35,2s-11.56,1.85-17.62,3-12.26,2.17-18.26,3.31c-3,.56-5.95,1.15-8.83,1.66l-8.37,1.5c-5.37.95-10.29,1.84-14.45,2.53-8.35,1.28-13.71,1.91-13.79,1.22.34-2-4.67-7.39-10.75-12.35s-13.24-9.65-17.47-9.91a144.34,144.34,0,0,0-15.4-.26c-2.53.1-5.05.28-7.54.53-1.25.13-2.49.27-3.73.43l-1.85.25-.92.14-.46.07-.22,0h-.1c0-.87,0,1.19,0,1v.3c0,1.58,0,3.07,0,5s-.1,3.73-.26,5.66a101.36,101.36,0,0,1-1.37,11.42c-.39,1.86-.67,3.46-1.15,5.12-.24.83-.38,1.51-.63,2.26l-.72,2.1a15.81,15.81,0,0,1-.77,1.88,16.6,16.6,0,0,1-.72,1.59c-.13.25-.28.51-.43.75a5.07,5.07,0,0,1-.32.61c-.11.2-.24.39-.37.59s-.32.41-.38.53a6.6,6.6,0,0,1-1.77,1.86l.43-.17a1,1,0,0,1,.23-.06l.1,0h0l-.69.17h.07l.13,0,.26,0a16.86,16.86,0,0,1,5.3.51l1.19.27,1.26.34c.52.14,1,.28,1.54.44l1.7.53c.64.2,1.27.42,1.9.65l2.35.83,2.58,1q1.65.63,3.27,1.29l4,1.63q2.29,1,4.52,1.93l3,1.32.23.1,0,0h0l0,0-.11-.07c0-.11-.08-.22-.11-.33s0-.31,0-.51c.35-1.46.63-2.75.87-3.91.45-2.31.8-4.11,1.11-5.66a21.61,21.61,0,0,1,2.83-7.83c.59-1.15-.11-3.87-.59-8.17a57,57,0,0,1,.68-17.62c1.12-5.18,3.46-11,5.68-16.66s4.29-11.15,4.62-15.15c.25-1.31.61-2.86,1.08-4.63q.38-1.32.78-2.82l.44-1.52-.64-1.2c-14-4.45-32.12-10.92-47.66-17l-5.69-2.32-2.77-1.13-2.65-1.16-5.09-2.23-2.43-1.06c-.81-.36-1.53-.69-2.37-1.09l-11.66-5c-13.29-5.55-22.94-10.58-31.31-16A136.5,136.5,0,0,1,83,153.62c-.8-.87-1.59-1.73-2.37-2.54l.54,18.16c12.94-9.66,21.44-20.63,33.37-32.35l2.4-2.52c.77-.8,1.78-1.89,2.64-2.86,1.78-2,3.52-3.89,5.16-5.81s3.27-3.81,4.82-5.7,3.09-3.75,4.59-5.64l2.26-2.82,2.18-2.88c.71-1,1.48-1.92,2.17-2.9l2.08-3c1.46-2,2.71-4,4.09-6.13s2.69-4.24,3.93-6.56a36,36,0,0,0,3.25-6.81,22.54,22.54,0,0,0,1.29-7.43A20.91,20.91,0,0,0,154,68.54a29.5,29.5,0,0,0-3.39-6.35,54.35,54.35,0,0,0-4.51-5.64l-2.59-2.74c-.91-.9-1.71-1.84-2.72-2.74-2-1.79-3.84-3.66-6.08-5.42L131.4,43l-3.51-2.64a42.34,42.34,0,0,0-7.83-4.24c-2.34-.83-7-4.45-9.74-6l-5.47-4.36-.67-.54-.55-.47-1.09-.93L100.37,22l-4.3-3.69c-1.43-1.22-2.86-2.43-4.32-3.61A93.62,93.62,0,0,0,73,2.24C69.17.34,62.82-1,63.2,1c1.86,10.36,9.13,21.33,17.47,32.89a67.57,67.57,0,0,0,6.84,7.78c1.25,1.24,2.63,2.51,3.92,3.69,1.14,1.08,2.33,2.15,3.52,3.21,4.77,4.21,9.92,8.31,14.61,12.7a35.25,35.25,0,0,1,4.19,4.52,18.51,18.51,0,0,1,2.66,4.44,9.63,9.63,0,0,1,.68,4.62,10.27,10.27,0,0,1-1.93,4.79c-2.25,3.16-6.24,5.59-10.17,7.2A52.69,52.69,0,0,1,93.38,90,76,76,0,0,1,77,90.15c-2.35-.22-4.32-.51-5.7-.68s-2.18-.26-2.39.17a2.25,2.25,0,0,0-.06.4l0,.1a1.65,1.65,0,0,1-.09.21l-.92,1.23-3.69,5.09c-2.44,3.4-4.83,6.8-7.29,10.13a116.22,116.22,0,0,1-16.56,18.72L0,160.82l42.39,36.35c3.36,2.89,6.61,6.06,9.86,9.41C64.57,220,74.9,230.67,89.76,241.92a151.94,151.94,0,0,0,13,10.52l7,3.91,1.77,1,.77.44-.2-.12s0,0,0,0,0,.06.16,0c.35-.19,1.31-.92,6.14-2.54a9.53,9.53,0,0,1,1.58,0,1.56,1.56,0,0,1,.25,0v.21a3.2,3.2,0,0,1-.07.41,5,5,0,0,1-.24.84,11.74,11.74,0,0,0-.5,1.61c-.21,1.07.14,1.94,1.75,3.7a16.66,16.66,0,0,1,3.29,5.15c.22.53.43,1.08.62,1.66l.28.88.06.23s0,.17,0,.27l-.08.34c0,.22-.1.47-.17.75L125,272l-1.11,4.25c-.42,1.67-.89,3.66-1.3,5.94a60.33,60.33,0,0,0-.92,8.08,50.4,50.4,0,0,0,.59,10.29,46.62,46.62,0,0,0,1.26,5.62,52.53,52.53,0,0,0,2,5.35,41.7,41.7,0,0,0,2.64,5.2c.5.84,1,1.68,1.56,2.49s1.13,1.57,1.73,2.33a44.54,44.54,0,0,0,15.51,12.59,49,49,0,0,0,12.79,4.13c.88.14,1.77.28,2.66.4s1.63.17,2.45.25,1.57.1,2.33.14,1.53.06,2.22.05a73.53,73.53,0,0,0,8-.39,23.9,23.9,0,0,0,2.72-.39l2.26-.38q4.55-.72,9.24-1.2c3.57-.4,7.06-.73,10.52-1s6.86-.53,10.26-.68,6.78-.24,10.17-.24,6.81.06,10.25.14c4.85,0,22.6,6,28,7.84,5,1.72,11.2,1.62,17.28.62a84.34,84.34,0,0,0,16.85-5c7.44-3.58,15-6.84,22.92-9.75,4-1.47,8.08-2.79,12.31-4.17s8.61-2.68,13.19-3.94a51.24,51.24,0,0,1,9.82-.54,77.76,77.76,0,0,0,10.41-.41,119.79,119.79,0,0,0,12-3c3.76-1.16,7.31-2.48,10.78-3.8,6.95-2.68,13.59-5.4,20.94-7.8,6.95-1.62,12.9-3.05,18-4.37s9.31-2.59,12.83-3.65A114.34,114.34,0,0,0,452,292.18c5.13-2.33,3.68-2.84,4.87-2.79,5.6-1.14,8.64,2.5,15.83,2a63.34,63.34,0,0,0,24.13-9.15c16.88-10.38,37.36-21.73,61-23.89-1.58-.52-2.4-1.58-4-1.29-4.14.37-8.18.66-12.16.9s-7.92.31-11.81.41l-23,.56c-7.61.21-15.22.68-23.08,1.39a229.09,229.09,0,0,0-24.4,3.78,82.4,82.4,0,0,1-11.13,3.86c-3.55.69-6.92,1.37-10.2,2.1s-6.46,1.5-9.64,2.27a32.49,32.49,0,0,1-9.73,0,68.31,68.31,0,0,1-10.82-2.42C400.88,267.75,394.86,264.75,393.09,262.3Z"/><path class="cls-3" d="M110,61.41c-4.7-4.41-9.87-8.53-14.65-12.75-1.2-1.06-2.38-2.14-3.53-3.22l-1.92-1.8q-1-.91-2-1.86A67.66,67.66,0,0,1,81.14,34C72.81,22.41,65.54,11.44,63.7,1.09c-.4-2.08,6-.68,9.79,1.23A93.73,93.73,0,0,1,92.24,14.77c2.89,2.37,5.74,4.83,8.61,7.31L103,23.93l1.09.93.28.24.34.28.68.55c1.84,1.46,3.63,2.93,5.47,4.37,1.37.76,3.24,2.05,5,3.26a28.63,28.63,0,0,0,4.72,2.73,42.68,42.68,0,0,1,7.84,4.27,127.78,127.78,0,0,1,12.88,10.79q2.74,2.76,5.26,5.51a50.9,50.9,0,0,1,4.46,5.69A28.89,28.89,0,0,1,154.37,69a20.61,20.61,0,0,1,1.19,7.39,22.46,22.46,0,0,1-1.43,7.4,37.3,37.3,0,0,1-3.33,6.77A186.33,186.33,0,0,1,134,114.85c-3,3.77-6.12,7.52-9.44,11.35s-7.15,8-10.17,11.14c-11.83,11.6-20.29,22.48-33,32.06l-.55-18.49c.88.91,1.78,1.87,2.68,2.86a136.41,136.41,0,0,0,23.36,19.41c8.38,5.45,18,10.46,31.31,16,1.45.59,3.17,1.33,5.09,2.18l3.07,1.29,1.63.7.85.36.42.18.61.29c3,1.4,6.33,2.78,9.79,4.32,1.72.78,3.53,1.52,5.39,2.27l5.65,2.31c15.44,6.08,33.4,12.52,47.49,17a8,8,0,0,1,.62,1.29l-.47,1.61q-.45,1.58-.84,3c-.5,1.86-.88,3.49-1.15,4.85-.34,4-2.42,9.54-4.64,15.2s-4.57,11.5-5.7,16.68l-1.28,1.42-3.77,4.23-14.21,16.13q4.67-16.8,8.27-31.39,1.8-7.29,3.35-14l1.48-6.6.69-3.19.33-1.57,0-.2c0-.07-.1-.08-.14-.12l-.39-.22-.78-.43c-19.37-5.21-36.4-9.86-50.71-14.23l-5.28-1.6c-1.76-.52-3.35-1-5.13-1.58l-5.22-1.69-5.21-1.77c-3.49-1.17-6.92-2.47-10.41-3.71s-6.91-2.61-10.35-4c-7.06-4.62-14-9.47-20.79-14.43s-13.46-10.17-20-15.48L57.43,161,65.9,153q12.33-11.76,23.92-24.25,2.9-3.13,5.74-6.29l2.83-3.18,2.55-2.89c3.1-3.56,6.11-7.17,9.08-10.8s5.86-7.31,8.7-11c1.41-1.85,2.85-3.68,4.11-5.64a20.5,20.5,0,0,0,2.9-6.3,10.7,10.7,0,0,0-.52-6.86,17.27,17.27,0,0,0-4.15-5.62,64.46,64.46,0,0,0-5.44-4.46C113.77,64.2,111.89,62.81,110,61.41Z"/><path class="cls-4" d="M197.64,263.36s-1.2,4.71-3.39,12c-1.1,3.66-2.45,8-4,12.66-.77,2.33-1.6,4.75-2.47,7.21l-.66,1.85-.33.93-.17.46-.08.27c-.19.69-.24,1.1-.16,1.19v0h0l-.35-.13-.59-.23c-.67-.26-1.34-.52-2-.76l-2-.69-1.56-.54-1.52-.48c-.42-.14-.83-.27-1.25-.39l-1.21-.33c-.34-.1-.68-.18-1-.27a23.79,23.79,0,0,0-5.41-.81,7.34,7.34,0,0,0-1.15.07l-.25,0H168l.68-.17h-.08l-.16,0a1.66,1.66,0,0,0-.35.13l-.09,0h0l-.07,0,.17-.1a12.56,12.56,0,0,0,3.13-4.3,9.12,9.12,0,0,0,.45-.95l.2-.48.25-.56A17.39,17.39,0,0,0,173,287a46,46,0,0,0,1.45-4.93c.1-.42.19-.83.27-1.24s.16-.81.26-1.25l.26-1.26v-.07h0v.1c0,.16.08.32.11.53.15.4.34.9.53,1.47a8.8,8.8,0,0,1,.06,4.68l-.3.43c-.21.27-.5.68-.89,1.2-.76,1-1.88,2.42-3,4-.11.19-.25.4-.4.61s-.23.41-.39.63a3,3,0,0,0-.21.33,1.63,1.63,0,0,1-.15.28l-.22.37a8.06,8.06,0,0,1-.51.73,4.7,4.7,0,0,1-.37.54,5.53,5.53,0,0,1-.46.52c-.14.15-.19.23-.31.35a2.91,2.91,0,0,1-.36.32l-.16.14-.2.13.07,0,.07,0c.11,0,0,0-.08,0l-.21,0a2.43,2.43,0,0,1-1.83-.24,4.25,4.25,0,0,1-1.57-1.81,18.88,18.88,0,0,1-1.44-6.46c-.48-4.88-1.07-9.53-1.68-13.79l-1.75-11.58c-1-7-1.44-12.15.8-17.43l.39-.89.58-1.32.42-.93.12-.27c0-.06-.17-.09-.25-.13l-.6-.26c-1.52-.57-4.93-1.9-8.66-3.44s-7.8-3.25-10.82-4.45a23.45,23.45,0,0,0-1.57-1.91,53.26,53.26,0,0,0-5.21-4.88c-.6-.5-1.24-1-1.92-1.53l-.51-.39-.21-.17c-.05-.05-.25-.18-.37-.27L130,222.28c-1.16-.78-2.37-1.57-3.61-2.36s-2.52-1.62-3.84-2.43c-2.66-1.6-5.45-3.24-8.37-4.85s-6-3.17-9.19-4.64c0,0-1.5-.78-4.09-2.24s-6.32-3.54-10.75-6.19c-8.88-5.26-20.62-12.76-32.19-21.18L37.85,163.74l19.06-20.4c9.27-9.93,18.44-20.36,25.74-28.51,1.83-2,3.55-3.93,5.13-5.63l1.07-1.14.7-.7c.44-.44.86-.84,1.27-1.2,1.63-1.45,3-2.35,4-2.42l11-10.33c3-2.93,6.84-6.12,9-9.87a14,14,0,0,0,1.84-5.36c.2-1.61.1-2.89.19-3.85a8.55,8.55,0,0,0,.82-2.19,10.88,10.88,0,0,0-.17-5.51,21.88,21.88,0,0,0-4-7.66,33.68,33.68,0,0,0-9.09-7.9l-5.25-5.9-2.56-2.83-2.9-3.14c-2.08-2.2-4.19-4.49-6.13-6.61-3.86-4.29-7-8.05-7.48-9.91s1.83-1.83,8.67,1.78l2.71,1.19c1.69.73,4,1.79,6.58,3l2,.93,1,.49,1.15.59c1.54.78,3.09,1.59,4.6,2.42,3,1.63,6,3.31,8.26,4.72l1.35,1,3.77,2.92c1.62,1.26,3.54,2.82,5.75,4.59s4.62,3.83,7.06,6.15c1.26,1.14,2.56,2.33,3.8,3.59s2.61,2.53,3.88,3.88a36.38,36.38,0,0,1,6.87,9.45,17.85,17.85,0,0,1,.92,12.74A39.47,39.47,0,0,1,142.17,94c-1.34,1.83-2.75,3.66-4.12,5.47s-2.9,3.61-4.37,5.38-3,3.51-4.53,5.2-3,3.37-4.54,5c-3,3.25-6,6.34-8.79,9.22-1.43,1.43-2.81,2.85-4.16,4.17l-3.7,3.56C98.37,141,91,147,89.08,147.67L73.3,160.86l0-1C79,165.18,86.13,171.49,94.58,178a286,286,0,0,0,28.61,19.51,250.4,250.4,0,0,0,33.71,16.8,307.13,307.13,0,0,0,40.73,13.06l1.31.62c.16,0,.07.15.07.25l0,.29-.09.59c-.13.79-.25,1.57-.37,2.35-.23,1.56-.43,3.12-.61,4.67-.36,3.11-.63,6.21-.78,9.27A106.31,106.31,0,0,0,197.64,263.36Z"/><path class="cls-5" d="M201.19,266.2s-.28,3.25-1.3,8.91a210.64,210.64,0,0,1-5.65,23.31l-.54,1.79-.28.9-.14.46a1,1,0,0,0-.06.27,2.82,2.82,0,0,0-.06.7.87.87,0,0,0,.05.19l0,0h0l-.09,0-.46-.19-1.76-.71c-1.64-.7-3.31-1.36-5-2l-1.91-.74-1.86-.67-1.55-.54-1.45-.48-1.28-.4c-.39-.12-.78-.24-1.17-.34a32,32,0,0,0-6.24-1.26,9.07,9.07,0,0,0-2.38,0l0,0h0l.68-.17h0l-.16,0a2.79,2.79,0,0,0-.35.11l-.15.07h0l-.06,0,.12-.07a1.14,1.14,0,0,0,.16-.14,3.59,3.59,0,0,0,.68-.67,7.33,7.33,0,0,0,1-1.22c.2-.28.39-.56.56-.85l.24-.43.11-.22.16-.27a44.1,44.1,0,0,0,3.85-11.54c.29-1.23.51-2.45.68-3.67s.42-2.55.55-3.81c0-.63.13-1.27.21-1.92l.05-.48v-.06h0v.06c0,.09,0,.17.09.27a.84.84,0,0,0,.19.3,2.19,2.19,0,0,0,.29.34l.17.18.08.09a1.37,1.37,0,0,0,.25.09l1.13.38a27.82,27.82,0,0,1,4.31,1.94s4,.83,9.74,2.24c2.87.7,6.17,1.56,9.63,2.5s7.05,1.93,10.51,3c13.84,4.48,25.56,9.94,16.27,15.36,0,0-1.14.67-3.26,1.82s-5.24,2.77-9.2,4.75-8.78,4.3-14.3,6.81-11.76,5.05-18.55,7.7l-5.2,2-.34.12-.43.12-.88.23c-.58.17-1.2.29-1.8.44-1.24.26-2.52.5-3.89.66a33.85,33.85,0,0,1-9.51-.1q-.68-.09-1.44-.27l-1.49-.35a33.08,33.08,0,0,1-3.2-1.05,33.67,33.67,0,0,1-3.5-1.68c-.61-.37-1.23-.76-1.83-1.16l-.9-.62-.93-.75c-.61-.5-1.22-1-1.8-1.59s-1.17-1.22-1.73-1.86a26.37,26.37,0,0,1-3-4.28q-.35-.58-.66-1.17l-.55-1.17c-.36-.78-.7-1.59-1-2.41a26.09,26.09,0,0,1-.8-2.55c-.22-.87-.39-1.72-.55-2.6a35.35,35.35,0,0,1-.3-9.29,54.55,54.55,0,0,1,1.13-6.82c.38-1.55.75-3.1,1.12-4.66l.1-.46a.88.88,0,0,0,0-.27l0-.5,0-1,.12-3.81c.16-4.91.29-9.14.68-12.92a40.43,40.43,0,0,1,2.33-10.56,1.61,1.61,0,0,0,.1-.3,1.53,1.53,0,0,0,.07-.36l-.73-.16a31.07,31.07,0,0,0-4.43-.3,44.67,44.67,0,0,0-8,.64s-1-.08-2.46-.26a27.14,27.14,0,0,1-4.67-1,10.6,10.6,0,0,1-2.17-1,6.5,6.5,0,0,1-1-.68c-.06,0,0,0,0,0s.08,0-.16-.13l-1-.65-1.92-1.31a58.89,58.89,0,0,1-6.84-5.58,31.52,31.52,0,0,1-5-5.9L85.72,211.69l-8.2-8c-2.8-2.68-5.57-5.41-8.32-7.95s-5.39-5-8-7.14A73.77,73.77,0,0,0,54.12,183l-25-16.69L52.8,139l.11-.13s1-.36,2.54-1.06a61.37,61.37,0,0,0,6-3.11c4.62-2.72,9.92-6.76,12.57-11.64l-1.2,1.58c-.77,1-1.91,2.51-3.37,4.36-2.91,3.72-7.09,8.91-12.17,14.79L39,164.93l19.35,13c7.35,4.95,15.86,10.49,24.66,15.94s17.9,10.87,26.33,15.76,16.17,9.38,22.22,13.11c.9.56,1.09.71,1.61,1.07l1.31.91a27.41,27.41,0,0,1,2.15,1.71,6.87,6.87,0,0,1,2.19,2.89s.44.44,1.3,1.16a36.28,36.28,0,0,0,3.88,2.83,51.68,51.68,0,0,0,6.63,3.56,77.57,77.57,0,0,0,10.22,3.64l.62.18c.17.08.54.07.39.28l-.21,1c-.14.64-.27,1.3-.38,2-.24,1.34-.43,2.74-.58,4.2a88.31,88.31,0,0,0-.37,9.72c.08,7.25.85,16.19,1.85,29a14.19,14.19,0,0,0,2.41,3,15.91,15.91,0,0,0,7,3.81C176.85,296.4,186.41,291.77,201.19,266.2Z"/><path class="cls-6" d="M169.22,295.37a4,4,0,0,0-.61,0,2.18,2.18,0,0,0-.39.05l-.1,0H168l.69-.17h0l-.34.09-.36.14,0,0,.08,0,.18-.14s.19-.15.32-.27a4,4,0,0,0,.35-.37c.12-.14.36-.38.51-.58s.28-.4.47-.66a9.92,9.92,0,0,0,.6-.89c.19-.33.28-.57.54-1a10.08,10.08,0,0,0,.6-1.18c.09-.2.17-.4.25-.6l.32-.7a61.25,61.25,0,0,0,3.65-14.68c.21-1.46.34-2.91.51-4.43s.23-3,.34-4.47c.05-.74.08-1.48.09-2.23l.08-2.1,0-2.09c0-.61,0-1.22,0-1.83l0-1c0-2.64-.08-5.29-.12-8l.2,0,.83-.16c.57-.1,1.17-.19,1.78-.26,1.23-.14,2.54-.24,3.87-.32,2.65-.17,5.4-.29,7.79-.62a43.27,43.27,0,0,1,9.47.28c3,.35,5.85.89,8.1,1.33a117.69,117.69,0,0,0,17.34,3.32c6.26.75,12.85,1.3,19.37,1.91s13,1.13,18.93,2.06c3,.45,5.85,1,8.54,1.63a55.78,55.78,0,0,1,7.54,2.24,29.47,29.47,0,0,0,8.43,1c.84-.42,4.06-1.31,4.89-1.73,9.48-1.13,18.84-1.56,27.57-3.14a77.49,77.49,0,0,1,21.48-1.52A185.27,185.27,0,0,1,364,256.7a121.18,121.18,0,0,0,12.45,1c4.36.18,8.82.3,13.09.54,7.36.37,11.66,2.77,15.9,5.13s8.41,4.56,15.48,4.2c11.36-.33,21.71-2.82,32-5.73,5.14-1.44,10.28-2.85,15.54-4.09a110.4,110.4,0,0,1,16.33-2.82c6.67-.32,12.91-1,19.09-1.38s12.25-.66,18.52-.56c4.7.4,9.61.46,14.62.44s10.11-.2,15.23-.13c2.36,0,8.72,2,8.73,2.83-.76,1.36-6.28,2-9.4,3.41-8.64,3.7-14.23.18-20.52-.35a53.43,53.43,0,0,0-12.79,1.61c-4.53,1-9.27,2.09-14,2.85a48.92,48.92,0,0,1-11-.68c-5.49-1.2-12.61,1.83-19.74,4.08-4.37,1.67-9.11,2.05-13.94,2.33s-9.74.41-14.49,1.43c-6.34,1.15-12,3.39-17.39,5.33a68.35,68.35,0,0,1-8,2.46,31.54,31.54,0,0,1-8.11.78c4.71.32-5.06,2-14.81,3.3s-19.5,1.88-14.66.66c-.83.48-3.87-.86-4.56-2,.08-.8-.61-2,.21-2.42,6.61-3.79,5.41-8.49,7.31-12.66-.38-.17-6.88.48-14.53.94s-16.47.48-21.44-.56c-7.61-1.88-14.38-4.36-23.77-3.81-2.38.53-3.4,2.62-5.81,3.11-2.77.28-20.33,6.13-38.39,11.32s-36.56,10-40.46,9.56c-4.63-.8-10.55-3.2-9.41-5.2.95-5.59-7.37-7.58-10.52-12.06-.57-1.21,1.27-2.78.71-4-2.58-3.23-7.4-6.9-12.77-7.38-2.26-.44-4.64-.77-7.06-1s-4.87-.44-7.3-.51a71.84,71.84,0,0,0-13.64.8l-3.24.05h-.49v1.32l0,2.33-.09,2.43A92.91,92.91,0,0,1,174,283.47c-.22.75-.34,1.37-.57,2.06-.1.33-.21.67-.33,1l-.19.5-.14.44c-.36,1.15-1,2.4-1.34,3.28a16.43,16.43,0,0,1-2.63,4,3.18,3.18,0,0,1-.45.45l-.13.1,0,0-.1.09c-.28.18-.07,0-.07.06l.17-.07a1,1,0,0,1,.22-.08l.21-.05h.07l-.69.17h.09l.13,0,.26,0,.32,0Z"/><path class="cls-7" d="M62.52,99.05A84.46,84.46,0,0,1,57,107.44a112.64,112.64,0,0,1-16.76,18L.27,159.83l42.07,37.4a231,231,0,0,1,23.54,24s1.42,1.4,3.66,3.53,5.33,5,8.67,7.89c6.61,5.87,14.27,11.87,17.38,13.44,2.61,2.34,5.29,4.6,8,6.89,0,0,2.62,1.69,6.79,4.09l1.62,1,.21.12.06,0h0l0,0L112,258l0,0,0,0a1.83,1.83,0,0,1,.19-.18,6.6,6.6,0,0,1,1.57-.87c.93-.41,2.41-.93,4.46-1.69,0,0,.76-.07,1.71-.06h.26c.07,0,0,.09.07.14s0,.23,0,.35a2.72,2.72,0,0,1,0,.75,1.68,1.68,0,0,1-.87,1.22,1.45,1.45,0,0,0-.21.5,2.17,2.17,0,0,0,.23,1.33,14.14,14.14,0,0,0,1.65,2.44c.86,1.13,2,2.62,3.58,4.91"/><path class="cls-8" d="M334.31,250.79c7.19.31,41.6,1.71,51.31,3.73l22.5,4.34,11.21,2.23,11.42,2.21a9.4,9.4,0,0,0,4.74-.81,33,33,0,0,1,6.87-2.74c2.41-.72,4.9-1.26,7.39-1.75,5-1,10-1.76,14.17-3.38,3.68-1.28,6.84-3.39,11-4,5.47-.8,10.88-1.34,16.21-1.78s10.6-.74,15.8-.86c2.61-.06,5.2-.07,7.77-.06s5.12,0,7.66.05q7.62.16,15.08.71c8.37.64,15.73,2.47,24.18,3.6,1.58.51,4.23.83,4.25,1.9.55.71-3.14,1.14-5,1.89-2.36,0-4.48-.64-7.62-.59-5.8-.27-12.59,1.32-17.86.58-5.78-.35-10.49-1.42-16.76-1.41a99.84,99.84,0,0,0-12,1.14c-7.59.79-15,1.83-22.43,2.89-3.71.55-7.39,1.16-11.07,1.83q-2.76.5-5.52,1.05l-5.52,1.07c-5.37,3.9-14.76,3.57-21.61,4.64-2.11.24-4.19-.06-6.79,0-6.31.7-12.71,3.11-17.33,1.68-4.61-1.67-9.21-3.22-14-4.58s-9.77-2.53-15.15-3.57c-2.18-.41-6.07-.86-10.82-1.3l-16-1.37c-5.63-.45-11.26-.84-16.07-1.11s-8.8-.55-11.13-.56c-12.36-.28-24.14,2.8-36.08,3.05-.52,0,1.42-2,7.16-4.11S319.57,251.23,334.31,250.79Z"/></g></g></g></g></svg>