<svg xmlns="http://www.w3.org/2000/svg" viewBox="0 0 472.94 215.81"><defs><style>.cls-1{opacity:0.9;}.cls-2{fill:#fbd3c1;}.cls-3{fill:#fde4d9;}.cls-4{fill:#fdeae2;}.cls-5{fill:#fde7dd;}.cls-6{fill:#fcd9ca;}.cls-7{fill:#fcdbcd;}.cls-8{fill:#fac4ac;}.cls-9{fill:#facab5;}.cls-10{fill:#fbcebb;}.cls-11{fill:#fef3ef;}.cls-12{fill:#fef0eb;}</style></defs><g id="圖層_2" data-name="圖層 2"><g id="圖層_1-2" data-name="圖層 1"><g class="cls-1"><g class="cls-1"><path class="cls-2" d="M52.82,158.84a91.76,91.76,0,0,0-16.19-4.06l29.78-5.57C93.27,144.67,56.45,155.85,52.82,158.84Z"/><path class="cls-2" d="M61.59,164.16l-.53.11c-1.13-1.82-3.37-3.37-6.41-4.72.71,0,1.5-.08,2.67-.21C76.94,156.6,88.13,156.05,61.59,164.16Z"/><path class="cls-3" d="M407.07,128.86C291.25,149.1,194.64,165.63,96.65,183.34c-6.63.74-21.79,3.22-21.89,2.73-4.06.85-15.13-.47-14-2.54q71.41-13.59,167.38-32.42C239,148,249.62,144,271.64,139.32,355.09,122,407.26,113,456.6,104.81c-1.67.68-17.47,6.36-31.18,12S400.15,128,407.07,128.86Z"/><path class="cls-4" d="M394.08,142.07c-5.75,4-43.79,14.91-55.41,18.56-49.56,8.26-97.49,16.27-138.38,22.9-22,4.94-44,9.56-54.87,12.36l-23.91,3.83c-7.92-2.39-20.05-3.89-31.49-5.38,14.84-2.79,68.54-12.15,129.72-22.56S349.53,149.9,394.08,142.07Z"/><path class="cls-5" d="M385.45,135.12c6.42-.17,12.91-.44,19.37-.75-1.29,2.13-3.95,4.52-10.74,7.7C305,157.74,225.37,171.39,165.52,181.2a7,7,0,0,1-1.33.36l-3.54.79-10.77,2.28-10.76,2.28-3.55.79a8,8,0,0,0-1.33.35c-20.75,2.79-14.54.72-44.22,6.29-10.56-1.4-20.55-2.78-25.78-5.11,21.82-3.76,11-.78,11.15-.08,26.21-5.71,27.31-6.48,21.26-5.81,98-17.71,194.6-34.24,310.42-54.48a9.24,9.24,0,0,0-.44,1C393,132.87,379.29,135.81,385.45,135.12Z"/><path class="cls-6" d="M178.42,134.43c52.8-10,126.14-25.19,207.49-42.34-7.34,2.52-24.28,7.94-4.86,4.68-1.16,2.4-19.62,10.87,8.75,5.3,14.21-2.77-15.87,2.68-57.89,10.61s-96,18.4-129.63,25.15c-42.87,9.5-77.61,16.46-109,22.6,2.69-.94,29.38-6.76,33.4-8-3.8.87-34,7.2-34,7.2a14,14,0,0,0,1.15-3.85c42.75-10.55,8.66-4.09-.34-2-.19-.3-.27-.63-.43-.94l.48-.14,41.09-8.27C145.62,142.1,178.42,134.43,178.42,134.43Z"/><path class="cls-7" d="M271.64,139.32C355.09,122,407.26,113,456.6,104.81c4.45-1.77,15.27-6.23,16.34-6.69-18.85,4.24-38.91,8.89-47.15,10.13-11.25,1-22.55,1.82-22.76.88,5.74-2.47,31.14-9.31,43.9-13.47-7.25.43-14.86,1-23.47,1.78-.12,0-2.1.39-5.2,1l-12,2.41c-9.26,1.87-20.13,4.12-26.82,5.59-.16-.71,4.35-2.37,10.32-4.37-3.31.7-31,5.31-67.47,12s-81.65,15.36-120,23.79c-42.87,9.5-77.61,16.46-109,22.6-.47.17-4.49,3.95-6.92,5.86,7.91-1.82,25.7-6.33,28.54-7.14a6.34,6.34,0,0,1-1.09.38l-3,.87-9.38,2.69c-7.08,2-14.89,4.24-17.75,5.15-1.86,1.28-3.07,3.68-.57,3.32a3.87,3.87,0,0,0,1-.16l2.79-.6,9.91-2.28c8.21-1.9,19.14-4.44,30.11-6.85-29.38,7.57-48.91,12.93-59.95,16.44-.75.47-1.13.85-1.8,1.3L55,181.72l-2.89.62a4.73,4.73,0,0,1-1,.17c-2.47.34-4.34.56-5.77.68-1.57.9-8.83,4.77-10.41,5.71,6.37-2,16-4.64,28.14-7.87a11,11,0,0,0-2.15,2.41l.48,0q71.28-13.56,166.8-32.3C239,148,249.62,144,271.64,139.32Z"/><path class="cls-8" d="M46.86,124c41.05-12.71,39.65-14.59,92-30.58C187.3,78.84,239.93,63.66,294.63,48.08S406.11,16.5,462.74,0C421.33,19.89,400,33.45,390.16,43.85c-24.42,5.51-30.2,5.77-39.74,7.08s-22.83,3.7-62.2,13.59c-10.84,2.92-21.53,6.42-32.26,9.6-33.05,7.1-44.61,7.37-98.8,22.19-33.16,9.06-69,19.33-112,31.25a1.16,1.16,0,0,1-.36-.45C60.47,122.24,48.7,124.54,46.86,124Z"/><path class="cls-9" d="M9.36,144.76c-3.28-.43-6.42-.89-9.36-1.39l29.75-8.09c1.23,1.23,5.32,1.69,11.71,1.58Z"/><path class="cls-9" d="M256,74.12c10.73-3.18,21.42-6.68,32.26-9.6,39.37-9.89,52.67-12.27,62.2-13.59s15.32-1.57,39.74-7.08c-3.79,4-5.8,7.49-6.64,10.68l-26.77,5.41c.1.38-4.59,1.91-11.66,4s-16.53,4.79-26,7.46-18.93,5.35-26,7.44-11.76,3.59-11.67,4c-40.24,8.11-64.71,12-95,17.64s-66.3,13.15-129.57,28.72c-6.41.12-10.51-.36-11.74-1.61,43-11.92,78.87-22.19,112-31.25C211.35,81.49,222.91,81.22,256,74.12Z"/><path class="cls-10" d="M281.42,82.81c-.09-.36,4.6-1.86,11.67-4s16.54-4.76,26-7.44,18.92-5.35,26-7.46,11.76-3.64,11.66-4l26.77-5.41a13.73,13.73,0,0,0,1.18,10c-1.3.56-2.42,1.06-3.19,1.48-8.1,4.63-2.5,5.42-10.52,9.81-44,9.15-88,18.47-129.8,27.34C300.6,85.62,349.86,69.92,379.64,58.6c-10.56,4-65.09,17.58-75.85,20.94-29.78,8.73-75.73,21.38-121,33.37S93.12,136.24,66.29,142.54c-9.2-1.57-19.67-2.74-29.7-3.9l23.24-6.58L69,129.41l2.72-.81a4.78,4.78,0,0,0,1-.35c-6.22.54-11.48.85-15.84.92,63.27-15.57,99.31-23,129.57-28.72S241.18,90.92,281.42,82.81Z"/><path class="cls-2" d="M241.19,103.14C283,94.27,327,85,371,75.8a85.22,85.22,0,0,1-9.22,4.14c9.6-2.33,19.18-4.66,28.72-7.2.34.38.64.77,1,1.15-5.6,1.93-39.21,10.53,1.41,1.54l1.35,1.62c-12.44,3.66-29.35,8.24-52.82,14.17l32.81-7.81c22-4.58.29,1.23.43,1.84l22.05-5.17c-13,4.61-12.13,6.22-8,6.81s11.62.15,11.73.53c-5.51,1.71-10.45,3.29-14.52,4.67-81.35,17.15-154.69,32.36-207.49,42.34,0,0-32.8,7.67-43.79,10l-41.09,8.27c26.34-7.6,24.74-8.89,16.49-8.17-4.13.35-9.93,1.2-14.74,2l-8.83,1.45c-.5-.27-1.19-.5-1.74-.77,1.74-1.53,16.48-6.57,21.37-9.29s-.1-3.07-37.69,5.07c-.65-.15-1.4-.26-2.11-.39,26.83-6.3,71.33-17.64,116.55-29.63s91.17-24.64,121-33.37C314.56,76.22,376,58.4,379.64,58.6c-4.57,3.23-40.12,14.84-74.08,25.28S239.25,103.71,241.19,103.14Z"/><path class="cls-11" d="M266.32,185.19l-19,6.29c-.18-1,11.14-4.11-14.51-.19,8.42-1.94,8.39-2.48,8.29-3C251.82,186.81,260,185.83,266.32,185.19Z"/><path class="cls-11" d="M108.2,211.26l-.12-.74c22.14-3.94,44.35-7.36,33.38-4.89,22.1-3.91-.09-.51,11-2.47,29.45-5.22,30.65-5.13,27.13-4.14-24.79,4.38-49.54,8.66-68.11,11.8L89,214.55l-6.29,1a16.09,16.09,0,0,1-2.24.26c0-.16-.13-.31-.16-.46C90.35,213.83,95.93,213.29,108.2,211.26Z"/><path class="cls-12" d="M145.42,195.89c10.9-2.8,32.88-7.42,54.87-12.36,40.89-6.63,88.82-14.64,138.38-22.9-21.14,6.69-39.15,12.62-56.3,18.36-6.38.65-14.52,1.65-25.27,3.16.09.53.18,1.07-8.26,3-5,.77-11.12,1.78-19.19,3.15l-.66.12c3.57-1,2.34-1.13-27,4.13-11.12,2,11.12-1.43-11,2.52,11-2.52-11.24.92-33.33,4.89l.13.77c-12.32,2-17.89,2.58-28,4.09-.75-2.09-3.78-3.76-8.25-5.14Z"/></g></g></g></g></svg>